<svg xmlns="http://www.w3.org/2000/svg" width="1367" height="769" viewBox="0 0 1367 769">
  <g>
    <polygon points="1233.44 722.15 134.04 722.3 133.49 92.1 1233.49 91.94 1233.44 722.15" fill="#16221d"/>
    <g>
      <rect x="1305.35" y="117.08" width="22.19" height="30.09" rx="3.39" fill="#7c3b25" stroke="#16221d" stroke-miterlimit="10" stroke-width="1.5"/>
      <rect x="1279.04" y="115.1" width="34.05" height="34.05" rx="4.47" stroke-width="1.5" stroke="#16221d" stroke-linecap="round" stroke-linejoin="round" fill="#ba5c40"/>
      <rect x="1317.54" y="115.1" width="11.46" height="34.05" rx="2.59" transform="translate(2646.55 264.25) rotate(180)" stroke-width="1.5" stroke="#16221d" stroke-linecap="round" stroke-linejoin="round" fill="#ba5c40"/>
      <rect x="1284.01" y="108.79" width="24.11" height="7.84" rx="1.8" transform="translate(2592.13 225.41) rotate(180)" stroke-width="1.5" stroke="#16221d" stroke-linecap="round" stroke-linejoin="round" fill="#333"/>
      <rect x="1284.01" y="146.76" width="24.11" height="7.84" rx="1.8" transform="translate(2592.13 301.35) rotate(180)" stroke-width="1.5" stroke="#16221d" stroke-linecap="round" stroke-linejoin="round" fill="#333"/>
      <line x1="1284.01" y1="148.56" x2="1308.12" y2="148.56" fill="none" stroke="#16221d" stroke-miterlimit="10" stroke-width="1.5"/>
      <line x1="1284.01" y1="114.59" x2="1308.12" y2="114.59" fill="none" stroke="#16221d" stroke-miterlimit="10" stroke-width="1.5"/>
      <line x1="1325.56" y1="118.03" x2="1325.56" y2="144.88" fill="none" stroke="#16221d" stroke-miterlimit="10" stroke-width="1.5"/>
    </g>
    <g>
      <rect x="1305.35" y="171.45" width="22.19" height="30.09" rx="3.39" fill="#7c3b25" stroke="#16221d" stroke-miterlimit="10" stroke-width="1.5"/>
      <rect x="1279.04" y="169.47" width="34.05" height="34.05" rx="4.47" stroke-width="1.5" stroke="#16221d" stroke-linecap="round" stroke-linejoin="round" fill="#ba5c40"/>
      <rect x="1317.54" y="169.47" width="11.46" height="34.05" rx="2.59" transform="translate(2646.55 372.99) rotate(180)" stroke-width="1.5" stroke="#16221d" stroke-linecap="round" stroke-linejoin="round" fill="#ba5c40"/>
      <rect x="1284.01" y="163.15" width="24.11" height="7.84" rx="1.8" transform="translate(2592.13 334.15) rotate(180)" stroke-width="1.5" stroke="#16221d" stroke-linecap="round" stroke-linejoin="round" fill="#333"/>
      <rect x="1284.01" y="201.13" width="24.11" height="7.84" rx="1.8" transform="translate(2592.13 410.09) rotate(180)" stroke-width="1.5" stroke="#16221d" stroke-linecap="round" stroke-linejoin="round" fill="#333"/>
      <line x1="1284.01" y1="202.93" x2="1308.12" y2="202.93" fill="none" stroke="#16221d" stroke-miterlimit="10" stroke-width="1.5"/>
      <line x1="1284.01" y1="168.96" x2="1308.12" y2="168.96" fill="none" stroke="#16221d" stroke-miterlimit="10" stroke-width="1.5"/>
      <line x1="1325.56" y1="172.39" x2="1325.56" y2="199.25" fill="none" stroke="#16221d" stroke-miterlimit="10" stroke-width="1.5"/>
    </g>
    <g>
      <rect x="1305.35" y="225.82" width="22.19" height="30.09" rx="3.39" fill="#7c3b25" stroke="#16221d" stroke-miterlimit="10" stroke-width="1.5"/>
      <rect x="1279.04" y="223.83" width="34.05" height="34.05" rx="4.47" stroke-width="1.5" stroke="#16221d" stroke-linecap="round" stroke-linejoin="round" fill="#ba5c40"/>
      <rect x="1317.54" y="223.83" width="11.46" height="34.05" rx="2.59" transform="translate(2646.55 481.72) rotate(180)" stroke-width="1.5" stroke="#16221d" stroke-linecap="round" stroke-linejoin="round" fill="#ba5c40"/>
      <rect x="1284.01" y="217.52" width="24.11" height="7.84" rx="1.8" transform="translate(2592.13 442.88) rotate(180)" stroke-width="1.5" stroke="#16221d" stroke-linecap="round" stroke-linejoin="round" fill="#333"/>
      <rect x="1284.01" y="255.49" width="24.11" height="7.84" rx="1.8" transform="translate(2592.13 518.82) rotate(180)" stroke-width="1.5" stroke="#16221d" stroke-linecap="round" stroke-linejoin="round" fill="#333"/>
      <line x1="1284.01" y1="257.3" x2="1308.12" y2="257.3" fill="none" stroke="#16221d" stroke-miterlimit="10" stroke-width="1.5"/>
      <line x1="1284.01" y1="223.33" x2="1308.12" y2="223.33" fill="none" stroke="#16221d" stroke-miterlimit="10" stroke-width="1.5"/>
      <line x1="1325.56" y1="226.76" x2="1325.56" y2="253.61" fill="none" stroke="#16221d" stroke-miterlimit="10" stroke-width="1.5"/>
    </g>
    <g>
      <rect x="1305.35" y="280.18" width="22.19" height="30.09" rx="3.39" fill="#7c3b25" stroke="#16221d" stroke-miterlimit="10" stroke-width="1.5"/>
      <rect x="1279.04" y="278.2" width="34.05" height="34.05" rx="4.47" stroke-width="1.5" stroke="#16221d" stroke-linecap="round" stroke-linejoin="round" fill="#ba5c40"/>
      <rect x="1317.54" y="278.2" width="11.46" height="34.05" rx="2.59" transform="translate(2646.55 590.46) rotate(180)" stroke-width="1.5" stroke="#16221d" stroke-linecap="round" stroke-linejoin="round" fill="#ba5c40"/>
      <rect x="1284.01" y="271.89" width="24.11" height="7.84" rx="1.8" transform="translate(2592.13 551.62) rotate(180)" stroke-width="1.5" stroke="#16221d" stroke-linecap="round" stroke-linejoin="round" fill="#333"/>
      <rect x="1284.01" y="309.86" width="24.11" height="7.84" rx="1.8" transform="translate(2592.13 627.56) rotate(180)" stroke-width="1.5" stroke="#16221d" stroke-linecap="round" stroke-linejoin="round" fill="#333"/>
      <line x1="1284.01" y1="311.66" x2="1308.12" y2="311.66" fill="none" stroke="#16221d" stroke-miterlimit="10" stroke-width="1.5"/>
      <line x1="1284.01" y1="277.69" x2="1308.12" y2="277.69" fill="none" stroke="#16221d" stroke-miterlimit="10" stroke-width="1.5"/>
      <line x1="1325.56" y1="281.13" x2="1325.56" y2="307.98" fill="none" stroke="#16221d" stroke-miterlimit="10" stroke-width="1.5"/>
    </g>
    <g>
      <rect x="1305.35" y="334.55" width="22.19" height="30.09" rx="3.39" fill="#7c3b25" stroke="#16221d" stroke-miterlimit="10" stroke-width="1.5"/>
      <rect x="1279.04" y="332.57" width="34.05" height="34.05" rx="4.47" stroke-width="1.5" stroke="#16221d" stroke-linecap="round" stroke-linejoin="round" fill="#ba5c40"/>
      <rect x="1317.54" y="332.57" width="11.46" height="34.05" rx="2.59" transform="translate(2646.55 699.19) rotate(180)" stroke-width="1.5" stroke="#16221d" stroke-linecap="round" stroke-linejoin="round" fill="#ba5c40"/>
      <rect x="1284.01" y="326.26" width="24.11" height="7.84" rx="1.8" transform="translate(2592.13 660.35) rotate(180)" stroke-width="1.5" stroke="#16221d" stroke-linecap="round" stroke-linejoin="round" fill="#333"/>
      <rect x="1284.01" y="364.23" width="24.11" height="7.84" rx="1.8" transform="translate(2592.13 736.29) rotate(180)" stroke-width="1.5" stroke="#16221d" stroke-linecap="round" stroke-linejoin="round" fill="#333"/>
      <line x1="1284.01" y1="366.03" x2="1308.12" y2="366.03" fill="none" stroke="#16221d" stroke-miterlimit="10" stroke-width="1.5"/>
      <line x1="1284.01" y1="332.06" x2="1308.12" y2="332.06" fill="none" stroke="#16221d" stroke-miterlimit="10" stroke-width="1.5"/>
      <line x1="1325.56" y1="335.5" x2="1325.56" y2="362.35" fill="none" stroke="#16221d" stroke-miterlimit="10" stroke-width="1.5"/>
    </g>
    <rect x="102.7" y="90.24" width="84.62" height="632.07" fill="#8e452d" stroke="#16221d" stroke-miterlimit="10"/>
    <rect x="1179.68" y="90.24" width="84.62" height="632.07" fill="#8e452d" stroke="#16221d" stroke-miterlimit="10"/>
    <polygon points="1179.68 159.42 187.32 159.42 102.7 90.24 1264.3 90.24 1179.68 159.42" fill="#5e2a15" stroke="#16221d" stroke-linecap="round" stroke-linejoin="round" stroke-width="1.5"/>
  </g>
</svg>
