<svg xmlns="http://www.w3.org/2000/svg" xmlns:xlink="http://www.w3.org/1999/xlink" viewBox="0 0 1368.776 852.564"><defs><style>.cls-1,.cls-15,.cls-16,.cls-23,.cls-28,.cls-31,.cls-32,.cls-44,.cls-51,.cls-8{fill:none;}.cls-2{fill:#fff;}.cls-3{isolation:isolate;}.cls-17,.cls-4{fill:#b05232;}.cls-11,.cls-13,.cls-14,.cls-15,.cls-16,.cls-17,.cls-18,.cls-22,.cls-23,.cls-26,.cls-28,.cls-29,.cls-31,.cls-32,.cls-35,.cls-36,.cls-37,.cls-38,.cls-39,.cls-4,.cls-40,.cls-42,.cls-47,.cls-5,.cls-50,.cls-51,.cls-52,.cls-8{stroke:#16221d;}.cls-11,.cls-13,.cls-14,.cls-15,.cls-16,.cls-17,.cls-18,.cls-22,.cls-23,.cls-26,.cls-28,.cls-29,.cls-31,.cls-32,.cls-35,.cls-36,.cls-4,.cls-42,.cls-44,.cls-46,.cls-5,.cls-8{stroke-miterlimit:10;}.cls-14,.cls-15,.cls-35,.cls-36,.cls-4,.cls-5{stroke-width:1.5px;}.cls-26,.cls-34,.cls-5,.cls-9{fill:#f2e6d4;}.cls-6{opacity:0.1;}.cls-11,.cls-7{fill:#16221d;}.cls-8{stroke-dasharray:5;}.cls-33,.cls-9{mix-blend-mode:multiply;}.cls-10{fill:#ffd377;}.cls-11{stroke-width:1.411px;}.cls-12{opacity:0.5;fill:url(#新增圖樣色票_2);}.cls-13,.cls-14{fill:#7c3b25;}.cls-13,.cls-18,.cls-19,.cls-20,.cls-22,.cls-23,.cls-29{stroke-width:1.498px;}.cls-16{stroke-width:2px;}.cls-18{fill:#9faac4;}.cls-19,.cls-46{fill:#d3bccb;}.cls-19,.cls-20,.cls-44,.cls-46{stroke:#0c0007;}.cls-19,.cls-20,.cls-37,.cls-38,.cls-39,.cls-40,.cls-47,.cls-48,.cls-49,.cls-50,.cls-51,.cls-52{stroke-linecap:round;stroke-linejoin:round;}.cls-20{fill:#f7d9e8;}.cls-21{clip-path:url(#clip-path);}.cls-22{fill:#2a3631;}.cls-24{clip-path:url(#clip-path-2);}.cls-25{clip-path:url(#clip-path-3);}.cls-26,.cls-28{stroke-width:1.204px;}.cls-27{fill:#fbc8a2;}.cls-29,.cls-43{fill:#8e452d;}.cls-30{fill:#fcc013;}.cls-32{stroke-dasharray:4.919 4.919;}.cls-35{fill:#968d80;}.cls-36{fill:#e8a390;}.cls-37,.cls-50,.cls-52{fill:#515254;}.cls-37,.cls-38,.cls-39,.cls-40,.cls-42,.cls-44,.cls-46,.cls-47{stroke-width:1.808px;}.cls-38{fill:#48484a;}.cls-39{fill:#d9b08c;}.cls-40{fill:#806954;}.cls-41{clip-path:url(#clip-path-4);}.cls-42{fill:#ba5c40;}.cls-45{clip-path:url(#clip-path-5);}.cls-47{fill:#9f8269;}.cls-48{fill:#bd9c78;}.cls-48,.cls-49{stroke:#231815;stroke-width:1.326px;}.cls-49{fill:#deb88c;}.cls-50,.cls-51{stroke-width:0.914px;}.cls-52{stroke-width:0.64px;}</style><pattern id="新增圖樣色票_2" data-name="新增圖樣色票 2" width="871.454" height="899.055" patternTransform="translate(1116.5 2269.206) scale(0.745)" patternUnits="userSpaceOnUse" viewBox="0 0 871.454 899.055"><rect class="cls-1" width="871.454" height="899.055"/><circle class="cls-2" cx="88.928" cy="2.435" r="1.27"/><circle class="cls-2" cx="186.44" cy="57.78" r="1.27"/><circle class="cls-2" cx="310.184" cy="1.27" r="1.27"/><circle class="cls-2" cx="355.551" cy="83.916" r="1.27"/><circle class="cls-2" cx="389.39" cy="124.049" r="1.27"/><circle class="cls-2" cx="403.06" cy="8.401" r="1.27"/><circle class="cls-2" cx="627.119" cy="186.341" r="1.27"/><circle class="cls-2" cx="585.867" cy="110.673" r="1.27"/><circle class="cls-2" cx="842.233" cy="71.994" r="1.27"/><circle class="cls-2" cx="25.04" cy="189.855" r="1.27"/><circle class="cls-2" cx="130.086" cy="192.889" r="1.27"/><circle class="cls-2" cx="247.875" cy="195.894" r="1.27"/><circle class="cls-2" cx="349.823" cy="198.586" r="1.27"/><circle class="cls-2" cx="454.381" cy="53.525" r="1.27"/><circle class="cls-2" cx="540.14" cy="149.468" r="1.27"/><circle class="cls-2" cx="515.247" cy="77.089" r="1.27"/><circle class="cls-2" cx="660.284" cy="166.245" r="1.27"/><circle class="cls-2" cx="735.964" cy="189.512" r="1.27"/><circle class="cls-2" cx="1.27" cy="236.367" r="1.27"/><circle class="cls-2" cx="239.505" cy="184.992" r="1.27"/><circle class="cls-2" cx="144.329" cy="165.275" r="1.27"/><circle class="cls-2" cx="323.746" cy="293.559" r="1.27"/><circle class="cls-2" cx="334.442" cy="174.076" r="1.27"/><circle class="cls-2" cx="535.811" cy="129.941" r="1.27"/><circle class="cls-2" cx="611.049" cy="291.749" r="1.27"/><circle class="cls-2" cx="751.884" cy="245.398" r="1.27"/><circle class="cls-2" cx="662.158" cy="197.801" r="1.27"/><circle class="cls-2" cx="68.226" cy="372.431" r="1.27"/><circle class="cls-2" cx="272.257" cy="339.445" r="1.27"/><circle class="cls-2" cx="227.666" cy="231.196" r="1.27"/><circle class="cls-2" cx="369.267" cy="222.393" r="1.27"/><circle class="cls-2" cx="339.433" cy="285.437" r="1.27"/><circle class="cls-2" cx="458.331" cy="206.722" r="1.27"/><circle class="cls-2" cx="525.483" cy="398.648" r="1.27"/><circle class="cls-2" cx="655.447" cy="286.553" r="1.27"/><circle class="cls-2" cx="706.376" cy="402.711" r="1.27"/><circle class="cls-2" cx="156.187" cy="501.045" r="1.27"/><circle class="cls-2" cx="99.458" cy="425.405" r="1.27"/><circle class="cls-2" cx="312.138" cy="298.571" r="1.27"/><circle class="cls-2" cx="427.866" cy="437.833" r="1.27"/><circle class="cls-2" cx="498.11" cy="376.195" r="1.27"/><circle class="cls-2" cx="555.906" cy="277.397" r="1.27"/><circle class="cls-2" cx="618.107" cy="436.14" r="1.27"/><circle class="cls-2" cx="717.826" cy="346.75" r="1.27"/><circle class="cls-2" cx="703.758" cy="363.374" r="1.27"/><circle class="cls-2" cx="61.767" cy="515.612" r="1.27"/><circle class="cls-2" cx="184.33" cy="571.039" r="1.27"/><circle class="cls-2" cx="293.251" cy="454.977" r="1.27"/><circle class="cls-2" cx="357.445" cy="455.815" r="1.27"/><circle class="cls-2" cx="450.819" cy="474.461" r="1.27"/><circle class="cls-2" cx="438.037" cy="582.859" r="1.27"/><circle class="cls-2" cx="498.504" cy="488.815" r="1.27"/><circle class="cls-2" cx="644.008" cy="507.17" r="1.27"/><circle class="cls-2" cx="795.379" cy="430.339" r="1.27"/><circle class="cls-2" cx="29.564" cy="596.28" r="1.27"/><circle class="cls-2" cx="217.999" cy="506.826" r="1.27"/><circle class="cls-2" cx="246.049" cy="529.299" r="1.27"/><circle class="cls-2" cx="314.062" cy="439.592" r="1.27"/><circle class="cls-2" cx="422.589" cy="421.406" r="1.27"/><circle class="cls-2" cx="558.422" cy="574.639" r="1.27"/><circle class="cls-2" cx="516.456" cy="603.188" r="1.27"/><circle class="cls-2" cx="625.805" cy="449.478" r="1.27"/><circle class="cls-2" cx="765.119" cy="611.984" r="1.27"/><circle class="cls-2" cx="77.802" cy="701.397" r="1.27"/><circle class="cls-2" cx="192.163" cy="585.645" r="1.27"/><circle class="cls-2" cx="327.761" cy="636.188" r="1.27"/><circle class="cls-2" cx="398.397" cy="700.017" r="1.27"/><circle class="cls-2" cx="422.996" cy="550.153" r="1.27"/><circle class="cls-2" cx="516.18" cy="589.529" r="1.27"/><circle class="cls-2" cx="547.036" cy="626.42" r="1.27"/><circle class="cls-2" cx="650.06" cy="521.324" r="1.27"/><circle class="cls-2" cx="806.943" cy="475.539" r="1.27"/><circle class="cls-2" cx="57.489" cy="678.648" r="1.27"/><circle class="cls-2" cx="190.142" cy="771.554" r="1.27"/><circle class="cls-2" cx="159.132" cy="774.685" r="1.27"/><circle class="cls-2" cx="362.806" cy="704.501" r="1.27"/><circle class="cls-2" cx="471.014" cy="765.215" r="1.27"/><circle class="cls-2" cx="574.392" cy="607.111" r="1.27"/><circle class="cls-2" cx="605.845" cy="683.695" r="1.27"/><circle class="cls-2" cx="730.549" cy="644.082" r="1.27"/><circle class="cls-2" cx="796.419" cy="740.204" r="1.27"/><circle class="cls-2" cx="49.764" cy="706.638" r="1.27"/><circle class="cls-2" cx="214.212" cy="897.786" r="1.27"/><circle class="cls-2" cx="151.296" cy="677.323" r="1.27"/><circle class="cls-2" cx="293.45" cy="844.943" r="1.27"/><circle class="cls-2" cx="344.141" cy="875.784" r="1.27"/><circle class="cls-2" cx="457.804" cy="692.884" r="1.27"/><circle class="cls-2" cx="588.301" cy="835.089" r="1.27"/><circle class="cls-2" cx="652.178" cy="848.62" r="1.27"/><circle class="cls-2" cx="870.184" cy="718.643" r="1.27"/></pattern><clipPath id="clip-path"><polygon class="cls-1" points="1159.741 559.912 1229.127 585.817 1229.127 335.373 1162.16 335.373 1159.741 559.912"/></clipPath><clipPath id="clip-path-2"><polygon class="cls-1" points="1227.775 561.339 1071.539 561.339 1071.539 441.201 1228.448 441.201 1227.775 561.339"/></clipPath><clipPath id="clip-path-3"><path class="cls-1" d="M1222.5,471.2c-18.117,1.888-33.876,11.088-52.991,9.664-25.965-1.934-45.1-8.437-70.467,3.173-2.242,1.026-4.545,2.233-5.894,4.295-1.369,2.094-1.537,4.734-1.514,7.236.071,7.72,1.632,15.589,5.7,22.153,9.445,15.247,26.352,13.956,41.879,11.587,14.627-2.233,27.945,4.322,42.244,5.483,15.727,1.277,28.174-4.948,43.2-8.349,13.317-3.014,40.022,4.214,46.759-11.42,10.1-23.434-9.876-38.041-30.593-42.8A55.1,55.1,0,0,0,1222.5,471.2Z"/></clipPath><clipPath id="clip-path-4"><path class="cls-1" d="M1081.247,721.315h52.936a16.4,16.4,0,0,1,6.836,1.493l7.083,3.25a6.855,6.855,0,0,1,4,6.231V782.28h-67.617l-3.848-4.584-6.241-1.994V728.17A6.855,6.855,0,0,1,1081.247,721.315Z"/></clipPath><clipPath id="clip-path-5"><path class="cls-1" d="M1152.773,778.191l12.641,10.019a5.413,5.413,0,0,1,2.051,4.242V806a5.414,5.414,0,0,1-5.414,5.414H1087a29.71,29.71,0,0,1-12.741-2.87l5.052-7.16a9.192,9.192,0,0,1-5.25-8.3v-6.575a9.191,9.191,0,0,1,9.191-9.191h65.6A9.185,9.185,0,0,1,1152.773,778.191Z"/></clipPath></defs><g class="cls-3"><g id="Layer_1" data-name="Layer 1"><polyline class="cls-4" points="67.152 792.227 255.978 851.87 1264.073 851.87 1104.652 787.84 66.276 790.956"/><path class="cls-5" d="M172.238,725.838c78.135,5.6,150.055,33.69,177.493,85.426a1483.374,1483.374,0,0,1,195.916-22.99s-114.192-90.38-143.62-97.115c-25.754-5.894-189.46,24.667-229.93,32.389A1.156,1.156,0,0,0,172.238,725.838Z"/><g class="cls-6"><path class="cls-7" d="M402.027,691.159C384.117,687.061,299.5,700.59,236,711.81A1110.14,1110.14,0,0,1,384.06,758.688c26.128,10.338,52.022,21.78,75.96,36.386q42.7-4.638,85.627-6.8S431.455,697.894,402.027,691.159Z"/></g><path class="cls-8" d="M295.6,759.146s100.2-32.548,180.338-33.608"/><path class="cls-9" d="M328.791,757.011s-5.635-.175-9.194,2.135c0,0,31.83,29.88,36.165,42.122a32.063,32.063,0,0,0,5.731-1.981C364.376,797.946,328.791,757.011,328.791,757.011Z"/><path class="cls-9" d="M343.266,753.544s-5.635-.176-9.194,2.134c0,0,31.83,29.88,36.165,42.122a32.063,32.063,0,0,0,5.731-1.981C378.851,794.479,343.266,753.544,343.266,753.544Z"/><path class="cls-9" d="M354.864,750.076s-5.634-.176-9.194,2.134c0,0,31.831,29.88,36.165,42.122a32.063,32.063,0,0,0,5.731-1.981C390.449,791.011,354.864,750.076,354.864,750.076Z"/><path class="cls-10" d="M411.507,800.328s1.461-22.84-29.2-56.383c0,0,26.923,9.475,52.76,53.236Z"/><ellipse class="cls-4" cx="359.232" cy="800.328" rx="3.301" ry="3.895" transform="translate(-218.184 139.902) rotate(-16.99)"/><ellipse class="cls-4" cx="371.838" cy="798.508" rx="3.301" ry="3.895" transform="translate(-217.102 143.506) rotate(-16.99)"/><ellipse class="cls-4" cx="386.75" cy="795.993" rx="3.301" ry="3.895" transform="translate(-215.716 147.753) rotate(-16.99)"/><ellipse class="cls-4" cx="399.631" cy="793.159" rx="3.301" ry="3.895" transform="translate(-214.326 151.393) rotate(-16.99)"/><ellipse class="cls-4" cx="412.968" cy="791.012" rx="3.301" ry="3.895" transform="matrix(0.956, -0.292, 0.292, 0.956, -213.117, 155.197)"/><ellipse class="cls-4" cx="431.236" cy="789.16" rx="3.301" ry="3.895" transform="translate(-211.778 160.454) rotate(-16.99)"/><ellipse class="cls-4" cx="446.958" cy="786.844" rx="3.301" ry="3.895" transform="translate(-210.415 164.947) rotate(-16.99)"/><ellipse class="cls-4" cx="462.291" cy="785.259" rx="3.301" ry="3.895" transform="translate(-209.283 169.359) rotate(-16.99)"/><ellipse class="cls-4" cx="480.228" cy="784.824" rx="3.301" ry="3.895" transform="translate(-208.373 174.581) rotate(-16.99)"/><path class="cls-9" d="M198.386,718.9c.854-.448,58.648,2.082,84.93,23.439l15.132-3.482s-26.411-18.179-81.093-23.716Z"/><path class="cls-9" d="M228.936,713.619c.855-.448,48.1,1.29,74.387,22.648L316.2,733.81s-36.175-23.145-72.361-23.145Z"/><path class="cls-7" d="M356.728,375.826a213.353,213.353,0,0,1,55.284,16.059c1.748.779,3.276-1.805,1.514-2.59a215.939,215.939,0,0,0-56-16.361c-1.888-.282-2.7,2.608-.8,2.892Z"/><path class="cls-7" d="M417.241,388.72l14.634,53.24a1.5,1.5,0,0,0,2.893-.8l-14.634-53.241a1.5,1.5,0,0,0-2.893.8Z"/><path class="cls-11" d="M287.283,321.186h0A124.224,124.224,0,0,1,411.507,445.409V725.286a0,0,0,0,1,0,0H163.059a0,0,0,0,1,0,0V445.409A124.224,124.224,0,0,1,287.283,321.186Z"/><path class="cls-12" d="M287.283,321.186h0A124.224,124.224,0,0,1,411.507,445.409V725.286a0,0,0,0,1,0,0H163.059a0,0,0,0,1,0,0V445.409A124.224,124.224,0,0,1,287.283,321.186Z"/><path class="cls-13" d="M309.1,321.185h0c-3.676,0-7.312.17-10.907.482A124.231,124.231,0,0,1,411.507,445.41V725.285h21.814V445.41A124.225,124.225,0,0,0,309.1,321.185Z"/><path class="cls-7" d="M658.041,392.209a213.353,213.353,0,0,1,55.284,16.059c1.748.779,3.276-1.8,1.514-2.59a215.98,215.98,0,0,0-56-16.362c-1.888-.281-2.7,2.609-.8,2.893Z"/><path class="cls-7" d="M718.554,405.1l14.634,53.241a1.5,1.5,0,0,0,2.893-.8l-14.634-53.241a1.5,1.5,0,0,0-2.893.8Z"/><path class="cls-11" d="M588.6,337.568h0A124.224,124.224,0,0,1,712.82,461.792V601.823a0,0,0,0,1,0,0H464.372a0,0,0,0,1,0,0V461.792A124.224,124.224,0,0,1,588.6,337.568Z"/><path class="cls-12" d="M588.6,337.568h0A124.224,124.224,0,0,1,712.82,461.792V601.823a0,0,0,0,1,0,0H464.372a0,0,0,0,1,0,0V461.792A124.224,124.224,0,0,1,588.6,337.568Z"/><path class="cls-13" d="M610.411,337.568h0c-3.676,0-7.312.17-10.907.482A124.23,124.23,0,0,1,712.82,461.792V601.823h21.814V461.792A124.223,124.223,0,0,0,610.411,337.568Z"/><path class="cls-7" d="M965.107,392.209a213.346,213.346,0,0,1,55.283,16.059c1.749.779,3.277-1.8,1.515-2.59a215.98,215.98,0,0,0-56-16.362c-1.889-.281-2.7,2.609-.8,2.893Z"/><path class="cls-7" d="M1025.62,405.1l14.634,53.241a1.5,1.5,0,0,0,2.892-.8l-14.633-53.241a1.5,1.5,0,0,0-2.893.8Z"/><path class="cls-11" d="M895.662,337.568h0a124.224,124.224,0,0,1,124.224,124.224V680.33a0,0,0,0,1,0,0H771.438a0,0,0,0,1,0,0V461.792A124.224,124.224,0,0,1,895.662,337.568Z"/><path class="cls-12" d="M895.662,337.568h0a124.224,124.224,0,0,1,124.224,124.224V680.33a0,0,0,0,1,0,0H771.438a0,0,0,0,1,0,0V461.792A124.224,124.224,0,0,1,895.662,337.568Z"/><path class="cls-13" d="M917.476,337.568h0c-3.676,0-7.312.17-10.907.482a124.231,124.231,0,0,1,113.317,123.742V680.33H1041.7V461.792A124.224,124.224,0,0,0,917.476,337.568Z"/><polygon class="cls-14" points="0.75 284.95 1091.329 284.95 1366.75 0.75 0.75 0.75 0.75 284.95"/><polyline class="cls-15" points="1368.238 0.766 1091.347 285.503 1090.503 781.051 1264.073 851.87"/><line class="cls-16" x1="1041.268" y1="284.95" x2="0.75" y2="284.95"/><path class="cls-11" d="M224.724,100.235h792L910.6,234.748H224.724a67.256,67.256,0,0,1-67.256-67.256h0A67.256,67.256,0,0,1,224.724,100.235Z"/><path class="cls-12" d="M224.724,100.235h792L910.6,234.748H224.724a67.256,67.256,0,0,1-67.256-67.256h0A67.256,67.256,0,0,1,224.724,100.235Z"/><path class="cls-17" d="M224.724,100.235a67.256,67.256,0,0,0-67.256,67.256h0a66.357,66.357,0,0,0,.485,7.856,67.254,67.254,0,0,1,66.771-59.294H1003.19l13.535-15.819Z"/><rect class="cls-18" x="1120.631" y="393.579" width="108.496" height="49.203"/><polygon class="cls-19" points="1143.339 559.769 1229.127 591.773 1229.127 585.817 1159.741 559.912 1143.339 559.769"/><polygon class="cls-20" points="1162.16 335.373 1145.612 335.373 1143.194 559.715 1143.339 559.769 1159.741 559.912 1162.16 335.373"/><g class="cls-21"><polygon class="cls-22" points="1159.741 559.912 1229.127 585.817 1229.127 335.373 1162.16 335.373 1159.741 559.912"/></g><polygon class="cls-23" points="1159.741 559.912 1229.127 585.817 1229.127 335.373 1162.16 335.373 1159.741 559.912"/><polygon class="cls-17" points="1209.125 393.343 967.048 163.198 947.64 187.796 895.108 163.247 824.64 163.247 824.64 234.748 910.595 234.748 1229.127 561.339 1229.127 398.294 1209.125 393.343"/><polygon class="cls-13" points="1229.127 412.349 1129.038 411.161 1129.231 392.391 1229.127 393.579 1229.127 412.349"/><polygon class="cls-13" points="1150.14 336.325 1050.392 335.137 1050.585 316.368 1150.333 317.555 1150.14 336.325"/><polygon class="cls-13" points="1169.802 355.331 1070.054 354.143 1070.246 335.373 1169.994 336.561 1169.802 355.331"/><polygon class="cls-13" points="1189.463 374.337 1089.715 373.149 1089.908 354.379 1189.656 355.567 1189.463 374.337"/><polygon class="cls-13" points="1209.125 393.343 1109.377 392.155 1109.569 373.385 1209.317 374.573 1209.125 393.343"/><polygon class="cls-13" points="1133.036 316.368 1032.947 315.18 1033.14 296.41 1133.036 297.598 1133.036 316.368"/><polygon class="cls-13" points="1054.049 240.344 954.301 239.156 954.494 220.386 1054.242 221.574 1054.049 240.344"/><polygon class="cls-13" points="1073.711 259.35 973.963 258.162 974.155 239.392 1073.903 240.58 1073.711 259.35"/><polygon class="cls-13" points="1093.372 278.356 993.624 277.168 993.817 258.398 1093.565 259.586 1093.372 278.356"/><polygon class="cls-13" points="1113.034 297.362 1013.286 296.174 1013.478 277.404 1113.226 278.592 1113.034 297.362"/><polygon class="cls-13" points="994.663 183.204 894.915 182.016 895.108 163.247 994.855 164.435 994.663 183.204"/><polygon class="cls-13" points="1014.324 202.21 914.576 201.022 914.769 182.253 1014.517 183.441 1014.324 202.21"/><polygon class="cls-13" points="1033.986 221.216 934.238 220.028 934.431 201.259 1034.178 202.447 1033.986 221.216"/><g class="cls-24"><g class="cls-25"><path class="cls-26" d="M1222.5,471.2c-18.117,1.888-33.876,11.088-52.991,9.664-25.965-1.934-45.1-8.437-70.467,3.173-2.242,1.026-4.545,2.233-5.894,4.295-1.369,2.094-1.537,4.734-1.514,7.236.071,7.72,1.632,15.589,5.7,22.153,9.445,15.247,26.352,13.956,41.879,11.587,14.627-2.233,27.945,4.322,42.244,5.483,15.727,1.277,28.174-4.948,43.2-8.349,13.317-3.014,40.022,4.214,46.759-11.42,10.1-23.434-9.876-38.041-30.593-42.8A55.1,55.1,0,0,0,1222.5,471.2Z"/><path class="cls-27" d="M1272.75,495.041s-6.037,22.181-34.981,19.228a35.739,35.739,0,0,1-19.229-8.44c-5.382-4.516-14.41-9.642-25.241-6.144a25.984,25.984,0,0,0-11.022,7.225c-5.877,6.37-27.569,23.28-84.947,10.807,0,0,1.468,21.563,4.716,22.269s103.51,6.864,103.51,6.864H1292.4Z"/></g><path class="cls-28" d="M1222.5,471.2c-18.117,1.888-33.876,11.088-52.991,9.664-25.965-1.934-45.1-8.437-70.467,3.173-2.242,1.026-4.545,2.233-5.894,4.295-1.369,2.094-1.537,4.734-1.514,7.236.071,7.72,1.632,15.589,5.7,22.153,9.445,15.247,26.352,13.956,41.879,11.587,14.627-2.233,27.945,4.322,42.244,5.483,15.727,1.277,28.174-4.948,43.2-8.349,13.317-3.014,40.022,4.214,46.759-11.42,10.1-23.434-9.876-38.041-30.593-42.8A55.1,55.1,0,0,0,1222.5,471.2Z"/></g><line class="cls-29" x1="66.276" y1="284.352" x2="66.276" y2="790.956"/><path class="cls-5" d="M262.68,697.238c112.178,42.642,255.964,90.988,362.253,146.709a230.883,230.883,0,0,1,98.865-98.31S538.211,678.278,408.253,679.51,262.68,697.238,262.68,697.238Z"/><path class="cls-9" d="M539.441,783.929s-2.31.675-2.368,5.943c0,0,51.5,20.475,65.084,30.29,0,0-.015-2.119,2.3-5S539.441,783.929,539.441,783.929Z"/><path class="cls-9" d="M543.973,775.042s-2.309.675-2.368,5.944c0,0,51.5,20.475,65.084,30.29,0,0-.015-2.119,2.3-5S543.973,775.042,543.973,775.042Z"/><path class="cls-9" d="M549.614,766.164s-2.31.675-2.369,5.943c0,0,51.5,20.475,65.085,30.291,0,0-.015-2.119,2.3-5S549.614,766.164,549.614,766.164Z"/><path class="cls-9" d="M554.789,756.81s-2.309.675-2.368,5.944c0,0,51.5,20.475,65.084,30.29,0,0-.015-2.119,2.3-5S554.789,756.81,554.789,756.81Z"/><path class="cls-30" d="M660.3,793.849S585.931,729.683,523.565,700.7c0,0,140.752,46.326,162.355,70.376Z"/><path class="cls-10" d="M672.481,781.663S601.143,709.8,499.3,687.941c0,0,127.722,17.878,224.5,57.7C723.8,745.637,678.089,771.081,672.481,781.663Z"/><path class="cls-10" d="M632.6,830.376s-20.862-27.165-64.032-56.014c0,0,32.64,12.261,77.074,36.923Z"/><path class="cls-15" d="M262.68,697.238c112.178,42.642,255.964,90.988,362.253,146.709a230.883,230.883,0,0,1,98.865-98.31S538.211,678.278,408.253,679.51,262.68,697.238,262.68,697.238Z"/><path class="cls-31" d="M611.831,711.336s-.844.262-2.363.8"/><path class="cls-32" d="M604.868,713.875c-18.78,7.461-69.5,31.884-75.928,80.053"/><path class="cls-31" d="M528.652,796.389q-.125,1.236-.209,2.492"/><g class="cls-33"><path class="cls-34" d="M287.672,689.267c51.559,9.983,116.644,32.619,163.573,56.19l9.652-8.692s-85.7-40.374-149.568-51.934Z"/></g><g class="cls-33"><path class="cls-34" d="M325.354,683.288c51.559,9.983,94,21.8,140.927,45.372l9.652-8.692s-45.307-29.3-129.208-38.039Z"/></g><g class="cls-33"><path class="cls-34" d="M367.918,681.043c10.425.345,46.09,2.124,112.9,32.215l9.653-8.692s-25.1-15.481-97.878-24.824Z"/></g><ellipse class="cls-4" cx="700.225" cy="747.091" rx="2.357" ry="4.838" transform="translate(-159.649 1303.037) rotate(-79.739)"/><ellipse class="cls-4" cx="687.995" cy="754.448" rx="2.357" ry="4.838" transform="translate(-176.941 1297.049) rotate(-79.739)"/><ellipse class="cls-4" cx="677.999" cy="761.813" rx="2.357" ry="4.838" transform="translate(-192.403 1293.266) rotate(-79.739)"/><ellipse class="cls-4" cx="667.284" cy="770.298" rx="2.357" ry="4.838" transform="translate(-209.559 1289.696) rotate(-79.739)"/><ellipse class="cls-4" cx="659.805" cy="779.37" rx="2.357" ry="4.838" transform="translate(-224.632 1289.792) rotate(-79.739)"/><ellipse class="cls-4" cx="646.247" cy="793.701" rx="2.357" ry="4.838" transform="translate(-249.878 1288.229) rotate(-79.739)"/><ellipse class="cls-4" cx="635.471" cy="805.02" rx="2.357" ry="4.838" transform="translate(-269.872 1286.928) rotate(-79.739)"/><ellipse class="cls-4" cx="626.854" cy="816.696" rx="2.357" ry="4.838" transform="translate(-288.442 1288.045) rotate(-79.739)"/><ellipse class="cls-4" cx="618.49" cy="829.762" rx="2.357" ry="4.838" transform="translate(-308.174 1290.553) rotate(-79.739)"/><g class="cls-6"><path class="cls-7" d="M653.809,761.476c-25.666-3.5-51.676-3.255-77.545-4.594C474.723,751.624,376.4,722.014,279.51,690.531c-13.891,3.61-16.83,6.707-16.83,6.707,112.178,42.642,255.964,90.987,362.253,146.709a230.811,230.811,0,0,1,62.591-75.1A203.469,203.469,0,0,0,653.809,761.476Z"/></g><path class="cls-5" d="M246.889,708.827c117.98,21.978,268.078,43.937,382.593,79.834a230.876,230.876,0,0,1,79.772-114.349s-194.618-33.223-322.278-8.861S246.889,708.827,246.889,708.827Z"/><path class="cls-9" d="M534.666,744.831s-2.152,1.076-1.272,6.27c0,0,54.328,10.973,69.439,18.213,0,0-.392-2.083,1.37-5.327S534.666,744.831,534.666,744.831Z"/><path class="cls-9" d="M537.543,735.28s-2.153,1.075-1.272,6.27c0,0,54.328,10.973,69.439,18.212,0,0-.392-2.082,1.369-5.327S537.543,735.28,537.543,735.28Z"/><path class="cls-9" d="M541.512,725.538s-2.153,1.076-1.272,6.271c0,0,54.328,10.973,69.439,18.212,0,0-.392-2.083,1.369-5.327S541.512,725.538,541.512,725.538Z"/><path class="cls-9" d="M544.938,715.413s-2.152,1.075-1.272,6.27c0,0,54.328,10.973,69.439,18.212,0,0-.392-2.082,1.37-5.327S544.938,715.413,544.938,715.413Z"/><path class="cls-30" d="M655.357,733.065s-84.607-49.894-151.138-67.3c0,0,146.753,20.513,172.294,40.329Z"/><path class="cls-10" d="M665.174,718.9s-83-58-187.1-61.375c0,0,128.864-5.159,231.183,16.784C709.254,674.312,668.808,707.492,665.174,718.9Z"/><path class="cls-30" d="M634.61,773.941s-25.367-23.015-72.986-43.712c0,0,34.3,6.25,82.418,22.6Z"/><path class="cls-15" d="M246.889,708.827c117.98,21.978,268.078,43.937,382.593,79.834a230.876,230.876,0,0,1,79.772-114.349s-194.618-33.223-322.278-8.861S246.889,708.827,246.889,708.827Z"/><path class="cls-31" d="M592.967,660.5s-.784.409-2.182,1.211"/><path class="cls-32" d="M586.568,664.243c-17.15,10.687-62.7,43.754-60.454,92.3"/><path class="cls-31" d="M526.269,759.014q.1,1.238.238,2.489"/><g class="cls-33"><path class="cls-34" d="M270.062,696.531c52.513.64,120.588,11.32,170.966,26.154l7.949-10.272S357.45,687.952,292.55,687.952Z"/></g><g class="cls-33"><path class="cls-34" d="M306.076,683.935c52.513.64,96.377,4.708,146.755,19.543l7.949-10.272s-49.8-20.763-133.917-14.415Z"/></g><g class="cls-33"><path class="cls-34" d="M347.559,674.145c10.32-1.518,45.731-6.121,116.831,11.589l7.95-10.272s-27.459-10.762-100.734-6.993Z"/></g><ellipse class="cls-4" cx="686.317" cy="679.942" rx="4.838" ry="2.357"/><ellipse class="cls-4" cx="675.592" cy="689.36" rx="4.838" ry="2.357"/><ellipse class="cls-4" cx="667.069" cy="698.388" rx="4.838" ry="2.357"/><ellipse class="cls-4" cx="658.036" cy="708.646" rx="4.838" ry="2.357"/><ellipse class="cls-4" cx="652.293" cy="718.904" rx="4.838" ry="2.357"/><ellipse class="cls-35" cx="641.504" cy="735.422" rx="4.838" ry="2.357"/><ellipse class="cls-35" cx="632.917" cy="748.479" rx="4.838" ry="2.357"/><ellipse class="cls-36" cx="626.518" cy="761.503" rx="4.838" ry="2.357"/><ellipse class="cls-5" cx="620.615" cy="775.85" rx="4.838" ry="2.357"/><g class="cls-6"><path class="cls-7" d="M643.206,702.365c-25.881,1.123-51.429,6-77.124,9.292C465.229,724.571,363.2,712.95,262.255,699.23c-13.025,6.026-15.366,9.6-15.366,9.6,117.98,21.978,268.078,43.937,382.593,79.834a230.807,230.807,0,0,1,48.212-85.051A203.431,203.431,0,0,0,643.206,702.365Z"/></g><polygon class="cls-37" points="1149.436 752.851 1167.465 765.668 1171.849 765.668 1153.821 752.851 1149.436 752.851"/><polygon class="cls-38" points="1149.436 818.054 1167.465 844.509 1167.465 765.668 1149.436 752.851 1149.436 818.054"/><rect class="cls-37" x="1167.465" y="765.668" width="4.385" height="78.841" transform="translate(2339.314 1610.177) rotate(180)"/><rect class="cls-39" x="1166.158" y="762.464" width="11.105" height="3.204" transform="translate(2343.421 1528.132) rotate(180)"/><polygon class="cls-40" points="1146.064 751.797 1166.158 765.668 1166.158 762.464 1146.064 748.593 1146.064 751.797"/><polygon class="cls-39" points="1166.158 762.464 1177.263 762.464 1157.169 748.593 1146.064 748.593 1166.158 762.464"/><g class="cls-41"><path class="cls-42" d="M1081.247,721.315h52.936a16.4,16.4,0,0,1,6.836,1.493l7.083,3.25a6.855,6.855,0,0,1,4,6.231V782.28h-67.617l-5.378-3.974-4.711-2.6V728.17A6.855,6.855,0,0,1,1081.247,721.315Z"/><path class="cls-43" d="M1075.94,723.832l8.363,7.1,1.881,23.611s19.116,18.888,65.661,12.564l4.554,10.212-4.3,8.507s-56.7,3.079-57.507,2.739-22.257.3-22.257.3S1064.034,733.685,1075.94,723.832Z"/></g><path class="cls-44" d="M1081.247,721.315h52.936a16.4,16.4,0,0,1,6.836,1.493l7.083,3.25a6.855,6.855,0,0,1,4,6.231V782.28h-67.617l-7.571-1.052-2.518-5.526V728.17A6.855,6.855,0,0,1,1081.247,721.315Z"/><g class="cls-45"><path class="cls-42" d="M1152.129,778.235l13.293,10.055a5.148,5.148,0,0,1,2.043,4.107v13.866a5.15,5.15,0,0,1-5.15,5.15h-47.2c-63.362,0-32.361-2.186-41.082-6.324l.035-6.2V777.314h75.321A4.544,4.544,0,0,1,1152.129,778.235Z"/><path class="cls-44" d="M1152.773,778.191l13.167,10.435a4.028,4.028,0,0,1,1.525,3.155v15.607a4.025,4.025,0,0,1-4.026,4.025H1087a29.71,29.71,0,0,1-12.741-2.87l5.052-7.16a9.192,9.192,0,0,1-5.25-8.3v-6.575a9.191,9.191,0,0,1,9.191-9.191h65.6A9.185,9.185,0,0,1,1152.773,778.191Z"/><path class="cls-43" d="M1177.472,795.663s.333,5.083-13.026,5.842h-69.012s-7.083.337-7.589-9.7l-14.672-10.793.869,19.731,4.022,12.648s55.695,11.637,56.011,11.131,42.986-13.112,42.986-13.112Z"/></g><line class="cls-46" x1="1146.533" y1="729.072" x2="1088.098" y2="729.072"/><line class="cls-44" x1="1084.303" y1="733.12" x2="1084.303" y2="754.538"/><line class="cls-44" x1="1083.922" y1="729.747" x2="1077.345" y2="725.53"/><path class="cls-44" d="M1152.009,778.144l13.756,10.406a4.281,4.281,0,0,1,1.7,3.416v15.163a4.284,4.284,0,0,1-4.284,4.284H1080.31l-6.245-12.521V777.314h75.471A4.1,4.1,0,0,1,1152.009,778.144Z"/><polygon class="cls-37" points="1066.764 752.851 1076.91 765.668 1081.295 765.668 1071.149 752.851 1066.764 752.851"/><polygon class="cls-38" points="1066.764 818.054 1076.91 844.509 1076.91 765.668 1066.764 752.851 1066.764 818.054"/><rect class="cls-37" x="1076.91" y="765.668" width="4.385" height="78.841" transform="translate(2158.205 1610.177) rotate(180)"/><rect class="cls-39" x="1070.696" y="762.464" width="11.105" height="3.204" transform="translate(2152.497 1528.132) rotate(180)"/><polygon class="cls-47" points="1060.852 751.797 1070.696 765.668 1070.696 762.464 1060.852 748.593 1060.852 751.797"/><polygon class="cls-39" points="1070.696 762.464 1081.801 762.464 1069.589 748.593 1060.852 748.593 1070.696 762.464"/><line class="cls-46" x1="1152.098" y1="791.808" x2="1088.098" y2="791.808"/><path class="cls-48" d="M1147.133,771.815c-.738-5.422,1.516-8.252,1.516-8.252-.019,0-.034-.008-.052-.011l.02-.026-.052-.011.02-.027-.052-.011.02-.026-.052-.011.021-.027c-.019,0-.034-.008-.052-.011l.02-.026-.052-.011.02-.027-.052-.011.02-.026-.052-.011.021-.027-.053-.011.021-.026-.052-.011.02-.027-.052-.011.02-.026-.052-.011.021-.027-.053-.011.021-.026-.052-.011.02-.027c-.018,0-.034-.008-.052-.01l.02-.027-.052-.011.02-.027c-.018,0-.034-.008-.052-.01l.021-.027c-.019,0-.034-.008-.052-.011l.02-.027c-.018,0-.034-.007-.052-.01l.02-.027-.052-.011.02-.027c-.018,0-.034-.007-.052-.01l.021-.027c-.019,0-.034-.008-.052-.011l.02-.027c-.018,0-.034-.007-.052-.01l.02-.027-.052-.011.02-.027c-.018,0-.034-.007-.052-.01l.021-.027c-.019,0-.034-.008-.052-.011l.02-.026-.052-.011.02-.027-.052-.011.02-.026-.052-.011.021-.027-.053-.011.021-.027c-.018,0-.034-.007-.052-.01l.02-.027-.052-.011.02-.026-.052-.011.02-.027-.052-.011.021-.026c-.019,0-.034-.008-.052-.011l.02-.027-.052-.011.02-.026-.052-.011.02-.027-.052-.011.021-.026c-.019,0-.034-.008-.052-.011l.02-.027-.052-.011.02-.026-.052-.011.02-.027c-.018,0-.034-.008-.052-.01l.021-.027c-.019,0-.034-.008-.052-.011l.02-.027-.052-.01.02-.027-.052-.011.02-.027c-.018,0-.034-.007-.052-.01l.021-.027-.053-.011.021-.027-.052-.01.02-.027-.052-.011.02-.027c-.018,0-.034-.007-.052-.01l.02-.027c-.018,0-.033-.008-.052-.011l.021-.027c-.018,0-.034-.007-.052-.01l.02-.027-.052-.011.02-.026-.052-.011.02-.027c-.018,0-.033-.008-.052-.011l.021-.027c-.019,0-.034-.007-.052-.01l.02-.027-.052-.011.02-.026-.052-.011.02-.027-.052-.011.021-.026c-.019,0-.034-.008-.052-.011l.02-.027-.052-.011.02-.026-.052-.011.02-.027-.052-.011.021-.026-.053-.011.021-.027-.052-.011.02-.026-.052-.011.02-.027c-.018,0-.034-.008-.052-.01l.021-.027-.053-.011.021-.027c-.018,0-.034-.008-.052-.01l.02-.027-.052-.011.02-.027-.052-.011.02-.026-.052-.011.021-.027-.052-.01.02-.027-.052-.011.02-.027-.052-.01.02-.027-.052-.011.021-.027c-.019,0-.034-.007-.052-.01l.02-.027-.052-.011.02-.026-.052-.011.02-.027-.052-.011.021-.027c-.019,0-.034-.007-.052-.01l.02-.027-.052-.011.02-.027c-.018,0-.034-.007-.052-.01l.02-.027-.052-.011.021-.026-.053-.011.021-.027-.052-.011.02-.026-.052-.011.02-.027-.052-.011.02-.026c-.018,0-.033-.008-.052-.011l.021-.027-.052-.011.02-.026-.052-.011.02-.027c-.018,0-.034-.008-.052-.01l.02-.027-.052-.011.021-.027c-.019,0-.034-.008-.052-.011l.02-.026-.052-.011.02-.027-.052-.011.02-.026-.052-.011.021-.027-.052-.01.02-.027-.052-.011.02-.027c-.018,0-.034-.008-.052-.01l.02-.027a7.4,7.4,0,0,1-1.929-.571c-1.324-4.312.82-10.208.82-10.208,3.484-9.11,7.552-4.429,7.552-4.429l.145-1.994a6.369,6.369,0,0,1,1.186-3.21,56.893,56.893,0,0,0,5.006-8.808,12.183,12.183,0,0,0-1.27-12.87l-.032-.037c-.01-.013-.021-.025-.031-.037s-.022-.025-.032-.038-.022-.025-.032-.038-.022-.024-.032-.037-.021-.025-.032-.038-.021-.024-.031-.037-.022-.025-.032-.037-.022-.025-.032-.038-.021-.025-.032-.038-.021-.024-.031-.037-.022-.025-.032-.037-.022-.025-.032-.038-.021-.025-.032-.037l-.031-.038c-.011-.013-.022-.025-.032-.038s-.022-.024-.032-.037l-.032-.037-.031-.038-.032-.037c-.01-.013-.022-.025-.032-.038s-.022-.024-.032-.037l-.031-.038c-.011-.012-.022-.024-.032-.037s-.022-.025-.032-.038l-.032-.037c-.01-.013-.021-.025-.032-.038s-.021-.024-.031-.037-.022-.025-.032-.037-.022-.025-.032-.038-.021-.025-.031-.037l-.032-.038-.032-.037c-.01-.013-.022-.025-.032-.038s-.021-.025-.032-.038-.021-.024-.031-.037-.022-.025-.032-.037-.022-.025-.032-.038-.022-.025-.032-.037l-.031-.038-.032-.037c-.01-.013-.022-.025-.032-.038l-.032-.037c-.01-.013-.021-.025-.032-.038s-.021-.025-.031-.037-.022-.025-.032-.038-.022-.025-.032-.037l-.031-.038-.032-.037c-.011-.013-.022-.025-.032-.038s-.022-.024-.032-.037-.021-.025-.032-.038-.021-.024-.031-.037-.022-.025-.032-.038l-.032-.037c-.01-.013-.021-.025-.032-.038s-.021-.024-.031-.037-.022-.025-.032-.038-.022-.024-.032-.037-.022-.025-.032-.038-.021-.024-.031-.037-.022-.025-.032-.038-.022-.024-.032-.037-.021-.025-.032-.037-.021-.025-.032-.038l-.031-.038c-.011-.012-.022-.024-.032-.037s-.022-.025-.032-.038-.021-.024-.031-.037l-.032-.037c-.01-.013-.022-.025-.032-.038s-.022-.025-.032-.037-.021-.025-.032-.038-.021-.024-.031-.037-.022-.025-.032-.038l-.032-.037c-.01-.013-.022-.025-.032-.038s-.021-.025-.031-.037-.022-.025-.032-.038-.022-.024-.032-.037-.021-.025-.032-.038l-.032-.037-.031-.038c-.01-.012-.022-.024-.032-.037s-.022-.025-.032-.038-.021-.024-.031-.037-.022-.025-.032-.038-.022-.024-.032-.037-.022-.025-.032-.037-.021-.025-.032-.038-.021-.025-.031-.037-.022-.025-.032-.038-.022-.025-.032-.038L1154,714.2c-.01-.013-.021-.025-.031-.037s-.022-.025-.032-.038-.022-.025-.032-.037-.021-.025-.032-.038-.021-.024-.031-.037a11.65,11.65,0,0,0-1.343-1.42,29.471,29.471,0,0,0-10.438-5.525,33.674,33.674,0,0,0-12.4-.377,15.567,15.567,0,0,0-12.048,10.478,51.435,51.435,0,0,0-2.025,9.579,6.428,6.428,0,0,1-1.262,3.189l-1.269,1.7s2.871,3.226,3.176,3.748a5.192,5.192,0,0,1,.9-.152,15.025,15.025,0,0,1-.965,3.586s-5.2,12.988-13.627,9.9c0,0-.122,3.38-4.5,7.481,0,0-13.724,12.606-3.188,24.88,0,0,.041.053.123.148l.031.037.033.039.03.036.033.038.031.037.031.037.033.038.033.039.03.035.032.039.031.037.033.038.032.037.032.038.031.037.032.038.031.036.032.039.033.039.03.035.033.038.031.037.032.038.032.038.032.037.031.038.032.037.031.037.033.038.032.038.031.037.032.037.031.037.033.039.031.037.032.038.032.037.032.037.031.037.032.038.031.037.034.04.03.036.031.036.033.039.032.037.032.038.031.037.031.037.033.038.032.038.031.036.033.04.031.036.031.037.032.038.032.037.031.037.034.04.03.035.032.039.032.037.031.037.034.039.03.036.031.037.033.038.031.037.032.038.033.039.03.035.033.039.031.037.031.037.034.04.031.036.031.036.032.039.031.036.033.039.033.038.029.036.033.038.032.038.031.036.032.039.032.037.032.037.032.038.031.036.032.039.033.039.03.035.032.038.032.038.031.036.033.039.032.038.031.037a24.378,24.378,0,0,0,13.09,7.428q2.623.558,5.164,1.333a29.052,29.052,0,0,0,16.059.014C1149.615,788.607,1147.133,771.815,1147.133,771.815Z"/><path class="cls-49" d="M1143.925,768.03c-.738-5.423,1.516-8.253,1.516-8.253-9.06-1.43-4.286-14.527-4.286-14.527,3.484-9.109,7.552-4.429,7.552-4.429l.145-1.994a6.376,6.376,0,0,1,1.186-3.21,56.935,56.935,0,0,0,5.006-8.807c2.348-5.086,1.358-10.736-2.581-14.252a29.463,29.463,0,0,0-10.438-5.526,33.669,33.669,0,0,0-12.4-.377,15.567,15.567,0,0,0-12.049,10.478,51.43,51.43,0,0,0-2.025,9.58,6.432,6.432,0,0,1-1.262,3.189l-1.269,1.7s6.6-1.927,3.111,7.182c0,0-5.2,12.987-13.627,9.9,0,0-.122,3.381-4.5,7.481,0,0-13.725,12.606-3.189,24.881A24.158,24.158,0,0,0,1108,788.589q2.624.558,5.164,1.334a29.057,29.057,0,0,0,16.059.013C1146.407,784.821,1143.925,768.03,1143.925,768.03Z"/><polygon class="cls-50" points="1113.107 767.045 1114.938 755.18 1123.902 757.495 1115.565 767.68 1106.387 788.288 1104.652 787.84 1113.107 767.045"/><path class="cls-50" d="M1152.489,671.884l4.753,1.3-25.174,65.484-7.587-2.189S1151.02,674.589,1152.489,671.884Z"/><line class="cls-51" x1="1153.117" y1="678.975" x2="1120.301" y2="758.686"/><line class="cls-51" x1="1118.052" y1="758.105" x2="1151.827" y2="678.642"/><line class="cls-51" x1="1115.896" y1="757.548" x2="1150.5" y2="678.299"/><path class="cls-52" d="M1130.017,745.531s-1.783-.532.076-2.187a4.814,4.814,0,0,1,4.591-1.144,2.517,2.517,0,0,1,1.673,2.73,5.847,5.847,0,0,1-1,2.906c-2.18,3.407-9.019,14.715-5.721,17.578a1.753,1.753,0,0,0,2.307-.275,2.441,2.441,0,0,1,.447-3.112c1.1-1.03,2.927-1,3.382.1.254.613.119,1.472-1.121,2.6a7.036,7.036,0,0,1-4.419,1.884c-1.6.04-3.4-.579-3.754-3.416a8.464,8.464,0,0,1,.842-4.566,69.054,69.054,0,0,1,7.261-11.447,4.3,4.3,0,0,0,.772-1.579c.228-1.008.02-2.3-2.513-2.366C1132.841,743.237,1132.348,746.025,1130.017,745.531Z"/><path class="cls-52" d="M1118.711,742.272s1.835.4,1.54-1.809a3.436,3.436,0,0,0-6.24-1.644,6.1,6.1,0,0,0-1.319,2.824c-.728,3.783-3.464,16.15-8.235,16.928,0,0-1.806.067-1.669-1.3,0,0,2.105-.84,1.917-2.732a1.917,1.917,0,0,0-2.814-1.5,2.4,2.4,0,0,0-1,2.635,4.852,4.852,0,0,0,2.2,3.594c1.268.781,3.179,1.12,5.546-1.015a9.828,9.828,0,0,0,2.662-4.1,60.316,60.316,0,0,0,2.495-12.678,4.082,4.082,0,0,1,.531-1.641c.553-.923,1.67-1.876,3.77-.743C1118.1,739.091,1116.459,741.582,1118.711,742.272Z"/><polygon class="cls-49" points="1161.346 669.313 1159.397 668.81 1160.213 666.534 1154.954 665.176 1153.954 667.404 1151.479 666.765 1149.718 671.342 1151.93 671.913 1149.371 677.613 1155.66 679.238 1157.747 673.415 1160.128 674.03 1161.346 669.313"/></g></g></svg>