<svg xmlns="http://www.w3.org/2000/svg" xmlns:xlink="http://www.w3.org/1999/xlink" viewBox="0 0 1367 769">
  <defs>
    <clipPath id="a">
      <path d="M202.12,134.31S188.46,153.91,184.6,171l19.71-14.64Z" fill="none"/>
    </clipPath>
  </defs>
  <g>
    <path d="M267.18,81a5.76,5.76,0,0,0-1.87-4c-7.62,8-37.93,14-74.18,14s-66.57-6-74.19-14a5.76,5.76,0,0,0-1.87,4c0,9.89,34.05,17.91,76.06,17.9S267.18,90.85,267.18,81Z" fill="#5e2a15" stroke="#16221d" stroke-linecap="round" stroke-linejoin="round" stroke-width="1.5"/>
    <ellipse cx="191.12" cy="77.03" rx="74.19" ry="13.97" fill="#16221d" stroke="#16221d" stroke-miterlimit="10" stroke-width="1.5"/>
  </g>
  <path d="M192.61,85.91a1.28,1.28,0,1,0-1.28-1.28A1.28,1.28,0,0,0,192.61,85.91Z" fill="#16221d"/>
  <g>
    <path d="M198.39,64.53c-9.11,18-11.93,40.92-9.5,60.93-15.72-3.63-31.79,3-46.55,9.56l-19.43,8.58,15.47-31.85c4.18-8.6,8.38-17.25,11.3-26.36a94.77,94.77,0,0,0,4.11-19.34S188.16,63.06,198.39,64.53Z" fill="#4da58e" stroke="#16221d" stroke-linejoin="round" stroke-width="1.5"/>
    <g opacity="0.41">
      <path d="M153.79,66.05a94.77,94.77,0,0,1-4.11,19.34,187.5,187.5,0,0,1-10.17,24,36.91,36.91,0,0,0,17.8-7.79C165.72,95,172,86.09,179.66,78.69a80.64,80.64,0,0,1,18.21-13.12c.18-.36.34-.73.52-1.08C188.16,63.06,153.79,66.05,153.79,66.05Z" fill="#377563"/>
    </g>
  </g>
  <path d="M180.43,76.55A11.91,11.91,0,0,1,183,81a21.89,21.89,0,0,1-2,18.35,16.25,16.25,0,0,1-14.11,7.84,12.38,12.38,0,0,1-11.22-8.09,17.64,17.64,0,0,1-.75-7.11c.59-8.23,5.15-15.87,11.44-19.21A13.76,13.76,0,0,1,180.43,76.55Z" fill="#8dc5b7"/>
  <text transform="translate(160.37 82.52) rotate(90)" font-size="27.98" fill="#16221d" font-family="Arial-BoldMT, Arial" font-weight="700" style="isolation: isolate">$</text>
  <path d="M158.58,65.66s-.77,30.57-22.77,60.32c0,0,2.72-.74,2.8,5,0,0,15.12-10.73,39.85-11.06,0,0-3-3.64,4.83-4,0,0,.65-39.63,11.34-51.68" fill="none" stroke="#16221d" stroke-linecap="round" stroke-linejoin="round" stroke-width="1.5"/>
  <path d="M182.16,118.66a2.69,2.69,0,0,0-.94,2.33,1.72,1.72,0,0,0,1.85,1.44,2.56,2.56,0,0,0,1.46-1.12,3.19,3.19,0,0,0,.75-1.62,1.78,1.78,0,0,0-3.52-.49" fill="#8dc5b7"/>
  <path d="M132.68,131.05a2.67,2.67,0,0,0-.94,2.32,1.73,1.73,0,0,0,1.85,1.45,2.56,2.56,0,0,0,1.46-1.12,3.22,3.22,0,0,0,.75-1.63,1.78,1.78,0,0,0-3.52-.48" fill="#8dc5b7"/>
  <g>
    <path d="M202.11,134.27c-14.65,15.49-21,42.24-24.42,63.29l17.72-11.93c3-2,6.05-4.1,8.09-7.07,4.85-7.09,2.49-16.58.83-25a122,122,0,0,1-2.24-27.43,3.19,3.19,0,0,1,.62-2.19c1-1.1,2.86-.31,4.12.52l10.39,6.83a4.69,4.69,0,0,1,1.54,1.4c.79,1.36,0,3.06-.75,4.44l-12.62,22.56" fill="#4da58e" stroke="#16221d" stroke-linejoin="round" stroke-width="1.5"/>
    <path d="M218.76,132.69a4.69,4.69,0,0,0-1.54-1.4q-5.21-3.4-10.39-6.83c-1.26-.83-3.09-1.62-4.12-.52a3.19,3.19,0,0,0-.62,2.19c-.09,2.73-.07,5.45,0,8.18l2.69,20.89c.31,1.24.65,2.47,1,3.69L218,137.13C218.78,135.75,219.55,134.05,218.76,132.69Z" fill="#377563" opacity="0.41" style="isolation: isolate"/>
    <path d="M198.39,138.67s-.47,20.46,2.5,26.41a8.61,8.61,0,0,0-1.26,9.58s-11.15,6.11-14.19,9.74c0,0-.73-5.29-3.37-4.13" fill="#4da58e" stroke="#16221d" stroke-miterlimit="10" stroke-width="1.5"/>
    <path d="M180.9,185.62a4,4,0,0,0,0,3.17,1.39,1.39,0,0,0,.54.51,1.37,1.37,0,0,0,1.63-.62,3.63,3.63,0,0,0,.43-1.83,3.7,3.7,0,0,0-.14-1.55,1.18,1.18,0,0,0-2.29,0,3.92,3.92,0,0,0-.19,1.48" fill="#8dc5b7"/>
    <path d="M202.35,169.11a4,4,0,0,0,0,3.16,1.21,1.21,0,0,0,1.64.49,1.24,1.24,0,0,0,.54-.59,3.92,3.92,0,0,0,.43-1.84,3.7,3.7,0,0,0-.15-1.55,1.17,1.17,0,0,0-2.28,0,3.93,3.93,0,0,0-.2,1.48" fill="#8dc5b7"/>
    <path d="M202.52,140.83l2.5-8s2,.07,2.42-3.19a17,17,0,0,0,10.3,5.8" fill="none" stroke="#16221d" stroke-linecap="round" stroke-linejoin="round" stroke-width="1.5"/>
    <g clip-path="url(#a)">
      <path d="M191.46,139.15a6.9,6.9,0,0,1,2.12,2.08,15.6,15.6,0,0,1,2.36,11.22c-.69,3.72-2.88,6.63-5.62,7.65a6,6,0,0,1-7.11-2.34,12.1,12.1,0,0,1-1.69-4c-1.23-5-.36-10.44,2.18-13.76A6.49,6.49,0,0,1,191.46,139.15Z" fill="#8dc5b7"/>
    </g>
  </g>
</svg>
