<svg xmlns="http://www.w3.org/2000/svg" xmlns:xlink="http://www.w3.org/1999/xlink" width="1504.56" height="735.38" viewBox="0 0 1504.56 735.38">
  <defs>
    <clipPath id="a">
      <path d="M262.61,604.84c-35.65,3.71-66.66,21.81-104.27,19-51.08-3.8-88.72-16.6-138.64,6.24-4.41,2-8.94,4.4-11.6,8.46s-3,9.31-3,14.23c.14,15.19,3.21,30.67,11.21,43.59,18.58,30,51.85,27.46,82.4,22.8,28.78-4.39,55,8.5,83.11,10.79,30.95,2.51,55.44-9.74,85-16.43,26.2-5.93,78.74,8.29,92-22.47,19.87-46.11-19.43-74.85-60.19-84.2A108.43,108.43,0,0,0,262.61,604.84Z" fill="none"/>
    </clipPath>
    <clipPath id="b">
      <polygon points="191.67 398.41 115.25 423.39 115.25 181.91 189.01 181.91 191.67 398.41" fill="none"/>
    </clipPath>
    <clipPath id="c">
      <rect x="113.43" y="238.6" width="262.4" height="206.04" fill="none"/>
    </clipPath>
    <clipPath id="d">
      <path d="M88.34,399.54c-1.58-5.51-8.42-8.61-12.06-10.71s-7.84-8.86-9.21-17.52,1.55-9,6.7-13.63c2.86-2.57.73-4.7-1.73-6.1a14.61,14.61,0,0,0-5.94-1.83c-9.54-.82-11.66-8.24-11.66-8.24l-16.57,1.72s1.94,7.49-2.57,9.3-8.45,4.06-6.95,7.45,10.59,2.85,14.09,7.5,13.21,18.47,7,23.67c0,0-4.87,1.07-2.66,10.23Z" fill="none"/>
    </clipPath>
    <clipPath id="e">
      <path d="M111.58,333.67s1.59,7.08-4.43,9.62-11.13,5.35-8.63,9.13,12.18,4,17,6.49a21.91,21.91,0,0,1,10,12.16c1.46,4.52,3.84,11.13-1.17,13.6s-11.15,3.94-8.62,13.4L171,395.69a17.47,17.47,0,0,0-8.8-9.39c-6.9-3.39-10.39-4.11-13.37-13.45s-1.55-16.37,1.47-18.82,10.46-5.57,10.34-7.82-.65-4.43-10.14-6.83-11.55-9.44-11.55-9.44Z" fill="none"/>
    </clipPath>
    <clipPath id="f">
      <path d="M240.16,383.23c-2.41-.5-7.16-3.2-9.24-4.87s-18,.49-20.86,1.43-5.64,5.1-8.52,7.12c-2.06,1.44-1.69,5.31-1.31,7.41l22.3-1,24.21-1.13C245.75,387.86,242.36,383.69,240.16,383.23Z" fill="none"/>
    </clipPath>
    <pattern id="g" data-name="新增圖樣色票 2" width="871.45" height="899.05" patternTransform="matrix(0.75, 0, 0, -0.75, 969.91, -631.53)" patternUnits="userSpaceOnUse" viewBox="0 0 871.45 899.05">
      <rect width="871.45" height="899.05" fill="none"/>
      <rect width="871.45" height="899.05" fill="none"/>
      <circle cx="88.93" cy="896.62" r="1.27" fill="#fff"/>
      <circle cx="186.44" cy="841.27" r="1.27" fill="#fff"/>
      <circle cx="310.18" cy="897.78" r="1.27" fill="#fff"/>
      <circle cx="355.55" cy="815.14" r="1.27" fill="#fff"/>
      <circle cx="389.39" cy="775.01" r="1.27" fill="#fff"/>
      <circle cx="403.06" cy="890.65" r="1.27" fill="#fff"/>
      <circle cx="627.12" cy="712.71" r="1.27" fill="#fff"/>
      <circle cx="585.87" cy="788.38" r="1.27" fill="#fff"/>
      <circle cx="842.23" cy="827.06" r="1.27" fill="#fff"/>
      <circle cx="25.04" cy="709.2" r="1.27" fill="#fff"/>
      <circle cx="130.09" cy="706.17" r="1.27" fill="#fff"/>
      <circle cx="247.88" cy="703.16" r="1.27" fill="#fff"/>
      <circle cx="349.82" cy="700.47" r="1.27" fill="#fff"/>
      <circle cx="454.38" cy="845.53" r="1.27" fill="#fff"/>
      <circle cx="540.14" cy="749.59" r="1.27" fill="#fff"/>
      <circle cx="515.25" cy="821.97" r="1.27" fill="#fff"/>
      <circle cx="660.28" cy="732.81" r="1.27" fill="#fff"/>
      <circle cx="735.96" cy="709.54" r="1.27" fill="#fff"/>
      <circle cx="1.27" cy="662.69" r="1.27" fill="#fff"/>
      <circle cx="239.51" cy="714.06" r="1.27" fill="#fff"/>
      <circle cx="144.33" cy="733.78" r="1.27" fill="#fff"/>
      <circle cx="323.75" cy="605.5" r="1.27" fill="#fff"/>
      <circle cx="334.44" cy="724.98" r="1.27" fill="#fff"/>
      <circle cx="535.81" cy="769.11" r="1.27" fill="#fff"/>
      <circle cx="611.05" cy="607.31" r="1.27" fill="#fff"/>
      <circle cx="751.88" cy="653.66" r="1.27" fill="#fff"/>
      <circle cx="662.16" cy="701.25" r="1.27" fill="#fff"/>
      <circle cx="68.23" cy="526.62" r="1.27" fill="#fff"/>
      <circle cx="272.26" cy="559.61" r="1.27" fill="#fff"/>
      <circle cx="227.67" cy="667.86" r="1.27" fill="#fff"/>
      <circle cx="369.27" cy="676.66" r="1.27" fill="#fff"/>
      <circle cx="339.43" cy="613.62" r="1.27" fill="#fff"/>
      <circle cx="458.33" cy="692.33" r="1.27" fill="#fff"/>
      <circle cx="525.48" cy="500.41" r="1.27" fill="#fff"/>
      <circle cx="655.45" cy="612.5" r="1.27" fill="#fff"/>
      <circle cx="706.38" cy="496.34" r="1.27" fill="#fff"/>
      <circle cx="156.19" cy="398.01" r="1.27" fill="#fff"/>
      <circle cx="99.46" cy="473.65" r="1.27" fill="#fff"/>
      <circle cx="312.14" cy="600.48" r="1.27" fill="#fff"/>
      <circle cx="427.87" cy="461.22" r="1.27" fill="#fff"/>
      <circle cx="498.11" cy="522.86" r="1.27" fill="#fff"/>
      <circle cx="555.91" cy="621.66" r="1.27" fill="#fff"/>
      <circle cx="618.11" cy="462.91" r="1.27" fill="#fff"/>
      <circle cx="717.83" cy="552.3" r="1.27" fill="#fff"/>
      <circle cx="703.76" cy="535.68" r="1.27" fill="#fff"/>
      <circle cx="61.77" cy="383.44" r="1.27" fill="#fff"/>
      <circle cx="184.33" cy="328.02" r="1.27" fill="#fff"/>
      <circle cx="293.25" cy="444.08" r="1.27" fill="#fff"/>
      <circle cx="357.45" cy="443.24" r="1.27" fill="#fff"/>
      <circle cx="450.82" cy="424.59" r="1.27" fill="#fff"/>
      <circle cx="438.04" cy="316.2" r="1.27" fill="#fff"/>
      <circle cx="498.5" cy="410.24" r="1.27" fill="#fff"/>
      <circle cx="644.01" cy="391.88" r="1.27" fill="#fff"/>
      <circle cx="795.38" cy="468.72" r="1.27" fill="#fff"/>
      <circle cx="29.56" cy="302.77" r="1.27" fill="#fff"/>
      <circle cx="218" cy="392.23" r="1.27" fill="#fff"/>
      <circle cx="246.05" cy="369.76" r="1.27" fill="#fff"/>
      <circle cx="314.06" cy="459.46" r="1.27" fill="#fff"/>
      <circle cx="422.59" cy="477.65" r="1.27" fill="#fff"/>
      <circle cx="558.42" cy="324.42" r="1.27" fill="#fff"/>
      <circle cx="516.46" cy="295.87" r="1.27" fill="#fff"/>
      <circle cx="625.8" cy="449.58" r="1.27" fill="#fff"/>
      <circle cx="765.12" cy="287.07" r="1.27" fill="#fff"/>
      <circle cx="77.8" cy="197.66" r="1.27" fill="#fff"/>
      <circle cx="192.16" cy="313.41" r="1.27" fill="#fff"/>
      <circle cx="327.76" cy="262.87" r="1.27" fill="#fff"/>
      <circle cx="398.4" cy="199.04" r="1.27" fill="#fff"/>
      <circle cx="423" cy="348.9" r="1.27" fill="#fff"/>
      <circle cx="516.18" cy="309.53" r="1.27" fill="#fff"/>
      <circle cx="547.04" cy="272.64" r="1.27" fill="#fff"/>
      <circle cx="650.06" cy="377.73" r="1.27" fill="#fff"/>
      <circle cx="806.94" cy="423.52" r="1.27" fill="#fff"/>
      <circle cx="57.49" cy="220.41" r="1.27" fill="#fff"/>
      <circle cx="190.14" cy="127.5" r="1.27" fill="#fff"/>
      <circle cx="159.13" cy="124.37" r="1.27" fill="#fff"/>
      <circle cx="362.81" cy="194.55" r="1.27" fill="#fff"/>
      <circle cx="471.01" cy="133.84" r="1.27" fill="#fff"/>
      <circle cx="574.39" cy="291.94" r="1.27" fill="#fff"/>
      <circle cx="605.84" cy="215.36" r="1.27" fill="#fff"/>
      <circle cx="730.55" cy="254.97" r="1.27" fill="#fff"/>
      <circle cx="796.42" cy="158.85" r="1.27" fill="#fff"/>
      <circle cx="49.76" cy="192.42" r="1.27" fill="#fff"/>
      <circle cx="214.21" cy="1.27" r="1.27" fill="#fff"/>
      <circle cx="151.3" cy="221.73" r="1.27" fill="#fff"/>
      <circle cx="293.45" cy="54.11" r="1.27" fill="#fff"/>
      <circle cx="344.14" cy="23.27" r="1.27" fill="#fff"/>
      <circle cx="457.8" cy="206.17" r="1.27" fill="#fff"/>
      <circle cx="588.3" cy="63.97" r="1.27" fill="#fff"/>
      <circle cx="652.18" cy="50.43" r="1.27" fill="#fff"/>
      <circle cx="870.18" cy="180.41" r="1.27" fill="#fff"/>
    </pattern>
    <pattern id="h" data-name="新增圖樣色票 2-3" width="871.45" height="899.05" patternTransform="matrix(0.75, 0, 0, -0.75, 493.03, -377.44)" patternUnits="userSpaceOnUse" viewBox="0 0 871.45 899.05">
      <rect width="871.45" height="899.05" fill="none"/>
      <rect width="871.45" height="899.05" fill="none"/>
      <circle cx="88.93" cy="896.62" r="1.27" fill="#fff"/>
      <circle cx="186.44" cy="841.27" r="1.27" fill="#fff"/>
      <circle cx="310.18" cy="897.78" r="1.27" fill="#fff"/>
      <circle cx="355.55" cy="815.14" r="1.27" fill="#fff"/>
      <circle cx="389.39" cy="775.01" r="1.27" fill="#fff"/>
      <circle cx="403.06" cy="890.65" r="1.27" fill="#fff"/>
      <circle cx="627.12" cy="712.71" r="1.27" fill="#fff"/>
      <circle cx="585.87" cy="788.38" r="1.27" fill="#fff"/>
      <circle cx="842.23" cy="827.06" r="1.27" fill="#fff"/>
      <circle cx="25.04" cy="709.2" r="1.27" fill="#fff"/>
      <circle cx="130.09" cy="706.17" r="1.27" fill="#fff"/>
      <circle cx="247.88" cy="703.16" r="1.27" fill="#fff"/>
      <circle cx="349.82" cy="700.47" r="1.27" fill="#fff"/>
      <circle cx="454.38" cy="845.53" r="1.27" fill="#fff"/>
      <circle cx="540.14" cy="749.59" r="1.27" fill="#fff"/>
      <circle cx="515.25" cy="821.97" r="1.27" fill="#fff"/>
      <circle cx="660.28" cy="732.81" r="1.27" fill="#fff"/>
      <circle cx="735.96" cy="709.54" r="1.27" fill="#fff"/>
      <circle cx="1.27" cy="662.69" r="1.27" fill="#fff"/>
      <circle cx="239.51" cy="714.06" r="1.27" fill="#fff"/>
      <circle cx="144.33" cy="733.78" r="1.27" fill="#fff"/>
      <circle cx="323.75" cy="605.5" r="1.27" fill="#fff"/>
      <circle cx="334.44" cy="724.98" r="1.27" fill="#fff"/>
      <circle cx="535.81" cy="769.11" r="1.27" fill="#fff"/>
      <circle cx="611.05" cy="607.31" r="1.27" fill="#fff"/>
      <circle cx="751.88" cy="653.66" r="1.27" fill="#fff"/>
      <circle cx="662.16" cy="701.25" r="1.27" fill="#fff"/>
      <circle cx="68.23" cy="526.62" r="1.27" fill="#fff"/>
      <circle cx="272.26" cy="559.61" r="1.27" fill="#fff"/>
      <circle cx="227.67" cy="667.86" r="1.27" fill="#fff"/>
      <circle cx="369.27" cy="676.66" r="1.27" fill="#fff"/>
      <circle cx="339.43" cy="613.62" r="1.27" fill="#fff"/>
      <circle cx="458.33" cy="692.33" r="1.27" fill="#fff"/>
      <circle cx="525.48" cy="500.41" r="1.27" fill="#fff"/>
      <circle cx="655.45" cy="612.5" r="1.27" fill="#fff"/>
      <circle cx="706.38" cy="496.34" r="1.27" fill="#fff"/>
      <circle cx="156.19" cy="398.01" r="1.27" fill="#fff"/>
      <circle cx="99.46" cy="473.65" r="1.27" fill="#fff"/>
      <circle cx="312.14" cy="600.48" r="1.27" fill="#fff"/>
      <circle cx="427.87" cy="461.22" r="1.27" fill="#fff"/>
      <circle cx="498.11" cy="522.86" r="1.27" fill="#fff"/>
      <circle cx="555.91" cy="621.66" r="1.27" fill="#fff"/>
      <circle cx="618.11" cy="462.91" r="1.27" fill="#fff"/>
      <circle cx="717.83" cy="552.3" r="1.27" fill="#fff"/>
      <circle cx="703.76" cy="535.68" r="1.27" fill="#fff"/>
      <circle cx="61.77" cy="383.44" r="1.27" fill="#fff"/>
      <circle cx="184.33" cy="328.02" r="1.27" fill="#fff"/>
      <circle cx="293.25" cy="444.08" r="1.27" fill="#fff"/>
      <circle cx="357.45" cy="443.24" r="1.27" fill="#fff"/>
      <circle cx="450.82" cy="424.59" r="1.27" fill="#fff"/>
      <circle cx="438.04" cy="316.2" r="1.27" fill="#fff"/>
      <circle cx="498.5" cy="410.24" r="1.27" fill="#fff"/>
      <circle cx="644.01" cy="391.88" r="1.27" fill="#fff"/>
      <circle cx="795.38" cy="468.72" r="1.27" fill="#fff"/>
      <circle cx="29.56" cy="302.77" r="1.27" fill="#fff"/>
      <circle cx="218" cy="392.23" r="1.27" fill="#fff"/>
      <circle cx="246.05" cy="369.76" r="1.27" fill="#fff"/>
      <circle cx="314.06" cy="459.46" r="1.27" fill="#fff"/>
      <circle cx="422.59" cy="477.65" r="1.27" fill="#fff"/>
      <circle cx="558.42" cy="324.42" r="1.27" fill="#fff"/>
      <circle cx="516.46" cy="295.87" r="1.27" fill="#fff"/>
      <circle cx="625.8" cy="449.58" r="1.27" fill="#fff"/>
      <circle cx="765.12" cy="287.07" r="1.27" fill="#fff"/>
      <circle cx="77.8" cy="197.66" r="1.27" fill="#fff"/>
      <circle cx="192.16" cy="313.41" r="1.27" fill="#fff"/>
      <circle cx="327.76" cy="262.87" r="1.27" fill="#fff"/>
      <circle cx="398.4" cy="199.04" r="1.27" fill="#fff"/>
      <circle cx="423" cy="348.9" r="1.27" fill="#fff"/>
      <circle cx="516.18" cy="309.53" r="1.27" fill="#fff"/>
      <circle cx="547.04" cy="272.64" r="1.27" fill="#fff"/>
      <circle cx="650.06" cy="377.73" r="1.27" fill="#fff"/>
      <circle cx="806.94" cy="423.52" r="1.27" fill="#fff"/>
      <circle cx="57.49" cy="220.41" r="1.27" fill="#fff"/>
      <circle cx="190.14" cy="127.5" r="1.27" fill="#fff"/>
      <circle cx="159.13" cy="124.37" r="1.27" fill="#fff"/>
      <circle cx="362.81" cy="194.55" r="1.27" fill="#fff"/>
      <circle cx="471.01" cy="133.84" r="1.27" fill="#fff"/>
      <circle cx="574.39" cy="291.94" r="1.27" fill="#fff"/>
      <circle cx="605.84" cy="215.36" r="1.27" fill="#fff"/>
      <circle cx="730.55" cy="254.97" r="1.27" fill="#fff"/>
      <circle cx="796.42" cy="158.85" r="1.27" fill="#fff"/>
      <circle cx="49.76" cy="192.42" r="1.27" fill="#fff"/>
      <circle cx="214.21" cy="1.27" r="1.27" fill="#fff"/>
      <circle cx="151.3" cy="221.73" r="1.27" fill="#fff"/>
      <circle cx="293.45" cy="54.11" r="1.27" fill="#fff"/>
      <circle cx="344.14" cy="23.27" r="1.27" fill="#fff"/>
      <circle cx="457.8" cy="206.17" r="1.27" fill="#fff"/>
      <circle cx="588.3" cy="63.97" r="1.27" fill="#fff"/>
      <circle cx="652.18" cy="50.43" r="1.27" fill="#fff"/>
      <circle cx="870.18" cy="180.41" r="1.27" fill="#fff"/>
    </pattern>
    <clipPath id="i">
      <path d="M1276.21,329.13,1191.87,312l-123.28,26.46,67.6,21.38s35,.21,49.47-7.4,24.73-17.13,43.72-16.11S1272,333,1276.21,329.13Z" fill="none"/>
    </clipPath>
    <clipPath id="j">
      <path d="M1229.38,336.31c-19-1-29.28,8.5-43.72,16.11s-49.47,7.4-49.47,7.4l-.88,33.46s32.11-.22,47.14-10.3,30.42-21,47.06-20.39,30.61,3.67,43.16-2.67l3.54-30.79C1272,333,1248.37,337.33,1229.38,336.31Z" fill="none"/>
    </clipPath>
    <clipPath id="k">
      <path d="M1361.94,350.37s-7.75,10.86-31.75,12.89-51,13.83-56.41,31.9l93.71,28.4L1435.7,366Z" fill="none"/>
    </clipPath>
    <clipPath id="l">
      <path d="M1174.13,542.71c-15.2,1.59-28.43,9.31-44.47,8.12-21.79-1.63-37.85-7.09-59.14,2.66-1.88.86-3.81,1.87-4.94,3.6a10.79,10.79,0,0,0-1.27,6.07c.06,6.48,1.37,13.09,4.78,18.6,7.92,12.8,22.11,11.71,35.14,9.72,12.28-1.87,23.45,3.63,35.45,4.6,13.2,1.07,23.65-4.15,36.26-7,11.18-2.53,33.59,3.54,39.24-9.58,8.48-19.67-8.29-31.93-25.67-35.92A46.5,46.5,0,0,0,1174.13,542.71Z" fill="none"/>
    </clipPath>
  </defs>
  <g>
    <g clip-path="url(#a)">
      <g>
        <path d="M262.61,604.84c-35.65,3.71-66.66,21.81-104.27,19-51.08-3.8-88.72-16.6-138.64,6.24-4.41,2-8.94,4.4-11.6,8.46s-3,9.31-3,14.23c.14,15.19,3.21,30.67,11.21,43.59,18.58,30,51.85,27.46,82.4,22.8,28.78-4.39,55,8.5,83.11,10.79,30.95,2.51,55.44-9.74,85-16.43,26.2-5.93,78.74,8.29,92-22.47,19.87-46.11-19.43-74.85-60.19-84.2A108.43,108.43,0,0,0,262.61,604.84Z" fill="#f2e6d4" stroke="#16221d" stroke-miterlimit="10" stroke-width="1.38"/>
        <path d="M361.48,651.75s-11.88,43.65-68.83,37.84c-14-1.43-27-7.56-37.83-16.61-10.59-8.89-28.36-19-49.67-12.09a51,51,0,0,0-21.68,14.22c-11.57,12.53-54.24,45.8-167.14,21.26,0,0,2.89,42.42,9.28,43.81s203.66,13.5,203.66,13.5H400.14Z" fill="#fbc8a2"/>
      </g>
    </g>
    <path d="M262.61,604.84c-35.65,3.71-66.66,21.81-104.27,19-51.08-3.8-88.72-16.6-138.64,6.24-4.41,2-8.94,4.4-11.6,8.46s-3,9.31-3,14.23c.14,15.19,3.21,30.67,11.21,43.59,18.58,30,51.85,27.46,82.4,22.8,28.78-4.39,55,8.5,83.11,10.79,30.95,2.51,55.44-9.74,85-16.43,26.2-5.93,78.74,8.29,92-22.47,19.87-46.11-19.43-74.85-60.19-84.2A108.43,108.43,0,0,0,262.61,604.84Z" fill="none" stroke="#16221d" stroke-miterlimit="10" stroke-width="1.38"/>
    <path d="M309.41,549.09,219.33,70.53,13.6,7.06c24.54,197.08,97.62,494.69,109.34,692.56L308.33,548.38" fill="#b05232" stroke="#16221d" stroke-miterlimit="10"/>
    <path d="M1385.14,699.62c11.72-197.87,84.8-495.48,109.35-692.56L1288.75,70.53l-90.08,478.56Z" fill="#b05232" stroke="#16221d" stroke-miterlimit="10"/>
    <polygon points="309.36 549.09 1200.09 545.34 1285.79 70.38 218.77 70.38 309.36 549.09" fill="#b05232" stroke="#16221d" stroke-miterlimit="10"/>
    <polygon points="527.56 645.1 996.12 645.1 1200.09 545.34 308.32 548.38 527.56 645.1" fill="#b05232" stroke="#16221d" stroke-linecap="round" stroke-linejoin="round"/>
    <polygon points="209.74 398.27 115.25 429.13 115.25 423.39 191.67 398.41 209.74 398.27" fill="#d3bccb" stroke="#0c0007" stroke-linecap="round" stroke-linejoin="round" stroke-width="1.5"/>
    <polygon points="189.01 181.91 207.24 181.91 209.9 398.22 209.74 398.27 191.67 398.41 189.01 181.91" fill="#7c3b25" stroke="#16221d" stroke-miterlimit="10" stroke-width="1.5"/>
    <g clip-path="url(#b)">
      <polygon points="191.67 395.68 115.25 420.65 115.25 179.17 189.01 179.17 191.67 395.68" fill="#16221d" stroke="#16221d" stroke-miterlimit="10" stroke-width="1.41"/>
    </g>
    <polygon points="191.67 398.41 115.25 423.39 115.25 181.91 189.01 181.91 191.67 398.41" fill="none" stroke="#16221d" stroke-miterlimit="10" stroke-width="1.5"/>
    <g clip-path="url(#c)">
      <g>
        <path d="M276.39,282.76a7.86,7.86,0,0,1-2.16,2.29c-1.48.9-3.66.93-4.46,2.48-.88,1.71.71,4-.24,5.67-.48.86-1.5,1.27-2.14,2a3,3,0,0,0,.58,4.26,2.59,2.59,0,0,0,.39.25c1,.46,2.3.48,2.76,1.45a97.72,97.72,0,0,1-13.95,7.36,10.23,10.23,0,0,0,3.15-5c.67-1.86,1.22-3.94.45-5.75a7.32,7.32,0,0,0-2.39-2.76A22.75,22.75,0,0,0,250,291l3.87-12.29c-35.4,5.6-78.44,7.77-78.44,7.77-.48,1.33-7.86,7.36-14.4,9.83a22.35,22.35,0,0,1-14.88.25c-2.05-.85.95-4.36.95-4.36a60.77,60.77,0,0,1-26.34,5.65c-10.94,6.9-23.86,9.27-23.86,9.27l-6.21-3.49-4.56,9.09-26.91,3.61-2.47-3.57-9.71,1L17.63,336.19s1,4.83.56,7.63-3.11,6.4-.83,11.19l-8.21,7.11L287.39,331l-10.9-48.36Z" fill="#fff" stroke="#16221d" stroke-linecap="round" stroke-linejoin="round" stroke-width="1.5"/>
        <path d="M101.27,313.72a40.21,40.21,0,0,1,18-6.65c1.73-.2,3.84-.1,4.73,1.39.6,1,.42,2.34,1.06,3.31s2.19,1.38,3.49,1.38c6.48,0,12-4.26,17.43-7.84,6.14-4.08,13-7.59,20.31-8.15,4.79-.36,9.61.55,14.39.12a26.18,26.18,0,0,0,13.91-5.58,10.52,10.52,0,0,0,2.83-3.15c1-2,1-4.3,1-6.53a2.45,2.45,0,0,0-3.19-2.75,112.69,112.69,0,0,0-18.21,2.23c-21.61,3.93-43,8.8-64.67,12.66a40.82,40.82,0,0,0-10,2.66c-3.14,1.45-6,3.88-7.15,7.13s-.28,7.36,2.61,9.26a3.32,3.32,0,0,0,2.81.58" fill="#4da58e" stroke="#16221d" stroke-miterlimit="10" stroke-width="1.5"/>
        <path d="M96.61,328.55a17.55,17.55,0,0,0,14.67-3.4c.94-.76,1.88-1.94,1.43-3.06-.19-.46-.6-.82-.77-1.29a2.63,2.63,0,0,1,1-2.54c2.48-2.51,5.95-4,8-6.83a1.72,1.72,0,0,0,.4-1.66c-.32-.65-1.23-.69-1.94-.6-7.4.93-13.79,5.56-19.4,10.47a21.6,21.6,0,0,0-4.1,4.39,4.44,4.44,0,0,0-.88,2.71,2,2,0,0,0,1.83,1.91" fill="#4da58e" stroke="#16221d" stroke-miterlimit="10" stroke-width="1.5"/>
        <path d="M60.07,327.14c0,.08-2.47,2.75,3.6,2.92s18.54-3.27,17.57-1.05-6.86,5.27-5.64,6.54a8.65,8.65,0,0,0,3.12,1.91l1.24-.3-.85-3s3.9-2.93,3.72-10.35Z" fill="#4da58e" stroke="#16221d" stroke-miterlimit="10" stroke-width="1.5"/>
        <polyline points="81.17 331.53 99.77 329.17 97.59 332.05" fill="none" stroke="#16221d" stroke-linecap="round" stroke-linejoin="round" stroke-width="1.5"/>
        <polyline points="99.77 329.17 100.67 332.15 98.24 334.74 97.59 332.05 79.11 334.16" fill="none" stroke="#16221d" stroke-linecap="round" stroke-linejoin="round" stroke-width="1.5"/>
        <path d="M127.61,302.14s0,4.17-1.24,5.52-1.46,1.95,1,2.29,11.36.18,15.93-3.85,1.91-4.38.7-5.07-2.55-4.56-2.55-4.56S134.19,295.81,127.61,302.14Z" fill="#fff" stroke="#16221d" stroke-miterlimit="10" stroke-width="1.5"/>
        <path d="M131.46,300.14l6.08-.16s4.07-2.7,3.15-2.86S134.15,297.3,131.46,300.14Z" fill="#16221d" stroke="#16221d" stroke-miterlimit="10" stroke-width="1.5"/>
        <path d="M128.28,302.6s1.27.92,6.13-.57a17.56,17.56,0,0,0,7.44-4.42" fill="none" stroke="#16221d" stroke-miterlimit="10" stroke-width="1.5"/>
        <path d="M258.38,295.08a7.32,7.32,0,0,1,2.39,2.76c.77,1.81.22,3.89-.45,5.75a10.23,10.23,0,0,1-3.15,5,97.72,97.72,0,0,0,13.95-7.36c-.46-1-1.79-1-2.76-1.45a3,3,0,0,1-1.22-4.12,4.25,4.25,0,0,1,.25-.39c.64-.75,1.66-1.16,2.14-2,1-1.68-.64-4,.24-5.67.8-1.55,3-1.58,4.46-2.48a7.86,7.86,0,0,0,2.16-2.29l.1-.14-1.78-7.9c-6.28,1.49-13.38,2.81-20.81,4L250,291A22.67,22.67,0,0,1,258.38,295.08Z" fill="#4da58e" stroke="#16221d" stroke-linecap="round" stroke-linejoin="round" stroke-width="1.5"/>
        <path d="M228,273.77c-4.76-1.74-.86-3.57-.86-3.57L95,295l-4.33,8.63,6.22,3.49s12.92-2.37,23.86-9.27a60.94,60.94,0,0,0,26.34-5.64s-3,3.51-1,4.35a22.38,22.38,0,0,0,14.89-.25c6.54-2.47,13.92-8.5,14.4-9.83,0,0,63-3.19,99.25-11.76l-1.85-8.24S232.8,275.51,228,273.77Z" fill="#fff" stroke="#16221d" stroke-linecap="round" stroke-linejoin="round" stroke-width="1.5"/>
        <line x1="203.11" y1="297.72" x2="209.3" y2="323.84" fill="none" stroke="#16221d" stroke-miterlimit="10" stroke-width="1.5"/>
        <polygon points="57.55 316.74 60.07 327.14 96.66 321.78 108.53 311.66 105.88 300.91 57.55 316.74" fill="#ccc" stroke="#16221d" stroke-miterlimit="10" stroke-width="1.5"/>
        <path d="M70.18,306.33,57.8,315.71a.82.82,0,0,0,.66,1.47l34.48-5.77a4,4,0,0,0,1.89-.88l10.75-9.08a.82.82,0,0,0,.12-1.16.84.84,0,0,0-.82-.28l-34.32,6.15A.77.77,0,0,0,70.18,306.33Z" fill="#16221d" stroke="#16221d" stroke-miterlimit="10" stroke-width="1.5"/>
        <path d="M100.2,330.21s6.78-2.36,8.7-5.38,1.18-2.37,1.18-2.37a10.31,10.31,0,0,1-4.25-5.2,7.72,7.72,0,0,0-1.19-2.25v0s-3.95-1-12.41,2.39-9.4,6.43-9.4,6.43-.24,5.51-1.65,7.72l18.6-2.36Z" fill="#fff" stroke="#16221d" stroke-miterlimit="10" stroke-width="1.5"/>
        <path d="M82.82,323.81s-.62,1.6.74,2,22.1-2.28,22.16-8.8" fill="none" stroke="#16221d" stroke-miterlimit="10" stroke-width="1.5"/>
        <path d="M83.79,324.49c.56,1.05,3,.58,5.15.25s14.33-3.49,15.57-6.83-4.44-2.54-9.8-.7S82.8,322.64,83.79,324.49Z" fill="#16221d" stroke="#16221d" stroke-miterlimit="10" stroke-width="1.5"/>
        <path d="M104.62,309.71l.61,6.2.75,2.14s3.55,1,8.39-2.6,4.64-6.33,4.64-6.33-3.46-1.72-4-3-1.2-2.61-2.3-2.18S104.93,307,104.62,309.71Z" fill="#fff" stroke="#16221d" stroke-miterlimit="10" stroke-width="1.5"/>
        <path d="M105.48,310.07c.32.36,1.31-.06,2.16-.4s5.67-2.77,5.91-4.22-2.06-.6-4.14.65S104.92,309.42,105.48,310.07Z" fill="#16221d" stroke="#16221d" stroke-miterlimit="10" stroke-width="1.5"/>
        <line x1="94.12" y1="311.76" x2="95.19" y2="316.2" fill="none" stroke="#16221d" stroke-miterlimit="10" stroke-width="1.5"/>
        <path d="M93.2,302.11,96.09,296l21-3.87s2.28,4.91,9.69,4.32,19.59-5,19.89-5.43-.51-3.43,2.55-5.38l20.9-3.58,44.75-8.24" fill="none" stroke="#16221d" stroke-miterlimit="10" stroke-width="1.5"/>
        <path d="M245.18,290.35s.27.11.72.32c2.71,1.24,12.15,5.79,12.76,9.59.71,4.45-20.16,16.28-33.18,21.23s-39.68,4.29-46.08,2.19-21.19,1.06-28.35.43-14.79-7.92-3.5-17.51,25.19-8.44,25.19-8.44l61.53-17.05,11.18,9.35" fill="#4da58e" stroke="#16221d" stroke-linecap="round" stroke-linejoin="round" stroke-width="1.5"/>
        <polygon points="253.94 274.77 217.16 273.99 168.58 295.4 203.11 297.73 253.94 274.77" fill="#fff" stroke="#16221d" stroke-linecap="round" stroke-linejoin="round" stroke-width="1.5"/>
        <polygon points="250.02 275.68 217.41 275.04 172.3 294.66 202.53 296.36 250.02 275.68" fill="#16221d" stroke="#16221d" stroke-miterlimit="10" stroke-width="1.5"/>
        <polygon points="203.11 297.73 168.58 295.4 168.58 295.4 174.46 319.73 209.3 323.84 257.74 298.94 253.94 274.77 203.11 297.73" fill="#ccc" stroke="#16221d" stroke-linecap="round" stroke-linejoin="round" stroke-width="1.5"/>
        <path d="M225.8,327.29c-3.69-.65-6.45-8.08-6.45-8.08-6.46-5.46-21.69,2.06-21.69,2.06l-47.5,6.26s-2.07-.78-3.53-1.16-2.6-2.82-2.6-2.82c-1.9-3.88-9-7.15-19.86-4.08s-14.06,13.62-14.06,13.62l-42.88,6c-1.5.12-7-3.28-7-3.28s1.8-2.53-7.19-.84c-11.32,2.13-16.4,8.11-16.47,8.6-1,6.87.37,7.06-4.77,8.82-2.51.86-6,3.95-4.73,7.76h0c1.31,3.8,4,3.65,5.61,4.2s7.43-.8,14,11,1.74,14.92,1.74,14.92c-5.92,4.48-2.86,11.27-2.86,11.27l154.66-7.22c-.38-2.1-.75-6,1.31-7.41,2.88-2,5.61-6.18,8.52-7.12s18.77-3.09,20.85-1.43,6.84,4.37,9.25,4.87c2.2.46,5.59,4.63,6.58,8.92l2-.1c1.76-11.09-12.46-13.52-15.53-15.59s-6.33-14.94-5.77-22.63,12.36-10.3,13.77-10.55,7.58-1.43,7.09-7.92S229.49,328,225.8,327.29Z" fill="#ccc" stroke="#16221d" stroke-linecap="round" stroke-linejoin="round" stroke-width="1.5"/>
        <path d="M88.34,399.54c-1.58-5.51-8.42-8.61-12.06-10.71s-7.84-8.86-9.21-17.52,1.55-9,6.7-13.63c2.86-2.57.73-4.7-1.73-6.1a14.61,14.61,0,0,0-5.94-1.83c-9.54-.82-11.66-8.24-11.66-8.24l-16.57,1.72s1.94,7.49-2.57,9.3-8.45,4.06-6.95,7.45,10.59,2.85,14.09,7.5,13.21,18.47,7,23.67c0,0-4.87,1.07-2.66,10.23Z" fill="#16221d" stroke="#16221d" stroke-miterlimit="10" stroke-width="1.5"/>
        <path d="M56,341.12s2.17,6,6.76,6.56,11.39,1.77,12.71,5.73-1.22,6-4.51,8-4.18,6.62-1.83,13.34,3.09,11.05,9.8,14.37,9.32,5.82,10.46,10.36l25.31-1.18s-2.3-7.22,1.12-10,11.3-3.09,10-10.56-4.85-17.31-17.36-19.71-10.83-3.71-11.63-6.29.29-6,7.42-8.17,6.22-7.4,5.94-9.56Z" fill="#fff" stroke="#16221d" stroke-linecap="round" stroke-linejoin="round" stroke-width="1.5"/>
        <path d="M111.58,333.67s1.59,7.08-4.43,9.62-11.13,5.35-8.63,9.13,12.18,4,17,6.49a21.91,21.91,0,0,1,10,12.16c1.46,4.52,3.84,11.13-1.17,13.6s-11.15,3.94-8.62,13.4L171,395.69a17.47,17.47,0,0,0-8.8-9.39c-6.9-3.39-10.39-4.11-13.37-13.45s-1.55-16.37,1.47-18.82,10.46-5.57,10.34-7.82-.65-4.43-10.14-6.83-11.55-9.44-11.55-9.44Z" fill="#16221d" stroke="#16221d" stroke-miterlimit="10" stroke-width="1.5"/>
        <path d="M140.42,329.41s2.36,6.75,8.11,8.14,13.59,2.54,13.65,7.45-8.16,8.6-10.9,10-4.32,19.33,2.65,25,16.63,7.92,18.62,15.62l26.37-1.23s-1.28-6.65,1.81-8.84,8.4-5.11,6.21-14.67-2.31-18.76-16.66-23.09-3.54-11.63-1.25-13.14,9.18-4.87,7.91-12.64Z" fill="#fff" stroke="#16221d" stroke-miterlimit="10" stroke-width="1.5"/>
        <path d="M45.57,401.54s-3.07-6.79,2.85-11.27c0,0,4.82-3.09-1.74-14.92s-12.41-10.48-14-11-4.3-.4-5.6-4.21h0L9,362.14l15.93,40.32,175.34-8.14h0Z" fill="#fff" stroke="#16221d" stroke-linecap="round" stroke-linejoin="round" stroke-width="1.5"/>
        <polygon points="200.23 394.32 222.53 393.28 200.23 394.32 200.23 394.32" fill="none" stroke="#16221d" stroke-miterlimit="10" stroke-width="1.5"/>
        <path d="M287.39,331l-39.13,4.38c.49,6.49-5.69,7.66-7.09,7.92S228,346.15,227.4,353.83s2.71,20.57,5.78,22.63,16.43,4.17,15.52,15.59l46-2.14Z" fill="#fff" stroke="#16221d" stroke-miterlimit="10" stroke-width="1.5"/>
        <polygon points="246.74 392.15 248.7 392.05 248.7 392.05 246.74 392.15 246.74 392.15" fill="none" stroke="#16221d" stroke-miterlimit="10" stroke-width="1.5"/>
        <polygon points="222.53 393.28 246.74 392.15 246.74 392.15 222.53 393.28" fill="none" stroke="#16221d" stroke-miterlimit="10" stroke-width="1.5"/>
        <path d="M240.16,383.23c-2.41-.5-7.16-3.2-9.24-4.87s-18,.49-20.86,1.43-5.64,5.1-8.52,7.12c-2.06,1.44-1.69,5.31-1.31,7.41l22.3-1,24.21-1.13C245.75,387.86,242.36,383.69,240.16,383.23Z" fill="#16221d" stroke="#16221d" stroke-miterlimit="10" stroke-width="1.5"/>
        <path d="M111.82,332.67l27.92-3.83s3.52-4.17,2.32-6.34-9.24-6.07-19.41-1.57S111.82,332.67,111.82,332.67Z" fill="#16221d" stroke="#16221d" stroke-miterlimit="10" stroke-width="1.5"/>
        <g clip-path="url(#d)">
          <g>
            <line x1="45.36" y1="341.07" x2="68.6" y2="402.83" fill="none" stroke="#fff" stroke-miterlimit="10" stroke-width="1.5"/>
            <line x1="52.81" y1="339.79" x2="75.36" y2="401.72" fill="none" stroke="#fff" stroke-miterlimit="10" stroke-width="1.5"/>
            <line x1="60.48" y1="337.93" x2="83.04" y2="399.86" fill="none" stroke="#fff" stroke-miterlimit="10" stroke-width="1.5"/>
            <line x1="91.1" y1="394.41" x2="35.21" y2="398.08" fill="none" stroke="#fff" stroke-miterlimit="10" stroke-width="1.5"/>
            <line x1="89.43" y1="387.03" x2="33.54" y2="390.7" fill="none" stroke="#fff" stroke-miterlimit="10" stroke-width="1.5"/>
            <line x1="87.76" y1="379.64" x2="31.87" y2="383.31" fill="none" stroke="#fff" stroke-miterlimit="10" stroke-width="1.5"/>
            <line x1="86.09" y1="372.26" x2="30.2" y2="375.93" fill="none" stroke="#fff" stroke-miterlimit="10" stroke-width="1.5"/>
            <line x1="84.42" y1="364.87" x2="28.53" y2="368.55" fill="none" stroke="#fff" stroke-miterlimit="10" stroke-width="1.5"/>
            <line x1="82.76" y1="357.49" x2="26.87" y2="361.16" fill="none" stroke="#fff" stroke-miterlimit="10" stroke-width="1.5"/>
            <line x1="81.09" y1="350.11" x2="25.2" y2="353.78" fill="none" stroke="#fff" stroke-miterlimit="10" stroke-width="1.5"/>
            <line x1="79.42" y1="342.72" x2="23.53" y2="346.39" fill="none" stroke="#fff" stroke-miterlimit="10" stroke-width="1.5"/>
          </g>
        </g>
        <g clip-path="url(#e)">
          <g>
            <line x1="172.85" y1="386.92" x2="104.85" y2="391.73" fill="none" stroke="#fff" stroke-miterlimit="10" stroke-width="1.5"/>
            <line x1="170.87" y1="378.17" x2="102.87" y2="382.98" fill="none" stroke="#fff" stroke-miterlimit="10" stroke-width="1.5"/>
            <line x1="168.9" y1="369.42" x2="100.89" y2="374.22" fill="none" stroke="#fff" stroke-miterlimit="10" stroke-width="1.5"/>
            <line x1="166.92" y1="360.66" x2="98.92" y2="365.47" fill="none" stroke="#fff" stroke-miterlimit="10" stroke-width="1.5"/>
            <line x1="164.94" y1="351.91" x2="96.94" y2="356.72" fill="none" stroke="#fff" stroke-miterlimit="10" stroke-width="1.5"/>
            <line x1="162.96" y1="343.16" x2="94.96" y2="347.97" fill="none" stroke="#fff" stroke-miterlimit="10" stroke-width="1.5"/>
            <line x1="160.98" y1="334.41" x2="92.98" y2="339.22" fill="none" stroke="#fff" stroke-miterlimit="10" stroke-width="1.5"/>
            <line x1="94.27" y1="332.49" x2="115.92" y2="404.95" fill="none" stroke="#fff" stroke-miterlimit="10" stroke-width="1.5"/>
            <line x1="102.68" y1="331.15" x2="124.33" y2="403.62" fill="none" stroke="#fff" stroke-miterlimit="10" stroke-width="1.5"/>
            <line x1="111.91" y1="331.54" x2="133.56" y2="404.01" fill="none" stroke="#fff" stroke-miterlimit="10" stroke-width="1.5"/>
            <line x1="121.14" y1="331.93" x2="142.78" y2="404.4" fill="none" stroke="#fff" stroke-miterlimit="10" stroke-width="1.5"/>
            <line x1="130.36" y1="332.32" x2="152.01" y2="404.78" fill="none" stroke="#fff" stroke-miterlimit="10" stroke-width="1.5"/>
            <line x1="139.59" y1="332.71" x2="161.23" y2="405.17" fill="none" stroke="#fff" stroke-miterlimit="10" stroke-width="1.5"/>
            <line x1="148.81" y1="333.1" x2="170.46" y2="405.56" fill="none" stroke="#fff" stroke-miterlimit="10" stroke-width="1.5"/>
          </g>
        </g>
        <g clip-path="url(#f)">
          <g>
            <line x1="202.76" y1="377.5" x2="206.55" y2="399.15" fill="none" stroke="#fff" stroke-miterlimit="10" stroke-width="1.5"/>
            <line x1="212.37" y1="376.12" x2="216.15" y2="397.77" fill="none" stroke="#fff" stroke-miterlimit="10" stroke-width="1.5"/>
            <line x1="222.68" y1="374.7" x2="226.47" y2="396.36" fill="none" stroke="#fff" stroke-miterlimit="10" stroke-width="1.5"/>
            <line x1="233.46" y1="373.45" x2="237.25" y2="395.1" fill="none" stroke="#fff" stroke-miterlimit="10" stroke-width="1.5"/>
            <line x1="199.12" y1="387.55" x2="250.82" y2="383.37" fill="none" stroke="#fff" stroke-miterlimit="10" stroke-width="1.5"/>
          </g>
        </g>
        <path d="M269.59,288s-.74,2.75,8.77,2.86" fill="none" stroke="#16221d" stroke-linecap="round" stroke-linejoin="round" stroke-width="1.5"/>
        <path d="M276.82,283.44a9.75,9.75,0,0,1-4,3.2c-2.62,1.11-2.5,1.92.32,2.63a16.62,16.62,0,0,0,5.07.49Z" fill="#16221d" stroke="#16221d" stroke-linecap="round" stroke-linejoin="round" stroke-width="1.5"/>
        <path d="M248.26,335.36s4.38-12.12,33.85-15.55l2.77,11.45Z" fill="#4da58e" stroke="#16221d" stroke-linecap="round" stroke-linejoin="round" stroke-width="1.5"/>
        <line x1="203.56" y1="298.08" x2="208.42" y2="318.19" fill="none" stroke="#16221d" stroke-linecap="round" stroke-linejoin="round" stroke-width="1.5"/>
        <path d="M247.34,333.22s9-13.66,35.82-14.84l3.08,12.73" fill="none" stroke="#16221d" stroke-linecap="round" stroke-linejoin="round" stroke-width="1.5"/>
        <path d="M221.89,324.1s1.22,3.07,9.39,0,28.5-16.7,28.5-16.7" fill="none" stroke="#16221d" stroke-linecap="round" stroke-linejoin="round" stroke-width="1.5"/>
        <path d="M274.44,337.06c-1.47,14.9-8,29.17-17.42,40.87q-3,3.75-6.4,7.16a11.37,11.37,0,0,1,1,3l39.28-1.83-6.24-50.34Z" fill="#ccc"/>
      </g>
    </g>
    <polygon points="1162.16 341.05 336.46 341.05 294.4 106.94 1210.16 112.25 1162.16 341.05" fill="#16221d"/>
    <polygon points="1162.16 341.05 336.46 341.05 294.4 106.94 1210.16 112.25 1162.16 341.05" stroke-miterlimit="10" stroke-width="0.75" opacity="0.5" fill="url(#g)" stroke="url(#h)" style="isolation: isolate"/>
    <polygon points="1205.35 126.86 299.35 126.86 294.4 108.31 1209.13 108.31 1205.35 126.86" fill="#5e2a15" stroke="#16221d" stroke-linecap="round" stroke-linejoin="round" stroke-width="1.5"/>
    <path d="M647.68,705.18v6.74s131-45.37,138.89-47.71,103.24-38,103.24-38L764.25,591.53,515.83,634.7,548.36,659Z" fill="#16221d"/>
    <path d="M647.68,705.18S753,669,777.31,663.46s52-14.32,62.26-19.42,50.51-19.47,50.51-19.47l-.27,1.7-46.52,20.62L709,697.45l-61,22Z" fill="#fff" stroke="#16221d" stroke-miterlimit="10" stroke-width="1.5"/>
    <path d="M547.86,638.74v6.32A46.31,46.31,0,0,0,590,654.39s-17.9-13.68-18.34-13.68S547.86,638.74,547.86,638.74Z" fill="#fff" stroke="#16221d" stroke-linecap="round" stroke-linejoin="round" stroke-width="1.5"/>
    <path d="M821.28,626.58v10.77S793,664.49,749.44,653.26c0,0,30.54-23.32,31.29-23.32S821.28,626.58,821.28,626.58Z" fill="#fff" stroke="#16221d" stroke-linecap="round" stroke-linejoin="round" stroke-width="1.5"/>
    <path d="M880.9,609.71V619s-24.48,23.52-62.24,13.79c0,0,26.45-20.21,27.11-20.21S880.9,609.71,880.9,609.71Z" fill="#bdb0ae" stroke="#16221d" stroke-linecap="round" stroke-linejoin="round" stroke-width="1.5"/>
    <path d="M729.06,642.55l-63.86,2.5,14.14,21.86c-9.83-7.44-21.66-16.32-22.15-16.32-.86,0-45.7-3.77-45.7-3.77v22.09s29.19,22.63,75.4,9.68h0s36.31-8.41,39.68-12.15S729.06,642.55,729.06,642.55Z" fill="#fff" stroke="#16221d" stroke-linecap="round" stroke-linejoin="round" stroke-width="1.5"/>
    <path d="M533.28,653.38q-8.09-4.87-16.4-9.36l-.06-5.28,16.46,8.62.08,5.89" fill="#bdb0ae" stroke="#16221d" stroke-linecap="round" stroke-linejoin="round" stroke-width="1.5"/>
    <path d="M515.83,634.7v4l17.54,10.08v4.43L559,669v-3.61s15.18,4.72,19.9,8.09,68.8,38.44,68.8,38.44v-6.74s-78.24-42.49-86.33-43.5-12.82-1.69-17.87-9.11S515.83,634.7,515.83,634.7Z" fill="#fff" stroke="#16221d" stroke-linecap="round" stroke-linejoin="round" stroke-width="1.5"/>
    <path d="M589.51,644c39.51-8.56,76.28-21.92,114-30.51,10.88-2.48,21.9-10,31.8-15.2,9-4.72,16.5-11.44,26.65-12.36" fill="none" stroke="#16221d" stroke-miterlimit="10" stroke-width="1.5"/>
    <path d="M544.54,627c13.06-5.06,28.38-13,39.45-21.6,4.54-3.51,8.94-7.34,14.2-9.63" fill="none" stroke="#16221d" stroke-miterlimit="10" stroke-width="1.5"/>
    <path d="M647.68,713.45v10.12" fill="none" stroke="#fff" stroke-miterlimit="10" stroke-width="1.5"/>
    <path d="M646,665.77l-133.35-50.6c.11,3,.39,10.94.81,11.74.59,1.11,14.57,10.87,23.63,11,12.11.12,20.2,2.79,28.07,5.71,14.6,5.43,72.4,33.4,80.49,35l.4-.13V665.75Z" fill="#fff" stroke="#16221d" stroke-linecap="round" stroke-linejoin="round" stroke-width="1.5"/>
    <path d="M512.65,617.87,542,629.71v3.62s-7.71.82-9.31,0-19.53-8.25-19.53-8.25Z" fill="#16221d"/>
    <path d="M752.9,641.15c-8.1,3.7-16.19,26-21.25,32s-6.41,3.38-14.16-4.14-12.82-12.72-17.87-14.74-51.9,11-53.57,11.45v12.72c4.54-1.47,51.15-15.85,54.7-14.61,10.13,3.55,19.87,22.08,26.61,19.72s22.77-32.79,28.84-35.07,108-15.3,133.95-31.66l2.7-10.53S761,637.44,752.9,641.15Z" fill="#bdb0ae" stroke="#16221d" stroke-linecap="round" stroke-linejoin="round" stroke-width="1.5"/>
    <line x1="642.27" y1="664.35" x2="642.27" y2="676.52" fill="none" stroke="#16221d" stroke-linecap="round" stroke-linejoin="round" stroke-width="1.5"/>
    <line x1="637.41" y1="662.58" x2="637.41" y2="674.75" fill="none" stroke="#16221d" stroke-linecap="round" stroke-linejoin="round" stroke-width="1.5"/>
    <line x1="632.55" y1="660.8" x2="632.55" y2="672.98" fill="none" stroke="#16221d" stroke-linecap="round" stroke-linejoin="round" stroke-width="1.5"/>
    <line x1="627.68" y1="659.03" x2="627.68" y2="671.2" fill="none" stroke="#16221d" stroke-linecap="round" stroke-linejoin="round" stroke-width="1.5"/>
    <line x1="622.82" y1="657.26" x2="622.82" y2="668.91" fill="none" stroke="#16221d" stroke-linecap="round" stroke-linejoin="round" stroke-width="1.5"/>
    <line x1="618.29" y1="655.48" x2="618.29" y2="666.89" fill="none" stroke="#16221d" stroke-linecap="round" stroke-linejoin="round" stroke-width="1.5"/>
    <line x1="614.07" y1="653.71" x2="614.07" y2="665.12" fill="none" stroke="#16221d" stroke-linecap="round" stroke-linejoin="round" stroke-width="1.5"/>
    <line x1="609.86" y1="652.37" x2="609.86" y2="663.34" fill="none" stroke="#16221d" stroke-linecap="round" stroke-linejoin="round" stroke-width="1.5"/>
    <line x1="605.65" y1="650.64" x2="605.65" y2="661.57" fill="none" stroke="#16221d" stroke-linecap="round" stroke-linejoin="round" stroke-width="1.5"/>
    <line x1="600.87" y1="648.96" x2="600.87" y2="659.41" fill="none" stroke="#16221d" stroke-linecap="round" stroke-linejoin="round" stroke-width="1.5"/>
    <line x1="596.06" y1="646.82" x2="596.06" y2="656.69" fill="none" stroke="#16221d" stroke-linecap="round" stroke-linejoin="round" stroke-width="1.5"/>
    <line x1="591.25" y1="645.29" x2="591.25" y2="654.87" fill="none" stroke="#16221d" stroke-linecap="round" stroke-linejoin="round" stroke-width="1.5"/>
    <line x1="649.72" y1="664.86" x2="649.72" y2="677.41" fill="none" stroke="#16221d" stroke-linecap="round" stroke-linejoin="round" stroke-width="1.5"/>
    <line x1="654.59" y1="663.49" x2="654.59" y2="675.64" fill="none" stroke="#16221d" stroke-linecap="round" stroke-linejoin="round" stroke-width="1.5"/>
    <line x1="659.45" y1="662.16" x2="659.45" y2="673.86" fill="none" stroke="#16221d" stroke-linecap="round" stroke-linejoin="round" stroke-width="1.5"/>
    <line x1="664.33" y1="661.17" x2="664.33" y2="673.01" fill="none" stroke="#16221d" stroke-linecap="round" stroke-linejoin="round" stroke-width="1.5"/>
    <line x1="669.19" y1="659.88" x2="669.19" y2="671.34" fill="none" stroke="#16221d" stroke-linecap="round" stroke-linejoin="round" stroke-width="1.5"/>
    <line x1="674.14" y1="658.65" x2="674.14" y2="670.09" fill="none" stroke="#16221d" stroke-linecap="round" stroke-linejoin="round" stroke-width="1.5"/>
    <line x1="679" y1="657.35" x2="679" y2="668.2" fill="none" stroke="#16221d" stroke-linecap="round" stroke-linejoin="round" stroke-width="1.5"/>
    <line x1="683.86" y1="656.49" x2="683.86" y2="667.14" fill="none" stroke="#16221d" stroke-linecap="round" stroke-linejoin="round" stroke-width="1.5"/>
    <line x1="688.68" y1="655.85" x2="688.68" y2="665.92" fill="none" stroke="#16221d" stroke-linecap="round" stroke-linejoin="round" stroke-width="1.5"/>
    <line x1="693.54" y1="654.9" x2="693.54" y2="665.12" fill="none" stroke="#16221d" stroke-linecap="round" stroke-linejoin="round" stroke-width="1.5"/>
    <path d="M713.45,622.26l15.7,6.4s19.52-4.72,19.56-4.81-15-7.62-15-7.62Z" fill="#16221d"/>
    <path d="M689.5,644c-9.82,6.05.62,10.42,1.57,10.8,4.28-.73,7.44-1,8.55-.58,5,2,10.11,7.22,17.87,14.74s9.1,10.21,14.16,4.14,13.15-28.33,21.25-32a65.44,65.44,0,0,1,6.68-2.1C735.9,632.56,699.78,637.7,689.5,644Z" fill="#fff" stroke="#16221d" stroke-linecap="round" stroke-linejoin="round" stroke-width="1.5"/>
    <path d="M838.55,600.64c-22.93-7.08-49.91-16.53-66.1-12.82,0,0-36.08-9.78-77.9,6.75,0,0-21.24,5.39-43.84,3.37s-46.53-7.76-68.45,2.7-69.61,14.49-69.61,14.49L646,665.72s29.72-8.25,45.08-10.87c-1-.38-11.4-4.75-1.57-10.81,10.28-6.34,46.4-11.48,70.08-5,28.47-8,133.26-32.72,133.26-32.72S861.48,607.72,838.55,600.64Z" fill="#fff" stroke="#16221d" stroke-linecap="round" stroke-linejoin="round" stroke-width="1.5"/>
    <path d="M587.4,642.55l21.6,9.18S735.35,624,747.5,617.27c12-6.64,30.85-21.18,47.4-18.9l.8.12c16.73,2.87-18.13-12.78-27.81-8.14C727.44,609.71,663.14,636.19,587.4,642.55Z" fill="#ccc"/>
    <path d="M534.21,622.61l21.6,9.18s13.11-.3,51.83-26.8c.22-.15,45.94-5.93,46.2-5.88,16.73,2.87-30.27-4.81-36.75-3.15C571,607.77,594.31,615.17,534.21,622.61Z" fill="#ccc"/>
    <line x1="611.32" y1="652.37" x2="722.19" y2="625.83" fill="none" stroke="#16221d" stroke-miterlimit="10" stroke-width="1.5"/>
    <path d="M834.88,599.54c-22.09-6.9-47.09-15.19-62.42-11.67,0,0-1.63-.44-4.57-1,0,0,24.5,5.48,31,10.8C798.9,597.7,822.94,602,834.88,599.54Z" fill="#ccc" opacity="0.5" style="isolation: isolate"/>
    <path d="M741.87,620.32c-.14-.07,19.25-10,26.57-15.31s21-8.12,31.3-5.92" fill="none" stroke="#16221d" stroke-linecap="round" stroke-miterlimit="10" stroke-width="1.5"/>
    <path d="M678.61,625.83c.16-.06,6.28,2.84,6.28,2.84l5.15-.55L684.32,625Z" fill="#16221d"/>
    <path d="M682.78,608.8c.16-.06,6.28,2.84,6.28,2.84l5-.9a.6.6,0,0,0,.49-.7.61.61,0,0,0-.3-.42l-4-2.24a.58.58,0,0,0-.41-.06Z" fill="#16221d"/>
    <path d="M705.12,629.91c.16,0,7.38,5.43,7.38,5.43l.33-3.79-3.22-2.71Z" fill="#16221d"/>
    <path d="M668.13,616.76l6.65,4.11-4.72,1.32-1.26-.79a3.08,3.08,0,0,1-1-4.24,3.79,3.79,0,0,1,.3-.4Z" fill="#16221d"/>
    <path d="M571.64,637.07s34.94-9.33,49.31-17.74,69.09-15,80.35-18.18c3.89-1.1,26.54-15.14,29.11-15.39" fill="none" stroke="#16221d" stroke-linecap="round" stroke-miterlimit="10" stroke-width="1.5"/>
    <path d="M586.05,625.78l12.14,5.77s3,1.83,13.78-2.71,30.3-11,30.3-11l-17-10.56S618.91,607.84,586.05,625.78Z" fill="#bdb0ae" stroke="#16221d" stroke-miterlimit="10"/>
    <path d="M588.85,625.41,599,630.23s4.3.89,13.33-2.9,27.46-9.74,27.46-9.74l-15-9.25S616.31,610.41,588.85,625.41Z" fill="#16221d" stroke="#16221d" stroke-miterlimit="10"/>
    <path d="M555.78,631.49s15-2.4,23.57-8.58,21.46-18.43,39.56-20.76,44.3-3.77,44.3-3.77" fill="none" stroke="#16221d" stroke-linecap="round" stroke-miterlimit="10" stroke-width="1.5"/>
    <polygon points="661.94 604.34 667.67 607.31 674.78 606.07 669.19 603.48 661.94 604.34" fill="#16221d"/>
    <path d="M533.08,622.92s20.82-3.38,38.56-18.23" fill="none" stroke="#16221d" stroke-miterlimit="10" stroke-width="1.5"/>
    <polygon points="781.56 600.71 788.57 607.31 794.42 606.32 786.09 599.74 781.56 600.71" fill="#16221d"/>
    <path d="M891.92,609.93l-.28.07-77,19.76v3.46s21.15-1.41,23.41-2.5,44.33-10.72,52.3-14.49" fill="#16221d"/>
    <path d="M758.06,601.29l7.56,5.63-6,3.61S751.94,604,758.06,601.29Z" fill="#16221d"/>
    <path d="M818.66,594.52s-5.17-1.7-9.87.51a28,28,0,0,1-10.53,2.18" fill="none" stroke="#16221d" stroke-miterlimit="10" stroke-width="1.5"/>
    <path d="M772.46,587.87s17.88,5.28,25.8,9.34" fill="none" stroke="#16221d" stroke-miterlimit="10" stroke-width="1.5"/>
    <g opacity="0.5">
      <path d="M734.75,636a21.42,21.42,0,0,0-1.55,2.13c-2.8,4.48-4,9.93-7.4,14a3.94,3.94,0,0,1-2.66,1.69,4.63,4.63,0,0,1-3-1.53c-6.06-5.23-13-9.71-20.52-12.16A39.85,39.85,0,0,0,689.5,644c-9.83,6.05.62,10.42,1.57,10.8,4.28-.73,7.44-1,8.54-.58,5.06,2,10.12,7.22,17.88,14.74s9.1,10.21,14.16,4.14,13.15-28.33,21.25-32a65.44,65.44,0,0,1,6.68-2.1A99.43,99.43,0,0,0,734.75,636Z" fill="#ccc"/>
    </g>
    <path d="M689.5,644c-9.82,6.05.62,10.42,1.57,10.8,4.28-.73,7.44-1,8.55-.58,5,2,10.11,7.22,17.87,14.74s9.1,10.21,14.16,4.14,13.15-28.33,21.25-32a65.44,65.44,0,0,1,6.68-2.1C735.9,632.56,699.78,637.7,689.5,644Z" fill="none" stroke="#16221d" stroke-linecap="round" stroke-linejoin="round" stroke-width="1.5"/>
    <path d="M889.81,626.27S828.44,650.55,821,653.58c-3.31,1.36-17.41,5.58-32.49,10v6.24l99.6-38.33Z" fill="#fff" stroke="#16221d" stroke-miterlimit="10" stroke-width="1.5"/>
    <path d="M746.49,676.48c-5.4,2.39-98.81,35.44-98.81,35.44s-75.2-45.07-84.42-47.1-3.44,4.67-3.44,4.67c16.93,10.3,34,20.43,50.94,30.65,12.5,7.52,25,15.11,36.5,24.1l141.27-54.37v-6.24C769.77,669.2,749.48,675.15,746.49,676.48Z" fill="#bdb0ae" stroke="#16221d" stroke-linecap="round" stroke-linejoin="round" stroke-width="1.5"/>
    <path d="M1135.31,393.28l-.31,11.8s32.35-2.93,48.32-9.37,23.78-16.55,54.12-14.63,48.85,16.17,48.85,16.17l-.61-22.67-114.15-7.76Z" fill="#16221d" stroke="#16221d" stroke-miterlimit="10"/>
    <path d="M1139.8,393.13l-.1,3.83,5.07,1.94s18.76-1.67,29.87-6.35,27.54-15.58,43.7-16.7,30-3.85,61.34,11.4l15.43-12.42L1188.3,356.08Z" fill="#bdb0ae" stroke="#16221d" stroke-miterlimit="10"/>
    <path d="M1140.79,393.07l4.09,1.63s20.83-1.82,27.77-4.83,43.38-25.82,79.55-16.17,48.75,21,48.75,21l60.6-29.38-128.24-23.53Z" fill="#fff" stroke="#16221d" stroke-miterlimit="10"/>
    <path d="M1276.21,329.13,1191.87,312l-123.28,26.46,67.6,21.38s35,.21,49.47-7.4,24.73-17.13,43.72-16.11S1272,333,1276.21,329.13Z" fill="#fff" stroke="#16221d" stroke-miterlimit="10"/>
    <g clip-path="url(#i)">
      <g>
        <line x1="1077.31" y1="336.51" x2="1159.94" y2="361.91" fill="none" stroke="#16221d" stroke-miterlimit="10"/>
        <line x1="1084.58" y1="334.83" x2="1167.59" y2="359.84" fill="none" stroke="#16221d" stroke-miterlimit="10"/>
        <line x1="1091.85" y1="333.16" x2="1175.25" y2="357.76" fill="none" stroke="#16221d" stroke-miterlimit="10"/>
        <line x1="1099.12" y1="331.48" x2="1182.91" y2="355.68" fill="none" stroke="#16221d" stroke-miterlimit="10"/>
        <line x1="1106.39" y1="329.81" x2="1190.57" y2="353.6" fill="none" stroke="#16221d" stroke-miterlimit="10"/>
        <line x1="1113.67" y1="328.13" x2="1198.23" y2="351.53" fill="none" stroke="#16221d" stroke-miterlimit="10"/>
        <line x1="1120.94" y1="326.46" x2="1205.89" y2="349.45" fill="none" stroke="#16221d" stroke-miterlimit="10"/>
        <line x1="1128.21" y1="324.78" x2="1213.55" y2="347.37" fill="none" stroke="#16221d" stroke-miterlimit="10"/>
        <line x1="1135.48" y1="323.1" x2="1221.21" y2="345.3" fill="none" stroke="#16221d" stroke-miterlimit="10"/>
        <line x1="1142.75" y1="321.43" x2="1228.87" y2="343.22" fill="none" stroke="#16221d" stroke-miterlimit="10"/>
        <line x1="1150.02" y1="319.75" x2="1236.53" y2="341.14" fill="none" stroke="#16221d" stroke-miterlimit="10"/>
        <line x1="1157.3" y1="318.08" x2="1244.19" y2="339.06" fill="none" stroke="#16221d" stroke-miterlimit="10"/>
        <line x1="1164.57" y1="316.4" x2="1251.85" y2="336.99" fill="none" stroke="#16221d" stroke-miterlimit="10"/>
        <line x1="1171.84" y1="314.73" x2="1259.5" y2="334.91" fill="none" stroke="#16221d" stroke-miterlimit="10"/>
        <line x1="1179.11" y1="313.05" x2="1267.16" y2="332.83" fill="none" stroke="#16221d" stroke-miterlimit="10"/>
        <line x1="1186.38" y1="311.38" x2="1274.82" y2="330.76" fill="none" stroke="#16221d" stroke-miterlimit="10"/>
      </g>
    </g>
    <path d="M1229.38,336.31c-19-1-29.28,8.5-43.72,16.11s-49.47,7.4-49.47,7.4l-.88,33.46s32.11-.22,47.14-10.3,30.42-21,47.06-20.39,30.61,3.67,43.16-2.67l3.54-30.79C1272,333,1248.37,337.33,1229.38,336.31Z" fill="#bdb0ae" stroke="#16221d" stroke-miterlimit="10"/>
    <g clip-path="url(#j)">
      <g>
        <line x1="1144.12" y1="359.37" x2="1142.97" y2="403.13" fill="none" stroke="#16221d" stroke-miterlimit="10"/>
        <line x1="1150.45" y1="357.3" x2="1149.29" y2="400.25" fill="none" stroke="#16221d" stroke-miterlimit="10"/>
        <line x1="1156.79" y1="355.23" x2="1155.6" y2="397.36" fill="none" stroke="#16221d" stroke-miterlimit="10"/>
        <line x1="1163.12" y1="353.17" x2="1161.92" y2="394.48" fill="none" stroke="#16221d" stroke-miterlimit="10"/>
        <line x1="1169.45" y1="351.1" x2="1168.23" y2="391.59" fill="none" stroke="#16221d" stroke-miterlimit="10"/>
        <line x1="1175.78" y1="349.03" x2="1174.55" y2="388.71" fill="none" stroke="#16221d" stroke-miterlimit="10"/>
        <line x1="1182.11" y1="346.97" x2="1180.86" y2="385.82" fill="none" stroke="#16221d" stroke-miterlimit="10"/>
        <line x1="1188.44" y1="344.9" x2="1187.18" y2="382.94" fill="none" stroke="#16221d" stroke-miterlimit="10"/>
        <line x1="1194.77" y1="342.83" x2="1193.5" y2="380.05" fill="none" stroke="#16221d" stroke-miterlimit="10"/>
        <line x1="1201.1" y1="340.77" x2="1199.81" y2="377.16" fill="none" stroke="#16221d" stroke-miterlimit="10"/>
        <line x1="1207.43" y1="338.7" x2="1206.13" y2="374.28" fill="none" stroke="#16221d" stroke-miterlimit="10"/>
        <line x1="1213.59" y1="337.17" x2="1212.18" y2="372.42" fill="none" stroke="#16221d" stroke-miterlimit="10"/>
        <line x1="1219.58" y1="336.17" x2="1217.96" y2="371.6" fill="none" stroke="#16221d" stroke-miterlimit="10"/>
        <line x1="1225.56" y1="335.18" x2="1223.75" y2="370.78" fill="none" stroke="#16221d" stroke-miterlimit="10"/>
        <line x1="1231.55" y1="334.18" x2="1229.53" y2="369.95" fill="none" stroke="#16221d" stroke-miterlimit="10"/>
        <line x1="1237.53" y1="333.19" x2="1235.32" y2="369.13" fill="none" stroke="#16221d" stroke-miterlimit="10"/>
        <line x1="1243.52" y1="332.19" x2="1241.1" y2="368.3" fill="none" stroke="#16221d" stroke-miterlimit="10"/>
        <line x1="1249.51" y1="331.2" x2="1246.89" y2="367.48" fill="none" stroke="#16221d" stroke-miterlimit="10"/>
        <line x1="1255.49" y1="330.2" x2="1252.67" y2="366.65" fill="none" stroke="#16221d" stroke-miterlimit="10"/>
        <line x1="1261.48" y1="329.2" x2="1258.46" y2="365.83" fill="none" stroke="#16221d" stroke-miterlimit="10"/>
        <line x1="1267.46" y1="328.21" x2="1264.24" y2="365.01" fill="none" stroke="#16221d" stroke-miterlimit="10"/>
        <line x1="1273.45" y1="327.21" x2="1270.03" y2="364.18" fill="none" stroke="#16221d" stroke-miterlimit="10"/>
      </g>
    </g>
    <polygon points="1068.59 338.44 1075.04 380.52 1135 405.08 1136.19 359.82 1068.59 338.44" fill="#fff" stroke="#16221d" stroke-linecap="round" stroke-linejoin="round"/>
    <path d="M1112.72,357l-4.65,1.66L1082,349.42l4.93-1.57-1.7-.56-7.27,2.3L1107.34,360l7.06-2.46Z" fill="#b05232" stroke="#16221d" stroke-miterlimit="10"/>
    <path d="M1077.91,349.59l4.71,36.43s28.51,12.77,28.52,12.08-3.8-38.06-3.8-38.06Z" fill="#b05232" stroke="#16221d" stroke-miterlimit="10"/>
    <polygon points="1107.34 360.04 1111.15 398.02 1117.01 395.21 1114.4 357.58 1107.34 360.04" fill="#8e452d" stroke="#16221d" stroke-miterlimit="10"/>
    <polygon points="1082.96 355.88 1083.35 358.08 1092.48 361.28 1092.53 359.16 1082.96 355.88" fill="#16221d" stroke="#16221d" stroke-miterlimit="10"/>
    <polygon points="1101.26 365.04 1101.54 367.23 1108.02 369.91 1108.08 367.79 1101.26 365.04" fill="#16221d" stroke="#16221d" stroke-miterlimit="10"/>
    <polygon points="1087.5 366.81 1088.04 373.14 1091.04 374.31 1090.57 367.61 1087.5 366.81" fill="#16221d" stroke="#16221d" stroke-miterlimit="10"/>
    <polygon points="1101.41 386.37 1101.48 394.31 1102.91 394.93 1102.81 386.85 1101.41 386.37" fill="#16221d" stroke="#16221d" stroke-miterlimit="10"/>
    <polygon points="1103.4 338.55 1141.57 349.93 1231.29 326.79 1188.62 318.2 1103.4 338.55" fill="#8e452d" stroke="#16221d" stroke-miterlimit="10"/>
    <polygon points="1114.22 338.1 1145.34 347.02 1220.13 327.85 1185.47 321.13 1114.22 338.1" fill="#fff" stroke="#16221d" stroke-miterlimit="10"/>
    <polygon points="1248.76 368.52 1229.51 362.59 1230.91 341.19 1249.36 345.6 1248.76 368.52" fill="#8e452d" stroke="#16221d" stroke-miterlimit="10"/>
    <path d="M1230.91,341.19s24,1.15,39.23-2.5l5.17-1.72-26,8.63Z" fill="#fff" stroke="#16221d" stroke-miterlimit="10"/>
    <polygon points="1249.36 345.6 1248.76 368.52 1277.22 359.89 1275.31 336.97 1249.36 345.6" fill="#8e452d" stroke="#16221d" stroke-linecap="round" stroke-linejoin="round"/>
    <path d="M1257.57,343.41l-.55,20.93,28.73,7.71.58-22.22Z" fill="#8e452d" stroke="#16221d" stroke-miterlimit="10"/>
    <path d="M1257.57,343.41l-.55,20.93,28.73,7.71.58-22.22Z" fill="#8e452d" stroke="#16221d" stroke-miterlimit="10"/>
    <path d="M1310.12,339.74l-.56,21.17-23.81,11.14.58-22.22Z" fill="#8e452d" stroke="#16221d" stroke-linecap="round" stroke-linejoin="round"/>
    <path d="M1307.44,343.49l-.43,16.35-18.6,8.7.46-17.35Z" fill="#16221d" stroke="#16221d" stroke-miterlimit="10"/>
    <path d="M1257.57,343.41c0,1,27.2-9.42,27.2-9.42l25.35,5.75-23.79,10.09Z" fill="#b05232" stroke="#16221d" stroke-linecap="round" stroke-linejoin="round"/>
    <path d="M1262.39,343.12c0,.85,22.21-7.68,22.21-7.68l20.7,4.69-19.42,8.24Z" fill="#bdb0ae" stroke="#16221d" stroke-miterlimit="10"/>
    <polygon points="1273.78 395.16 1278.97 450.07 1358.52 480.49 1367.49 423.56 1273.78 395.16" fill="#fff" stroke="#16221d" stroke-miterlimit="10"/>
    <polygon points="1367.49 423.56 1358.52 480.49 1427.31 410.96 1435.7 366.03 1367.49 423.56" fill="#bdb0ae" stroke="#16221d" stroke-miterlimit="10"/>
    <line x1="1371.56" y1="420.12" x2="1362.25" y2="476.73" fill="none" stroke="#16221d" stroke-miterlimit="10"/>
    <line x1="1377.38" y1="415.22" x2="1368.06" y2="470.85" fill="none" stroke="#16221d" stroke-miterlimit="10"/>
    <line x1="1383.2" y1="410.31" x2="1373.87" y2="464.97" fill="none" stroke="#16221d" stroke-miterlimit="10"/>
    <line x1="1389.02" y1="405.4" x2="1379.69" y2="459.1" fill="none" stroke="#16221d" stroke-miterlimit="10"/>
    <line x1="1394.83" y1="400.49" x2="1385.5" y2="453.22" fill="none" stroke="#16221d" stroke-miterlimit="10"/>
    <line x1="1400.65" y1="395.59" x2="1391.32" y2="447.34" fill="none" stroke="#16221d" stroke-miterlimit="10"/>
    <line x1="1406.47" y1="390.68" x2="1397.13" y2="441.47" fill="none" stroke="#16221d" stroke-miterlimit="10"/>
    <line x1="1412.29" y1="385.77" x2="1402.94" y2="435.59" fill="none" stroke="#16221d" stroke-miterlimit="10"/>
    <line x1="1418.11" y1="380.86" x2="1408.76" y2="429.71" fill="none" stroke="#16221d" stroke-miterlimit="10"/>
    <line x1="1423.93" y1="375.96" x2="1414.57" y2="423.84" fill="none" stroke="#16221d" stroke-miterlimit="10"/>
    <line x1="1429.75" y1="371.05" x2="1420.39" y2="417.96" fill="none" stroke="#16221d" stroke-miterlimit="10"/>
    <polygon points="1276.22 398.15 1281.13 444.81 1356.01 474.76 1364.18 425.39 1276.22 398.15" fill="#16221d" stroke="#16221d" stroke-miterlimit="10"/>
    <path d="M1341.31,430.85l-5.17,2.49L1286,415.11l4.92-1.56-1.7-.57-7.27,2.3,54.62,19.83,6.46-3.7Z" fill="#b05232" stroke="#16221d" stroke-miterlimit="10"/>
    <path d="M1281.91,415.29l2.11,22.38S1335.93,458,1336,457.32l.58-22.21Z" fill="#b05232" stroke="#16221d" stroke-miterlimit="10"/>
    <polygon points="1336.53 435.1 1335.95 457.24 1341.86 452.75 1342.99 431.41 1336.53 435.1" fill="#8e452d" stroke="#16221d" stroke-miterlimit="10"/>
    <path d="M1300.74,352.11l-.59,22.43,30.78,8.27.63-23.82Z" fill="#8e452d" stroke="#16221d" stroke-miterlimit="10"/>
    <path d="M1300.74,352.11l-.59,22.43,30.78,8.27.63-23.82Z" fill="#8e452d" stroke="#16221d" stroke-miterlimit="10"/>
    <path d="M1357.05,348.18l-.6,22.69-25.52,11.94.63-23.82Z" fill="#8e452d" stroke="#16221d" stroke-linecap="round" stroke-linejoin="round"/>
    <path d="M1354.19,352.21l-.46,17.52-19.94,9.32.49-18.6Z" fill="#16221d" stroke="#16221d" stroke-miterlimit="10"/>
    <path d="M1300.74,352.11c0,1.1,29.15-10.09,29.15-10.09l27.16,6.16L1331.56,359Z" fill="#b05232" stroke="#16221d" stroke-linecap="round" stroke-linejoin="round"/>
    <path d="M1305.9,351.81c0,.9,23.81-8.24,23.81-8.24l22.18,5-20.82,8.83Z" fill="#bdb0ae" stroke="#16221d" stroke-miterlimit="10"/>
    <path d="M1361.94,350.37s-7.75,10.86-31.75,12.89-51,13.83-56.41,31.9l93.71,28.4L1435.7,366Z" fill="#fff"/>
    <path d="M1367.6,424.11l-.26-.08-94.18-28.54.14-.48c2.57-8.54,10-16.24,21.48-22.26a96.34,96.34,0,0,1,35.37-10c23.5-2,31.31-12.58,31.39-12.68l.19-.27.32.07,74.75,15.87Zm-93.2-29.29,93,28.18,67.22-56.69-72.45-15.39c-1.38,1.73-9.75,11-31.91,12.83-31,2.62-51.39,17.53-55.82,31.07Z" fill="#16221d"/>
    <g clip-path="url(#k)">
      <g>
        <line x1="1263.52" y1="386.94" x2="1371.56" y2="420.12" fill="none" stroke="#16221d" stroke-miterlimit="10"/>
        <line x1="1271.29" y1="383.3" x2="1377.38" y2="415.22" fill="none" stroke="#16221d" stroke-miterlimit="10"/>
        <line x1="1279.05" y1="379.66" x2="1383.2" y2="410.31" fill="none" stroke="#16221d" stroke-miterlimit="10"/>
        <line x1="1286.82" y1="376.02" x2="1389.02" y2="405.4" fill="none" stroke="#16221d" stroke-miterlimit="10"/>
        <line x1="1294.59" y1="372.39" x2="1394.83" y2="400.49" fill="none" stroke="#16221d" stroke-miterlimit="10"/>
        <line x1="1302.36" y1="368.75" x2="1400.65" y2="395.59" fill="none" stroke="#16221d" stroke-miterlimit="10"/>
        <line x1="1310.12" y1="365.11" x2="1406.47" y2="390.68" fill="none" stroke="#16221d" stroke-miterlimit="10"/>
        <line x1="1317.89" y1="361.47" x2="1412.29" y2="385.77" fill="none" stroke="#16221d" stroke-miterlimit="10"/>
        <line x1="1325.66" y1="357.83" x2="1418.11" y2="380.86" fill="none" stroke="#16221d" stroke-miterlimit="10"/>
        <line x1="1333.43" y1="354.19" x2="1423.93" y2="375.96" fill="none" stroke="#16221d" stroke-miterlimit="10"/>
        <line x1="1341.19" y1="350.56" x2="1429.75" y2="371.05" fill="none" stroke="#16221d" stroke-miterlimit="10"/>
      </g>
    </g>
    <path d="M1304,388.55c.36-.65,51.58,14.61,51.58,14.61l28.59-20.89-46-12.42Z" fill="#8e452d" stroke="#16221d" stroke-miterlimit="10"/>
    <path d="M1309.36,388.27c.31-.56,44.71,12.66,44.71,12.66l24.79-18.1L1339,372.05Z" fill="#16221d" stroke="#16221d" stroke-miterlimit="10"/>
    <line x1="1144.88" y1="394.7" x2="1144.77" y2="398.9" fill="none" stroke="#16221d" stroke-miterlimit="10"/>
    <g clip-path="url(#l)">
      <g>
        <path d="M1174.13,542.71c-15.2,1.59-28.43,9.31-44.47,8.12-21.79-1.63-37.85-7.09-59.14,2.66-1.88.86-3.81,1.87-4.94,3.6a10.79,10.79,0,0,0-1.27,6.07c.06,6.48,1.37,13.09,4.78,18.6,7.92,12.8,22.11,11.71,35.14,9.72,12.28-1.87,23.45,3.63,35.45,4.6,13.2,1.07,23.65-4.15,36.26-7,11.18-2.53,33.59,3.54,39.24-9.58,8.48-19.67-8.29-31.93-25.67-35.92A46.5,46.5,0,0,0,1174.13,542.71Z" fill="#f2e6d4" stroke="#16221d" stroke-miterlimit="10" stroke-width="1.38"/>
        <path d="M1216.3,562.73s-5.06,18.61-29.35,16.13a30,30,0,0,1-16.14-7.08c-4.52-3.79-12.09-8.09-21.18-5.16a21.77,21.77,0,0,0-9.25,6.07c-4.93,5.34-23.14,19.53-71.29,9.07,0,0,1.23,18.1,4,18.68s86.86,5.76,86.86,5.76h72.89Z" fill="#fbc8a2"/>
      </g>
    </g>
    <path d="M1174.13,542.71c-15.2,1.59-28.43,9.31-44.47,8.12-21.79-1.63-37.85-7.09-59.14,2.66-1.88.86-3.81,1.87-4.94,3.6a10.79,10.79,0,0,0-1.27,6.07c.06,6.48,1.37,13.09,4.78,18.6,7.92,12.8,22.11,11.71,35.14,9.72,12.28-1.87,23.45,3.63,35.45,4.6,13.2,1.07,23.65-4.15,36.26-7,11.18-2.53,33.59,3.54,39.24-9.58,8.48-19.67-8.29-31.93-25.67-35.92A46.5,46.5,0,0,0,1174.13,542.71Z" fill="none" stroke="#16221d" stroke-miterlimit="10" stroke-width="1.38"/>
  </g>
</svg>
