<svg id="Layer_1" data-name="Layer 1" xmlns="http://www.w3.org/2000/svg" xmlns:xlink="http://www.w3.org/1999/xlink" width="1367" height="769" viewBox="0 0 1367 769">
  <defs>
    <style>
      .cls-1, .cls-13, .cls-24, .cls-7 {
        fill: none;
      }

      .cls-2 {
        fill: #8e452d;
        stroke-width: 1.36px;
      }

      .cls-10, .cls-13, .cls-14, .cls-15, .cls-16, .cls-17, .cls-2, .cls-22, .cls-24, .cls-4, .cls-6, .cls-7, .cls-8, .cls-9 {
        stroke: #16221d;
      }

      .cls-2, .cls-3, .cls-8, .cls-9 {
        stroke-linecap: round;
        stroke-linejoin: round;
      }

      .cls-3 {
        fill: #d3bccb;
        stroke: #0c0007;
      }

      .cls-3, .cls-4, .cls-7 {
        stroke-width: 1.5px;
      }

      .cls-4 {
        fill: #7c3b25;
      }

      .cls-10, .cls-13, .cls-14, .cls-15, .cls-16, .cls-17, .cls-18, .cls-22, .cls-23, .cls-24, .cls-4, .cls-6, .cls-7 {
        stroke-miterlimit: 10;
      }

      .cls-5 {
        clip-path: url(#clip-path);
      }

      .cls-15, .cls-6 {
        fill: #16221d;
      }

      .cls-6 {
        stroke-width: 1.41px;
      }

      .cls-8, .cls-9 {
        fill: #5e2a15;
      }

      .cls-13, .cls-8 {
        stroke-width: 1.4px;
      }

      .cls-9 {
        stroke-width: 1.46px;
      }

      .cls-10 {
        fill: #f2e6d4;
      }

      .cls-10, .cls-14, .cls-24 {
        stroke-width: 1.44px;
      }

      .cls-11, .cls-18, .cls-23 {
        fill: #fcc013;
      }

      .cls-12 {
        fill: #ffd377;
      }

      .cls-13 {
        stroke-dasharray: 10.29;
      }

      .cls-14, .cls-16 {
        fill: #b05232;
      }

      .cls-15 {
        stroke-width: 1.51px;
      }

      .cls-16 {
        stroke-width: 1.07px;
      }

      .cls-17, .cls-22 {
        fill: #e29c00;
      }

      .cls-17, .cls-18 {
        stroke-width: 1.15px;
      }

      .cls-18, .cls-23 {
        stroke: #fff;
      }

      .cls-19 {
        isolation: isolate;
      }

      .cls-20 {
        fill: #fff;
      }

      .cls-21 {
        clip-path: url(#clip-path-2);
      }

      .cls-22, .cls-23 {
        stroke-width: 0.82px;
      }
    </style>
    <clipPath id="clip-path">
      <polygon class="cls-1" points="173.19 689.2 84.7 722.24 84.7 402.83 170.11 402.83 173.19 689.2"/>
    </clipPath>
    <clipPath id="clip-path-2">
      <rect class="cls-1" x="83.53" y="405.99" width="44.77" height="97.31"/>
    </clipPath>
  </defs>
  <polygon class="cls-2" points="55.3 770.28 309.88 690.07 309.88 143.35 55.3 143.35 55.3 770.28"/>
  <g>
    <polygon class="cls-3" points="194.11 689.02 84.7 729.84 84.7 722.24 173.19 689.2 194.11 689.02"/>
    <polygon class="cls-4" points="170.11 402.83 191.21 402.83 194.3 688.95 194.11 689.02 173.19 689.2 170.11 402.83"/>
    <g class="cls-5">
      <polygon class="cls-6" points="173.19 689.2 84.7 722.24 84.7 402.83 170.11 402.83 173.19 689.2"/>
    </g>
    <polygon class="cls-7" points="173.19 689.2 84.7 722.24 84.7 402.83 170.11 402.83 173.19 689.2"/>
  </g>
  <polygon class="cls-8" points="309.88 685.38 1054.96 685.38 1309.55 770.28 55.3 770.28 309.88 685.38"/>
  <polygon class="cls-2" points="1309.55 770.28 1054.96 690.07 1054.96 143.35 1309.55 143.35 1309.55 770.28"/>
  <polygon class="cls-9" points="1058.98 195.77 310.62 195.77 59.31 143.35 1313.56 143.35 1058.98 195.77"/>
  <path class="cls-10" d="M214.59,694.18c279.94.51,691.73,31,1134.66-22.17l-69.14-565.3c-389.47,72.36-797.75,82.15-1062.76,74.55Z"/>
  <path class="cls-11" d="M753,209s402.13,112.08,550.43,101l-24.61-191.57S971.39,188,753,209Z"/>
  <path class="cls-12" d="M704.22,173.58s429.78,93.48,595,82.48l-17.89-147.4S971,161.52,704.22,173.58Z"/>
  <line class="cls-13" x1="932.49" y1="150.13" x2="995.06" y2="699.17"/>
  <circle class="cls-14" cx="1252.68" cy="170.29" r="11.24"/>
  <circle class="cls-14" cx="1260.99" cy="232.1" r="11.24"/>
  <circle class="cls-14" cx="1266.44" cy="293.98" r="11.24"/>
  <circle class="cls-14" cx="1274.72" cy="358.99" r="11.24"/>
  <circle class="cls-14" cx="1281.31" cy="420.24" r="11.24"/>
  <circle class="cls-14" cx="1289.69" cy="484.41" r="11.24"/>
  <circle class="cls-14" cx="1299.17" cy="550.27" r="11.24"/>
  <circle class="cls-14" cx="1303.4" cy="614.37" r="11.24"/>
  <g>
    <path class="cls-15" d="M185.15,25H661.2l-76.44,96.88H185.15a48.44,48.44,0,0,1-48.44-48.44h0A48.44,48.44,0,0,1,185.15,25Z"/>
    <path class="cls-16" d="M185.15,25a48.44,48.44,0,0,0-48.44,48.44h0a48.72,48.72,0,0,0,.35,5.66,48.43,48.43,0,0,1,48.09-42.7h466.3L661.2,25Z"/>
  </g>
  <g>
    <circle class="cls-17" cx="147.06" cy="385.56" r="39.1"/>
    <circle class="cls-17" cx="150.6" cy="384.45" r="39.1"/>
    <circle class="cls-18" cx="150.6" cy="384.45" r="31.52"/>
    <g class="cls-19">
      <path class="cls-20" d="M141.14,388.48a6.43,6.43,0,0,0,2.56,3.27,3,3,0,0,0,2.66.12,2.55,2.55,0,0,0,1.49-1.7,8.18,8.18,0,0,0,.09-3.12l-.34-2.83a33.83,33.83,0,0,1-.27-4.33,12.26,12.26,0,0,1,.52-3.64,8,8,0,0,1,1.67-2.94,9.09,9.09,0,0,1,3.18-2.23,8.52,8.52,0,0,1,6.43-.44,11.75,11.75,0,0,1,5.6,4.51l3.85-1.73a9.2,9.2,0,0,1,.82,1.09,14,14,0,0,1,.89,1.65,5.1,5.1,0,0,1,.59,3.08c-.17.78-.86,1.44-2.06,2l-.88.4a14.41,14.41,0,0,1,.73,5.65,3.87,3.87,0,0,1-4.44,3.61,6.56,6.56,0,0,1-2-.65,11.17,11.17,0,0,0,0-3.56,15.81,15.81,0,0,0-1.29-4.28,7,7,0,0,0-2.29-3.13,2.34,2.34,0,0,0-2.35-.29,1.86,1.86,0,0,0-1.16,1.4,10.3,10.3,0,0,0,0,2.76l.3,3a31.49,31.49,0,0,1,.13,4.77,13.22,13.22,0,0,1-.74,3.82,8,8,0,0,1-1.84,2.94,9.89,9.89,0,0,1-3.12,2.11,8.94,8.94,0,0,1-6.62.46,12.1,12.1,0,0,1-5.95-4.82l-3.8,1.72c-.18-.23-.43-.6-.76-1.1a13.73,13.73,0,0,1-.9-1.67,5.17,5.17,0,0,1-.59-3.08c.18-.78.86-1.44,2.07-2L134,389a15.73,15.73,0,0,1-.87-6.49,4.34,4.34,0,0,1,2.51-3.8,3.52,3.52,0,0,1,2.53-.23,7.27,7.27,0,0,1,2.17,1,14.69,14.69,0,0,0-.42,4.15A12.66,12.66,0,0,0,141.14,388.48Z"/>
    </g>
  </g>
  <g class="cls-21">
    <g>
      <circle class="cls-22" cx="89.49" cy="469.22" r="27.94"/>
      <circle class="cls-22" cx="91.54" cy="467.53" r="27.94"/>
      <circle class="cls-23" cx="91.54" cy="467.53" r="22.52"/>
      <g class="cls-19">
        <path class="cls-20" d="M86.46,472.76A4.59,4.59,0,0,0,89,474.24a2.1,2.1,0,0,0,1.79-.64,1.81,1.81,0,0,0,.54-1.52,6.1,6.1,0,0,0-.78-2.1l-1-1.78a23.54,23.54,0,0,1-1.35-2.8,8.41,8.41,0,0,1-.63-2.56,5.81,5.81,0,0,1,.31-2.4,6.47,6.47,0,0,1,1.51-2.33,6.07,6.07,0,0,1,4.15-2,8.38,8.38,0,0,1,4.93,1.48l2.08-2.19a7.87,7.87,0,0,1,.84.51,8.59,8.59,0,0,1,1,.86,3.74,3.74,0,0,1,1.22,1.87,2.33,2.33,0,0,1-.84,1.88l-.47.5a10.09,10.09,0,0,1,2,3.55,2.68,2.68,0,0,1-.58,2.77,2.82,2.82,0,0,1-1.39.82,4.59,4.59,0,0,1-1.51.11,8.09,8.09,0,0,0-1-2.35,11,11,0,0,0-2-2.5,5,5,0,0,0-2.36-1.46,1.71,1.71,0,0,0-1.64.44,1.36,1.36,0,0,0-.39,1.25,8,8,0,0,0,.74,1.83l1,1.92a23.65,23.65,0,0,1,1.37,3.14,9.49,9.49,0,0,1,.54,2.73,6,6,0,0,1-.43,2.45,7.31,7.31,0,0,1-1.51,2.24A6.39,6.39,0,0,1,91,480a8.72,8.72,0,0,1-5.25-1.6l-2.06,2.16c-.18-.1-.44-.28-.79-.52a10.07,10.07,0,0,1-1.05-.87,3.63,3.63,0,0,1-1.22-1.88,2.27,2.27,0,0,1,.83-1.87l.42-.44a11.29,11.29,0,0,1-2.32-4.08,3.09,3.09,0,0,1,.64-3.19,2.52,2.52,0,0,1,1.62-.84,5.45,5.45,0,0,1,1.72.11,10.35,10.35,0,0,0,.84,2.86A8.85,8.85,0,0,0,86.46,472.76Z"/>
      </g>
    </g>
  </g>
  <path class="cls-24" d="M214.59,694.18c279.94.51,691.73,31,1134.66-22.17l-69.14-565.3c-389.47,72.36-797.75,82.15-1062.76,74.55Z"/>
</svg>
