<svg xmlns="http://www.w3.org/2000/svg" xmlns:xlink="http://www.w3.org/1999/xlink" viewBox="0 0 1385.874 1000.795"><defs><clipPath id="clip-path"><path d="M260.517,776.5H66.551A60.055,60.055,0,0,0,41.5,781.976L15.548,793.885A25.117,25.117,0,0,0,.9,816.715V999.891H248.668l14.1-16.8,22.869-7.3V801.622A25.118,25.118,0,0,0,260.517,776.5Z" fill="none"/></clipPath><clipPath id="clip-path-2"><path d="M538.573,776.5H344.607a60.063,60.063,0,0,0-25.049,5.472L293.6,793.885a25.119,25.119,0,0,0-14.644,22.83V999.891H526.723l14.1-16.8,22.869-7.3V801.622A25.118,25.118,0,0,0,538.573,776.5Z" fill="none"/></clipPath><clipPath id="clip-path-3"><path d="M1125.357,776.5h193.966a60.063,60.063,0,0,1,25.049,5.472l25.955,11.909a25.118,25.118,0,0,1,14.643,22.83V999.891H1137.207l-14.1-16.8-22.869-7.3V801.622A25.118,25.118,0,0,1,1125.357,776.5Z" fill="none"/></clipPath><clipPath id="clip-path-4"><path d="M847.3,776.5h193.966a60.055,60.055,0,0,1,25.048,5.472l25.955,11.909a25.117,25.117,0,0,1,14.644,22.83V999.891H859.151l-14.1-16.8-22.869-7.3V801.622A25.118,25.118,0,0,1,847.3,776.5Z" fill="none"/></clipPath><clipPath id="clip-path-5"><path d="M249.805,54.143V534.262s37.058,6.688,37.209-9.479v-8.727c1.153-1.08,3.279-2.237,7.2-3.014a32.693,32.693,0,0,1,8.263-.518c5.882.344,15.523.3,15.523-7.9V489.743c5.914.286,14.769-.076,14.769-7.94V54.143Z" fill="none"/></clipPath><clipPath id="clip-path-6"><path d="M1127.158,54.143V534.262s-37.058,6.688-37.209-9.479v-8.727c-1.153-1.08-3.279-2.237-7.2-3.014a32.7,32.7,0,0,0-8.263-.518c-5.882.344-15.523.3-15.523-7.9V489.743c-5.915.286-14.77-.076-14.77-7.94V54.143Z" fill="none"/></clipPath></defs><g style="isolation:isolate"><g id="Layer_1" data-name="Layer 1"><polygon points="1138.299 523.868 688.481 523.868 238.664 523.868 11.092 822 688.481 822 1376.573 822 1138.299 523.868" fill="#9faac4" stroke="#16221d" stroke-miterlimit="10" stroke-width="1.252"/><g clip-path="url(#clip-path)"><path d="M260.517,776.5H66.551A60.055,60.055,0,0,0,41.5,781.976L15.548,793.885A25.117,25.117,0,0,0,.9,816.715V999.891H248.668l19.708-14.558,17.26-9.542V801.622A25.118,25.118,0,0,0,260.517,776.5Z" fill="#ba5c40" stroke="#16221d" stroke-miterlimit="10" stroke-width="1.808"/><path d="M242.5,803.211H4.845A25.091,25.091,0,0,0,.9,816.715V999.891H248.668l19.708-14.558,17.26-9.542V951.51c-22.272-23.106-23.554-60.828-24.476-98.525C259.879,800.657,242.5,803.211,242.5,803.211Z" fill="#8e452d"/></g><path d="M260.517,776.5H66.551A60.055,60.055,0,0,0,41.5,781.976L15.548,793.885A25.117,25.117,0,0,0,.9,816.715V999.891H248.668l27.741-3.852,9.227-20.248V801.622A25.118,25.118,0,0,0,260.517,776.5Z" fill="none" stroke="#0c0007" stroke-miterlimit="10" stroke-width="1.5"/><line x1="21.296" y1="804.929" x2="235.415" y2="804.929" fill="#d3bccb" stroke="#0c0007" stroke-miterlimit="10" stroke-width="1.5"/><line x1="249.319" y1="819.76" x2="249.319" y2="898.239" fill="none" stroke="#0c0007" stroke-miterlimit="10" stroke-width="1.5"/><line x1="250.717" y1="807.4" x2="274.816" y2="791.951" fill="none" stroke="#0c0007" stroke-miterlimit="10" stroke-width="1.5"/><g clip-path="url(#clip-path-2)"><path d="M538.573,776.5H344.607a60.063,60.063,0,0,0-25.049,5.472L293.6,793.885a25.119,25.119,0,0,0-14.644,22.83V999.891H526.723l19.708-14.558,17.26-9.542V801.622A25.118,25.118,0,0,0,538.573,776.5Z" fill="#ba5c40" stroke="#16221d" stroke-miterlimit="10" stroke-width="1.808"/><path d="M520.558,803.211H282.9a25.091,25.091,0,0,0-3.941,13.5V999.891H526.723l19.708-14.558,17.26-9.542V951.51c-22.271-23.106-23.553-60.828-24.476-98.525C537.935,800.657,520.558,803.211,520.558,803.211Z" fill="#8e452d"/></g><path d="M538.573,776.5H344.607a60.063,60.063,0,0,0-25.049,5.472L293.6,793.885a25.119,25.119,0,0,0-14.644,22.83V999.891H526.723l27.741-3.852,9.227-20.248V801.622A25.118,25.118,0,0,0,538.573,776.5Z" fill="none" stroke="#0c0007" stroke-miterlimit="10" stroke-width="1.5"/><line x1="299.352" y1="804.929" x2="513.47" y2="804.929" fill="#d3bccb" stroke="#0c0007" stroke-miterlimit="10" stroke-width="1.5"/><line x1="527.374" y1="819.76" x2="527.374" y2="898.239" fill="none" stroke="#0c0007" stroke-miterlimit="10" stroke-width="1.5"/><line x1="528.772" y1="807.4" x2="552.872" y2="791.951" fill="none" stroke="#0c0007" stroke-miterlimit="10" stroke-width="1.5"/><g clip-path="url(#clip-path-3)"><path d="M1125.357,776.5h193.966a60.063,60.063,0,0,1,25.049,5.472l25.955,11.909a25.118,25.118,0,0,1,14.643,22.83V999.891H1137.207L1117.5,985.333l-17.26-9.542V801.622A25.118,25.118,0,0,1,1125.357,776.5Z" fill="#ba5c40" stroke="#16221d" stroke-miterlimit="10" stroke-width="1.808"/><path d="M1143.372,803.211h237.657a25.091,25.091,0,0,1,3.941,13.5V999.891H1137.207L1117.5,985.333l-17.26-9.542V951.51c22.271-23.106,23.553-60.828,24.476-98.525C1125.995,800.657,1143.372,803.211,1143.372,803.211Z" fill="#8e452d"/></g><path d="M1125.357,776.5h193.966a60.063,60.063,0,0,1,25.049,5.472l25.955,11.909a25.118,25.118,0,0,1,14.643,22.83V999.891H1137.207l-27.741-3.852-9.227-20.248V801.622A25.118,25.118,0,0,1,1125.357,776.5Z" fill="none" stroke="#0c0007" stroke-miterlimit="10" stroke-width="1.5"/><line x1="1364.578" y1="804.929" x2="1150.46" y2="804.929" fill="#d3bccb" stroke="#0c0007" stroke-miterlimit="10" stroke-width="1.5"/><line x1="1136.556" y1="819.76" x2="1136.556" y2="898.239" fill="none" stroke="#0c0007" stroke-miterlimit="10" stroke-width="1.5"/><line x1="1135.158" y1="807.4" x2="1111.058" y2="791.951" fill="none" stroke="#0c0007" stroke-miterlimit="10" stroke-width="1.5"/><g clip-path="url(#clip-path-4)"><path d="M847.3,776.5h193.966a60.055,60.055,0,0,1,25.048,5.472l25.955,11.909a25.117,25.117,0,0,1,14.644,22.83V999.891H859.151l-19.708-14.558-17.26-9.542V801.622A25.118,25.118,0,0,1,847.3,776.5Z" fill="#ba5c40" stroke="#16221d" stroke-miterlimit="10" stroke-width="1.808"/><path d="M865.316,803.211h237.658a25.091,25.091,0,0,1,3.941,13.5V999.891H859.151l-19.708-14.558-17.26-9.542V951.51c22.272-23.106,23.554-60.828,24.476-98.525C847.94,800.657,865.316,803.211,865.316,803.211Z" fill="#8e452d"/></g><path d="M847.3,776.5h193.966a60.055,60.055,0,0,1,25.048,5.472l25.955,11.909a25.117,25.117,0,0,1,14.644,22.83V999.891H859.151l-27.741-3.852-9.227-20.248V801.622A25.118,25.118,0,0,1,847.3,776.5Z" fill="none" stroke="#0c0007" stroke-miterlimit="10" stroke-width="1.5"/><line x1="1086.523" y1="804.929" x2="872.404" y2="804.929" fill="#d3bccb" stroke="#0c0007" stroke-miterlimit="10" stroke-width="1.5"/><line x1="858.5" y1="819.76" x2="858.5" y2="898.239" fill="none" stroke="#0c0007" stroke-miterlimit="10" stroke-width="1.5"/><line x1="857.102" y1="807.4" x2="833.003" y2="791.951" fill="none" stroke="#0c0007" stroke-miterlimit="10" stroke-width="1.5"/><path d="M820.66,793.885,794.7,781.976a60.056,60.056,0,0,0-25.048-5.473H616.219a60.064,60.064,0,0,0-25.049,5.473l-25.955,11.909a25.117,25.117,0,0,0-14.644,22.83V999.891H835.3V816.715A25.118,25.118,0,0,0,820.66,793.885Z" fill="#ba5c40" stroke="#16221d" stroke-miterlimit="10" stroke-width="1.808"/><path d="M823.122,803.211H562.752a26.029,26.029,0,0,0-3.75,13.5V999.892H826.873V816.715A26.029,26.029,0,0,0,823.122,803.211Z" fill="#8e452d"/><line x1="585.211" y1="804.929" x2="797.408" y2="804.929" fill="#d3bccb" stroke="#0c0007" stroke-miterlimit="10" stroke-width="1.5"/><line x1="798.986" y1="819.76" x2="798.986" y2="898.239" fill="none" stroke="#0c0007" stroke-miterlimit="10" stroke-width="1.5"/><line x1="582.991" y1="819.76" x2="582.991" y2="898.239" fill="none" stroke="#0c0007" stroke-miterlimit="10" stroke-width="1.5"/><rect x="297.865" y="7.223" width="11.379" height="35.707" fill="#e5d3d0" stroke="#16221d" stroke-miterlimit="10" stroke-width="1.372"/><rect x="1075.192" y="7.223" width="11.379" height="35.707" fill="#e5d3d0" stroke="#16221d" stroke-miterlimit="10" stroke-width="1.372"/><circle cx="780.305" cy="206.675" r="115.617" fill="#fcc013"/><polygon points="928.635 54.143 944.505 77.837 863 287.502 778.871 90.975 928.635 54.143" fill="#fcc013" opacity="0.8"/><circle cx="601.546" cy="210.218" r="115.617" fill="#fcc013"/><polygon points="441.21 51.14 425.338 74.833 528.902 300.195 595.617 94.518 441.21 51.14" fill="#fcc013" opacity="0.8"/><path d="M1124.758,208.021l-15.2-83.909-4.267-23.553c-.344-1.9-3.236-1.094-2.893.8l15.2,83.909,4.266,23.554c.344,1.9,3.236,1.093,2.893-.8Z" fill="#16221d"/><path d="M236.585,42.93h18a0,0,0,0,1,0,0V565.167a4.363,4.363,0,0,1-4.363,4.363h-9.274a4.363,4.363,0,0,1-4.363-4.363V42.93A0,0,0,0,1,236.585,42.93Z" fill="#424e63" stroke="#16221d" stroke-miterlimit="10" stroke-width="1.252"/><g clip-path="url(#clip-path-5)"><path d="M249.805,54.143V534.262s37.058,6.688,37.209-9.479v-8.727c1.153-1.08,3.279-2.237,7.2-3.014a32.693,32.693,0,0,1,8.263-.518c5.882.344,15.523.3,15.523-7.9V489.743c5.914.286,14.769-.076,14.769-7.94V54.143Z" fill="#e8a390" stroke="#16221d" stroke-miterlimit="10" stroke-width="1.498"/><path d="M287.014,516.056V408.9s-4.855,87.072,30.924,59.338v47.821S301.407,527.989,287.014,516.056Z" fill="#e8a390" opacity="0.43" style="mix-blend-mode:multiply"/><path d="M248.831,529.084V396.772s-5.994,107.511,38.183,73.267v59.045S266.6,543.819,248.831,529.084Z" fill="#e8a390" opacity="0.43" style="mix-blend-mode:multiply"/><path d="M318.221,491.139v-73.2s-4.855,53.117,30.924,25.383v47.821S332.614,503.072,318.221,491.139Z" fill="#e8a390" opacity="0.43" style="mix-blend-mode:multiply"/></g><line x1="287.014" y1="516.056" x2="287.014" y2="399.522" fill="none" stroke="#16221d" stroke-miterlimit="10" stroke-width="1.498"/><line x1="287.014" y1="430.014" x2="287.014" y2="244.562" fill="none" stroke="#16221d" stroke-miterlimit="10" stroke-width="1.498"/><line x1="318" y1="489.743" x2="318" y2="444.894" fill="none" stroke="#16221d" stroke-miterlimit="10" stroke-width="1.498"/><line x1="318" y1="431.752" x2="318" y2="427.339" fill="none" stroke="#16221d" stroke-miterlimit="10" stroke-width="1.498"/><line x1="318" y1="310.569" x2="318" y2="126.037" fill="none" stroke="#16221d" stroke-miterlimit="10" stroke-width="1.498"/><path d="M318,341.815v5.643A10.222,10.222,0,0,0,318,341.815Z" fill="#e8a390" opacity="0.43" style="mix-blend-mode:multiply"/><path d="M287.014,54.143V359.36c.212,0,.412,0,.622,0V405.34c3.824-41.115,13.165-46.636,15.476-47.376.167-.036.328-.074.492-.112l.033,0,0,0c9.932-2.29,13.342-6.75,14.365-10.387V54.143Z" fill="#e8a390" opacity="0.43" style="mix-blend-mode:multiply"/><path d="M248.971,54.143V292.9c.212,0,.413,0,.622,0v45.981c3.824-41.114,13.165-46.636,15.477-47.375.166-.037.328-.075.491-.113l.033,0,0,0c9.932-2.29,13.343-6.75,14.365-10.387V55.029Z" fill="#e8a390" opacity="0.43" style="mix-blend-mode:multiply"/><path d="M332.769,158.173,318,155.018v165.52c19.959-6.024,14.769-28.335,14.769-28.335Z" fill="#e8a390" opacity="0.43" style="mix-blend-mode:multiply"/><line x1="318" y1="411.217" x2="318" y2="331.451" fill="none" stroke="#16221d" stroke-miterlimit="10" stroke-width="1.498"/><line x1="287.014" y1="206.675" x2="287.014" y2="202.262" fill="none" stroke="#16221d" stroke-miterlimit="10" stroke-width="1.498"/><line x1="287.014" y1="186.14" x2="287.014" y2="106.374" fill="none" stroke="#16221d" stroke-miterlimit="10" stroke-width="1.498"/><line x1="318" y1="307.121" x2="318" y2="122.589" fill="none" stroke="#16221d" stroke-miterlimit="10" stroke-width="1.498"/><path d="M249.805,54.143V534.262s37.058,6.688,37.209-9.479v-8.727c1.153-1.08,3.279-2.237,7.2-3.014a32.693,32.693,0,0,1,8.263-.518c5.882.344,15.523.3,15.523-7.9V489.743c5.914.286,14.769-.076,14.769-7.94V54.143Z" fill="none" stroke="#16221d" stroke-miterlimit="10" stroke-width="1.498"/><path d="M1126.741,42.93h9.274a4.363,4.363,0,0,1,4.363,4.363V575.835a0,0,0,0,1,0,0h-18a0,0,0,0,1,0,0V47.293a4.363,4.363,0,0,1,4.363-4.363Z" transform="translate(2262.756 618.765) rotate(-180)" fill="#424e63" stroke="#16221d" stroke-miterlimit="10" stroke-width="1.252"/><g clip-path="url(#clip-path-6)"><path d="M1127.158,54.143V534.262s-37.058,6.688-37.209-9.479v-8.727c-1.153-1.08-3.279-2.237-7.2-3.014a32.7,32.7,0,0,0-8.263-.518c-5.882.344-15.523.3-15.523-7.9V489.743c-5.915.286-14.77-.076-14.77-7.94V54.143Z" fill="#e8a390" stroke="#16221d" stroke-miterlimit="10" stroke-width="1.498"/><path d="M1089.949,516.056V408.9s4.855,87.072-30.924,59.338v47.821S1075.556,527.989,1089.949,516.056Z" fill="#e8a390" opacity="0.43" style="mix-blend-mode:multiply"/><path d="M1128.132,529.084V396.772s5.994,107.511-38.183,73.267v59.045S1110.36,543.819,1128.132,529.084Z" fill="#e8a390" opacity="0.43" style="mix-blend-mode:multiply"/><path d="M1058.742,491.139v-73.2s4.855,53.117-30.924,25.383v47.821S1044.348,503.072,1058.742,491.139Z" fill="#e8a390" opacity="0.43" style="mix-blend-mode:multiply"/></g><line x1="1089.949" y1="516.056" x2="1089.949" y2="399.522" fill="none" stroke="#16221d" stroke-miterlimit="10" stroke-width="1.498"/><line x1="1089.949" y1="430.014" x2="1089.949" y2="244.562" fill="none" stroke="#16221d" stroke-miterlimit="10" stroke-width="1.498"/><line x1="1058.963" y1="489.743" x2="1058.963" y2="444.894" fill="none" stroke="#16221d" stroke-miterlimit="10" stroke-width="1.498"/><line x1="1058.963" y1="431.752" x2="1058.963" y2="427.339" fill="none" stroke="#16221d" stroke-miterlimit="10" stroke-width="1.498"/><line x1="1058.963" y1="310.569" x2="1058.963" y2="126.037" fill="none" stroke="#16221d" stroke-miterlimit="10" stroke-width="1.498"/><path d="M1058.963,341.815v5.643A10.222,10.222,0,0,1,1058.963,341.815Z" fill="#e8a390" opacity="0.43" style="mix-blend-mode:multiply"/><path d="M1089.949,54.143V359.36c-.212,0-.412,0-.622,0V405.34c-3.824-41.115-13.165-46.636-15.477-47.376-.166-.036-.327-.074-.491-.112l-.033,0,0,0c-9.932-2.29-13.343-6.75-14.365-10.387V54.143Z" fill="#e8a390" opacity="0.43" style="mix-blend-mode:multiply"/><path d="M1127.992,54.143V292.9c-.212,0-.413,0-.622,0v45.981c-3.824-41.114-13.166-46.636-15.477-47.375-.167-.037-.328-.075-.491-.113l-.033,0v0c-9.931-2.29-13.342-6.75-14.364-10.387V55.029Z" fill="#e8a390" opacity="0.43" style="mix-blend-mode:multiply"/><path d="M1044.193,158.173l14.77-3.155v165.52c-19.959-6.024-14.77-28.335-14.77-28.335Z" fill="#e8a390" opacity="0.43" style="mix-blend-mode:multiply"/><line x1="1058.963" y1="411.217" x2="1058.963" y2="331.451" fill="none" stroke="#16221d" stroke-miterlimit="10" stroke-width="1.498"/><line x1="1089.949" y1="206.675" x2="1089.949" y2="202.262" fill="none" stroke="#16221d" stroke-miterlimit="10" stroke-width="1.498"/><line x1="1089.949" y1="186.14" x2="1089.949" y2="106.374" fill="none" stroke="#16221d" stroke-miterlimit="10" stroke-width="1.498"/><line x1="1058.963" y1="307.121" x2="1058.963" y2="122.589" fill="none" stroke="#16221d" stroke-miterlimit="10" stroke-width="1.498"/><path d="M1127.158,54.143V534.262s-37.058,6.688-37.209-9.479v-8.727c-1.153-1.08-3.279-2.237-7.2-3.014a32.7,32.7,0,0,0-8.263-.518c-5.882.344-15.523.3-15.523-7.9V489.743c-5.915.286-14.77-.076-14.77-7.94V54.143Z" fill="none" stroke="#16221d" stroke-miterlimit="10" stroke-width="1.498"/><polygon points="688.897 42.93 237.416 42.93 254.585 58.957 688.897 58.957 1123.209 58.957 1140.378 42.93 688.897 42.93" fill="#424e63" stroke="#16221d" stroke-miterlimit="10" stroke-width="1.252"/><rect x="413.896" y="8.255" width="7.607" height="29.575" fill="#bdb0ae" stroke="#16221d" stroke-miterlimit="10" stroke-width="1.498"/><path d="M439.012,80.837,408.878,60.653c-2.814-1.885-.643-10.06,4.849-18.26s12.226-13.318,15.04-11.433L458.9,51.144Z" fill="#e5d3d0" stroke="#16221d" stroke-miterlimit="10" stroke-width="1.498"/><ellipse cx="448.957" cy="65.99" rx="17.869" ry="6.134" transform="translate(144.285 402.282) rotate(-56.186)" fill="#918887" stroke="#16221d" stroke-miterlimit="10" stroke-width="1.498"/><ellipse cx="449.232" cy="66.175" rx="14.874" ry="3.908" transform="translate(144.254 402.593) rotate(-56.186)" fill="#ffd893" stroke="#16221d" stroke-miterlimit="10" stroke-width="1.498"/><rect x="413.157" y="30.006" width="9.036" height="28.587" rx="1.985" transform="translate(148.433 366.671) rotate(-56.186)" fill="#e5d3d0" stroke="#16221d" stroke-miterlimit="10" stroke-width="1.498"/><path d="M426.809,48.118a1.91,1.91,0,1,0,.524,2.65,1.911,1.911,0,0,0-.524-2.65" fill="#8e8584" stroke="#16221d" stroke-miterlimit="10" stroke-width="1.498"/><path d="M293.591.686H440.23a4.1,4.1,0,0,1,4.1,4.1v4.87a4.1,4.1,0,0,1-4.1,4.1H293.591a6.537,6.537,0,0,1-6.537-6.537v0A6.537,6.537,0,0,1,293.591.686Z" transform="translate(731.386 14.447) rotate(-180)" fill="#e5d3d0" stroke="#16221d" stroke-miterlimit="10" stroke-width="1.372"/><rect x="959.399" y="13.579" width="7.607" height="29.575" transform="translate(1926.404 56.732) rotate(-180)" fill="#bdb0ae" stroke="#16221d" stroke-miterlimit="10" stroke-width="1.498"/><path d="M941.889,86.161l30.134-20.184c2.814-1.885.644-10.06-4.848-18.26S954.949,34.4,952.134,36.284L922,56.467Z" fill="#e5d3d0" stroke="#16221d" stroke-miterlimit="10" stroke-width="1.498"/><ellipse cx="931.945" cy="71.314" rx="6.134" ry="17.869" transform="translate(117.954 530.689) rotate(-33.814)" fill="#918887" stroke="#16221d" stroke-miterlimit="10" stroke-width="1.498"/><ellipse cx="931.669" cy="71.498" rx="3.908" ry="14.874" transform="translate(117.804 530.567) rotate(-33.814)" fill="#ffd893" stroke="#16221d" stroke-miterlimit="10" stroke-width="1.498"/><rect x="958.708" y="35.329" width="9.036" height="28.587" rx="1.985" transform="translate(1458.031 877.533) rotate(-123.814)" fill="#e5d3d0" stroke="#16221d" stroke-miterlimit="10" stroke-width="1.498"/><circle cx="955.156" cy="55.029" r="1.91" fill="#8e8584" stroke="#16221d" stroke-miterlimit="10" stroke-width="1.498"/><path d="M943.106,6.01h146.639a4.1,4.1,0,0,1,4.1,4.1v4.87a4.1,4.1,0,0,1-4.1,4.1H943.106a6.537,6.537,0,0,1-6.537-6.537v0a6.537,6.537,0,0,1,6.537-6.537Z" fill="#e5d3d0" stroke="#16221d" stroke-miterlimit="10" stroke-width="1.372"/></g></g></svg>