<svg xmlns="http://www.w3.org/2000/svg" xmlns:xlink="http://www.w3.org/1999/xlink" viewBox="0 0 1366 768"><defs><clipPath id="clip-path"><path d="M238.713,53.457V533.576s37.058,6.688,37.209-9.479V515.37c1.153-1.08,3.279-2.236,7.2-3.014a32.7,32.7,0,0,1,8.263-.518c5.882.344,15.523.305,15.523-7.9V489.057c5.915.286,14.77-.076,14.77-7.94V53.457Z" fill="none"/></clipPath><clipPath id="clip-path-2"><path d="M1116.066,53.457V533.576s-37.058,6.688-37.209-9.479V515.37c-1.152-1.08-3.279-2.236-7.2-3.014a32.7,32.7,0,0,0-8.264-.518c-5.881.344-15.523.305-15.523-7.9V489.057c-5.914.286-14.769-.076-14.769-7.94V53.457Z" fill="none"/></clipPath></defs><g style="isolation:isolate"><g id="Layer_1" data-name="Layer 1"><polygon points="1127.207 523.182 677.39 523.182 227.572 523.182 0 821.314 677.39 821.314 1365.482 821.314 1127.207 523.182" fill="#9faac4" stroke="#16221d" stroke-miterlimit="10" stroke-width="1.252"/><circle cx="769.214" cy="205.989" r="115.617" fill="#fcc013"/><polygon points="917.543 53.457 933.413 77.152 851.908 286.817 767.779 90.29 917.543 53.457" fill="#fcc013" opacity="0.8"/><circle cx="590.454" cy="209.532" r="115.617" fill="#fcc013"/><polygon points="430.118 50.454 414.246 74.147 517.81 299.509 584.525 93.833 430.118 50.454" fill="#fcc013" opacity="0.8"/><path d="M1113.666,207.335l-15.2-83.909L1094.2,99.873c-.344-1.9-3.235-1.093-2.893.8l15.2,83.909,4.267,23.554c.343,1.9,3.235,1.093,2.892-.8Z" fill="#16221d"/><path d="M225.493,42.244h18a0,0,0,0,1,0,0V564.481a4.363,4.363,0,0,1-4.363,4.363h-9.274a4.363,4.363,0,0,1-4.363-4.363V42.244A0,0,0,0,1,225.493,42.244Z" fill="#424e63" stroke="#16221d" stroke-miterlimit="10" stroke-width="1.252"/><g clip-path="url(#clip-path)"><path d="M238.713,53.457V533.576s37.058,6.688,37.209-9.479V515.37c1.153-1.08,3.279-2.236,7.2-3.014a32.7,32.7,0,0,1,8.263-.518c5.882.344,15.523.305,15.523-7.9V489.057c5.915.286,14.77-.076,14.77-7.94V53.457Z" fill="#e8a390" stroke="#16221d" stroke-miterlimit="10" stroke-width="1.498"/><path d="M275.922,515.37V408.211s-4.854,87.072,30.924,59.339v47.82S290.316,527.3,275.922,515.37Z" fill="#e8a390" opacity="0.43" style="mix-blend-mode:multiply"/><path d="M237.739,528.4V396.086s-5.994,107.511,38.183,73.267V528.4S255.511,543.133,237.739,528.4Z" fill="#e8a390" opacity="0.43" style="mix-blend-mode:multiply"/><path d="M307.129,490.453v-73.2s-4.854,53.116,30.925,25.383v47.82S321.523,502.386,307.129,490.453Z" fill="#e8a390" opacity="0.43" style="mix-blend-mode:multiply"/></g><line x1="275.922" y1="515.37" x2="275.922" y2="398.836" fill="none" stroke="#16221d" stroke-miterlimit="10" stroke-width="1.498"/><line x1="275.922" y1="429.328" x2="275.922" y2="243.876" fill="none" stroke="#16221d" stroke-miterlimit="10" stroke-width="1.498"/><line x1="306.908" y1="489.057" x2="306.908" y2="444.208" fill="none" stroke="#16221d" stroke-miterlimit="10" stroke-width="1.498"/><line x1="306.908" y1="431.066" x2="306.908" y2="426.653" fill="none" stroke="#16221d" stroke-miterlimit="10" stroke-width="1.498"/><line x1="306.908" y1="309.883" x2="306.908" y2="125.351" fill="none" stroke="#16221d" stroke-miterlimit="10" stroke-width="1.498"/><path d="M306.908,341.13v5.642A10.218,10.218,0,0,0,306.908,341.13Z" fill="#e8a390" opacity="0.43" style="mix-blend-mode:multiply"/><path d="M275.922,53.457V358.674c.212,0,.413,0,.622,0v45.981c3.824-41.115,13.165-46.636,15.477-47.376.166-.036.328-.074.491-.112l.033,0,0,0c9.932-2.29,13.343-6.75,14.365-10.387V53.457Z" fill="#e8a390" opacity="0.43" style="mix-blend-mode:multiply"/><path d="M237.879,53.457v238.76c.212,0,.413,0,.622,0V338.2c3.825-41.114,13.166-46.636,15.477-47.375.167-.037.328-.075.491-.112l.033,0v0c9.932-2.29,13.342-6.75,14.364-10.387V54.343Z" fill="#e8a390" opacity="0.43" style="mix-blend-mode:multiply"/><path d="M321.678,157.487l-14.77-3.155v165.52c19.959-6.024,14.77-28.335,14.77-28.335Z" fill="#e8a390" opacity="0.43" style="mix-blend-mode:multiply"/><line x1="306.908" y1="410.531" x2="306.908" y2="330.765" fill="none" stroke="#16221d" stroke-miterlimit="10" stroke-width="1.498"/><line x1="275.922" y1="205.989" x2="275.922" y2="201.577" fill="none" stroke="#16221d" stroke-miterlimit="10" stroke-width="1.498"/><line x1="275.922" y1="185.454" x2="275.922" y2="105.688" fill="none" stroke="#16221d" stroke-miterlimit="10" stroke-width="1.498"/><line x1="306.908" y1="306.435" x2="306.908" y2="121.904" fill="none" stroke="#16221d" stroke-miterlimit="10" stroke-width="1.498"/><path d="M238.713,53.457V533.576s37.058,6.688,37.209-9.479V515.37c1.153-1.08,3.279-2.236,7.2-3.014a32.7,32.7,0,0,1,8.263-.518c5.882.344,15.523.305,15.523-7.9V489.057c5.915.286,14.77-.076,14.77-7.94V53.457Z" fill="none" stroke="#16221d" stroke-miterlimit="10" stroke-width="1.498"/><path d="M1115.649,42.244h9.274a4.363,4.363,0,0,1,4.363,4.363V575.149a0,0,0,0,1,0,0h-18a0,0,0,0,1,0,0V46.608a4.363,4.363,0,0,1,4.363-4.363Z" transform="translate(2240.572 617.394) rotate(-180)" fill="#424e63" stroke="#16221d" stroke-miterlimit="10" stroke-width="1.252"/><g clip-path="url(#clip-path-2)"><path d="M1116.066,53.457V533.576s-37.058,6.688-37.209-9.479V515.37c-1.152-1.08-3.279-2.236-7.2-3.014a32.7,32.7,0,0,0-8.264-.518c-5.881.344-15.523.305-15.523-7.9V489.057c-5.914.286-14.769-.076-14.769-7.94V53.457Z" fill="#e8a390" stroke="#16221d" stroke-miterlimit="10" stroke-width="1.498"/><path d="M1078.857,515.37V408.211s4.855,87.072-30.924,59.339v47.82S1064.464,527.3,1078.857,515.37Z" fill="#e8a390" opacity="0.43" style="mix-blend-mode:multiply"/><path d="M1117.04,528.4V396.086s5.994,107.511-38.183,73.267V528.4S1099.268,543.133,1117.04,528.4Z" fill="#e8a390" opacity="0.43" style="mix-blend-mode:multiply"/><path d="M1047.65,490.453v-73.2s4.855,53.116-30.924,25.383v47.82S1033.257,502.386,1047.65,490.453Z" fill="#e8a390" opacity="0.43" style="mix-blend-mode:multiply"/></g><line x1="1078.857" y1="515.37" x2="1078.857" y2="398.836" fill="none" stroke="#16221d" stroke-miterlimit="10" stroke-width="1.498"/><line x1="1078.857" y1="429.328" x2="1078.857" y2="243.876" fill="none" stroke="#16221d" stroke-miterlimit="10" stroke-width="1.498"/><line x1="1047.871" y1="489.057" x2="1047.871" y2="444.208" fill="none" stroke="#16221d" stroke-miterlimit="10" stroke-width="1.498"/><line x1="1047.871" y1="431.066" x2="1047.871" y2="426.653" fill="none" stroke="#16221d" stroke-miterlimit="10" stroke-width="1.498"/><line x1="1047.871" y1="309.883" x2="1047.871" y2="125.351" fill="none" stroke="#16221d" stroke-miterlimit="10" stroke-width="1.498"/><path d="M1047.871,341.13v5.642A10.229,10.229,0,0,1,1047.871,341.13Z" fill="#e8a390" opacity="0.43" style="mix-blend-mode:multiply"/><path d="M1078.857,53.457V358.674c-.212,0-.412,0-.622,0v45.981c-3.824-41.115-13.165-46.636-15.476-47.376-.167-.036-.328-.074-.492-.112l-.033,0,0,0c-9.932-2.29-13.342-6.75-14.365-10.387V53.457Z" fill="#e8a390" opacity="0.43" style="mix-blend-mode:multiply"/><path d="M1116.9,53.457v238.76c-.212,0-.413,0-.622,0V338.2c-3.824-41.114-13.165-46.636-15.477-47.375l-.491-.112-.033,0,0,0c-9.932-2.29-13.343-6.75-14.365-10.387V54.343Z" fill="#e8a390" opacity="0.43" style="mix-blend-mode:multiply"/><path d="M1033.1,157.487l14.769-3.155v165.52c-19.959-6.024-14.769-28.335-14.769-28.335Z" fill="#e8a390" opacity="0.43" style="mix-blend-mode:multiply"/><line x1="1047.871" y1="410.531" x2="1047.871" y2="330.765" fill="none" stroke="#16221d" stroke-miterlimit="10" stroke-width="1.498"/><line x1="1078.857" y1="205.989" x2="1078.857" y2="201.577" fill="none" stroke="#16221d" stroke-miterlimit="10" stroke-width="1.498"/><line x1="1078.857" y1="185.454" x2="1078.857" y2="105.688" fill="none" stroke="#16221d" stroke-miterlimit="10" stroke-width="1.498"/><line x1="1047.871" y1="306.435" x2="1047.871" y2="121.904" fill="none" stroke="#16221d" stroke-miterlimit="10" stroke-width="1.498"/><path d="M1116.066,53.457V533.576s-37.058,6.688-37.209-9.479V515.37c-1.152-1.08-3.279-2.236-7.2-3.014a32.7,32.7,0,0,0-8.264-.518c-5.881.344-15.523.305-15.523-7.9V489.057c-5.914.286-14.769-.076-14.769-7.94V53.457Z" fill="none" stroke="#16221d" stroke-miterlimit="10" stroke-width="1.498"/><polygon points="677.805 42.244 226.324 42.244 243.493 58.271 677.805 58.271 1112.117 58.271 1129.286 42.244 677.805 42.244" fill="#424e63" stroke="#16221d" stroke-miterlimit="10" stroke-width="1.252"/><rect x="402.804" y="7.569" width="7.607" height="29.575" fill="#bdb0ae" stroke="#16221d" stroke-miterlimit="10" stroke-width="1.498"/><path d="M427.921,80.151,397.787,59.968c-2.815-1.885-.644-10.061,4.848-18.26s12.226-13.319,15.04-11.434l30.134,20.184Z" fill="#e5d3d0" stroke="#16221d" stroke-miterlimit="10" stroke-width="1.498"/><ellipse cx="437.865" cy="65.304" rx="17.869" ry="6.134" transform="translate(139.936 392.762) rotate(-56.186)" fill="#918887" stroke="#16221d" stroke-miterlimit="10" stroke-width="1.498"/><ellipse cx="438.14" cy="65.489" rx="14.874" ry="3.908" transform="translate(139.904 393.073) rotate(-56.186)" fill="#ffd893" stroke="#16221d" stroke-miterlimit="10" stroke-width="1.498"/><rect x="402.065" y="29.32" width="9.036" height="28.587" rx="1.985" transform="translate(144.084 357.152) rotate(-56.186)" fill="#e5d3d0" stroke="#16221d" stroke-miterlimit="10" stroke-width="1.498"/><path d="M415.717,47.432a1.91,1.91,0,1,0,.524,2.65,1.911,1.911,0,0,0-.524-2.65" fill="#8e8584" stroke="#16221d" stroke-miterlimit="10" stroke-width="1.498"/><path d="M282.5,0H429.138a4.1,4.1,0,0,1,4.1,4.1v4.87a4.1,4.1,0,0,1-4.1,4.1H282.5a6.537,6.537,0,0,1-6.537-6.537v0A6.537,6.537,0,0,1,282.5,0Z" transform="translate(709.202 13.075) rotate(-180)" fill="#e5d3d0" stroke="#16221d" stroke-miterlimit="10" stroke-width="1.372"/><rect x="948.307" y="12.893" width="7.607" height="29.575" transform="translate(1904.221 55.36) rotate(-180)" fill="#bdb0ae" stroke="#16221d" stroke-miterlimit="10" stroke-width="1.498"/><path d="M930.8,85.475l30.134-20.184c2.814-1.885.644-10.06-4.848-18.26S943.857,33.713,941.043,35.6L910.909,55.781Z" fill="#e5d3d0" stroke="#16221d" stroke-miterlimit="10" stroke-width="1.498"/><ellipse cx="920.853" cy="70.628" rx="6.134" ry="17.869" transform="translate(116.459 524.4) rotate(-33.814)" fill="#918887" stroke="#16221d" stroke-miterlimit="10" stroke-width="1.498"/><ellipse cx="920.577" cy="70.813" rx="3.908" ry="14.874" transform="translate(116.31 524.278) rotate(-33.814)" fill="#ffd893" stroke="#16221d" stroke-miterlimit="10" stroke-width="1.498"/><rect x="947.616" y="34.643" width="9.036" height="28.587" rx="1.985" transform="translate(1441.337 867.25) rotate(-123.814)" fill="#e5d3d0" stroke="#16221d" stroke-miterlimit="10" stroke-width="1.498"/><circle cx="944.064" cy="54.343" r="1.91" fill="#8e8584" stroke="#16221d" stroke-miterlimit="10" stroke-width="1.498"/><path d="M932.015,5.324h146.639a4.1,4.1,0,0,1,4.1,4.1V14.3a4.1,4.1,0,0,1-4.1,4.1H932.015a6.537,6.537,0,0,1-6.537-6.537v0a6.537,6.537,0,0,1,6.537-6.537Z" fill="#e5d3d0" stroke="#16221d" stroke-miterlimit="10" stroke-width="1.372"/></g></g></svg>