<?xml version="1.0" encoding="utf-8"?>
<!-- Generator: Adobe Illustrator 24.1.2, SVG Export Plug-In . SVG Version: 6.00 Build 0)  -->
<svg version="1.1" id="Layer_1" xmlns="http://www.w3.org/2000/svg" xmlns:xlink="http://www.w3.org/1999/xlink" x="0px" y="0px"
	 viewBox="0 0 1385.9 1000.8" style="enable-background:new 0 0 1385.9 1000.8;" xml:space="preserve">
<style type="text/css">
	.st0{fill:#9FAAC4;stroke:#16221D;stroke-width:1.252;stroke-miterlimit:10;}
	.st1{clip-path:url(#SVGID_2_);}
	.st2{fill:#BA5C40;stroke:#16221D;stroke-width:1.808;stroke-miterlimit:10;}
	.st3{fill:#8E452D;}
	.st4{fill:none;stroke:#0C0007;stroke-width:1.5;stroke-miterlimit:10;}
	.st5{clip-path:url(#SVGID_4_);}
	.st6{clip-path:url(#SVGID_6_);}
	.st7{clip-path:url(#SVGID_8_);}
	.st8{fill:#E5D3D0;stroke:#16221D;stroke-width:1.372;stroke-miterlimit:10;}
	.st9{fill:#FCC013;}
	.st10{opacity:0.8;fill:#FCC013;enable-background:new    ;}
	.st11{fill:#16221D;}
	.st12{fill:#424E63;stroke:#16221D;stroke-width:1.252;stroke-miterlimit:10;}
	.st13{clip-path:url(#SVGID_10_);}
	.st14{fill:#E8A390;stroke:#16221D;stroke-width:1.498;stroke-miterlimit:10;}
	.st15{opacity:0.43;fill:#E8A390;enable-background:new    ;}
	.st16{fill:none;stroke:#16221D;stroke-width:1.498;stroke-miterlimit:10;}
	.st17{clip-path:url(#SVGID_12_);}
	.st18{fill:#BDB0AE;stroke:#16221D;stroke-width:1.498;stroke-miterlimit:10;}
	.st19{fill:#E5D3D0;stroke:#16221D;stroke-width:1.498;stroke-miterlimit:10;}
	.st20{fill:#918887;stroke:#16221D;stroke-width:1.4979;stroke-miterlimit:9.9996;}
	.st21{fill:#FFD893;stroke:#16221D;stroke-width:1.4979;stroke-miterlimit:9.9996;}
	.st22{fill:#8E8584;stroke:#16221D;stroke-width:1.498;stroke-miterlimit:10;}
</style>
<g>
	<g id="Layer_1_1_">
		<polygon class="st0" points="1138.3,523.9 688.5,523.9 238.7,523.9 11.1,822 688.5,822 1376.6,822 		"/>
		<g>
			<g>
				<defs>
					<path id="SVGID_1_" d="M260.5,776.5h-194c-8.6,0-17.2,1.9-25.1,5.5l-26,11.9c-8.9,4.1-14.6,13-14.6,22.8v183.2h247.8l14.1-16.8
						l22.9-7.3V801.6C285.6,787.7,274.4,776.5,260.5,776.5L260.5,776.5z"/>
				</defs>
				<clipPath id="SVGID_2_">
					<use xlink:href="#SVGID_1_"  style="overflow:visible;"/>
				</clipPath>
				<g class="st1">
					<path class="st2" d="M260.5,776.5h-194c-8.6,0-17.2,1.9-25.1,5.5l-26,11.9c-8.9,4.1-14.6,13-14.6,22.8v183.2h247.8l19.7-14.6
						l17.3-9.5V801.6C285.6,787.7,274.4,776.5,260.5,776.5L260.5,776.5z"/>
					<path class="st3" d="M242.5,803.2H4.8c-2.6,4-3.9,8.7-3.9,13.5v183.2h247.8l19.7-14.6l17.3-9.5v-24.3
						c-22.3-23.1-23.6-60.8-24.5-98.5C259.9,800.7,242.5,803.2,242.5,803.2z"/>
				</g>
			</g>
		</g>
		<path class="st4" d="M260.5,776.5h-194c-8.6,0-17.2,1.9-25.1,5.5l-26,11.9c-8.9,4.1-14.6,13-14.6,22.8v183.2h247.8l27.7-3.9
			l9.2-20.2V801.6C285.6,787.7,274.4,776.5,260.5,776.5L260.5,776.5z"/>
		<line class="st4" x1="21.3" y1="804.9" x2="235.4" y2="804.9"/>
		<line class="st4" x1="249.3" y1="819.8" x2="249.3" y2="898.2"/>
		<line class="st4" x1="250.7" y1="807.4" x2="274.8" y2="792"/>
		<g>
			<g>
				<defs>
					<path id="SVGID_3_" d="M538.6,776.5h-194c-8.6,0-17.2,1.9-25,5.5l-26,11.9c-8.9,4.1-14.6,13-14.6,22.8v183.2h247.8l14.1-16.8
						l22.9-7.3V801.6C563.7,787.7,552.5,776.5,538.6,776.5L538.6,776.5z"/>
				</defs>
				<clipPath id="SVGID_4_">
					<use xlink:href="#SVGID_3_"  style="overflow:visible;"/>
				</clipPath>
				<g class="st5">
					<path class="st2" d="M538.6,776.5h-194c-8.6,0-17.2,1.9-25,5.5l-26,11.9c-8.9,4.1-14.6,13-14.6,22.8v183.2h247.8l19.7-14.6
						l17.3-9.5V801.6C563.7,787.7,552.4,776.5,538.6,776.5L538.6,776.5z"/>
					<path class="st3" d="M520.6,803.2H282.9c-2.6,4-3.9,8.7-3.9,13.5v183.2h247.8l19.7-14.6l17.3-9.5v-24.3
						c-22.3-23.1-23.6-60.8-24.5-98.5C537.9,800.7,520.6,803.2,520.6,803.2z"/>
				</g>
			</g>
		</g>
		<path class="st4" d="M538.6,776.5h-194c-8.6,0-17.2,1.9-25,5.5l-26,11.9c-8.9,4.1-14.6,13-14.6,22.8v183.2h247.8l27.7-3.9
			l9.2-20.2V801.6C563.7,787.7,552.4,776.5,538.6,776.5L538.6,776.5z"/>
		<line class="st4" x1="299.4" y1="804.9" x2="513.5" y2="804.9"/>
		<line class="st4" x1="527.4" y1="819.8" x2="527.4" y2="898.2"/>
		<line class="st4" x1="528.8" y1="807.4" x2="552.9" y2="792"/>
		<g>
			<g>
				<defs>
					<path id="SVGID_5_" d="M1125.4,776.5h194c8.6,0,17.2,1.9,25,5.5l26,11.9c8.9,4.1,14.6,13,14.6,22.8v183.2h-247.8l-14.1-16.8
						l-22.9-7.3V801.6C1100.2,787.7,1111.5,776.5,1125.4,776.5L1125.4,776.5z"/>
				</defs>
				<clipPath id="SVGID_6_">
					<use xlink:href="#SVGID_5_"  style="overflow:visible;"/>
				</clipPath>
				<g class="st6">
					<path class="st2" d="M1125.4,776.5h194c8.6,0,17.2,1.9,25,5.5l26,11.9c8.9,4.1,14.6,13,14.6,22.8v183.2h-247.8l-19.7-14.6
						l-17.3-9.5V801.6C1100.2,787.7,1111.5,776.5,1125.4,776.5L1125.4,776.5z"/>
					<path class="st3" d="M1143.4,803.2H1381c2.6,4,3.9,8.7,3.9,13.5v183.2h-247.8l-19.7-14.6l-17.3-9.5v-24.3
						c22.3-23.1,23.6-60.8,24.5-98.5C1126,800.7,1143.4,803.2,1143.4,803.2z"/>
				</g>
			</g>
		</g>
		<path class="st4" d="M1125.4,776.5h194c8.6,0,17.2,1.9,25,5.5l26,11.9c8.9,4.1,14.6,13,14.6,22.8v183.2h-247.8l-27.7-3.9
			l-9.2-20.2V801.6C1100.2,787.7,1111.5,776.5,1125.4,776.5L1125.4,776.5z"/>
		<line class="st4" x1="1364.6" y1="804.9" x2="1150.5" y2="804.9"/>
		<line class="st4" x1="1136.6" y1="819.8" x2="1136.6" y2="898.2"/>
		<line class="st4" x1="1135.2" y1="807.4" x2="1111.1" y2="792"/>
		<g>
			<g>
				<defs>
					<path id="SVGID_7_" d="M847.3,776.5h194c8.6,0,17.2,1.9,25,5.5l26,11.9c8.9,4.1,14.6,13,14.6,22.8v183.2H859.2l-14.1-16.8
						l-22.9-7.3V801.6C822.2,787.7,833.4,776.5,847.3,776.5L847.3,776.5z"/>
				</defs>
				<clipPath id="SVGID_8_">
					<use xlink:href="#SVGID_7_"  style="overflow:visible;"/>
				</clipPath>
				<g class="st7">
					<path class="st2" d="M847.3,776.5h194c8.6,0,17.2,1.9,25,5.5l26,11.9c8.9,4.1,14.6,13,14.6,22.8v183.2H859.2l-19.7-14.6
						l-17.3-9.5V801.6C822.2,787.7,833.4,776.5,847.3,776.5L847.3,776.5z"/>
					<path class="st3" d="M865.3,803.2H1103c2.6,4,3.9,8.7,3.9,13.5v183.2H859.2l-19.7-14.6l-17.3-9.5v-24.3
						c22.3-23.1,23.6-60.8,24.5-98.5C847.9,800.7,865.3,803.2,865.3,803.2z"/>
				</g>
			</g>
		</g>
		<path class="st4" d="M847.3,776.5h194c8.6,0,17.2,1.9,25,5.5l26,11.9c8.9,4.1,14.6,13,14.6,22.8v183.2H859.2l-27.7-3.9l-9.2-20.2
			V801.6C822.2,787.7,833.4,776.5,847.3,776.5L847.3,776.5z"/>
		<line class="st4" x1="1086.5" y1="804.9" x2="872.4" y2="804.9"/>
		<line class="st4" x1="858.5" y1="819.8" x2="858.5" y2="898.2"/>
		<line class="st4" x1="857.1" y1="807.4" x2="833" y2="792"/>
		<path class="st2" d="M820.7,793.9l-26-11.9c-7.9-3.6-16.4-5.5-25-5.5H616.2c-8.6,0-17.2,1.9-25,5.5l-26,11.9
			c-8.9,4.1-14.6,13-14.6,22.8v183.2h284.7V816.7C835.3,806.9,829.6,798,820.7,793.9z"/>
		<path class="st3" d="M823.1,803.2H562.8c-2.5,4.1-3.8,8.7-3.8,13.5v183.2h267.9V816.7C826.9,812,825.6,807.3,823.1,803.2z"/>
		<line class="st4" x1="585.2" y1="804.9" x2="797.4" y2="804.9"/>
		<line class="st4" x1="799" y1="819.8" x2="799" y2="898.2"/>
		<line class="st4" x1="583" y1="819.8" x2="583" y2="898.2"/>
		<rect x="297.9" y="7.2" class="st8" width="11.4" height="35.7"/>
		<rect x="1075.2" y="7.2" class="st8" width="11.4" height="35.7"/>
		<circle class="st9" cx="780.3" cy="206.7" r="115.6"/>
		<polygon class="st10" points="928.6,54.1 944.5,77.8 887.4,250.2 758.4,93.2 		"/>
		<circle class="st9" cx="601.5" cy="210.2" r="115.6"/>
		<polygon class="st10" points="441.2,51.1 425.3,74.8 501.6,268.3 614.4,95.3 		"/>
		<path class="st11" d="M1124.8,208l-15.2-83.9l-4.3-23.6c-0.3-1.9-3.2-1.1-2.9,0.8l15.2,83.9l4.3,23.6
			C1122.2,210.7,1125.1,209.9,1124.8,208L1124.8,208z"/>
		<path class="st12" d="M236.6,42.9h18l0,0v522.2c0,2.4-2,4.4-4.4,4.4h-9.3c-2.4,0-4.4-2-4.4-4.4L236.6,42.9L236.6,42.9z"/>
		<g>
			<g>
				<defs>
					<path id="SVGID_9_" d="M249.8,54.1v480.1c0,0,37.1,6.7,37.2-9.5V516c1.2-1.1,3.3-2.2,7.2-3c2.7-0.5,5.5-0.7,8.3-0.5
						c5.9,0.3,15.5,0.3,15.5-7.9v-14.9c5.9,0.3,14.8-0.1,14.8-7.9V54.1H249.8z"/>
				</defs>
				<clipPath id="SVGID_10_">
					<use xlink:href="#SVGID_9_"  style="overflow:visible;"/>
				</clipPath>
				<g class="st13">
					<path class="st14" d="M249.8,54.1v480.1c0,0,37.1,6.7,37.2-9.5V516c1.2-1.1,3.3-2.2,7.2-3c2.7-0.5,5.5-0.7,8.3-0.5
						c5.9,0.3,15.5,0.3,15.5-7.9v-14.9c5.9,0.3,14.8-0.1,14.8-7.9V54.1H249.8z"/>
					<path class="st15" d="M287,516.1V408.9c0,0-4.9,87.1,30.9,59.3V516C317.9,516.1,301.4,528,287,516.1z"/>
					<path class="st15" d="M248.8,529.1V396.8c0,0-6,107.5,38.2,73.3v59C287,529.1,266.6,543.8,248.8,529.1z"/>
					<path class="st15" d="M318.2,491.1v-73.2c0,0-4.9,53.1,30.9,25.4v47.8C349.1,491.1,332.6,503.1,318.2,491.1z"/>
				</g>
			</g>
		</g>
		<line class="st16" x1="287" y1="516.1" x2="287" y2="399.5"/>
		<line class="st16" x1="287" y1="430" x2="287" y2="244.6"/>
		<line class="st16" x1="318" y1="489.7" x2="318" y2="444.9"/>
		<line class="st16" x1="318" y1="431.8" x2="318" y2="427.3"/>
		<line class="st16" x1="318" y1="310.6" x2="318" y2="126"/>
		<path class="st15" d="M318,341.8v5.6C318.5,345.6,318.5,343.7,318,341.8z"/>
		<path class="st15" d="M287,54.1v305.2c0.2,0,0.4,0,0.6,0v46c3.8-41.1,13.2-46.6,15.5-47.4c0.2,0,0.3-0.1,0.5-0.1l0,0l0,0
			c9.9-2.3,13.3-6.8,14.4-10.4V54.1H287z"/>
		<path class="st15" d="M249,54.1v238.8c0.2,0,0.4,0,0.6,0v46c3.8-41.1,13.2-46.6,15.5-47.4c0.2,0,0.3-0.1,0.5-0.1l0,0l0,0
			c9.9-2.3,13.3-6.8,14.4-10.4V55L249,54.1z"/>
		<path class="st15" d="M332.8,158.2L318,155v165.5c20-6,14.8-28.3,14.8-28.3V158.2z"/>
		<line class="st16" x1="318" y1="411.2" x2="318" y2="331.5"/>
		<line class="st16" x1="287" y1="206.7" x2="287" y2="202.3"/>
		<line class="st16" x1="287" y1="186.1" x2="287" y2="106.4"/>
		<line class="st16" x1="318" y1="307.1" x2="318" y2="122.6"/>
		<path class="st16" d="M249.8,54.1v480.1c0,0,37.1,6.7,37.2-9.5V516c1.2-1.1,3.3-2.2,7.2-3c2.7-0.5,5.5-0.7,8.3-0.5
			c5.9,0.3,15.5,0.3,15.5-7.9v-14.9c5.9,0.3,14.8-0.1,14.8-7.9V54.1H249.8z"/>
		<path class="st12" d="M1136,575.8h-9.3c-2.4,0-4.4-2-4.4-4.4l0,0V42.9l0,0h18l0,0v528.5C1140.4,573.9,1138.4,575.8,1136,575.8
			L1136,575.8L1136,575.8z"/>
		<g>
			<g>
				<defs>
					<path id="SVGID_11_" d="M1127.2,54.1v480.1c0,0-37.1,6.7-37.2-9.5V516c-1.2-1.1-3.3-2.2-7.2-3c-2.7-0.5-5.5-0.7-8.3-0.5
						c-5.9,0.3-15.5,0.3-15.5-7.9v-14.9c-5.9,0.3-14.8-0.1-14.8-7.9V54.1H1127.2z"/>
				</defs>
				<clipPath id="SVGID_12_">
					<use xlink:href="#SVGID_11_"  style="overflow:visible;"/>
				</clipPath>
				<g class="st17">
					<path class="st14" d="M1127.2,54.1v480.1c0,0-37.1,6.7-37.2-9.5V516c-1.2-1.1-3.3-2.2-7.2-3c-2.7-0.5-5.5-0.7-8.3-0.5
						c-5.9,0.3-15.5,0.3-15.5-7.9v-14.9c-5.9,0.3-14.8-0.1-14.8-7.9V54.1H1127.2z"/>
					<path class="st15" d="M1089.9,516.1V408.9c0,0,4.9,87.1-30.9,59.3V516C1059,516.1,1075.6,528,1089.9,516.1z"/>
					<path class="st15" d="M1128.1,529.1V396.8c0,0,6,107.5-38.2,73.3v59C1089.9,529.1,1110.4,543.8,1128.1,529.1z"/>
					<path class="st15" d="M1058.7,491.1v-73.2c0,0,4.9,53.1-30.9,25.4v47.8C1027.8,491.1,1044.3,503.1,1058.7,491.1z"/>
				</g>
			</g>
		</g>
		<line class="st16" x1="1089.9" y1="516.1" x2="1089.9" y2="399.5"/>
		<line class="st16" x1="1089.9" y1="430" x2="1089.9" y2="244.6"/>
		<line class="st16" x1="1059" y1="489.7" x2="1059" y2="444.9"/>
		<line class="st16" x1="1059" y1="431.8" x2="1059" y2="427.3"/>
		<line class="st16" x1="1059" y1="310.6" x2="1059" y2="126"/>
		<path class="st15" d="M1059,341.8v5.6C1058.4,345.6,1058.4,343.7,1059,341.8z"/>
		<path class="st15" d="M1089.9,54.1v305.2c-0.2,0-0.4,0-0.6,0v46c-3.8-41.1-13.2-46.6-15.5-47.4c-0.2,0-0.3-0.1-0.5-0.1l0,0l0,0
			c-9.9-2.3-13.3-6.8-14.4-10.4V54.1H1089.9z"/>
		<path class="st15" d="M1128,54.1v238.8c-0.2,0-0.4,0-0.6,0v46c-3.8-41.1-13.2-46.6-15.5-47.4c-0.2,0-0.3-0.1-0.5-0.1l0,0l0,0
			c-9.9-2.3-13.3-6.8-14.4-10.4V55L1128,54.1z"/>
		<path class="st15" d="M1044.2,158.2l14.8-3.2v165.5c-20-6-14.8-28.3-14.8-28.3V158.2z"/>
		<line class="st16" x1="1059" y1="411.2" x2="1059" y2="331.5"/>
		<line class="st16" x1="1089.9" y1="206.7" x2="1089.9" y2="202.3"/>
		<line class="st16" x1="1089.9" y1="186.1" x2="1089.9" y2="106.4"/>
		<line class="st16" x1="1059" y1="307.1" x2="1059" y2="122.6"/>
		<path class="st16" d="M1127.2,54.1v480.1c0,0-37.1,6.7-37.2-9.5V516c-1.2-1.1-3.3-2.2-7.2-3c-2.7-0.5-5.5-0.7-8.3-0.5
			c-5.9,0.3-15.5,0.3-15.5-7.9v-14.9c-5.9,0.3-14.8-0.1-14.8-7.9V54.1H1127.2z"/>
		<polygon class="st12" points="688.9,42.9 237.4,42.9 254.6,59 688.9,59 1123.2,59 1140.4,42.9 		"/>
		<rect x="413.9" y="8.3" class="st18" width="7.6" height="29.6"/>
		<path class="st19" d="M439,80.8l-30.1-20.2c-2.8-1.9-0.6-10.1,4.8-18.3s12.2-13.3,15-11.4l30.1,20.2L439,80.8z"/>
		<ellipse transform="matrix(0.5565 -0.8308 0.8308 0.5565 144.296 402.294)" class="st20" cx="449" cy="66" rx="17.9" ry="6.1"/>
		
			<ellipse transform="matrix(0.5565 -0.8308 0.8308 0.5565 144.1919 402.6118)" class="st21" cx="449.2" cy="66.2" rx="14.9" ry="3.9"/>
		<path class="st19" d="M404.4,38.4l2.8-4.2c0.6-0.9,1.8-1.2,2.8-0.5l20.5,13.7c0.9,0.6,1.2,1.8,0.5,2.8l-2.8,4.2
			c-0.6,0.9-1.8,1.2-2.8,0.5l-20.5-13.7C404,40.6,403.8,39.4,404.4,38.4z"/>
		<path class="st22" d="M426.8,48.1c-0.9-0.6-2.1-0.4-2.6,0.5c-0.6,0.9-0.4,2.1,0.5,2.6c0.9,0.6,2.1,0.4,2.6-0.5
			C427.9,49.9,427.7,48.7,426.8,48.1"/>
		<path class="st8" d="M437.8,13.8H291.2c-2.3,0-4.1-1.8-4.1-4.1l0,0V4.8c0-2.3,1.8-4.1,4.1-4.1l0,0h146.6c3.6,0,6.5,2.9,6.5,6.5
			l0,0C444.3,10.8,441.4,13.8,437.8,13.8z"/>
		<rect x="959.4" y="13.6" class="st18" width="7.6" height="29.6"/>
		<path class="st19" d="M941.9,86.2L972,66c2.8-1.9,0.6-10.1-4.8-18.3s-12.2-13.3-15-11.4L922,56.5L941.9,86.2z"/>
		
			<ellipse transform="matrix(0.8308 -0.5565 0.5565 0.8308 117.9465 530.6632)" class="st20" cx="931.9" cy="71.3" rx="6.1" ry="17.9"/>
		
			<ellipse transform="matrix(0.8308 -0.5565 0.5565 0.8308 117.8259 530.5756)" class="st21" cx="931.7" cy="71.5" rx="3.9" ry="14.9"/>
		<path class="st19" d="M952.8,59.7l-2.8-4.2c-0.6-0.9-0.4-2.1,0.5-2.8L970.9,39c0.9-0.6,2.1-0.4,2.8,0.5l2.8,4.2
			c0.6,0.9,0.4,2.1-0.5,2.8l-20.5,13.7C954.6,60.8,953.4,60.6,952.8,59.7z"/>
		<circle class="st22" cx="955.2" cy="55" r="1.9"/>
		<path class="st8" d="M943.1,6h146.6c2.3,0,4.1,1.8,4.1,4.1V15c0,2.3-1.8,4.1-4.1,4.1H943.1c-3.6,0-6.5-2.9-6.5-6.5l0,0
			C936.6,8.9,939.5,6,943.1,6L943.1,6z"/>
	</g>
</g>
</svg>
