<svg xmlns="http://www.w3.org/2000/svg" viewBox="0 0 58.7 58.7">
  <path d="M46.21,24.91l2.4-.09c.58-1.29,1.8-3.69,2.86-5.8l-3.63-1.78a4,4,0,0,0-3.32-.54,3.71,3.71,0,0,0-4.17-3.19,2,2,0,0,0-.41.08,1.82,1.82,0,0,1-1,.17c-1.06-.27-.36-2-.75-3a10,10,0,0,1-5.13-3.34c-.64.81-1.48,1.51-2.2,2.26-.43.44-1.08.71-1.41,1.2-2.11,3.17-4,6.52-6.28,9.54-2,2.62-2.1,6.34-5.13,8.31a3,3,0,0,0-.83,1.42c-.49,1.17-.89,2.39-1.37,3.57-.21.5-.69.93-.77,1.43-.32,1.94-1,3.46-3,4.34-.65.29-1,1.43-1.32,2.26-.21.63.19,1.54-.11,2.06A9.83,9.83,0,0,0,9.57,49.9c.18-.1.36-.18.53-.29A23.73,23.73,0,0,1,22.26,47.1a12.53,12.53,0,0,0,3.12,0c1.79-.34,3.76-1.64,5.24-.57-1.15,1.23.07,3.39,1.68,3.89a26.78,26.78,0,0,0,5.1.86,3.9,3.9,0,0,1,.9-1.58,14.12,14.12,0,0,1,2.42-1.53c2.52-1.63,3.42-4.86,3.72-7.84s.2-6.11,1.5-8.81c.46-1,1.11-1.94.92-3C46.64,27.26,45.22,25.79,46.21,24.91Z" fill="#fff"/>
</svg>
