<svg xmlns="http://www.w3.org/2000/svg" xmlns:xlink="http://www.w3.org/1999/xlink" viewBox="0 0 1385.874 225.196"><defs><clipPath id="clip-path"><path d="M260.517.9H66.551A60.071,60.071,0,0,0,41.5,6.376L15.548,18.285A25.117,25.117,0,0,0,.9,41.115V224.292H248.668l14.1-16.8,22.869-7.3V26.023A25.119,25.119,0,0,0,260.517.9Z" fill="none"/></clipPath><clipPath id="clip-path-2"><path d="M538.573.9H344.607a60.079,60.079,0,0,0-25.049,5.472L293.6,18.285a25.119,25.119,0,0,0-14.644,22.83V224.292H526.723l14.1-16.8,22.869-7.3V26.023A25.119,25.119,0,0,0,538.573.9Z" fill="none"/></clipPath><clipPath id="clip-path-3"><path d="M1125.357.9h193.966a60.079,60.079,0,0,1,25.049,5.472l25.955,11.909a25.118,25.118,0,0,1,14.643,22.83V224.292H1137.207l-14.1-16.8-22.869-7.3V26.023A25.119,25.119,0,0,1,1125.357.9Z" fill="none"/></clipPath><clipPath id="clip-path-4"><path d="M847.3.9h193.966a60.071,60.071,0,0,1,25.048,5.472l25.955,11.909a25.117,25.117,0,0,1,14.644,22.83V224.292H859.151l-14.1-16.8-22.869-7.3V26.023A25.119,25.119,0,0,1,847.3.9Z" fill="none"/></clipPath></defs><g id="Layer_1" data-name="Layer 1"><g clip-path="url(#clip-path)"><path d="M260.517.9H66.551A60.071,60.071,0,0,0,41.5,6.376L15.548,18.285A25.117,25.117,0,0,0,.9,41.115V224.292H248.668l19.708-14.558,17.26-9.542V26.023A25.119,25.119,0,0,0,260.517.9Z" fill="#ba5c40" stroke="#16221d" stroke-miterlimit="10" stroke-width="1.808"/><path d="M242.5,27.612H4.845A25.09,25.09,0,0,0,.9,41.115V224.292H248.668l19.708-14.558,17.26-9.542V175.911c-22.272-23.106-23.554-60.829-24.476-98.525C259.879,25.057,242.5,27.612,242.5,27.612Z" fill="#8e452d"/></g><path d="M260.517.9H66.551A60.071,60.071,0,0,0,41.5,6.376L15.548,18.285A25.117,25.117,0,0,0,.9,41.115V224.292H248.668l27.741-3.853,9.227-20.247V26.023A25.119,25.119,0,0,0,260.517.9Z" fill="none" stroke="#0c0007" stroke-miterlimit="10" stroke-width="1.5"/><line x1="21.296" y1="29.33" x2="235.415" y2="29.33" fill="#d3bccb" stroke="#0c0007" stroke-miterlimit="10" stroke-width="1.5"/><line x1="249.319" y1="44.16" x2="249.319" y2="122.64" fill="none" stroke="#0c0007" stroke-miterlimit="10" stroke-width="1.5"/><line x1="250.717" y1="31.801" x2="274.816" y2="16.352" fill="none" stroke="#0c0007" stroke-miterlimit="10" stroke-width="1.5"/><g clip-path="url(#clip-path-2)"><path d="M538.573.9H344.607a60.079,60.079,0,0,0-25.049,5.472L293.6,18.285a25.119,25.119,0,0,0-14.644,22.83V224.292H526.723l19.708-14.558,17.26-9.542V26.023A25.119,25.119,0,0,0,538.573.9Z" fill="#ba5c40" stroke="#16221d" stroke-miterlimit="10" stroke-width="1.808"/><path d="M520.558,27.612H282.9a25.09,25.09,0,0,0-3.941,13.5V224.292H526.723l19.708-14.558,17.26-9.542V175.911c-22.271-23.106-23.553-60.829-24.476-98.525C537.935,25.057,520.558,27.612,520.558,27.612Z" fill="#8e452d"/></g><path d="M538.573.9H344.607a60.079,60.079,0,0,0-25.049,5.472L293.6,18.285a25.119,25.119,0,0,0-14.644,22.83V224.292H526.723l27.741-3.853,9.227-20.247V26.023A25.119,25.119,0,0,0,538.573.9Z" fill="none" stroke="#0c0007" stroke-miterlimit="10" stroke-width="1.5"/><line x1="299.352" y1="29.33" x2="513.47" y2="29.33" fill="#d3bccb" stroke="#0c0007" stroke-miterlimit="10" stroke-width="1.5"/><line x1="527.374" y1="44.16" x2="527.374" y2="122.64" fill="none" stroke="#0c0007" stroke-miterlimit="10" stroke-width="1.5"/><line x1="528.772" y1="31.801" x2="552.872" y2="16.352" fill="none" stroke="#0c0007" stroke-miterlimit="10" stroke-width="1.5"/><g clip-path="url(#clip-path-3)"><path d="M1125.357.9h193.966a60.079,60.079,0,0,1,25.049,5.472l25.955,11.909a25.118,25.118,0,0,1,14.643,22.83V224.292H1137.207L1117.5,209.734l-17.26-9.542V26.023A25.119,25.119,0,0,1,1125.357.9Z" fill="#ba5c40" stroke="#16221d" stroke-miterlimit="10" stroke-width="1.808"/><path d="M1143.372,27.612h237.657a25.09,25.09,0,0,1,3.941,13.5V224.292H1137.207L1117.5,209.734l-17.26-9.542V175.911c22.271-23.106,23.553-60.829,24.476-98.525C1125.995,25.057,1143.372,27.612,1143.372,27.612Z" fill="#8e452d"/></g><path d="M1125.357.9h193.966a60.079,60.079,0,0,1,25.049,5.472l25.955,11.909a25.118,25.118,0,0,1,14.643,22.83V224.292H1137.207l-27.741-3.853-9.227-20.247V26.023A25.119,25.119,0,0,1,1125.357.9Z" fill="none" stroke="#0c0007" stroke-miterlimit="10" stroke-width="1.5"/><line x1="1364.578" y1="29.33" x2="1150.46" y2="29.33" fill="#d3bccb" stroke="#0c0007" stroke-miterlimit="10" stroke-width="1.5"/><line x1="1136.556" y1="44.16" x2="1136.556" y2="122.64" fill="none" stroke="#0c0007" stroke-miterlimit="10" stroke-width="1.5"/><line x1="1135.158" y1="31.801" x2="1111.058" y2="16.352" fill="none" stroke="#0c0007" stroke-miterlimit="10" stroke-width="1.5"/><g clip-path="url(#clip-path-4)"><path d="M847.3.9h193.966a60.071,60.071,0,0,1,25.048,5.472l25.955,11.909a25.117,25.117,0,0,1,14.644,22.83V224.292H859.151l-19.708-14.558-17.26-9.542V26.023A25.119,25.119,0,0,1,847.3.9Z" fill="#ba5c40" stroke="#16221d" stroke-miterlimit="10" stroke-width="1.808"/><path d="M865.316,27.612h237.658a25.09,25.09,0,0,1,3.941,13.5V224.292H859.151l-19.708-14.558-17.26-9.542V175.911c22.272-23.106,23.554-60.829,24.476-98.525C847.94,25.057,865.316,27.612,865.316,27.612Z" fill="#8e452d"/></g><path d="M847.3.9h193.966a60.071,60.071,0,0,1,25.048,5.472l25.955,11.909a25.117,25.117,0,0,1,14.644,22.83V224.292H859.151l-27.741-3.853-9.227-20.247V26.023A25.119,25.119,0,0,1,847.3.9Z" fill="none" stroke="#0c0007" stroke-miterlimit="10" stroke-width="1.5"/><line x1="1086.523" y1="29.33" x2="872.404" y2="29.33" fill="#d3bccb" stroke="#0c0007" stroke-miterlimit="10" stroke-width="1.5"/><line x1="858.5" y1="44.16" x2="858.5" y2="122.64" fill="none" stroke="#0c0007" stroke-miterlimit="10" stroke-width="1.5"/><line x1="857.102" y1="31.801" x2="833.003" y2="16.352" fill="none" stroke="#0c0007" stroke-miterlimit="10" stroke-width="1.5"/><path d="M820.66,18.285,794.7,6.376A60.071,60.071,0,0,0,769.656.9H616.219A60.079,60.079,0,0,0,591.17,6.376L565.215,18.285a25.118,25.118,0,0,0-14.644,22.83V224.292H835.3V41.115A25.119,25.119,0,0,0,820.66,18.285Z" fill="#ba5c40" stroke="#16221d" stroke-miterlimit="10" stroke-width="1.808"/><path d="M823.122,27.612H562.752a26.028,26.028,0,0,0-3.75,13.5V224.292H826.873V41.115A26.028,26.028,0,0,0,823.122,27.612Z" fill="#8e452d"/><line x1="585.211" y1="29.33" x2="797.408" y2="29.33" fill="#d3bccb" stroke="#0c0007" stroke-miterlimit="10" stroke-width="1.5"/><line x1="798.986" y1="44.16" x2="798.986" y2="122.64" fill="none" stroke="#0c0007" stroke-miterlimit="10" stroke-width="1.5"/><line x1="582.991" y1="44.16" x2="582.991" y2="122.64" fill="none" stroke="#0c0007" stroke-miterlimit="10" stroke-width="1.5"/></g></svg>