<svg id="Layer_1" data-name="Layer 1" xmlns="http://www.w3.org/2000/svg" width="357.19" height="284.38" viewBox="0 0 357.19 284.38">
  <defs>
    <style>
      .cls-1 {
        fill: #e29c00;
        stroke: #16221d;
      }

      .cls-1, .cls-2 {
        stroke-miterlimit: 10;
        stroke-width: 1.61px;
      }

      .cls-2 {
        fill: #fcc013;
        stroke: #fff;
      }

      .cls-3 {
        isolation: isolate;
      }

      .cls-4 {
        fill: #fff;
      }
    </style>
  </defs>
  <g>
    <g>
      <circle class="cls-1" cx="262.43" cy="103.59" r="93.96"/>
      <circle class="cls-1" cx="261.19" cy="94.76" r="93.96"/>
      <circle class="cls-2" cx="261.19" cy="94.76" r="75.73"/>
      <g class="cls-3">
        <path class="cls-4" d="M267.17,119q6.6-1.74,8.78-4.78a7.2,7.2,0,0,0,1.34-6.28,6.11,6.11,0,0,0-3.44-4.21,20.28,20.28,0,0,0-7.37-1.45l-6.87-.31a81,81,0,0,1-10.39-1,29.37,29.37,0,0,1-8.43-2.69,19.84,19.84,0,0,1-6.34-5.11,22.1,22.1,0,0,1-4-8.45,20.48,20.48,0,0,1,1.51-15.44q3.74-7,12.92-11.53l-2.6-9.82a20.67,20.67,0,0,1,2.93-1.51,30.39,30.39,0,0,1,4.27-1.46c3.23-.85,5.74-.92,7.53-.19s3.09,2.62,3.9,5.69l.59,2.24a34.38,34.38,0,0,1,13.71.5q5.61,1.58,6.92,6.55a9.32,9.32,0,0,1-.1,5.42,16.36,16.36,0,0,1-2.33,4.54,27.22,27.22,0,0,0-8.47-1.36,38.91,38.91,0,0,0-10.69,1.36q-6,1.59-8.33,4.2a5.69,5.69,0,0,0-1.61,5.49,4.5,4.5,0,0,0,2.86,3.3A25.23,25.23,0,0,0,260,83.78l7.31.47a76.12,76.12,0,0,1,11.4,1.58,32.33,32.33,0,0,1,8.78,3.27,19.8,19.8,0,0,1,6.25,5.53,24.31,24.31,0,0,1,3.77,8.25,21.49,21.49,0,0,1-1.51,15.9q-3.8,7.32-13.81,12.23l2.57,9.7c-.62.34-1.59.8-2.9,1.37a31.35,31.35,0,0,1-4.33,1.47c-3.24.86-5.75.92-7.54.2s-3.08-2.63-3.9-5.69l-.52-2q-9.22,1.37-15.76-.49t-8-7.46a8.58,8.58,0,0,1,.45-6.11,17.21,17.21,0,0,1,3.34-4.74,35.29,35.29,0,0,0,9.67,2.63A30,30,0,0,0,267.17,119Z"/>
      </g>
    </g>
    <g>
      <circle class="cls-1" cx="64.36" cy="142.27" r="63.55"/>
      <circle class="cls-1" cx="69" cy="138.42" r="63.55"/>
      <circle class="cls-2" cx="69" cy="138.42" r="51.22"/>
      <g class="cls-3">
        <path class="cls-4" d="M57.2,150.39q3.33,3.18,5.87,3.36a4.84,4.84,0,0,0,4.08-1.46,4.15,4.15,0,0,0,1.21-3.47,13.6,13.6,0,0,0-1.79-4.76L64.32,140a55.58,55.58,0,0,1-3.09-6.36,19.77,19.77,0,0,1-1.44-5.81,13.2,13.2,0,0,1,.7-5.46,14.87,14.87,0,0,1,3.43-5.32,13.88,13.88,0,0,1,9.42-4.61q5.35-.31,11.23,3.35l4.73-5A14.48,14.48,0,0,1,91.21,112a18.8,18.8,0,0,1,2.35,1.94,8.35,8.35,0,0,1,2.79,4.27q.33,1.93-1.89,4.26l-1.08,1.14A23.12,23.12,0,0,1,98,131.64,6.12,6.12,0,0,1,96.63,138a6.35,6.35,0,0,1-3.15,1.86,10.7,10.7,0,0,1-3.44.27,18.42,18.42,0,0,0-2.22-5.36,26.1,26.1,0,0,0-4.58-5.67c-2-1.91-3.81-3-5.37-3.3a3.83,3.83,0,0,0-3.73,1,3,3,0,0,0-.89,2.82,17.09,17.09,0,0,0,1.68,4.18l2.33,4.37a52.85,52.85,0,0,1,3.13,7.12,21.74,21.74,0,0,1,1.23,6.21,13.44,13.44,0,0,1-1,5.57,16.51,16.51,0,0,1-3.41,5.1,14.57,14.57,0,0,1-9.7,4.77q-5.55.42-11.93-3.61l-4.68,4.92c-.42-.24-1-.63-1.82-1.18a20.79,20.79,0,0,1-2.38-2A8.33,8.33,0,0,1,44,160.79c-.22-1.29.42-2.71,1.89-4.27l1-1a25.7,25.7,0,0,1-5.31-9.26q-1.25-4.42,1.45-7.26a5.77,5.77,0,0,1,3.67-1.91,11.58,11.58,0,0,1,3.92.24,23.43,23.43,0,0,0,1.92,6.5A20.21,20.21,0,0,0,57.2,150.39Z"/>
      </g>
    </g>
    <g>
      <circle class="cls-1" cx="180.8" cy="234.07" r="49.5"/>
      <circle class="cls-1" cx="176.44" cy="232.32" r="49.5"/>
      <circle class="cls-2" cx="176.44" cy="232.32" r="39.9"/>
      <g class="cls-3">
        <path class="cls-4" d="M188.81,235.71q.93-3.5.12-5.29a3.82,3.82,0,0,0-2.53-2.27,3.23,3.23,0,0,0-2.84.48,10.46,10.46,0,0,0-2.6,3l-2,3.07a43.19,43.19,0,0,1-3.22,4.49,15.35,15.35,0,0,1-3.45,3.16,10.55,10.55,0,0,1-4,1.57,11.61,11.61,0,0,1-4.94-.37,10.88,10.88,0,0,1-6.69-4.75,15,15,0,0,1-1.9-9l-5.19-1.39a10.36,10.36,0,0,1,.08-1.74,16.33,16.33,0,0,1,.45-2.35,6.55,6.55,0,0,1,1.89-3.5c.81-.63,2-.73,3.64-.3l1.18.32a18.1,18.1,0,0,1,3.84-6.16,4.78,4.78,0,0,1,4.83-1.45,4.88,4.88,0,0,1,2.46,1.47,8.59,8.59,0,0,1,1.47,2.26,14.36,14.36,0,0,0-2.85,3.53,20.25,20.25,0,0,0-2.19,5.27,9,9,0,0,0-.26,4.93,3,3,0,0,0,2.09,2.18,2.4,2.4,0,0,0,2.27-.45,13.4,13.4,0,0,0,2.24-2.71l2.14-3.23a39.29,39.29,0,0,1,3.72-4.82,17.06,17.06,0,0,1,3.81-3.17,10.39,10.39,0,0,1,4.18-1.42,13,13,0,0,1,4.78.44,11.35,11.35,0,0,1,6.9,4.88q2.37,3.66,2,9.55l5.13,1.38c0,.37-.06.93-.14,1.69a17.29,17.29,0,0,1-.46,2.37,6.54,6.54,0,0,1-1.89,3.51c-.81.63-2,.73-3.64.29l-1.05-.28a20.15,20.15,0,0,1-4.37,7.11,5.53,5.53,0,0,1-5.54,1.72,4.47,4.47,0,0,1-2.68-1.81,9.12,9.12,0,0,1-1.3-2.78,18.44,18.44,0,0,0,3.75-3.75A16,16,0,0,0,188.81,235.71Z"/>
      </g>
    </g>
  </g>
</svg>
