<svg xmlns="http://www.w3.org/2000/svg" xmlns:xlink="http://www.w3.org/1999/xlink" viewBox="0 0 512.75 512.75">
  <defs>
    <pattern id="a" data-name="新增圖樣色票 2" width="871.45" height="899.06" patternTransform="translate(1771.51 1578.66) scale(0.75)" patternUnits="userSpaceOnUse" viewBox="0 0 871.45 899.05">
      <circle cx="88.93" cy="2.43" r="1.27" fill="#fff"/>
      <circle cx="186.44" cy="57.78" r="1.27" fill="#fff"/>
      <circle cx="310.18" cy="1.27" r="1.27" fill="#fff"/>
      <circle cx="355.55" cy="83.92" r="1.27" fill="#fff"/>
      <circle cx="389.39" cy="124.05" r="1.27" fill="#fff"/>
      <circle cx="403.06" cy="8.4" r="1.27" fill="#fff"/>
      <circle cx="627.12" cy="186.34" r="1.27" fill="#fff"/>
      <circle cx="585.87" cy="110.67" r="1.27" fill="#fff"/>
      <circle cx="842.23" cy="71.99" r="1.27" fill="#fff"/>
      <circle cx="25.04" cy="189.86" r="1.27" fill="#fff"/>
      <circle cx="130.09" cy="192.89" r="1.27" fill="#fff"/>
      <circle cx="247.87" cy="195.89" r="1.27" fill="#fff"/>
      <circle cx="349.82" cy="198.59" r="1.27" fill="#fff"/>
      <circle cx="454.38" cy="53.52" r="1.27" fill="#fff"/>
      <circle cx="540.14" cy="149.47" r="1.27" fill="#fff"/>
      <circle cx="515.25" cy="77.09" r="1.27" fill="#fff"/>
      <circle cx="660.28" cy="166.24" r="1.27" fill="#fff"/>
      <circle cx="735.96" cy="189.51" r="1.27" fill="#fff"/>
      <circle cx="1.27" cy="236.37" r="1.27" fill="#fff"/>
      <circle cx="239.5" cy="184.99" r="1.27" fill="#fff"/>
      <circle cx="144.33" cy="165.28" r="1.27" fill="#fff"/>
      <circle cx="323.75" cy="293.56" r="1.27" fill="#fff"/>
      <circle cx="334.44" cy="174.08" r="1.27" fill="#fff"/>
      <circle cx="535.81" cy="129.94" r="1.27" fill="#fff"/>
      <circle cx="611.05" cy="291.75" r="1.27" fill="#fff"/>
      <circle cx="751.88" cy="245.4" r="1.27" fill="#fff"/>
      <circle cx="662.16" cy="197.8" r="1.27" fill="#fff"/>
      <circle cx="68.23" cy="372.43" r="1.27" fill="#fff"/>
      <circle cx="272.26" cy="339.45" r="1.27" fill="#fff"/>
      <circle cx="227.67" cy="231.2" r="1.27" fill="#fff"/>
      <circle cx="369.27" cy="222.39" r="1.27" fill="#fff"/>
      <circle cx="339.43" cy="285.44" r="1.27" fill="#fff"/>
      <circle cx="458.33" cy="206.72" r="1.27" fill="#fff"/>
      <circle cx="525.48" cy="398.65" r="1.27" fill="#fff"/>
      <circle cx="655.45" cy="286.55" r="1.27" fill="#fff"/>
      <circle cx="706.38" cy="402.71" r="1.27" fill="#fff"/>
      <circle cx="156.19" cy="501.04" r="1.27" fill="#fff"/>
      <circle cx="99.46" cy="425.41" r="1.27" fill="#fff"/>
      <circle cx="312.14" cy="298.57" r="1.27" fill="#fff"/>
      <circle cx="427.87" cy="437.83" r="1.27" fill="#fff"/>
      <circle cx="498.11" cy="376.19" r="1.27" fill="#fff"/>
      <circle cx="555.91" cy="277.4" r="1.27" fill="#fff"/>
      <circle cx="618.11" cy="436.14" r="1.27" fill="#fff"/>
      <circle cx="717.83" cy="346.75" r="1.27" fill="#fff"/>
      <circle cx="703.76" cy="363.37" r="1.27" fill="#fff"/>
      <circle cx="61.77" cy="515.61" r="1.27" fill="#fff"/>
      <circle cx="184.33" cy="571.04" r="1.27" fill="#fff"/>
      <circle cx="293.25" cy="454.98" r="1.27" fill="#fff"/>
      <circle cx="357.44" cy="455.81" r="1.27" fill="#fff"/>
      <circle cx="450.82" cy="474.46" r="1.27" fill="#fff"/>
      <circle cx="438.04" cy="582.86" r="1.27" fill="#fff"/>
      <circle cx="498.5" cy="488.82" r="1.27" fill="#fff"/>
      <circle cx="644.01" cy="507.17" r="1.27" fill="#fff"/>
      <circle cx="795.38" cy="430.34" r="1.27" fill="#fff"/>
      <circle cx="29.56" cy="596.28" r="1.27" fill="#fff"/>
      <circle cx="218" cy="506.83" r="1.27" fill="#fff"/>
      <circle cx="246.05" cy="529.3" r="1.27" fill="#fff"/>
      <circle cx="314.06" cy="439.59" r="1.27" fill="#fff"/>
      <circle cx="422.59" cy="421.41" r="1.27" fill="#fff"/>
      <circle cx="558.42" cy="574.64" r="1.27" fill="#fff"/>
      <circle cx="516.46" cy="603.19" r="1.27" fill="#fff"/>
      <circle cx="625.8" cy="449.48" r="1.27" fill="#fff"/>
      <circle cx="765.12" cy="611.98" r="1.27" fill="#fff"/>
      <circle cx="77.8" cy="701.4" r="1.27" fill="#fff"/>
      <circle cx="192.16" cy="585.65" r="1.27" fill="#fff"/>
      <circle cx="327.76" cy="636.19" r="1.27" fill="#fff"/>
      <circle cx="398.4" cy="700.02" r="1.27" fill="#fff"/>
      <circle cx="423" cy="550.15" r="1.27" fill="#fff"/>
      <circle cx="516.18" cy="589.53" r="1.27" fill="#fff"/>
      <circle cx="547.04" cy="626.42" r="1.27" fill="#fff"/>
      <circle cx="650.06" cy="521.32" r="1.27" fill="#fff"/>
      <circle cx="806.94" cy="475.54" r="1.27" fill="#fff"/>
      <circle cx="57.49" cy="678.65" r="1.27" fill="#fff"/>
      <circle cx="190.14" cy="771.55" r="1.27" fill="#fff"/>
      <circle cx="159.13" cy="774.69" r="1.27" fill="#fff"/>
      <circle cx="362.81" cy="704.5" r="1.27" fill="#fff"/>
      <circle cx="471.01" cy="765.21" r="1.27" fill="#fff"/>
      <circle cx="574.39" cy="607.11" r="1.27" fill="#fff"/>
      <circle cx="605.84" cy="683.69" r="1.27" fill="#fff"/>
      <circle cx="730.55" cy="644.08" r="1.27" fill="#fff"/>
      <circle cx="796.42" cy="740.2" r="1.27" fill="#fff"/>
      <circle cx="49.76" cy="706.64" r="1.27" fill="#fff"/>
      <circle cx="214.21" cy="897.79" r="1.27" fill="#fff"/>
      <circle cx="151.3" cy="677.32" r="1.27" fill="#fff"/>
      <circle cx="293.45" cy="844.94" r="1.27" fill="#fff"/>
      <circle cx="344.14" cy="875.78" r="1.27" fill="#fff"/>
      <circle cx="457.8" cy="692.88" r="1.27" fill="#fff"/>
      <circle cx="588.3" cy="835.09" r="1.27" fill="#fff"/>
      <circle cx="652.18" cy="848.62" r="1.27" fill="#fff"/>
      <circle cx="870.18" cy="718.64" r="1.27" fill="#fff"/>
    </pattern>
  </defs>
  <rect x="0.37" y="0.37" width="512" height="512" stroke-miterlimit="10" stroke-width="0.75" opacity="0.54" fill="url(#a)"/>
</svg>
