<svg xmlns="http://www.w3.org/2000/svg" xmlns:xlink="http://www.w3.org/1999/xlink" viewBox="0 0 1391.439 951.313"><defs><pattern id="新增圖樣色票_2" data-name="新增圖樣色票 2" width="871.454" height="899.055" patternTransform="translate(745.965 1632.266) scale(0.745)" patternUnits="userSpaceOnUse" viewBox="0 0 871.454 899.055"><rect width="871.454" height="899.055" fill="none"/><circle cx="88.928" cy="2.435" r="1.27" fill="#fff"/><circle cx="186.44" cy="57.78" r="1.27" fill="#fff"/><circle cx="310.184" cy="1.27" r="1.27" fill="#fff"/><circle cx="355.551" cy="83.916" r="1.27" fill="#fff"/><circle cx="389.39" cy="124.049" r="1.27" fill="#fff"/><circle cx="403.06" cy="8.401" r="1.27" fill="#fff"/><circle cx="627.119" cy="186.341" r="1.27" fill="#fff"/><circle cx="585.867" cy="110.673" r="1.27" fill="#fff"/><circle cx="842.233" cy="71.994" r="1.27" fill="#fff"/><circle cx="25.04" cy="189.855" r="1.27" fill="#fff"/><circle cx="130.086" cy="192.889" r="1.27" fill="#fff"/><circle cx="247.875" cy="195.894" r="1.27" fill="#fff"/><circle cx="349.823" cy="198.586" r="1.27" fill="#fff"/><circle cx="454.381" cy="53.525" r="1.27" fill="#fff"/><circle cx="540.14" cy="149.468" r="1.27" fill="#fff"/><circle cx="515.247" cy="77.089" r="1.27" fill="#fff"/><circle cx="660.284" cy="166.245" r="1.27" fill="#fff"/><circle cx="735.964" cy="189.512" r="1.27" fill="#fff"/><circle cx="1.27" cy="236.367" r="1.27" fill="#fff"/><circle cx="239.505" cy="184.992" r="1.27" fill="#fff"/><circle cx="144.329" cy="165.275" r="1.27" fill="#fff"/><circle cx="323.746" cy="293.559" r="1.27" fill="#fff"/><circle cx="334.442" cy="174.076" r="1.27" fill="#fff"/><circle cx="535.811" cy="129.941" r="1.27" fill="#fff"/><circle cx="611.049" cy="291.749" r="1.27" fill="#fff"/><circle cx="751.884" cy="245.398" r="1.27" fill="#fff"/><circle cx="662.158" cy="197.801" r="1.27" fill="#fff"/><circle cx="68.226" cy="372.431" r="1.27" fill="#fff"/><circle cx="272.257" cy="339.445" r="1.27" fill="#fff"/><circle cx="227.666" cy="231.196" r="1.27" fill="#fff"/><circle cx="369.267" cy="222.393" r="1.27" fill="#fff"/><circle cx="339.433" cy="285.437" r="1.27" fill="#fff"/><circle cx="458.331" cy="206.722" r="1.27" fill="#fff"/><circle cx="525.483" cy="398.648" r="1.27" fill="#fff"/><circle cx="655.447" cy="286.553" r="1.27" fill="#fff"/><circle cx="706.376" cy="402.711" r="1.27" fill="#fff"/><circle cx="156.187" cy="501.045" r="1.27" fill="#fff"/><circle cx="99.458" cy="425.405" r="1.27" fill="#fff"/><circle cx="312.138" cy="298.571" r="1.27" fill="#fff"/><circle cx="427.866" cy="437.833" r="1.27" fill="#fff"/><circle cx="498.11" cy="376.195" r="1.27" fill="#fff"/><circle cx="555.906" cy="277.397" r="1.27" fill="#fff"/><circle cx="618.107" cy="436.14" r="1.27" fill="#fff"/><circle cx="717.826" cy="346.75" r="1.27" fill="#fff"/><circle cx="703.758" cy="363.374" r="1.27" fill="#fff"/><circle cx="61.767" cy="515.612" r="1.27" fill="#fff"/><circle cx="184.33" cy="571.039" r="1.27" fill="#fff"/><circle cx="293.251" cy="454.977" r="1.27" fill="#fff"/><circle cx="357.445" cy="455.815" r="1.27" fill="#fff"/><circle cx="450.819" cy="474.461" r="1.27" fill="#fff"/><circle cx="438.037" cy="582.859" r="1.27" fill="#fff"/><circle cx="498.504" cy="488.815" r="1.27" fill="#fff"/><circle cx="644.008" cy="507.17" r="1.27" fill="#fff"/><circle cx="795.379" cy="430.339" r="1.27" fill="#fff"/><circle cx="29.564" cy="596.28" r="1.27" fill="#fff"/><circle cx="217.999" cy="506.826" r="1.27" fill="#fff"/><circle cx="246.049" cy="529.299" r="1.27" fill="#fff"/><circle cx="314.062" cy="439.592" r="1.27" fill="#fff"/><circle cx="422.589" cy="421.406" r="1.27" fill="#fff"/><circle cx="558.422" cy="574.639" r="1.27" fill="#fff"/><circle cx="516.456" cy="603.188" r="1.27" fill="#fff"/><circle cx="625.805" cy="449.478" r="1.27" fill="#fff"/><circle cx="765.119" cy="611.984" r="1.27" fill="#fff"/><circle cx="77.802" cy="701.397" r="1.27" fill="#fff"/><circle cx="192.163" cy="585.645" r="1.27" fill="#fff"/><circle cx="327.761" cy="636.188" r="1.27" fill="#fff"/><circle cx="398.397" cy="700.017" r="1.27" fill="#fff"/><circle cx="422.996" cy="550.153" r="1.27" fill="#fff"/><circle cx="516.18" cy="589.529" r="1.27" fill="#fff"/><circle cx="547.036" cy="626.42" r="1.27" fill="#fff"/><circle cx="650.06" cy="521.324" r="1.27" fill="#fff"/><circle cx="806.943" cy="475.539" r="1.27" fill="#fff"/><circle cx="57.489" cy="678.648" r="1.27" fill="#fff"/><circle cx="190.142" cy="771.554" r="1.27" fill="#fff"/><circle cx="159.132" cy="774.685" r="1.27" fill="#fff"/><circle cx="362.806" cy="704.501" r="1.27" fill="#fff"/><circle cx="471.014" cy="765.215" r="1.27" fill="#fff"/><circle cx="574.392" cy="607.111" r="1.27" fill="#fff"/><circle cx="605.845" cy="683.695" r="1.27" fill="#fff"/><circle cx="730.549" cy="644.082" r="1.27" fill="#fff"/><circle cx="796.419" cy="740.204" r="1.27" fill="#fff"/><circle cx="49.764" cy="706.638" r="1.27" fill="#fff"/><circle cx="214.212" cy="897.786" r="1.27" fill="#fff"/><circle cx="151.296" cy="677.323" r="1.27" fill="#fff"/><circle cx="293.45" cy="844.943" r="1.27" fill="#fff"/><circle cx="344.141" cy="875.784" r="1.27" fill="#fff"/><circle cx="457.804" cy="692.884" r="1.27" fill="#fff"/><circle cx="588.301" cy="835.089" r="1.27" fill="#fff"/><circle cx="652.178" cy="848.62" r="1.27" fill="#fff"/><circle cx="870.184" cy="718.643" r="1.27" fill="#fff"/></pattern><pattern id="新增圖樣色票_2-3" data-name="新增圖樣色票 2" width="871.454" height="899.055" patternTransform="translate(269.082 1378.177) scale(0.745)" patternUnits="userSpaceOnUse" viewBox="0 0 871.454 899.055"><rect width="871.454" height="899.055" fill="none"/><circle cx="88.928" cy="2.435" r="1.27" fill="#fff"/><circle cx="186.44" cy="57.78" r="1.27" fill="#fff"/><circle cx="310.184" cy="1.27" r="1.27" fill="#fff"/><circle cx="355.551" cy="83.916" r="1.27" fill="#fff"/><circle cx="389.39" cy="124.049" r="1.27" fill="#fff"/><circle cx="403.06" cy="8.401" r="1.27" fill="#fff"/><circle cx="627.119" cy="186.341" r="1.27" fill="#fff"/><circle cx="585.867" cy="110.673" r="1.27" fill="#fff"/><circle cx="842.233" cy="71.994" r="1.27" fill="#fff"/><circle cx="25.04" cy="189.855" r="1.27" fill="#fff"/><circle cx="130.086" cy="192.889" r="1.27" fill="#fff"/><circle cx="247.875" cy="195.894" r="1.27" fill="#fff"/><circle cx="349.823" cy="198.586" r="1.27" fill="#fff"/><circle cx="454.381" cy="53.525" r="1.27" fill="#fff"/><circle cx="540.14" cy="149.468" r="1.27" fill="#fff"/><circle cx="515.247" cy="77.089" r="1.27" fill="#fff"/><circle cx="660.284" cy="166.245" r="1.27" fill="#fff"/><circle cx="735.964" cy="189.512" r="1.27" fill="#fff"/><circle cx="1.27" cy="236.367" r="1.27" fill="#fff"/><circle cx="239.505" cy="184.992" r="1.27" fill="#fff"/><circle cx="144.329" cy="165.275" r="1.27" fill="#fff"/><circle cx="323.746" cy="293.559" r="1.27" fill="#fff"/><circle cx="334.442" cy="174.076" r="1.27" fill="#fff"/><circle cx="535.811" cy="129.941" r="1.27" fill="#fff"/><circle cx="611.049" cy="291.749" r="1.27" fill="#fff"/><circle cx="751.884" cy="245.398" r="1.27" fill="#fff"/><circle cx="662.158" cy="197.801" r="1.27" fill="#fff"/><circle cx="68.226" cy="372.431" r="1.27" fill="#fff"/><circle cx="272.257" cy="339.445" r="1.27" fill="#fff"/><circle cx="227.666" cy="231.196" r="1.27" fill="#fff"/><circle cx="369.267" cy="222.393" r="1.27" fill="#fff"/><circle cx="339.433" cy="285.437" r="1.27" fill="#fff"/><circle cx="458.331" cy="206.722" r="1.27" fill="#fff"/><circle cx="525.483" cy="398.648" r="1.27" fill="#fff"/><circle cx="655.447" cy="286.553" r="1.27" fill="#fff"/><circle cx="706.376" cy="402.711" r="1.27" fill="#fff"/><circle cx="156.187" cy="501.045" r="1.27" fill="#fff"/><circle cx="99.458" cy="425.405" r="1.27" fill="#fff"/><circle cx="312.138" cy="298.571" r="1.27" fill="#fff"/><circle cx="427.866" cy="437.833" r="1.27" fill="#fff"/><circle cx="498.11" cy="376.195" r="1.27" fill="#fff"/><circle cx="555.906" cy="277.397" r="1.27" fill="#fff"/><circle cx="618.107" cy="436.14" r="1.27" fill="#fff"/><circle cx="717.826" cy="346.75" r="1.27" fill="#fff"/><circle cx="703.758" cy="363.374" r="1.27" fill="#fff"/><circle cx="61.767" cy="515.612" r="1.27" fill="#fff"/><circle cx="184.33" cy="571.039" r="1.27" fill="#fff"/><circle cx="293.251" cy="454.977" r="1.27" fill="#fff"/><circle cx="357.445" cy="455.815" r="1.27" fill="#fff"/><circle cx="450.819" cy="474.461" r="1.27" fill="#fff"/><circle cx="438.037" cy="582.859" r="1.27" fill="#fff"/><circle cx="498.504" cy="488.815" r="1.27" fill="#fff"/><circle cx="644.008" cy="507.17" r="1.27" fill="#fff"/><circle cx="795.379" cy="430.339" r="1.27" fill="#fff"/><circle cx="29.564" cy="596.28" r="1.27" fill="#fff"/><circle cx="217.999" cy="506.826" r="1.27" fill="#fff"/><circle cx="246.049" cy="529.299" r="1.27" fill="#fff"/><circle cx="314.062" cy="439.592" r="1.27" fill="#fff"/><circle cx="422.589" cy="421.406" r="1.27" fill="#fff"/><circle cx="558.422" cy="574.639" r="1.27" fill="#fff"/><circle cx="516.456" cy="603.188" r="1.27" fill="#fff"/><circle cx="625.805" cy="449.478" r="1.27" fill="#fff"/><circle cx="765.119" cy="611.984" r="1.27" fill="#fff"/><circle cx="77.802" cy="701.397" r="1.27" fill="#fff"/><circle cx="192.163" cy="585.645" r="1.27" fill="#fff"/><circle cx="327.761" cy="636.188" r="1.27" fill="#fff"/><circle cx="398.397" cy="700.017" r="1.27" fill="#fff"/><circle cx="422.996" cy="550.153" r="1.27" fill="#fff"/><circle cx="516.18" cy="589.529" r="1.27" fill="#fff"/><circle cx="547.036" cy="626.42" r="1.27" fill="#fff"/><circle cx="650.06" cy="521.324" r="1.27" fill="#fff"/><circle cx="806.943" cy="475.539" r="1.27" fill="#fff"/><circle cx="57.489" cy="678.648" r="1.27" fill="#fff"/><circle cx="190.142" cy="771.554" r="1.27" fill="#fff"/><circle cx="159.132" cy="774.685" r="1.27" fill="#fff"/><circle cx="362.806" cy="704.501" r="1.27" fill="#fff"/><circle cx="471.014" cy="765.215" r="1.27" fill="#fff"/><circle cx="574.392" cy="607.111" r="1.27" fill="#fff"/><circle cx="605.845" cy="683.695" r="1.27" fill="#fff"/><circle cx="730.549" cy="644.082" r="1.27" fill="#fff"/><circle cx="796.419" cy="740.204" r="1.27" fill="#fff"/><circle cx="49.764" cy="706.638" r="1.27" fill="#fff"/><circle cx="214.212" cy="897.786" r="1.27" fill="#fff"/><circle cx="151.296" cy="677.323" r="1.27" fill="#fff"/><circle cx="293.45" cy="844.943" r="1.27" fill="#fff"/><circle cx="344.141" cy="875.784" r="1.27" fill="#fff"/><circle cx="457.804" cy="692.884" r="1.27" fill="#fff"/><circle cx="588.301" cy="835.089" r="1.27" fill="#fff"/><circle cx="652.178" cy="848.62" r="1.27" fill="#fff"/><circle cx="870.184" cy="718.643" r="1.27" fill="#fff"/></pattern></defs><g style="isolation:isolate"><g id="Layer_1" data-name="Layer 1"><polygon points="1144.127 284.101 649.3 284.101 285.563 284.101 285.563 316.531 197.343 400.917 197.343 736.982 649.3 736.982 1144.127 736.982 1157.124 736.982 1157.124 704.551 1245.343 620.165 1245.343 284.101 1144.127 284.101" fill="#16221d" stroke="#16221d" stroke-miterlimit="10" stroke-width="1.411"/><polygon points="1144.127 284.101 649.3 284.101 285.563 284.101 285.563 316.531 197.343 400.917 197.343 736.982 649.3 736.982 1144.127 736.982 1157.124 736.982 1157.124 704.551 1245.343 620.165 1245.343 284.101 1144.127 284.101" stroke-miterlimit="10" stroke-width="0.745" opacity="0.5" fill="url(#新增圖樣色票_2)" stroke="url(#新增圖樣色票_2-3)"/><rect x="1230.334" y="567.645" width="15.01" height="99.829" transform="translate(2475.677 1235.118) rotate(180)" fill="#7c3b25" stroke="#16221d" stroke-miterlimit="10" stroke-width="1.498"/><rect x="1215.324" y="581.546" width="15.01" height="99.829" transform="translate(2445.658 1262.922) rotate(180)" fill="#7c3b25" stroke="#16221d" stroke-miterlimit="10" stroke-width="1.498"/><rect x="1200.314" y="595.448" width="15.01" height="99.829" transform="translate(2415.638 1290.725) rotate(180)" fill="#7c3b25" stroke="#16221d" stroke-miterlimit="10" stroke-width="1.498"/><rect x="1185.305" y="609.349" width="15.01" height="99.829" transform="translate(2385.619 1318.528) rotate(180)" fill="#7c3b25" stroke="#16221d" stroke-miterlimit="10" stroke-width="1.498"/><rect x="1170.295" y="623.251" width="15.01" height="99.829" transform="translate(2355.6 1346.331) rotate(180)" fill="#7c3b25" stroke="#16221d" stroke-miterlimit="10" stroke-width="1.498"/><rect x="1155.285" y="637.152" width="15.01" height="99.829" transform="translate(2325.58 1374.134) rotate(180)" fill="#7c3b25" stroke="#16221d" stroke-miterlimit="10" stroke-width="1.498"/><rect x="197.343" y="353.609" width="15.01" height="99.829" fill="#7c3b25" stroke="#16221d" stroke-miterlimit="10" stroke-width="1.498"/><rect x="212.353" y="339.707" width="15.01" height="99.829" fill="#7c3b25" stroke="#16221d" stroke-miterlimit="10" stroke-width="1.498"/><rect x="227.363" y="325.806" width="15.01" height="99.829" fill="#7c3b25" stroke="#16221d" stroke-miterlimit="10" stroke-width="1.498"/><rect x="242.372" y="311.904" width="15.01" height="99.829" fill="#7c3b25" stroke="#16221d" stroke-miterlimit="10" stroke-width="1.498"/><rect x="257.382" y="298.002" width="15.01" height="99.829" fill="#7c3b25" stroke="#16221d" stroke-miterlimit="10" stroke-width="1.498"/><rect x="272.392" y="284.101" width="15.01" height="99.829" fill="#7c3b25" stroke="#16221d" stroke-miterlimit="10" stroke-width="1.498"/><polygon points="1390.69 86.029 137.984 86.029 2.595 0.749 1390.69 0.749 1390.69 86.029" fill="#7c3b25" stroke="#16221d" stroke-miterlimit="10" stroke-width="1.498"/><polyline points="1262.371 87.689 1262.371 852.55 1380.156 950.738" fill="none" stroke="#16221d" stroke-miterlimit="10" stroke-width="1.498"/><polyline points="139.113 86.545 139.113 852.55 24.236 947.829" fill="none" stroke="#16221d" stroke-miterlimit="10" stroke-width="1.498"/><path d="M93.348,538.18a6.477,6.477,0,0,0-4.409,2.093c8.947,8.533,15.638,42.45,15.643,83.021s-6.676,74.489-15.622,83.025a6.483,6.483,0,0,0,4.41,2.091c11.069,0,20.037-38.11,20.03-85.117S104.416,538.179,93.348,538.18Z" fill="#5e2a15" stroke="#16221d" stroke-miterlimit="10" stroke-width="1.498"/><ellipse cx="88.95" cy="623.296" rx="15.632" ry="83.023" fill="#16221d" stroke="#16221d" stroke-miterlimit="10" stroke-width="1.411"/><path d="M81.458,691.435c6.34.653,7.866,1.391,13.934,3.342,8.791,2.826,17.132,6.875,25.438,10.909l30.733,14.928-8.284-18.748c-6.293-14.241-12.726-29.748-9.224-44.919-19.312,2.345-43.385-1.17-60.738-9.963,0,13.132,4.826,29.263,8.141,44.451" fill="#f2e6d4" stroke="#16221d" stroke-miterlimit="10" stroke-width="1.5"/><path d="M94.736,670.967a46.39,46.39,0,0,1,28.6,35.937l28.226,13.71-8.284-18.748c-6.293-14.241-12.726-29.748-9.224-44.919-19.312,2.345-43.385-1.17-60.738-9.963a100.271,100.271,0,0,0,2.452,19.648C82.223,667.633,88.694,668.644,94.736,670.967Z" fill="#f2f2f2" style="mix-blend-mode:multiply"/><path d="M155.982,672.093c14.946,14.136,40.763,20.306,61.075,23.564l-11.515-17.1c-1.942-2.884-3.953-5.839-6.823-7.8-6.836-4.679-16-2.406-24.123-.8a117.869,117.869,0,0,1-26.467,2.166,3.135,3.135,0,0,1-2.113-.6c-1.061-1-.3-2.76.5-3.979l6.594-10.025a4.413,4.413,0,0,1,1.343-1.485c1.313-.767,2.959-.02,4.286.723l21.77,12.18" fill="#f2e6d4" stroke="#16221d" stroke-miterlimit="10" stroke-width="1.5"/><path d="M161.309,723.6c-.088,3.568,2.343,6.657,4.763,9.28,28.926,31.353,76.093,44.505,117.069,32.643-10.564-17.268-21.359-35.154-24.278-55.186a6.365,6.365,0,0,0-.806-2.716c-1.9-2.8-6.212-.83-8.912,1.2a110.348,110.348,0,0,1-67.89,21.937c-7.173-.142-15.308-1.559-19.195-7.59" fill="#f2e6d4" stroke="#16221d" stroke-miterlimit="10" stroke-width="1.5"/><path d="M162.242,725.689c-5.563-5.484-1.858-15.594-5.081-22.71a57.247,57.247,0,0,1,44.31,25.961S171.932,735.241,162.242,725.689Z" fill="#ffd377" stroke="#16221d" stroke-miterlimit="10" stroke-width="1.5"/><path d="M271.7,768.165s-24.034-26.882-22.551-59.345" fill="none" stroke="#16221d" stroke-miterlimit="10"/><path d="M273.037,764.026a1.49,1.49,0,0,1-.722-.087,2.6,2.6,0,0,1-1.889-2.709,2.264,2.264,0,0,1,1.239-1.555,3.256,3.256,0,0,1,2.013-.232,2.475,2.475,0,0,1,1.768,1.128C277.2,763.776,273.24,763.989,273.037,764.026Z" fill="#16221d"/><path d="M268.839,757.678a1.478,1.478,0,0,1-.722-.087,2.6,2.6,0,0,1-1.888-2.708,2.256,2.256,0,0,1,1.238-1.555,3.256,3.256,0,0,1,2.013-.233,2.478,2.478,0,0,1,1.768,1.128C273.006,757.428,269.042,757.642,268.839,757.678Z" fill="#16221d"/><path d="M264.3,749.744a1.49,1.49,0,0,1-.722-.087,2.6,2.6,0,0,1-1.889-2.709,2.261,2.261,0,0,1,1.239-1.554,3.254,3.254,0,0,1,2.012-.233,2.478,2.478,0,0,1,1.769,1.128C268.462,749.494,264.5,749.708,264.3,749.744Z" fill="#16221d"/><path d="M260.28,740.807a1.478,1.478,0,0,1-.722-.087,2.6,2.6,0,0,1-1.888-2.709,2.258,2.258,0,0,1,1.239-1.554,3.252,3.252,0,0,1,2.012-.233,2.478,2.478,0,0,1,1.768,1.128C264.447,740.557,260.483,740.771,260.28,740.807Z" fill="#16221d"/><path d="M257.531,732.657a1.487,1.487,0,0,1-.722-.087,2.6,2.6,0,0,1-1.889-2.709,2.262,2.262,0,0,1,1.239-1.555,3.253,3.253,0,0,1,2.012-.232,2.475,2.475,0,0,1,1.768,1.128C261.7,732.407,257.733,732.62,257.531,732.657Z" fill="#16221d"/><path d="M254.781,724.145a1.477,1.477,0,0,1-.722-.087,2.6,2.6,0,0,1-1.889-2.708,2.26,2.26,0,0,1,1.239-1.555,3.253,3.253,0,0,1,2.012-.233,2.48,2.48,0,0,1,1.769,1.128C258.948,723.9,254.984,724.109,254.781,724.145Z" fill="#16221d"/><path d="M253.536,716.067a1.489,1.489,0,0,1-.722-.087,2.6,2.6,0,0,1-1.889-2.709,2.261,2.261,0,0,1,1.239-1.554,3.246,3.246,0,0,1,2.012-.233,2.479,2.479,0,0,1,1.769,1.128C257.7,715.817,253.739,716.03,253.536,716.067Z" fill="#16221d"/><path d="M138.85,714.439s-20.015-28.16-13.769-58.731" fill="none" stroke="#16221d" stroke-miterlimit="10" stroke-width="1.5"/><path d="M139.968,708.818a1.2,1.2,0,0,1-.568-.134,2.085,2.085,0,0,1-1.264-2.328,1.813,1.813,0,0,1,1.127-1.129,2.616,2.616,0,0,1,1.625-.006,1.987,1.987,0,0,1,1.309,1.057C143.313,708.99,140.133,708.807,139.968,708.818Z" fill="#16221d"/><path d="M137.188,703.383a1.192,1.192,0,0,1-.568-.133,2.084,2.084,0,0,1-1.264-2.328,1.812,1.812,0,0,1,1.126-1.129,2.6,2.6,0,0,1,1.625-.006,1.987,1.987,0,0,1,1.309,1.057C140.532,703.556,137.353,703.372,137.188,703.383Z" fill="#16221d"/><path d="M134.272,696.653a1.189,1.189,0,0,1-.567-.134,2.083,2.083,0,0,1-1.264-2.328,1.814,1.814,0,0,1,1.126-1.129,2.616,2.616,0,0,1,1.625-.006,1.987,1.987,0,0,1,1.309,1.057C137.617,696.825,134.437,696.642,134.272,696.653Z" fill="#16221d"/><path d="M131.869,689.17a1.2,1.2,0,0,1-.568-.134,2.083,2.083,0,0,1-1.264-2.327,1.81,1.81,0,0,1,1.126-1.129,2.6,2.6,0,0,1,1.625-.006,1.987,1.987,0,0,1,1.309,1.057C135.213,689.342,132.034,689.159,131.869,689.17Z" fill="#16221d"/><path d="M130.4,682.427a1.193,1.193,0,0,1-.568-.134,2.083,2.083,0,0,1-1.264-2.328,1.81,1.81,0,0,1,1.126-1.128,2.6,2.6,0,0,1,1.625-.006,1.987,1.987,0,0,1,1.309,1.057C133.748,682.6,130.569,682.416,130.4,682.427Z" fill="#16221d"/><path d="M128.97,675.4a1.189,1.189,0,0,1-.567-.134,2.084,2.084,0,0,1-1.264-2.328,1.812,1.812,0,0,1,1.126-1.129,2.616,2.616,0,0,1,1.625-.006,1.987,1.987,0,0,1,1.309,1.057C132.315,675.569,129.135,675.386,128.97,675.4Z" fill="#16221d"/><path d="M128.222,668.137a1.189,1.189,0,0,1-.567-.134,2.083,2.083,0,0,1-1.264-2.328,1.812,1.812,0,0,1,1.126-1.129,2.616,2.616,0,0,1,1.625-.006,1.987,1.987,0,0,1,1.309,1.057C131.567,668.309,128.387,668.126,128.222,668.137Z" fill="#16221d"/><line x1="144.51" y1="852.55" x2="1256.973" y2="852.55" fill="none" stroke="#16221d" stroke-miterlimit="10" stroke-width="1.498"/></g></g></svg>