<svg xmlns="http://www.w3.org/2000/svg" viewBox="0 0 1006.28 529.07">
  <g>
    <g>
      <polygon points="19.75 19.71 3.37 2.58 1001.74 2.58 984.61 19.71 19.75 19.71" fill="#8e452d"/>
      <path d="M999.88,3.35,984.3,18.94H20.07L5.15,3.35H999.87m3.71-1.53H1.57L19.42,20.47H984.93l18.66-18.65Z" fill="#16221d"/>
    </g>
    <g>
      <polygon points="985.68 20.78 1002.85 3.62 1005.56 526.36 988.4 526.57 985.68 20.78" fill="#7c3b25"/>
      <path d="M1002.07,5.41l2.7,520.2-15.66.2L986.39,21.09l15.68-15.68m1.48-3.59L984.89,20.47l2.73,506.86,18.66-.24L1003.55,1.82Z" fill="#16221d"/>
    </g>
    <polygon points="18.21 509.64 983.72 509.64 1001.57 528.3 1.57 528.3 18.21 509.64" fill="#8e452d" stroke="#16221d" stroke-linecap="round" stroke-linejoin="round" stroke-width="1.53"/>
    <polygon points="0.76 1.82 19.42 20.47 22.15 509.64 3.49 527.33 0.76 1.82" fill="#7c3b25" stroke="#16221d" stroke-miterlimit="10" stroke-width="1.5"/>
  </g>
</svg>
