<svg xmlns="http://www.w3.org/2000/svg" viewBox="0 0 1231.658 582.394"><defs><style>.cls-1{isolation:isolate;}.cls-18,.cls-2,.cls-3{fill:#8e452d;}.cls-10,.cls-11,.cls-12,.cls-13,.cls-17,.cls-19,.cls-2,.cls-3,.cls-4,.cls-5,.cls-6,.cls-7,.cls-9{stroke:#16221d;}.cls-19,.cls-2,.cls-5,.cls-6,.cls-7,.cls-8,.cls-9{stroke-miterlimit:10;}.cls-2,.cls-5,.cls-6,.cls-7,.cls-9{stroke-width:1.498px;}.cls-10,.cls-11,.cls-12,.cls-13,.cls-17,.cls-3,.cls-4,.cls-8{stroke-linecap:round;}.cls-10,.cls-11,.cls-12,.cls-13,.cls-17,.cls-3,.cls-4{stroke-linejoin:round;}.cls-10,.cls-11,.cls-12,.cls-13,.cls-17,.cls-19,.cls-3,.cls-4,.cls-8{stroke-width:1.5px;}.cls-4{fill:#5e2a15;}.cls-19,.cls-5{fill:#16221d;}.cls-6{fill:#fdbf0f;}.cls-7{fill:#bdb0ae;}.cls-17,.cls-8,.cls-9{fill:none;}.cls-8{stroke:#fff;}.cls-10{fill:#48484a;}.cls-11{fill:#515254;}.cls-12{fill:#333;}.cls-13{fill:#ba5c40;}.cls-14{opacity:0.41;}.cls-14,.cls-16{mix-blend-mode:multiply;}.cls-15{fill:#ccc;}</style></defs><g class="cls-1"><g id="Layer_1" data-name="Layer 1"><line class="cls-2" x1="130.203" y1="6.138" x2="130.203" y2="518.381"/><polygon class="cls-3" points="134.476 495.429 134.476 28.369 0.75 0.75 0.75 581.644 134.476 495.429"/><polygon class="cls-4" points="1097.183 26.79 134.476 28.369 0.75 0.75 1230.908 0.75 1097.183 26.79"/><polygon class="cls-4" points="1097.183 502.71 134.476 502.71 0.75 581.644 1230.908 581.644 1097.183 502.71"/><polygon class="cls-3" points="1097.183 502.71 1097.183 26.79 1230.908 0.75 1230.908 581.644 1097.183 502.71"/><path class="cls-5" d="M1148.784,106.2H1109.66a1.83,1.83,0,0,0-1.83,1.831v39.123h5.037V113.065a1.831,1.831,0,0,1,1.831-1.831h34.086Z"/><circle class="cls-6" cx="1108.55" cy="169.963" r="6.268"/><path class="cls-7" d="M1092.7,162.036H1124.4a7.927,7.927,0,0,1,7.927,7.927v0a0,0,0,0,1,0,0h-47.56a0,0,0,0,1,0,0v0A7.927,7.927,0,0,1,1092.7,162.036Z"/><path class="cls-7" d="M1108.959,129.512h0a16.262,16.262,0,0,1,16.262,16.262v16.262a0,0,0,0,1,0,0H1092.7a0,0,0,0,1,0,0V145.774A16.262,16.262,0,0,1,1108.959,129.512Z"/><path class="cls-8" d="M1113.824,135.241s7.027.673,7.027,14.838"/><line class="cls-9" x1="1092.697" y1="158.403" x2="1125.222" y2="158.403"/><rect class="cls-10" x="87.574" y="441.167" width="69.667" height="86.542"/><polygon class="cls-11" points="157.131 527.709 163.033 523.106 163.312 438.508 157.206 440.76 157.131 527.709"/><path class="cls-12" d="M161.5,446.25l6.418-2.348a3.235,3.235,0,0,0,2.123-3.038v-2.545l-8.541,3.125Z"/><path class="cls-12" d="M169.4,438.042H98.878l-9.094,3.185h72.649a.37.37,0,0,0,.123-.021l6.966-2.44A.372.372,0,0,0,169.4,438.042Z"/><path class="cls-12" d="M89.784,441.167H160.8a2.613,2.613,0,0,1,2.613,2.613v0a2.613,2.613,0,0,1-2.613,2.613H89.784a0,0,0,0,1,0,0v-5.225a0,0,0,0,1,0,0Z"/><rect class="cls-10" x="99.46" y="365.808" width="8.775" height="168.562"/><polygon class="cls-11" points="108.235 534.37 114.136 529.767 114.341 363.556 108.235 365.808 108.235 534.37"/><polygon class="cls-10" points="114.136 363.556 105.361 363.556 99.46 365.808 108.235 365.808 114.136 363.556"/><path class="cls-13" d="M94.955,365.583,54.619,380.15a7.574,7.574,0,0,0-5,7.122v97.883H65.385l46.435-20.533.191-92.746a6.677,6.677,0,0,0-6.676-6.69H97.222A6.663,6.663,0,0,0,94.955,365.583Z"/><line class="cls-13" x1="52.863" y1="386.394" x2="61.256" y2="386.394"/><line class="cls-13" x1="65.717" y1="390.843" x2="65.557" y2="480.403"/><line class="cls-13" x1="68.653" y1="386.769" x2="106.486" y2="371.207"/><g class="cls-14"><path class="cls-15" d="M83.218,435.488c-2.908-5.03-3.9-10.9-5.117-16.58-1.876-8.751-4.519-17.6-10.036-24.65-4.3-5.5-10.694-9.7-17.492-10.629a7.532,7.532,0,0,0-.954,3.642v97.884H65.385l46.435-20.533.028-13.822C100.587,449.811,88.855,445.236,83.218,435.488Z"/></g><rect class="cls-10" x="42.585" y="389.268" width="8.775" height="164.577"/><polygon class="cls-11" points="51.323 553.845 57.224 549.242 57.503 387.016 51.397 389.268 51.323 553.845"/><polygon class="cls-10" points="57.298 387.016 48.523 387.016 42.622 389.268 51.397 389.268 57.298 387.016"/><rect class="cls-13" x="62.459" y="473.858" width="64.233" height="25.524"/><path class="cls-13" d="M126.693,499.383l34.294-18.694a5.863,5.863,0,0,0,3.058-5.149V456.331l-37.352,17.527Z"/><path class="cls-13" d="M161.209,452.1h-48.52a1.077,1.077,0,0,0-.426.089L67.132,471.907a1.065,1.065,0,0,0,.426,2.041h51.551a29.746,29.746,0,0,0,11.906-2.487l31.375-13.706A2.95,2.95,0,0,0,161.209,452.1Z"/><g class="cls-16"><path class="cls-15" d="M150.5,473.689c-4.85-.394-9.258-2.343-13.593-4.624l-10.214,4.793v25.525l34.294-18.694a5.863,5.863,0,0,0,3.058-5.149v-4.307A30.126,30.126,0,0,1,150.5,473.689Z"/></g><rect class="cls-10" x="51.401" y="467.303" width="69.667" height="86.542"/><polygon class="cls-11" points="120.958 553.845 126.859 549.242 127.138 464.644 121.032 466.896 120.958 553.845"/><path class="cls-12" d="M123.114,472.386l6.418-2.348A3.235,3.235,0,0,0,131.656,467v-2.545l-8.542,3.125Z"/><path class="cls-12" d="M131.016,464.178H60.5L51.4,467.363H124.05a.37.37,0,0,0,.123-.021l6.966-2.44A.372.372,0,0,0,131.016,464.178Z"/><path class="cls-12" d="M51.4,467.3h71.017a2.613,2.613,0,0,1,2.613,2.613v0a2.613,2.613,0,0,1-2.613,2.613H51.4a0,0,0,0,1,0,0V467.3A0,0,0,0,1,51.4,467.3Z"/><line class="cls-17" x1="162.302" y1="460.585" x2="127.385" y2="476.808"/><path class="cls-18" d="M77.91,417a1.619,1.619,0,0,0,1.5.474c.676-.208.962-.983,1.414-1.527a2.608,2.608,0,0,1,1.844-.927,14.027,14.027,0,0,0,1.52.013c.5-.083,1.017-.485.962-.99a1.374,1.374,0,0,0-.332-.655l-3.138-4.136A66.98,66.98,0,0,0,79,416.507"/><path class="cls-13" d="M77.772,417.745a47.778,47.778,0,0,0,3.546-7.846"/><path class="cls-13" d="M87,415.361a43.349,43.349,0,0,1-4.161-4.719"/><path class="cls-18" d="M76.967,404.049q1.561,1.182,3.229,2.214a1.033,1.033,0,0,0,.6.213c.4-.032.613-.485.736-.869q.579-1.806,1.049-3.643a1.148,1.148,0,0,0,.054-.445.929.929,0,0,0-.412-.587,2.616,2.616,0,0,0-2.314-.285,5,5,0,0,0-1.989,1.335,2.936,2.936,0,0,0-.845,1.343"/><ellipse class="cls-19" cx="81.477" cy="408.909" rx="0.809" ry="1.91"/><path class="cls-13" d="M75.064,402.6a47.821,47.821,0,0,1,6.044,6.132"/><path class="cls-13" d="M83.614,398.636a47.749,47.749,0,0,0-1.524,8.474"/><path class="cls-18" d="M95.976,409.318a1.622,1.622,0,0,0,1.5.473c.675-.208.961-.982,1.413-1.527a2.608,2.608,0,0,1,1.844-.927,13.777,13.777,0,0,0,1.52.013c.5-.083,1.017-.485.962-.99a1.383,1.383,0,0,0-.332-.655l-3.138-4.136a66.98,66.98,0,0,0-2.684,7.251"/><path class="cls-13" d="M95.839,410.058a47.811,47.811,0,0,0,3.545-7.846"/><path class="cls-13" d="M105.064,407.674a43.349,43.349,0,0,1-4.161-4.719"/><path class="cls-18" d="M95.033,396.362q1.561,1.182,3.229,2.214a1.026,1.026,0,0,0,.6.213c.4-.032.613-.484.736-.869q.579-1.8,1.05-3.643a1.187,1.187,0,0,0,.054-.445.934.934,0,0,0-.413-.587,2.616,2.616,0,0,0-2.314-.285,5,5,0,0,0-1.989,1.335,2.936,2.936,0,0,0-.845,1.343"/><ellipse class="cls-19" cx="99.543" cy="401.222" rx="0.809" ry="1.91"/><path class="cls-13" d="M93.13,394.909a47.8,47.8,0,0,1,6.045,6.132"/><path class="cls-13" d="M101.68,390.949a47.887,47.887,0,0,0-1.523,8.474"/><path class="cls-18" d="M77.91,451.789a1.621,1.621,0,0,0,1.5.474c.676-.208.962-.983,1.414-1.527a2.608,2.608,0,0,1,1.844-.927,13.776,13.776,0,0,0,1.52.012c.5-.082,1.017-.484.962-.989a1.374,1.374,0,0,0-.332-.655l-3.138-4.137A67.075,67.075,0,0,0,79,451.292"/><path class="cls-13" d="M77.772,452.53a47.778,47.778,0,0,0,3.546-7.846"/><path class="cls-13" d="M87,450.146a43.349,43.349,0,0,1-4.161-4.719"/><path class="cls-18" d="M76.967,438.834q1.561,1.182,3.229,2.214a1.032,1.032,0,0,0,.6.212c.4-.031.613-.484.736-.868q.579-1.806,1.049-3.643a1.15,1.15,0,0,0,.054-.446.93.93,0,0,0-.412-.586,2.616,2.616,0,0,0-2.314-.285,5,5,0,0,0-1.989,1.335,2.938,2.938,0,0,0-.845,1.342"/><ellipse class="cls-19" cx="81.477" cy="443.694" rx="0.809" ry="1.91"/><path class="cls-13" d="M75.064,437.381a47.821,47.821,0,0,1,6.044,6.132"/><path class="cls-13" d="M83.614,433.421A47.728,47.728,0,0,0,82.09,441.9"/><path class="cls-18" d="M95.976,444.1a1.62,1.62,0,0,0,1.5.474c.675-.208.961-.983,1.413-1.527a2.608,2.608,0,0,1,1.844-.927,14.027,14.027,0,0,0,1.52.013c.5-.083,1.017-.485.962-.99a1.374,1.374,0,0,0-.332-.655l-3.138-4.136a66.98,66.98,0,0,0-2.684,7.251"/><path class="cls-13" d="M95.839,444.843A47.811,47.811,0,0,0,99.384,437"/><path class="cls-13" d="M105.064,442.459a43.349,43.349,0,0,1-4.161-4.719"/><path class="cls-18" d="M95.033,431.147q1.561,1.182,3.229,2.214a1.033,1.033,0,0,0,.6.213c.4-.032.613-.485.736-.869q.579-1.806,1.05-3.643a1.187,1.187,0,0,0,.054-.445.934.934,0,0,0-.413-.587,2.616,2.616,0,0,0-2.314-.285,5,5,0,0,0-1.989,1.335,2.936,2.936,0,0,0-.845,1.343"/><ellipse class="cls-19" cx="99.543" cy="436.007" rx="0.809" ry="1.91"/><path class="cls-13" d="M93.13,429.694a47.8,47.8,0,0,1,6.045,6.132"/><path class="cls-13" d="M101.68,425.734a47.887,47.887,0,0,0-1.523,8.474"/></g></g></svg>