<svg xmlns="http://www.w3.org/2000/svg" xmlns:xlink="http://www.w3.org/1999/xlink" viewBox="0 0 1367.5 717.79"><defs><clipPath id="clip-path"><path d="M194.076,592.93c-35.644,3.714-66.651,21.817-104.261,19.015-51.088-3.805-88.727-16.6-138.647,6.243-4.41,2.018-8.941,4.393-11.6,8.451-2.694,4.119-3.024,9.314-2.979,14.236.139,15.19,3.21,30.672,11.209,43.587,18.582,30,51.848,27.46,82.4,22.8,28.778-4.392,54.983,8.5,83.117,10.789,30.942,2.512,55.432-9.736,85.005-16.428,26.2-5.928,78.744,8.293,92-22.468,19.868-46.107-19.43-74.848-60.193-84.2A108.424,108.424,0,0,0,194.076,592.93Z" fill="none"/></clipPath><clipPath id="clip-path-2"><polygon points="123.145 386.506 46.725 411.485 46.725 169.999 120.481 169.999 123.145 386.506" fill="none"/></clipPath><clipPath id="clip-path-3"><rect x="44.904" y="226.692" width="262.402" height="206.044" fill="none"/></clipPath><clipPath id="clip-path-4"><path d="M19.808,387.633c-1.582-5.512-8.417-8.614-12.055-10.706S-.091,368.061-1.463,359.4s1.557-9.009,6.705-13.626c2.86-2.566.73-4.7-1.729-6.1a14.579,14.579,0,0,0-5.946-1.829c-9.537-.819-11.652-8.241-11.652-8.241l-16.571,1.717s1.932,7.493-2.57,9.3-8.453,4.067-6.953,7.449,10.587,2.853,14.089,7.5,13.21,18.474,7.015,23.671c0,0-4.879,1.075-2.666,10.23Z" fill="none"/></clipPath><clipPath id="clip-path-5"><path d="M43.048,321.765s1.589,7.076-4.423,9.614-11.135,5.351-8.634,9.134S42.167,344.535,46.978,347a21.971,21.971,0,0,1,10.046,12.159c1.455,4.526,3.836,11.136-1.169,13.6s-11.153,3.947-8.628,13.4l55.222-2.38a17.436,17.436,0,0,0-8.8-9.381c-6.9-3.391-10.391-4.114-13.371-13.453s-1.548-16.373,1.475-18.819,10.46-5.568,10.335-7.827-.647-4.421-10.142-6.824S70.4,318.038,70.4,318.038Z" fill="none"/></clipPath><clipPath id="clip-path-6"><path d="M171.635,371.327c-2.41-.5-7.16-3.208-9.249-4.872s-17.952.484-20.856,1.427-5.635,5.1-8.519,7.119c-2.062,1.445-1.69,5.317-1.31,7.409l22.3-1.041,24.209-1.13C177.223,375.953,173.831,371.784,171.635,371.327Z" fill="none"/></clipPath><pattern id="新增圖樣色票_2" data-name="新增圖樣色票 2" width="871.454" height="899.055" patternTransform="translate(970.908 1423.526) scale(0.745)" patternUnits="userSpaceOnUse" viewBox="0 0 871.454 899.055"><rect width="871.454" height="899.055" fill="none"/><circle cx="88.928" cy="2.435" r="1.27" fill="#fff"/><circle cx="186.44" cy="57.78" r="1.27" fill="#fff"/><circle cx="310.184" cy="1.27" r="1.27" fill="#fff"/><circle cx="355.551" cy="83.916" r="1.27" fill="#fff"/><circle cx="389.39" cy="124.049" r="1.27" fill="#fff"/><circle cx="403.06" cy="8.401" r="1.27" fill="#fff"/><circle cx="627.119" cy="186.341" r="1.27" fill="#fff"/><circle cx="585.867" cy="110.673" r="1.27" fill="#fff"/><circle cx="842.233" cy="71.994" r="1.27" fill="#fff"/><circle cx="25.04" cy="189.855" r="1.27" fill="#fff"/><circle cx="130.086" cy="192.889" r="1.27" fill="#fff"/><circle cx="247.875" cy="195.894" r="1.27" fill="#fff"/><circle cx="349.823" cy="198.586" r="1.27" fill="#fff"/><circle cx="454.381" cy="53.525" r="1.27" fill="#fff"/><circle cx="540.14" cy="149.468" r="1.27" fill="#fff"/><circle cx="515.247" cy="77.089" r="1.27" fill="#fff"/><circle cx="660.284" cy="166.245" r="1.27" fill="#fff"/><circle cx="735.964" cy="189.512" r="1.27" fill="#fff"/><circle cx="1.27" cy="236.367" r="1.27" fill="#fff"/><circle cx="239.505" cy="184.992" r="1.27" fill="#fff"/><circle cx="144.329" cy="165.275" r="1.27" fill="#fff"/><circle cx="323.746" cy="293.559" r="1.27" fill="#fff"/><circle cx="334.442" cy="174.076" r="1.27" fill="#fff"/><circle cx="535.811" cy="129.941" r="1.27" fill="#fff"/><circle cx="611.049" cy="291.749" r="1.27" fill="#fff"/><circle cx="751.884" cy="245.398" r="1.27" fill="#fff"/><circle cx="662.158" cy="197.801" r="1.27" fill="#fff"/><circle cx="68.226" cy="372.431" r="1.27" fill="#fff"/><circle cx="272.257" cy="339.445" r="1.27" fill="#fff"/><circle cx="227.666" cy="231.196" r="1.27" fill="#fff"/><circle cx="369.267" cy="222.393" r="1.27" fill="#fff"/><circle cx="339.433" cy="285.437" r="1.27" fill="#fff"/><circle cx="458.331" cy="206.722" r="1.27" fill="#fff"/><circle cx="525.483" cy="398.648" r="1.27" fill="#fff"/><circle cx="655.447" cy="286.553" r="1.27" fill="#fff"/><circle cx="706.376" cy="402.711" r="1.27" fill="#fff"/><circle cx="156.187" cy="501.045" r="1.27" fill="#fff"/><circle cx="99.458" cy="425.405" r="1.27" fill="#fff"/><circle cx="312.138" cy="298.571" r="1.27" fill="#fff"/><circle cx="427.866" cy="437.833" r="1.27" fill="#fff"/><circle cx="498.11" cy="376.195" r="1.27" fill="#fff"/><circle cx="555.906" cy="277.397" r="1.27" fill="#fff"/><circle cx="618.107" cy="436.14" r="1.27" fill="#fff"/><circle cx="717.826" cy="346.75" r="1.27" fill="#fff"/><circle cx="703.758" cy="363.374" r="1.27" fill="#fff"/><circle cx="61.767" cy="515.612" r="1.27" fill="#fff"/><circle cx="184.33" cy="571.039" r="1.27" fill="#fff"/><circle cx="293.251" cy="454.977" r="1.27" fill="#fff"/><circle cx="357.445" cy="455.815" r="1.27" fill="#fff"/><circle cx="450.819" cy="474.461" r="1.27" fill="#fff"/><circle cx="438.037" cy="582.859" r="1.27" fill="#fff"/><circle cx="498.504" cy="488.815" r="1.27" fill="#fff"/><circle cx="644.008" cy="507.17" r="1.27" fill="#fff"/><circle cx="795.379" cy="430.339" r="1.27" fill="#fff"/><circle cx="29.564" cy="596.28" r="1.27" fill="#fff"/><circle cx="217.999" cy="506.826" r="1.27" fill="#fff"/><circle cx="246.049" cy="529.299" r="1.27" fill="#fff"/><circle cx="314.062" cy="439.592" r="1.27" fill="#fff"/><circle cx="422.589" cy="421.406" r="1.27" fill="#fff"/><circle cx="558.422" cy="574.639" r="1.27" fill="#fff"/><circle cx="516.456" cy="603.188" r="1.27" fill="#fff"/><circle cx="625.805" cy="449.478" r="1.27" fill="#fff"/><circle cx="765.119" cy="611.984" r="1.27" fill="#fff"/><circle cx="77.802" cy="701.397" r="1.27" fill="#fff"/><circle cx="192.163" cy="585.645" r="1.27" fill="#fff"/><circle cx="327.761" cy="636.188" r="1.27" fill="#fff"/><circle cx="398.397" cy="700.017" r="1.27" fill="#fff"/><circle cx="422.996" cy="550.153" r="1.27" fill="#fff"/><circle cx="516.18" cy="589.529" r="1.27" fill="#fff"/><circle cx="547.036" cy="626.42" r="1.27" fill="#fff"/><circle cx="650.06" cy="521.324" r="1.27" fill="#fff"/><circle cx="806.943" cy="475.539" r="1.27" fill="#fff"/><circle cx="57.489" cy="678.648" r="1.27" fill="#fff"/><circle cx="190.142" cy="771.554" r="1.27" fill="#fff"/><circle cx="159.132" cy="774.685" r="1.27" fill="#fff"/><circle cx="362.806" cy="704.501" r="1.27" fill="#fff"/><circle cx="471.014" cy="765.215" r="1.27" fill="#fff"/><circle cx="574.392" cy="607.111" r="1.27" fill="#fff"/><circle cx="605.845" cy="683.695" r="1.27" fill="#fff"/><circle cx="730.549" cy="644.082" r="1.27" fill="#fff"/><circle cx="796.419" cy="740.204" r="1.27" fill="#fff"/><circle cx="49.764" cy="706.638" r="1.27" fill="#fff"/><circle cx="214.212" cy="897.786" r="1.27" fill="#fff"/><circle cx="151.296" cy="677.323" r="1.27" fill="#fff"/><circle cx="293.45" cy="844.943" r="1.27" fill="#fff"/><circle cx="344.141" cy="875.784" r="1.27" fill="#fff"/><circle cx="457.804" cy="692.884" r="1.27" fill="#fff"/><circle cx="588.301" cy="835.089" r="1.27" fill="#fff"/><circle cx="652.178" cy="848.62" r="1.27" fill="#fff"/><circle cx="870.184" cy="718.643" r="1.27" fill="#fff"/></pattern><pattern id="新增圖樣色票_2-3" data-name="新增圖樣色票 2" width="871.454" height="899.055" patternTransform="translate(494.026 1169.437) scale(0.745)" patternUnits="userSpaceOnUse" viewBox="0 0 871.454 899.055"><rect width="871.454" height="899.055" fill="none"/><circle cx="88.928" cy="2.435" r="1.27" fill="#fff"/><circle cx="186.44" cy="57.78" r="1.27" fill="#fff"/><circle cx="310.184" cy="1.27" r="1.27" fill="#fff"/><circle cx="355.551" cy="83.916" r="1.27" fill="#fff"/><circle cx="389.39" cy="124.049" r="1.27" fill="#fff"/><circle cx="403.06" cy="8.401" r="1.27" fill="#fff"/><circle cx="627.119" cy="186.341" r="1.27" fill="#fff"/><circle cx="585.867" cy="110.673" r="1.27" fill="#fff"/><circle cx="842.233" cy="71.994" r="1.27" fill="#fff"/><circle cx="25.04" cy="189.855" r="1.27" fill="#fff"/><circle cx="130.086" cy="192.889" r="1.27" fill="#fff"/><circle cx="247.875" cy="195.894" r="1.27" fill="#fff"/><circle cx="349.823" cy="198.586" r="1.27" fill="#fff"/><circle cx="454.381" cy="53.525" r="1.27" fill="#fff"/><circle cx="540.14" cy="149.468" r="1.27" fill="#fff"/><circle cx="515.247" cy="77.089" r="1.27" fill="#fff"/><circle cx="660.284" cy="166.245" r="1.27" fill="#fff"/><circle cx="735.964" cy="189.512" r="1.27" fill="#fff"/><circle cx="1.27" cy="236.367" r="1.27" fill="#fff"/><circle cx="239.505" cy="184.992" r="1.27" fill="#fff"/><circle cx="144.329" cy="165.275" r="1.27" fill="#fff"/><circle cx="323.746" cy="293.559" r="1.27" fill="#fff"/><circle cx="334.442" cy="174.076" r="1.27" fill="#fff"/><circle cx="535.811" cy="129.941" r="1.27" fill="#fff"/><circle cx="611.049" cy="291.749" r="1.27" fill="#fff"/><circle cx="751.884" cy="245.398" r="1.27" fill="#fff"/><circle cx="662.158" cy="197.801" r="1.27" fill="#fff"/><circle cx="68.226" cy="372.431" r="1.27" fill="#fff"/><circle cx="272.257" cy="339.445" r="1.27" fill="#fff"/><circle cx="227.666" cy="231.196" r="1.27" fill="#fff"/><circle cx="369.267" cy="222.393" r="1.27" fill="#fff"/><circle cx="339.433" cy="285.437" r="1.27" fill="#fff"/><circle cx="458.331" cy="206.722" r="1.27" fill="#fff"/><circle cx="525.483" cy="398.648" r="1.27" fill="#fff"/><circle cx="655.447" cy="286.553" r="1.27" fill="#fff"/><circle cx="706.376" cy="402.711" r="1.27" fill="#fff"/><circle cx="156.187" cy="501.045" r="1.27" fill="#fff"/><circle cx="99.458" cy="425.405" r="1.27" fill="#fff"/><circle cx="312.138" cy="298.571" r="1.27" fill="#fff"/><circle cx="427.866" cy="437.833" r="1.27" fill="#fff"/><circle cx="498.11" cy="376.195" r="1.27" fill="#fff"/><circle cx="555.906" cy="277.397" r="1.27" fill="#fff"/><circle cx="618.107" cy="436.14" r="1.27" fill="#fff"/><circle cx="717.826" cy="346.75" r="1.27" fill="#fff"/><circle cx="703.758" cy="363.374" r="1.27" fill="#fff"/><circle cx="61.767" cy="515.612" r="1.27" fill="#fff"/><circle cx="184.33" cy="571.039" r="1.27" fill="#fff"/><circle cx="293.251" cy="454.977" r="1.27" fill="#fff"/><circle cx="357.445" cy="455.815" r="1.27" fill="#fff"/><circle cx="450.819" cy="474.461" r="1.27" fill="#fff"/><circle cx="438.037" cy="582.859" r="1.27" fill="#fff"/><circle cx="498.504" cy="488.815" r="1.27" fill="#fff"/><circle cx="644.008" cy="507.17" r="1.27" fill="#fff"/><circle cx="795.379" cy="430.339" r="1.27" fill="#fff"/><circle cx="29.564" cy="596.28" r="1.27" fill="#fff"/><circle cx="217.999" cy="506.826" r="1.27" fill="#fff"/><circle cx="246.049" cy="529.299" r="1.27" fill="#fff"/><circle cx="314.062" cy="439.592" r="1.27" fill="#fff"/><circle cx="422.589" cy="421.406" r="1.27" fill="#fff"/><circle cx="558.422" cy="574.639" r="1.27" fill="#fff"/><circle cx="516.456" cy="603.188" r="1.27" fill="#fff"/><circle cx="625.805" cy="449.478" r="1.27" fill="#fff"/><circle cx="765.119" cy="611.984" r="1.27" fill="#fff"/><circle cx="77.802" cy="701.397" r="1.27" fill="#fff"/><circle cx="192.163" cy="585.645" r="1.27" fill="#fff"/><circle cx="327.761" cy="636.188" r="1.27" fill="#fff"/><circle cx="398.397" cy="700.017" r="1.27" fill="#fff"/><circle cx="422.996" cy="550.153" r="1.27" fill="#fff"/><circle cx="516.18" cy="589.529" r="1.27" fill="#fff"/><circle cx="547.036" cy="626.42" r="1.27" fill="#fff"/><circle cx="650.06" cy="521.324" r="1.27" fill="#fff"/><circle cx="806.943" cy="475.539" r="1.27" fill="#fff"/><circle cx="57.489" cy="678.648" r="1.27" fill="#fff"/><circle cx="190.142" cy="771.554" r="1.27" fill="#fff"/><circle cx="159.132" cy="774.685" r="1.27" fill="#fff"/><circle cx="362.806" cy="704.501" r="1.27" fill="#fff"/><circle cx="471.014" cy="765.215" r="1.27" fill="#fff"/><circle cx="574.392" cy="607.111" r="1.27" fill="#fff"/><circle cx="605.845" cy="683.695" r="1.27" fill="#fff"/><circle cx="730.549" cy="644.082" r="1.27" fill="#fff"/><circle cx="796.419" cy="740.204" r="1.27" fill="#fff"/><circle cx="49.764" cy="706.638" r="1.27" fill="#fff"/><circle cx="214.212" cy="897.786" r="1.27" fill="#fff"/><circle cx="151.296" cy="677.323" r="1.27" fill="#fff"/><circle cx="293.45" cy="844.943" r="1.27" fill="#fff"/><circle cx="344.141" cy="875.784" r="1.27" fill="#fff"/><circle cx="457.804" cy="692.884" r="1.27" fill="#fff"/><circle cx="588.301" cy="835.089" r="1.27" fill="#fff"/><circle cx="652.178" cy="848.62" r="1.27" fill="#fff"/><circle cx="870.184" cy="718.643" r="1.27" fill="#fff"/></pattern><clipPath id="clip-path-7"><path d="M1207.679,317.223l-84.34-17.151L1000.06,326.531l67.6,21.382s35.019.215,49.468-7.4,24.729-17.132,43.724-16.114S1203.436,321.057,1207.679,317.223Z" fill="none"/></clipPath><clipPath id="clip-path-8"><path d="M1160.849,324.4c-18.995-1.018-29.274,8.5-43.723,16.114s-49.469,7.4-49.469,7.4l-.879,33.461s32.111-.222,47.141-10.3,30.425-21,47.062-20.391,30.614,3.673,43.164-2.67l3.534-30.79C1203.436,321.057,1179.844,325.422,1160.849,324.4Z" fill="none"/></clipPath><clipPath id="clip-path-9"><path d="M1293.415,338.462s-7.754,10.857-31.758,12.888-50.982,13.833-56.407,31.9l93.709,28.4,68.212-57.525Z" fill="none"/></clipPath><clipPath id="clip-path-10"><path d="M1105.6,530.808c-15.2,1.584-28.429,9.306-44.47,8.111-21.791-1.623-37.845-7.081-59.137,2.662-1.881.861-3.814,1.874-4.946,3.605a10.8,10.8,0,0,0-1.271,6.072c.06,6.479,1.37,13.083,4.781,18.591,7.926,12.8,22.115,11.713,35.146,9.724,12.274-1.873,23.451,3.628,35.452,4.6,13.2,1.071,23.643-4.153,36.257-7.007,11.176-2.529,33.586,3.537,39.24-9.584,8.474-19.666-8.288-31.924-25.674-35.914A46.256,46.256,0,0,0,1105.6,530.808Z" fill="none"/></clipPath></defs><g id="Layer_1" data-name="Layer 1"><g clip-path="url(#clip-path)"><path d="M194.076,592.93c-35.644,3.714-66.651,21.817-104.261,19.015-51.088-3.805-88.727-16.6-138.647,6.243-4.41,2.018-8.941,4.393-11.6,8.451-2.694,4.119-3.024,9.314-2.979,14.236.139,15.19,3.21,30.672,11.209,43.587,18.582,30,51.848,27.46,82.4,22.8,28.778-4.392,54.983,8.5,83.117,10.789,30.942,2.512,55.432-9.736,85.005-16.428,26.2-5.928,78.744,8.293,92-22.468,19.868-46.107-19.43-74.848-60.193-84.2A108.424,108.424,0,0,0,194.076,592.93Z" fill="#f2e6d4" stroke="#16221d" stroke-miterlimit="10" stroke-width="1.378"/><path d="M292.947,639.846s-11.877,43.643-68.825,37.833c-14.01-1.429-27.045-7.555-37.834-16.607-10.59-8.884-28.353-18.972-49.664-12.088A51.13,51.13,0,0,0,114.938,663.2C103.375,675.732,60.7,709-52.2,684.462c0,0,2.888,42.426,9.279,43.815s203.659,13.5,203.659,13.5H331.614Z" fill="#fbc8a2"/></g><path d="M194.076,592.93c-35.644,3.714-66.651,21.817-104.261,19.015-51.088-3.805-88.727-16.6-138.647,6.243-4.41,2.018-8.941,4.393-11.6,8.451-2.694,4.119-3.024,9.314-2.979,14.236.139,15.19,3.21,30.672,11.209,43.587,18.582,30,51.848,27.46,82.4,22.8,28.778-4.392,54.983,8.5,83.117,10.789,30.942,2.512,55.432-9.736,85.005-16.428,26.2-5.928,78.744,8.293,92-22.468,19.868-46.107-19.43-74.848-60.193-84.2A108.424,108.424,0,0,0,194.076,592.93Z" fill="none" stroke="#16221d" stroke-miterlimit="10" stroke-width="1.378"/><path d="M240.882,537.181,150.8,58.619-54.934-4.851C-30.388,192.235,42.69,489.84,54.414,687.711L239.8,536.478" fill="#b05232" stroke="#16221d" stroke-miterlimit="10"/><path d="M1316.609,687.711c11.724-197.871,84.8-495.476,109.348-692.562l-205.736,63.47-90.08,478.562Z" fill="#b05232" stroke="#16221d" stroke-miterlimit="10"/><polygon points="240.83 537.181 1131.562 533.435 1217.257 58.473 150.243 58.473 240.83 537.181" fill="#b05232" stroke="#16221d" stroke-miterlimit="10"/><polygon points="459.027 633.194 927.592 633.194 1131.562 533.435 239.795 536.478 459.027 633.194" fill="#b05232" stroke="#16221d" stroke-linecap="round" stroke-linejoin="round"/><polygon points="141.211 386.368 46.725 417.228 46.725 411.485 123.145 386.506 141.211 386.368" fill="#d3bccb" stroke="#0c0007" stroke-linecap="round" stroke-linejoin="round" stroke-width="1.498"/><polygon points="120.481 169.999 138.707 169.999 141.37 386.316 141.211 386.368 123.145 386.506 120.481 169.999" fill="#7c3b25" stroke="#16221d" stroke-miterlimit="10" stroke-width="1.498"/><g clip-path="url(#clip-path-2)"><polygon points="123.145 383.768 46.725 408.746 46.725 167.26 120.481 167.26 123.145 383.768" fill="#16221d" stroke="#16221d" stroke-miterlimit="10" stroke-width="1.411"/></g><polygon points="123.145 386.506 46.725 411.485 46.725 169.999 120.481 169.999 123.145 386.506" fill="none" stroke="#16221d" stroke-miterlimit="10" stroke-width="1.498"/><g clip-path="url(#clip-path-3)"><path d="M207.862,270.857a7.956,7.956,0,0,1-2.161,2.286c-1.485.9-3.658.934-4.457,2.477-.888,1.716.711,3.991-.24,5.673-.486.859-1.5,1.272-2.142,2.022a3.039,3.039,0,0,0,.97,4.511c.967.454,2.3.478,2.759,1.443a97.216,97.216,0,0,1-13.953,7.363,10.156,10.156,0,0,0,3.156-4.953c.671-1.851,1.212-3.933.443-5.745a7.308,7.308,0,0,0-2.385-2.757,22.751,22.751,0,0,0-8.354-4.088L185.37,266.8c-35.4,5.6-78.439,7.776-78.439,7.776-.483,1.324-7.858,7.359-14.4,9.824a22.313,22.313,0,0,1-14.882.251c-2.05-.843.956-4.353.956-4.353a60.8,60.8,0,0,1-26.342,5.644c-10.941,6.9-23.859,9.273-23.859,9.273l-6.216-3.488-4.557,9.09-26.915,3.608-2.469-3.573-9.705.978-29.443,22.458s1.007,4.83.557,7.622-3.109,6.406-.827,11.195l-8.213,7.112L218.86,319.076l-10.9-48.362Z" fill="#fff" stroke="#16221d" stroke-linecap="round" stroke-linejoin="round" stroke-width="1.5"/><path d="M32.739,301.816A40.252,40.252,0,0,1,50.7,295.159c1.731-.2,3.836-.1,4.729,1.391.6,1,.424,2.339,1.063,3.317.714,1.093,2.188,1.372,3.493,1.372,6.471,0,12.034-4.252,17.423-7.833,6.145-4.084,12.959-7.591,20.316-8.148,4.787-.363,9.609.541,14.39.114a26.132,26.132,0,0,0,13.906-5.583,10.428,10.428,0,0,0,2.83-3.146c1.042-1.966,1.01-4.3.954-6.528a3.258,3.258,0,0,0-.43-1.869,3.218,3.218,0,0,0-2.759-.881A112.559,112.559,0,0,0,108.4,269.59c-21.61,3.933-43.044,8.8-64.665,12.668a40.762,40.762,0,0,0-10,2.656c-3.141,1.448-5.988,3.876-7.157,7.131s-.274,7.356,2.613,9.26a3.307,3.307,0,0,0,2.808.579" fill="#4da58e" stroke="#16221d" stroke-miterlimit="10" stroke-width="1.5"/><path d="M28.081,316.644a17.548,17.548,0,0,0,14.671-3.4c.941-.758,1.88-1.937,1.426-3.056-.189-.465-.595-.82-.765-1.292a2.637,2.637,0,0,1,.988-2.543c2.475-2.507,5.95-3.977,8.015-6.832a1.7,1.7,0,0,0,.4-1.657c-.317-.652-1.221-.692-1.94-.6-7.4.934-13.79,5.555-19.4,10.474a21.689,21.689,0,0,0-4.1,4.389,4.432,4.432,0,0,0-.873,2.711,2.019,2.019,0,0,0,1.824,1.909" fill="#4da58e" stroke="#16221d" stroke-miterlimit="10" stroke-width="1.5"/><path d="M-8.463,315.234c.02.083-2.466,2.753,3.6,2.92s18.543-3.272,17.575-1.05-6.857,5.271-5.646,6.544a8.708,8.708,0,0,0,3.122,1.907l1.241-.3-.845-3s3.892-2.93,3.712-10.355Z" fill="#4da58e" stroke="#16221d" stroke-miterlimit="10" stroke-width="1.5"/><polyline points="12.637 319.625 31.238 317.263 29.061 320.138" fill="none" stroke="#16221d" stroke-linecap="round" stroke-linejoin="round" stroke-width="1.5"/><polyline points="31.238 317.263 32.14 320.248 29.713 322.833 29.061 320.138 10.581 322.256" fill="none" stroke="#16221d" stroke-linecap="round" stroke-linejoin="round" stroke-width="1.5"/><path d="M59.078,290.236s.043,4.166-1.236,5.519-1.457,1.944.955,2.292,11.367.177,15.934-3.852,1.913-4.378.7-5.075-2.547-4.557-2.547-4.557S65.659,283.907,59.078,290.236Z" fill="#fff" stroke="#16221d" stroke-miterlimit="10" stroke-width="1.5"/><path d="M62.931,288.234l6.079-.157s4.073-2.7,3.149-2.862S65.616,285.39,62.931,288.234Z" fill="#16221d" stroke="#16221d" stroke-miterlimit="10" stroke-width="1.5"/><path d="M59.75,290.692s1.267.922,6.126-.573A17.4,17.4,0,0,0,73.32,285.7" fill="none" stroke="#16221d" stroke-miterlimit="10" stroke-width="1.5"/><path d="M189.852,283.177a7.308,7.308,0,0,1,2.385,2.757c.769,1.812.228,3.894-.443,5.745a10.156,10.156,0,0,1-3.156,4.953,97.216,97.216,0,0,0,13.953-7.363c-.458-.965-1.792-.989-2.759-1.443a3.039,3.039,0,0,1-.97-4.511c.643-.75,1.656-1.163,2.142-2.022.951-1.682-.648-3.957.24-5.673.8-1.543,2.972-1.574,4.457-2.477a7.956,7.956,0,0,0,2.161-2.286l.1-.143-1.78-7.9C199.9,264.3,192.8,265.625,185.37,266.8L181.5,279.089A22.751,22.751,0,0,1,189.852,283.177Z" fill="#4da58e" stroke="#16221d" stroke-linecap="round" stroke-linejoin="round" stroke-width="1.5"/><path d="M159.513,261.865c-4.758-1.741-.863-3.568-.863-3.568L26.512,283.09l-4.329,8.637,6.216,3.488s12.918-2.373,23.859-9.273A60.8,60.8,0,0,0,78.6,280.3s-3.006,3.51-.956,4.353a22.313,22.313,0,0,0,14.882-.251c6.547-2.465,13.922-8.5,14.405-9.824,0,0,63.018-3.192,99.254-11.764l-1.857-8.245S164.27,263.606,159.513,261.865Z" fill="#fff" stroke="#16221d" stroke-linecap="round" stroke-linejoin="round" stroke-width="1.5"/><line x1="134.584" y1="285.818" x2="140.775" y2="311.929" fill="#fff" stroke="#16221d" stroke-miterlimit="10" stroke-width="1.5"/><polygon points="-10.977 304.833 -8.463 315.234 28.128 309.875 40.005 299.757 37.353 289.002 -10.977 304.833" fill="#ccc" stroke="#16221d" stroke-miterlimit="10" stroke-width="1.5"/><path d="M1.647,294.422-10.726,303.8a.823.823,0,0,0,.658,1.47L24.406,299.5a3.954,3.954,0,0,0,1.893-.873l10.756-9.082a.823.823,0,0,0-.7-1.439L2.035,294.252A.916.916,0,0,0,1.647,294.422Z" fill="#16221d" stroke="#16221d" stroke-miterlimit="10" stroke-width="1.5"/><path d="M31.67,318.3s6.78-2.353,8.7-5.381,1.176-2.361,1.176-2.361a10.423,10.423,0,0,1-4.25-5.2,7.458,7.458,0,0,0-1.183-2.256l-.013-.018s-3.946-.981-12.407,2.389-9.4,6.426-9.4,6.426-.243,5.511-1.656,7.724l18.6-2.362Z" fill="#fff" stroke="#16221d" stroke-miterlimit="10" stroke-width="1.5"/><path d="M14.293,311.9s-.619,1.6.734,1.962,22.1-2.28,22.164-8.8" fill="none" stroke="#16221d" stroke-miterlimit="10" stroke-width="1.5"/><path d="M15.26,312.584c.559,1.045,3.032.58,5.15.249S34.744,309.339,35.984,306s-4.439-2.541-9.807-.7S14.271,310.733,15.26,312.584Z" fill="#16221d" stroke="#16221d" stroke-miterlimit="10" stroke-width="1.5"/><path d="M36.091,297.8,36.7,304l.751,2.146s3.554.974,8.387-2.6,4.646-6.336,4.646-6.336-3.466-1.716-4.026-3.034-1.193-2.611-2.294-2.184S36.4,295.076,36.091,297.8Z" fill="#fff" stroke="#16221d" stroke-miterlimit="10" stroke-width="1.5"/><path d="M36.952,298.159c.318.364,1.307-.058,2.16-.394s5.667-2.771,5.905-4.226-2.056-.592-4.134.658S36.387,297.513,36.952,298.159Z" fill="#16221d" stroke="#16221d" stroke-miterlimit="10" stroke-width="1.5"/><line x1="25.586" y1="299.857" x2="26.658" y2="304.294" fill="#fff" stroke="#16221d" stroke-miterlimit="10" stroke-width="1.5"/><path d="M24.674,290.2l2.89-6.075,21.017-3.875s2.282,4.91,9.689,4.324,19.588-5.016,19.889-5.43-.508-3.431,2.556-5.376l20.9-3.58,44.749-8.241" fill="none" stroke="#16221d" stroke-miterlimit="10" stroke-width="1.5"/><path d="M176.65,278.443s.266.113.723.322c2.71,1.234,12.146,5.786,12.755,9.589.713,4.445-20.158,16.278-33.175,21.231s-39.68,4.29-46.087,2.185-21.189,1.066-28.343.435-14.789-7.919-3.5-17.516,25.185-8.436,25.185-8.436L165.743,269.2l11.173,9.356" fill="#4da58e" stroke="#16221d" stroke-linecap="round" stroke-linejoin="round" stroke-width="1.5"/><polygon points="185.413 262.866 148.631 262.086 100.053 283.497 134.584 285.818 185.413 262.866" fill="#fff" stroke="#16221d" stroke-linecap="round" stroke-linejoin="round" stroke-width="1.5"/><polygon points="181.495 263.769 148.883 263.131 103.772 282.752 133.997 284.45 181.495 263.769" fill="#16221d" stroke="#16221d" stroke-miterlimit="10" stroke-width="1.5"/><polygon points="134.584 285.818 100.053 283.497 100.053 283.497 105.932 307.822 140.775 311.929 189.208 287.038 185.413 262.866 134.584 285.818" fill="#ccc" stroke="#16221d" stroke-linecap="round" stroke-linejoin="round" stroke-width="1.5"/><path d="M157.271,315.388c-3.692-.656-6.452-8.088-6.452-8.088-6.459-5.459-21.685,2.062-21.685,2.062l-47.507,6.263s-2.067-.786-3.522-1.157-2.609-2.823-2.609-2.823c-1.9-3.877-8.956-7.151-19.86-4.085s-14.055,13.619-14.055,13.619L-1.3,327.156c-1.5.121-6.976-3.279-6.976-3.279s1.8-2.536-7.191-.845c-11.321,2.129-16.4,8.115-16.473,8.6-1.028,6.87.374,7.061-4.774,8.823-2.508.859-6.033,3.948-4.725,7.754h0c1.308,3.807,4.03,3.658,5.608,4.206s7.436-.8,13.99,11.032,1.74,14.914,1.74,14.914c-5.922,4.483-2.858,11.27-2.858,11.27L131.7,382.41c-.38-2.092-.752-5.964,1.31-7.409,2.884-2.022,5.615-6.176,8.519-7.119s18.768-3.09,20.856-1.427,6.839,4.37,9.249,4.872c2.2.457,5.588,4.626,6.575,8.912l1.965-.092c1.756-11.089-12.459-13.52-15.529-15.589s-6.331-14.947-5.779-22.63,12.369-10.3,13.772-10.556,7.584-1.432,7.093-7.917S160.963,316.044,157.271,315.388Z" fill="#ccc" stroke="#16221d" stroke-linecap="round" stroke-linejoin="round" stroke-width="1.5"/><path d="M19.808,387.633c-1.582-5.512-8.417-8.614-12.055-10.706S-.091,368.061-1.463,359.4s1.557-9.009,6.705-13.626c2.86-2.566.73-4.7-1.729-6.1a14.579,14.579,0,0,0-5.946-1.829c-9.537-.819-11.652-8.241-11.652-8.241l-16.571,1.717s1.932,7.493-2.57,9.3-8.453,4.067-6.953,7.449,10.587,2.853,14.089,7.5,13.21,18.474,7.015,23.671c0,0-4.879,1.075-2.666,10.23Z" fill="#16221d" stroke="#16221d" stroke-miterlimit="10" stroke-width="1.5"/><path d="M-12.492,329.217s2.169,5.982,6.765,6.557S5.662,337.539,6.98,341.5s-1.215,6.044-4.507,8.016-4.184,6.613-1.837,13.333,3.094,11.058,9.8,14.376,9.32,5.819,10.466,10.36L46.214,386.4s-2.3-7.213,1.119-10.026,11.3-3.092,10.036-10.557S52.521,348.5,40.015,346.1s-10.834-3.706-11.637-6.283.289-6.032,7.419-8.177,6.225-7.392,5.942-9.56Z" fill="#fff" stroke="#16221d" stroke-linecap="round" stroke-linejoin="round" stroke-width="1.5"/><path d="M43.048,321.765s1.589,7.076-4.423,9.614-11.135,5.351-8.634,9.134S42.167,344.535,46.978,347a21.971,21.971,0,0,1,10.046,12.159c1.455,4.526,3.836,11.136-1.169,13.6s-11.153,3.947-8.628,13.4l55.222-2.38a17.436,17.436,0,0,0-8.8-9.381c-6.9-3.391-10.391-4.114-13.371-13.453s-1.548-16.373,1.475-18.819,10.46-5.568,10.335-7.827-.647-4.421-10.142-6.824S70.4,318.038,70.4,318.038Z" fill="#16221d" stroke="#16221d" stroke-miterlimit="10" stroke-width="1.5"/><path d="M71.887,317.5s2.359,6.754,8.116,8.145,13.59,2.535,13.649,7.447-8.158,8.6-10.9,9.971-4.321,19.326,2.649,25.019S102.029,376,104.023,383.7l26.365-1.231s-1.274-6.649,1.81-8.84,8.4-5.106,6.213-14.664-2.306-18.758-16.662-23.087-3.535-11.632-1.251-13.147,9.183-4.87,7.909-12.633Z" fill="#fff" stroke="#16221d" stroke-miterlimit="10" stroke-width="1.5"/><path d="M-22.964,389.63s-3.064-6.787,2.858-11.27c0,0,4.814-3.083-1.74-14.914s-12.412-10.483-13.99-11.032-4.3-.4-5.608-4.206h0l-18.128,2.026,15.932,40.318L131.7,382.41h0Z" fill="#fff" stroke="#16221d" stroke-linecap="round" stroke-linejoin="round" stroke-width="1.5"/><polygon points="131.701 382.41 154.001 381.369 131.701 382.41 131.701 382.41" fill="none" stroke="#16221d" stroke-miterlimit="10" stroke-width="1.5"/><path d="M218.86,319.076l-39.128,4.379c.491,6.485-5.689,7.658-7.093,7.917s-13.219,2.874-13.772,10.556,2.709,20.561,5.779,22.63,16.432,4.162,15.529,15.589L226.154,378Z" fill="#fff" stroke="#16221d" stroke-miterlimit="10" stroke-width="1.5"/><polygon points="178.21 380.239 180.175 380.147 180.175 380.147 178.21 380.239 178.21 380.239" fill="none" stroke="#16221d" stroke-miterlimit="10" stroke-width="1.5"/><polygon points="154.001 381.369 178.21 380.239 178.21 380.239 154.001 381.369" fill="none" stroke="#16221d" stroke-miterlimit="10" stroke-width="1.5"/><path d="M171.635,371.327c-2.41-.5-7.16-3.208-9.249-4.872s-17.952.484-20.856,1.427-5.635,5.1-8.519,7.119c-2.062,1.445-1.69,5.317-1.31,7.409l22.3-1.041,24.209-1.13C177.223,375.953,173.831,371.784,171.635,371.327Z" fill="#16221d" stroke="#16221d" stroke-miterlimit="10" stroke-width="1.5"/><path d="M43.288,320.766l27.925-3.829s3.517-4.171,2.322-6.344-9.244-6.069-19.415-1.567S43.288,320.766,43.288,320.766Z" fill="#16221d" stroke="#16221d" stroke-miterlimit="10" stroke-width="1.5"/><g clip-path="url(#clip-path-4)"><line x1="-23.169" y1="329.163" x2="0.072" y2="390.927" fill="none" stroke="#fff" stroke-miterlimit="10" stroke-width="1.5"/><line x1="-15.724" y1="327.882" x2="6.83" y2="389.813" fill="none" stroke="#fff" stroke-miterlimit="10" stroke-width="1.5"/><line x1="-8.047" y1="326.027" x2="14.507" y2="387.957" fill="none" stroke="#fff" stroke-miterlimit="10" stroke-width="1.5"/><line x1="22.568" y1="382.503" x2="-33.322" y2="386.175" fill="none" stroke="#fff" stroke-miterlimit="10" stroke-width="1.5"/><line x1="20.9" y1="375.12" x2="-34.991" y2="378.791" fill="none" stroke="#fff" stroke-miterlimit="10" stroke-width="1.5"/><line x1="19.231" y1="367.736" x2="-36.659" y2="371.407" fill="none" stroke="#fff" stroke-miterlimit="10" stroke-width="1.5"/><line x1="17.563" y1="360.352" x2="-38.328" y2="364.023" fill="none" stroke="#fff" stroke-miterlimit="10" stroke-width="1.5"/><line x1="15.894" y1="352.968" x2="-39.996" y2="356.64" fill="none" stroke="#fff" stroke-miterlimit="10" stroke-width="1.5"/><line x1="14.226" y1="345.585" x2="-41.664" y2="349.256" fill="none" stroke="#fff" stroke-miterlimit="10" stroke-width="1.5"/><line x1="12.557" y1="338.201" x2="-43.333" y2="341.872" fill="none" stroke="#fff" stroke-miterlimit="10" stroke-width="1.5"/><line x1="10.889" y1="330.817" x2="-45.001" y2="334.488" fill="none" stroke="#fff" stroke-miterlimit="10" stroke-width="1.5"/></g><g clip-path="url(#clip-path-5)"><line x1="104.321" y1="375.015" x2="36.32" y2="379.823" fill="none" stroke="#fff" stroke-miterlimit="10" stroke-width="1.5"/><line x1="102.344" y1="366.263" x2="34.342" y2="371.071" fill="none" stroke="#fff" stroke-miterlimit="10" stroke-width="1.5"/><line x1="100.366" y1="357.511" x2="32.365" y2="362.318" fill="none" stroke="#fff" stroke-miterlimit="10" stroke-width="1.5"/><line x1="98.388" y1="348.758" x2="30.387" y2="353.566" fill="none" stroke="#fff" stroke-miterlimit="10" stroke-width="1.5"/><line x1="96.411" y1="340.006" x2="28.409" y2="344.814" fill="none" stroke="#fff" stroke-miterlimit="10" stroke-width="1.5"/><line x1="94.433" y1="331.254" x2="26.432" y2="336.061" fill="none" stroke="#fff" stroke-miterlimit="10" stroke-width="1.5"/><line x1="92.455" y1="322.501" x2="24.454" y2="327.309" fill="none" stroke="#fff" stroke-miterlimit="10" stroke-width="1.5"/><line x1="25.739" y1="320.58" x2="47.387" y2="393.046" fill="none" stroke="#fff" stroke-miterlimit="10" stroke-width="1.5"/><line x1="34.155" y1="319.245" x2="55.802" y2="391.711" fill="none" stroke="#fff" stroke-miterlimit="10" stroke-width="1.5"/><line x1="43.38" y1="319.634" x2="65.028" y2="392.1" fill="none" stroke="#fff" stroke-miterlimit="10" stroke-width="1.5"/><line x1="52.606" y1="320.023" x2="74.253" y2="392.489" fill="none" stroke="#fff" stroke-miterlimit="10" stroke-width="1.5"/><line x1="61.832" y1="320.412" x2="83.479" y2="392.878" fill="none" stroke="#fff" stroke-miterlimit="10" stroke-width="1.5"/><line x1="71.057" y1="320.801" x2="92.705" y2="393.267" fill="none" stroke="#fff" stroke-miterlimit="10" stroke-width="1.5"/><line x1="80.283" y1="321.19" x2="101.93" y2="393.656" fill="none" stroke="#fff" stroke-miterlimit="10" stroke-width="1.5"/></g><g clip-path="url(#clip-path-6)"><line x1="134.231" y1="365.593" x2="138.019" y2="387.246" fill="none" stroke="#fff" stroke-miterlimit="10" stroke-width="1.5"/><line x1="143.837" y1="364.214" x2="147.625" y2="385.867" fill="none" stroke="#fff" stroke-miterlimit="10" stroke-width="1.5"/><line x1="154.152" y1="362.796" x2="157.94" y2="384.449" fill="none" stroke="#fff" stroke-miterlimit="10" stroke-width="1.5"/><line x1="164.934" y1="361.541" x2="168.722" y2="383.194" fill="none" stroke="#fff" stroke-miterlimit="10" stroke-width="1.5"/><line x1="130.595" y1="375.645" x2="182.287" y2="371.462" fill="none" stroke="#fff" stroke-miterlimit="10" stroke-width="1.5"/></g><path d="M201.056,276.117s-.732,2.747,8.771,2.86" fill="none" stroke="#16221d" stroke-linecap="round" stroke-linejoin="round" stroke-width="1.5"/><path d="M208.293,271.531a9.7,9.7,0,0,1-3.99,3.2c-2.622,1.116-2.507,1.924.314,2.631a16.6,16.6,0,0,0,5.074.492Z" fill="#16221d" stroke="#16221d" stroke-linecap="round" stroke-linejoin="round" stroke-width="1.5"/><path d="M179.732,323.455s4.378-12.122,33.85-15.551l2.768,11.453Z" fill="#4da58e" stroke="#16221d" stroke-linecap="round" stroke-linejoin="round" stroke-width="1.5"/><line x1="135.031" y1="286.173" x2="139.891" y2="306.28" fill="none" stroke="#16221d" stroke-linecap="round" stroke-linejoin="round" stroke-width="1.5"/><path d="M178.809,321.312s9.022-13.66,35.825-14.838l3.077,12.73" fill="none" stroke="#16221d" stroke-linecap="round" stroke-linejoin="round" stroke-width="1.5"/><path d="M153.359,312.191s1.219,3.068,9.39-.032,28.5-16.691,28.5-16.691" fill="none" stroke="#16221d" stroke-linecap="round" stroke-linejoin="round" stroke-width="1.5"/><path d="M205.91,325.15c-1.473,14.907-8,29.17-17.423,40.869-2.012,2.5-4.154,4.884-6.4,7.165a10.874,10.874,0,0,1,.989,3l39.28-1.834-6.232-50.34Z" fill="#ccc"/></g><polygon points="1093.634 329.146 267.93 329.146 225.867 95.037 1141.633 100.343 1093.634 329.146" fill="#16221d"/><polygon points="1093.634 329.146 267.93 329.146 225.867 95.037 1141.633 100.343 1093.634 329.146" stroke-miterlimit="10" stroke-width="0.745" opacity="0.5" fill="url(#新增圖樣色票_2)" stroke="url(#新增圖樣色票_2-3)"/><polygon points="1136.816 114.948 230.821 114.948 225.867 96.398 1140.605 96.398 1136.816 114.948" fill="#5e2a15" stroke="#16221d" stroke-linecap="round" stroke-linejoin="round" stroke-width="1.5"/><path d="M579.153,693.272v6.745S710.178,654.641,718.042,652.3s103.24-37.944,103.24-37.944L695.721,579.626,447.3,622.794l32.53,24.329Z" fill="#16221d"/><path d="M579.153,693.272s105.323-36.165,129.624-41.714,51.972-14.329,62.26-19.429,50.516-19.461,50.516-19.461l-.271,1.693-46.52,20.62L640.445,685.54,579.49,707.533Z" fill="#fff" stroke="#16221d" stroke-miterlimit="10" stroke-width="1.5"/><path d="M479.331,626.838v6.312a46.314,46.314,0,0,0,42.123,9.332s-17.9-13.679-18.348-13.679S479.331,626.838,479.331,626.838Z" fill="#fff" stroke="#16221d" stroke-linecap="round" stroke-linejoin="round" stroke-width="1.5"/><path d="M752.748,614.678v10.763s-28.256,27.142-71.834,15.915c0,0,30.534-23.326,31.29-23.326S752.748,614.678,752.748,614.678Z" fill="#fff" stroke="#16221d" stroke-linecap="round" stroke-linejoin="round" stroke-width="1.5"/><path d="M812.37,597.806v9.326s-24.483,23.517-62.241,13.79c0,0,26.456-20.212,27.112-20.212S812.37,597.806,812.37,597.806Z" fill="#bdb0ae" stroke="#16221d" stroke-linecap="round" stroke-linejoin="round" stroke-width="1.5"/><path d="M660.53,630.647l-63.857,2.5,14.135,21.86c-9.824-7.439-21.655-16.319-22.15-16.319-.853,0-45.7-3.778-45.7-3.778v22.094s29.19,22.625,75.4,9.682l0,0s36.314-8.413,39.685-12.154S660.53,630.647,660.53,630.647Z" fill="#fff" stroke="#16221d" stroke-linecap="round" stroke-linejoin="round" stroke-width="1.5"/><path d="M464.75,641.474q-8.088-4.874-16.4-9.358l-.055-5.278,16.456,8.62.083,5.881" fill="#bdb0ae" stroke="#16221d" stroke-linecap="round" stroke-linejoin="round" stroke-width="1.5"/><path d="M447.3,622.794v4.044l17.536,10.071v4.43l25.629,15.753v-3.613s15.176,4.721,19.9,8.094,68.794,38.444,68.794,38.444v-6.745s-78.237-42.491-86.33-43.5-12.815-1.686-17.873-9.105S447.3,622.794,447.3,622.794Z" fill="#fff" stroke="#16221d" stroke-linecap="round" stroke-linejoin="round" stroke-width="1.5"/><path d="M520.977,632.129c39.511-8.558,76.28-21.919,114.01-30.509,10.884-2.478,21.908-10.013,31.8-15.192,9.018-4.724,16.5-11.441,26.651-12.36" fill="none" stroke="#16221d" stroke-miterlimit="10" stroke-width="1.5"/><path d="M476.011,615.057c13.06-5.062,28.376-13.038,39.454-21.608,4.535-3.508,8.94-7.333,14.2-9.622" fill="none" stroke="#16221d" stroke-miterlimit="10" stroke-width="1.5"/><path d="M579.153,701.542v10.117" fill="none" stroke="#fff" stroke-miterlimit="10" stroke-width="1.5"/><path d="M577.467,653.859,444.121,603.268c.105,3.033.389,10.936.809,11.732.587,1.111,14.575,10.875,23.627,10.97,12.11.128,20.2,2.789,28.075,5.716,14.594,5.426,72.4,33.394,80.488,35.008l.4-.129v-12.72Z" fill="#fff" stroke="#16221d" stroke-linecap="round" stroke-linejoin="round" stroke-width="1.5"/><path d="M444.121,605.967l29.362,11.84v3.616s-7.716.822-9.312,0-19.534-8.249-19.534-8.249Z" fill="#16221d"/><path d="M684.368,629.239c-8.094,3.707-16.187,25.969-21.245,32.039s-6.408,3.373-14.164-4.143-12.815-12.718-17.873-14.741c-4.968-1.988-51.9,10.99-53.569,11.451v12.72c4.542-1.475,51.151-15.854,54.7-14.614,10.136,3.548,19.878,22.086,26.614,19.726s22.772-32.791,28.842-35.069,108.024-15.3,133.95-31.662l2.7-10.53S692.461,625.532,684.368,629.239Z" fill="#bdb0ae" stroke="#16221d" stroke-linecap="round" stroke-linejoin="round" stroke-width="1.5"/><line x1="573.739" y1="652.445" x2="573.739" y2="664.617" fill="none" stroke="#16221d" stroke-linecap="round" stroke-linejoin="round" stroke-width="1.5"/><line x1="568.877" y1="650.671" x2="568.877" y2="662.843" fill="none" stroke="#16221d" stroke-linecap="round" stroke-linejoin="round" stroke-width="1.5"/><line x1="564.016" y1="648.897" x2="564.016" y2="661.069" fill="none" stroke="#16221d" stroke-linecap="round" stroke-linejoin="round" stroke-width="1.5"/><line x1="559.155" y1="647.123" x2="559.155" y2="659.295" fill="none" stroke="#16221d" stroke-linecap="round" stroke-linejoin="round" stroke-width="1.5"/><line x1="554.293" y1="645.35" x2="554.293" y2="657.007" fill="none" stroke="#16221d" stroke-linecap="round" stroke-linejoin="round" stroke-width="1.5"/><line x1="549.757" y1="643.576" x2="549.757" y2="654.983" fill="none" stroke="#16221d" stroke-linecap="round" stroke-linejoin="round" stroke-width="1.5"/><line x1="545.545" y1="641.802" x2="545.545" y2="653.209" fill="none" stroke="#16221d" stroke-linecap="round" stroke-linejoin="round" stroke-width="1.5"/><line x1="541.333" y1="640.466" x2="541.333" y2="651.436" fill="none" stroke="#16221d" stroke-linecap="round" stroke-linejoin="round" stroke-width="1.5"/><line x1="537.122" y1="638.737" x2="537.122" y2="649.662" fill="none" stroke="#16221d" stroke-linecap="round" stroke-linejoin="round" stroke-width="1.5"/><line x1="532.339" y1="637.052" x2="532.339" y2="647.506" fill="none" stroke="#16221d" stroke-linecap="round" stroke-linejoin="round" stroke-width="1.5"/><line x1="527.53" y1="634.913" x2="527.53" y2="644.779" fill="none" stroke="#16221d" stroke-linecap="round" stroke-linejoin="round" stroke-width="1.5"/><line x1="522.721" y1="633.379" x2="522.721" y2="642.96" fill="none" stroke="#16221d" stroke-linecap="round" stroke-linejoin="round" stroke-width="1.5"/><line x1="581.195" y1="652.952" x2="581.195" y2="665.504" fill="none" stroke="#16221d" stroke-linecap="round" stroke-linejoin="round" stroke-width="1.5"/><line x1="586.057" y1="651.581" x2="586.057" y2="663.73" fill="none" stroke="#16221d" stroke-linecap="round" stroke-linejoin="round" stroke-width="1.5"/><line x1="590.918" y1="650.251" x2="590.918" y2="661.956" fill="none" stroke="#16221d" stroke-linecap="round" stroke-linejoin="round" stroke-width="1.5"/><line x1="595.796" y1="649.265" x2="595.796" y2="661.108" fill="none" stroke="#16221d" stroke-linecap="round" stroke-linejoin="round" stroke-width="1.5"/><line x1="600.657" y1="647.972" x2="600.657" y2="659.434" fill="none" stroke="#16221d" stroke-linecap="round" stroke-linejoin="round" stroke-width="1.5"/><line x1="605.611" y1="646.741" x2="605.611" y2="658.18" fill="none" stroke="#16221d" stroke-linecap="round" stroke-linejoin="round" stroke-width="1.5"/><line x1="610.473" y1="645.447" x2="610.473" y2="656.297" fill="none" stroke="#16221d" stroke-linecap="round" stroke-linejoin="round" stroke-width="1.5"/><line x1="615.334" y1="644.579" x2="615.334" y2="655.236" fill="none" stroke="#16221d" stroke-linecap="round" stroke-linejoin="round" stroke-width="1.5"/><line x1="620.148" y1="643.942" x2="620.148" y2="654.009" fill="none" stroke="#16221d" stroke-linecap="round" stroke-linejoin="round" stroke-width="1.5"/><line x1="625.01" y1="642.997" x2="625.01" y2="653.209" fill="none" stroke="#16221d" stroke-linecap="round" stroke-linejoin="round" stroke-width="1.5"/><path d="M644.921,610.356l15.7,6.4s19.523-4.719,19.562-4.808-14.95-7.627-14.95-7.627Z" fill="#16221d"/><path d="M620.974,632.129c-9.827,6.058.614,10.428,1.569,10.808,4.276-.731,7.441-1.027,8.543-.586,5.058,2.023,10.117,7.226,17.873,14.741s9.105,10.213,14.163,4.143S676.275,632.9,684.368,629.2a65.085,65.085,0,0,1,6.683-2.1C667.372,620.651,631.251,625.795,620.974,632.129Z" fill="#fff" stroke="#16221d" stroke-linecap="round" stroke-linejoin="round" stroke-width="1.5"/><path d="M770.024,588.732c-22.932-7.082-49.91-16.524-66.1-12.815,0,0-36.083-9.78-77.9,6.745,0,0-21.246,5.395-43.84,3.372s-46.537-7.756-68.457,2.7-69.61,14.493-69.61,14.493l133.346,50.591s29.714-8.253,45.076-10.879c-.955-.38-11.4-4.75-1.569-10.808,10.277-6.334,46.4-11.478,70.077-5.034,28.476-7.993,133.266-32.722,133.266-32.722S792.955,595.813,770.024,588.732Z" fill="#fff" stroke="#16221d" stroke-linecap="round" stroke-linejoin="round" stroke-width="1.5"/><path d="M518.873,630.647l21.594,9.174s126.353-27.715,138.508-34.458c11.963-6.635,30.847-21.179,47.393-18.9.267.036.533.078.8.123,16.734,2.871-18.125-12.784-27.809-8.147C658.909,597.806,594.615,624.28,518.873,630.647Z" fill="#ccc"/><path d="M465.683,610.707l21.594,9.174s13.116-.3,51.835-26.8c.223-.152,45.935-5.925,46.2-5.88,16.733,2.871-30.272-4.81-36.751-3.15C502.47,595.859,525.78,603.268,465.683,610.707Z" fill="#ccc"/><line x1="542.794" y1="640.466" x2="653.658" y2="613.921" fill="none" stroke="#16221d" stroke-miterlimit="10" stroke-width="1.5"/><path d="M766.346,587.631c-22.083-6.9-47.089-15.184-62.419-11.671,0,0-1.623-.439-4.57-.973,0,0,24.5,5.481,31.016,10.8C730.373,585.789,754.411,590.064,766.346,587.631Z" fill="#ccc" opacity="0.5"/><path d="M673.336,608.418c-.14-.071,19.255-9.991,26.572-15.312s20.968-8.123,31.3-5.924" fill="none" stroke="#16221d" stroke-linecap="round" stroke-miterlimit="10" stroke-width="1.5"/><path d="M610.083,613.921c.16-.062,6.28,2.839,6.28,2.839l5.144-.551-5.712-3.167Z" fill="#16221d"/><path d="M614.252,596.892c.159-.061,6.279,2.84,6.279,2.84l5.024-.9a.6.6,0,0,0,.186-1.116l-4.039-2.24a.6.6,0,0,0-.414-.062Z" fill="#16221d"/><path d="M636.59,618.008c.161-.039,7.377,5.43,7.377,5.43l.333-3.795-3.222-2.71Z" fill="#16221d"/><path d="M599.6,604.857l6.649,4.107-4.718,1.32-1.26-.79a3.074,3.074,0,0,1-.671-4.637Z" fill="#16221d"/><path d="M503.106,625.167s34.944-9.331,49.311-17.747,69.09-14.988,80.353-18.172c3.893-1.1,26.539-15.141,29.107-15.394" fill="none" stroke="#16221d" stroke-linecap="round" stroke-miterlimit="10" stroke-width="1.5"/><path d="M517.518,613.878l12.144,5.765s2.981,1.827,13.777-2.71,30.3-10.966,30.3-10.966L556.724,595.4S550.377,595.937,517.518,613.878Z" fill="#bdb0ae" stroke="#16221d" stroke-miterlimit="10"/><path d="M520.317,613.5l10.15,4.819s4.308.894,13.332-2.9,27.465-9.74,27.465-9.74L556.3,596.432S547.781,598.5,520.317,613.5Z" fill="#16221d" stroke="#16221d" stroke-miterlimit="10"/><path d="M487.253,619.58s15-2.4,23.566-8.581,21.466-18.425,39.558-20.753,44.3-3.773,44.3-3.773" fill="none" stroke="#16221d" stroke-linecap="round" stroke-miterlimit="10" stroke-width="1.5"/><polygon points="593.414 592.432 599.145 595.403 606.249 594.166 600.664 591.576 593.414 592.432" fill="#16221d"/><path d="M464.547,611.017s20.821-3.388,38.559-18.233" fill="none" stroke="#16221d" stroke-miterlimit="10" stroke-width="1.5"/><polygon points="713.034 588.804 720.041 595.403 725.894 594.416 717.557 587.829 713.034 588.804" fill="#16221d"/><path d="M823.392,598.024l-.28.072L746.071,617.85v3.459s21.153-1.409,23.414-2.5,44.322-10.715,52.293-14.484" fill="#16221d"/><path d="M689.531,589.381l7.563,5.631-5.963,3.609S683.412,592.042,689.531,589.381Z" fill="#16221d"/><path d="M750.129,582.609s-5.166-1.7-9.867.519a28,28,0,0,1-10.527,2.18" fill="none" stroke="#16221d" stroke-miterlimit="10" stroke-width="1.5"/><path d="M703.927,575.96s17.881,5.286,25.808,9.348" fill="none" stroke="#16221d" stroke-miterlimit="10" stroke-width="1.5"/><g opacity="0.5"><path d="M666.221,624.132a20.8,20.8,0,0,0-1.546,2.134c-2.808,4.479-4,9.927-7.4,13.978a3.989,3.989,0,0,1-2.667,1.687,4.657,4.657,0,0,1-3.022-1.526c-6.051-5.228-12.952-9.716-20.514-12.165a40.235,40.235,0,0,0-10.1,3.889c-9.827,6.058.614,10.428,1.569,10.808,4.276-.731,7.441-1.027,8.543-.586,5.058,2.023,10.117,7.226,17.873,14.741s9.105,10.213,14.163,4.143S676.275,632.9,684.368,629.2a65.085,65.085,0,0,1,6.683-2.1A99.391,99.391,0,0,0,666.221,624.132Z" fill="#ccc"/></g><path d="M620.974,632.129c-9.827,6.058.614,10.428,1.569,10.808,4.276-.731,7.441-1.027,8.543-.586,5.058,2.023,10.117,7.226,17.873,14.741s9.105,10.213,14.163,4.143S676.275,632.9,684.368,629.2a65.085,65.085,0,0,1,6.683-2.1C667.372,620.651,631.251,625.795,620.974,632.129Z" fill="none" stroke="#16221d" stroke-linecap="round" stroke-linejoin="round" stroke-width="1.5"/><path d="M821.282,614.361s-61.375,24.28-68.794,27.315c-3.308,1.353-17.405,5.574-32.492,10.05v6.237l99.6-38.334Z" fill="#fff" stroke="#16221d" stroke-miterlimit="10" stroke-width="1.5"/><path d="M677.961,664.574c-5.4,2.394-98.808,35.442-98.808,35.442s-75.2-45.076-84.419-47.1-3.444,4.668-3.444,4.668c16.934,10.295,33.963,20.431,50.943,30.649,12.5,7.522,25.007,15.112,36.5,24.1L720,657.963v-6.237C701.239,657.29,680.951,663.247,677.961,664.574Z" fill="#bdb0ae" stroke="#16221d" stroke-linecap="round" stroke-linejoin="round" stroke-width="1.5"/><path d="M1066.778,381.374l-.31,11.8s32.353-2.927,48.318-9.375,23.784-16.544,54.122-14.63,48.849,16.172,48.849,16.172l-.606-22.666L1103,354.917Z" fill="#16221d" stroke="#16221d" stroke-miterlimit="10"/><path d="M1071.267,381.222l-.1,3.836,5.078,1.936s18.758-1.674,29.869-6.35,27.536-15.576,43.7-16.7,29.974-3.847,61.335,11.4l15.435-12.422-106.811-18.746Z" fill="#bdb0ae" stroke="#16221d" stroke-miterlimit="10"/><path d="M1072.265,381.168l4.09,1.623s20.822-1.82,27.768-4.832,43.378-25.82,79.547-16.162,48.747,20.976,48.747,20.976l60.605-29.379-128.237-23.533Z" fill="#fff" stroke="#16221d" stroke-miterlimit="10"/><path d="M1207.679,317.223l-84.34-17.151L1000.06,326.531l67.6,21.382s35.019.215,49.468-7.4,24.729-17.132,43.724-16.114S1203.436,321.057,1207.679,317.223Z" fill="#fff" stroke="#16221d" stroke-miterlimit="10"/><g clip-path="url(#clip-path-7)"><line x1="1008.779" y1="324.602" x2="1091.406" y2="350.007" fill="none" stroke="#16221d" stroke-miterlimit="10"/><line x1="1016.051" y1="322.927" x2="1099.065" y2="347.93" fill="none" stroke="#16221d" stroke-miterlimit="10"/><line x1="1023.322" y1="321.251" x2="1106.724" y2="345.852" fill="none" stroke="#16221d" stroke-miterlimit="10"/><line x1="1030.594" y1="319.576" x2="1114.384" y2="343.775" fill="none" stroke="#16221d" stroke-miterlimit="10"/><line x1="1037.865" y1="317.9" x2="1122.043" y2="341.698" fill="none" stroke="#16221d" stroke-miterlimit="10"/><line x1="1045.137" y1="316.225" x2="1129.702" y2="339.621" fill="none" stroke="#16221d" stroke-miterlimit="10"/><line x1="1052.408" y1="314.549" x2="1137.361" y2="337.544" fill="none" stroke="#16221d" stroke-miterlimit="10"/><line x1="1059.68" y1="312.874" x2="1145.02" y2="335.467" fill="none" stroke="#16221d" stroke-miterlimit="10"/><line x1="1066.951" y1="311.198" x2="1152.679" y2="333.389" fill="none" stroke="#16221d" stroke-miterlimit="10"/><line x1="1074.223" y1="309.523" x2="1160.339" y2="331.312" fill="none" stroke="#16221d" stroke-miterlimit="10"/><line x1="1081.495" y1="307.847" x2="1167.998" y2="329.235" fill="none" stroke="#16221d" stroke-miterlimit="10"/><line x1="1088.766" y1="306.172" x2="1175.657" y2="327.158" fill="none" stroke="#16221d" stroke-miterlimit="10"/><line x1="1096.038" y1="304.496" x2="1183.316" y2="325.081" fill="none" stroke="#16221d" stroke-miterlimit="10"/><line x1="1103.309" y1="302.82" x2="1190.975" y2="323.004" fill="none" stroke="#16221d" stroke-miterlimit="10"/><line x1="1110.581" y1="301.145" x2="1198.634" y2="320.927" fill="none" stroke="#16221d" stroke-miterlimit="10"/><line x1="1117.852" y1="299.469" x2="1206.294" y2="318.849" fill="none" stroke="#16221d" stroke-miterlimit="10"/></g><path d="M1160.849,324.4c-18.995-1.018-29.274,8.5-43.723,16.114s-49.469,7.4-49.469,7.4l-.879,33.461s32.111-.222,47.141-10.3,30.425-21,47.062-20.391,30.614,3.673,43.164-2.67l3.534-30.79C1203.436,321.057,1179.844,325.422,1160.849,324.4Z" fill="#bdb0ae" stroke="#16221d" stroke-miterlimit="10"/><g clip-path="url(#clip-path-8)"><line x1="1075.594" y1="347.461" x2="1074.444" y2="391.225" fill="none" stroke="#16221d" stroke-miterlimit="10"/><line x1="1081.925" y1="345.394" x2="1080.759" y2="388.34" fill="none" stroke="#16221d" stroke-miterlimit="10"/><line x1="1088.256" y1="343.328" x2="1087.074" y2="385.455" fill="none" stroke="#16221d" stroke-miterlimit="10"/><line x1="1094.587" y1="341.261" x2="1093.39" y2="382.569" fill="none" stroke="#16221d" stroke-miterlimit="10"/><line x1="1100.918" y1="339.194" x2="1099.705" y2="379.684" fill="none" stroke="#16221d" stroke-miterlimit="10"/><line x1="1107.249" y1="337.127" x2="1106.02" y2="376.799" fill="none" stroke="#16221d" stroke-miterlimit="10"/><line x1="1113.58" y1="335.06" x2="1112.335" y2="373.914" fill="none" stroke="#16221d" stroke-miterlimit="10"/><line x1="1119.911" y1="332.994" x2="1118.65" y2="371.029" fill="none" stroke="#16221d" stroke-miterlimit="10"/><line x1="1126.242" y1="330.927" x2="1124.966" y2="368.143" fill="none" stroke="#16221d" stroke-miterlimit="10"/><line x1="1132.573" y1="328.86" x2="1131.281" y2="365.258" fill="none" stroke="#16221d" stroke-miterlimit="10"/><line x1="1138.904" y1="326.793" x2="1137.596" y2="362.373" fill="none" stroke="#16221d" stroke-miterlimit="10"/><line x1="1145.063" y1="325.262" x2="1143.646" y2="360.518" fill="none" stroke="#16221d" stroke-miterlimit="10"/><line x1="1151.048" y1="324.267" x2="1149.432" y2="359.694" fill="none" stroke="#16221d" stroke-miterlimit="10"/><line x1="1157.034" y1="323.271" x2="1155.217" y2="358.87" fill="none" stroke="#16221d" stroke-miterlimit="10"/><line x1="1163.02" y1="322.276" x2="1161.002" y2="358.045" fill="none" stroke="#16221d" stroke-miterlimit="10"/><line x1="1169.005" y1="321.28" x2="1166.788" y2="357.221" fill="none" stroke="#16221d" stroke-miterlimit="10"/><line x1="1174.991" y1="320.285" x2="1172.573" y2="356.397" fill="none" stroke="#16221d" stroke-miterlimit="10"/><line x1="1180.976" y1="319.289" x2="1178.359" y2="355.573" fill="none" stroke="#16221d" stroke-miterlimit="10"/><line x1="1186.962" y1="318.294" x2="1184.144" y2="354.748" fill="none" stroke="#16221d" stroke-miterlimit="10"/><line x1="1192.947" y1="317.298" x2="1189.929" y2="353.924" fill="none" stroke="#16221d" stroke-miterlimit="10"/><line x1="1198.933" y1="316.303" x2="1195.715" y2="353.1" fill="none" stroke="#16221d" stroke-miterlimit="10"/><line x1="1204.919" y1="315.308" x2="1201.5" y2="352.276" fill="none" stroke="#16221d" stroke-miterlimit="10"/></g><polygon points="1000.06 326.531 1006.508 368.611 1066.468 393.176 1067.657 347.913 1000.06 326.531" fill="#fff" stroke="#16221d" stroke-linecap="round" stroke-linejoin="round"/><path d="M1044.188,345.12l-4.647,1.662-26.106-9.271s3.006-.956,4.923-1.563l-1.7-.566c-.519.158-7.271,2.3-7.271,2.3l29.426,10.451,7.059-2.46Z" fill="#b05232" stroke="#16221d" stroke-miterlimit="10"/><path d="M1009.381,337.686l4.708,36.429s28.508,12.768,28.526,12.081-3.807-38.059-3.807-38.059Z" fill="#b05232" stroke="#16221d" stroke-miterlimit="10"/><polygon points="1038.808 348.137 1042.617 386.11 1048.485 383.303 1045.867 345.677 1038.808 348.137" fill="#8e452d" stroke="#16221d" stroke-miterlimit="10"/><polygon points="1014.431 343.972 1014.824 346.171 1023.947 349.373 1024.002 347.249 1014.431 343.972" fill="#16221d" stroke="#16221d" stroke-miterlimit="10"/><polygon points="1032.732 353.129 1033.011 355.325 1039.493 358.007 1039.549 355.883 1032.732 353.129" fill="#16221d" stroke="#16221d" stroke-miterlimit="10"/><polygon points="1018.972 354.907 1019.514 361.231 1022.509 362.404 1022.042 355.703 1018.972 354.907" fill="#16221d" stroke="#16221d" stroke-miterlimit="10"/><polygon points="1032.88 374.459 1032.956 382.408 1034.385 383.018 1034.284 374.946 1032.88 374.459" fill="#16221d" stroke="#16221d" stroke-miterlimit="10"/><polygon points="1034.869 326.642 1073.043 338.027 1162.759 314.88 1120.092 306.298 1034.869 326.642" fill="#8e452d" stroke="#16221d" stroke-miterlimit="10"/><polygon points="1045.693 326.197 1076.811 335.116 1151.605 315.939 1116.944 309.226 1045.693 326.197" fill="#fff" stroke="#16221d" stroke-miterlimit="10"/><polygon points="1180.226 356.609 1160.981 350.683 1162.38 329.287 1180.829 333.688 1180.226 356.609" fill="#8e452d" stroke="#16221d" stroke-miterlimit="10"/><path d="M1162.38,329.287s24.028,1.146,39.232-2.5l5.168-1.722-25.951,8.628Z" fill="#fff" stroke="#16221d" stroke-miterlimit="10"/><polygon points="1180.829 333.688 1180.226 356.609 1208.695 347.984 1206.78 325.06 1180.829 333.688" fill="#8e452d" stroke="#16221d" stroke-linecap="round" stroke-linejoin="round"/><path d="M1189.041,331.5l-.55,20.931,28.726,7.708.584-22.218Z" fill="#8e452d" stroke="#16221d" stroke-miterlimit="10"/><path d="M1189.041,331.5l-.55,20.931,28.726,7.708.584-22.218Z" fill="#8e452d" stroke="#16221d" stroke-miterlimit="10"/><path d="M1241.588,327.833l-.557,21.173-23.814,11.134.584-22.218Z" fill="#8e452d" stroke="#16221d" stroke-linecap="round" stroke-linejoin="round"/><path d="M1238.914,331.586l-.43,16.347-18.6,8.7.456-17.352Z" fill="#16221d" stroke="#16221d" stroke-miterlimit="10"/><path d="M1189.041,331.5c-.027,1.029,27.2-9.415,27.2-9.415l25.345,5.747L1217.8,337.922Z" fill="#b05232" stroke="#16221d" stroke-linecap="round" stroke-linejoin="round"/><path d="M1193.856,331.218c-.022.841,22.216-7.688,22.216-7.688l20.7,4.693-19.426,8.24Z" fill="#bdb0ae" stroke="#16221d" stroke-miterlimit="10"/><polygon points="1205.25 383.25 1210.445 438.165 1289.994 468.584 1298.959 411.649 1205.25 383.25" fill="#fff" stroke="#16221d" stroke-miterlimit="10"/><polygon points="1298.959 411.649 1289.994 468.584 1358.779 399.057 1367.171 354.124 1298.959 411.649" fill="#bdb0ae" stroke="#16221d" stroke-miterlimit="10"/><line x1="1303.028" y1="408.217" x2="1293.717" y2="464.821" fill="none" stroke="#16221d" stroke-miterlimit="10"/><line x1="1308.848" y1="403.309" x2="1299.531" y2="458.944" fill="none" stroke="#16221d" stroke-miterlimit="10"/><line x1="1314.667" y1="398.402" x2="1305.345" y2="453.068" fill="none" stroke="#16221d" stroke-miterlimit="10"/><line x1="1320.486" y1="393.494" x2="1311.159" y2="447.191" fill="none" stroke="#16221d" stroke-miterlimit="10"/><line x1="1326.305" y1="388.587" x2="1316.973" y2="441.314" fill="none" stroke="#16221d" stroke-miterlimit="10"/><line x1="1332.124" y1="383.68" x2="1322.787" y2="435.437" fill="none" stroke="#16221d" stroke-miterlimit="10"/><line x1="1337.943" y1="378.772" x2="1328.601" y2="429.561" fill="none" stroke="#16221d" stroke-miterlimit="10"/><line x1="1343.763" y1="373.865" x2="1334.415" y2="423.684" fill="none" stroke="#16221d" stroke-miterlimit="10"/><line x1="1349.582" y1="368.957" x2="1340.229" y2="417.807" fill="none" stroke="#16221d" stroke-miterlimit="10"/><line x1="1355.401" y1="364.05" x2="1346.043" y2="411.93" fill="none" stroke="#16221d" stroke-miterlimit="10"/><line x1="1361.22" y1="359.142" x2="1351.857" y2="406.054" fill="none" stroke="#16221d" stroke-miterlimit="10"/><polygon points="1207.689 386.244 1212.601 432.899 1287.484 462.853 1295.649 413.486 1207.689 386.244" fill="#16221d" stroke="#16221d" stroke-miterlimit="10"/><path d="M1272.78,418.945l-5.17,2.489-50.18-18.228s3.006-.955,4.923-1.562l-1.705-.567c-.519.158-7.271,2.3-7.271,2.3L1268,423.2l6.459-3.693Z" fill="#b05232" stroke="#16221d" stroke-miterlimit="10"/><path d="M1213.377,403.381l2.115,22.384s51.906,20.335,51.924,19.649L1268,423.2Z" fill="#b05232" stroke="#16221d" stroke-miterlimit="10"/><polygon points="1268 423.196 1267.418 445.328 1273.33 440.844 1274.459 419.503 1268 423.196" fill="#8e452d" stroke="#16221d" stroke-miterlimit="10"/><path d="M1232.206,340.205l-.59,22.433L1262.4,370.9l.626-23.812Z" fill="#8e452d" stroke="#16221d" stroke-miterlimit="10"/><path d="M1232.206,340.205l-.59,22.433L1262.4,370.9l.626-23.812Z" fill="#8e452d" stroke="#16221d" stroke-miterlimit="10"/><path d="M1288.522,336.274l-.6,22.692L1262.4,370.9l.626-23.812Z" fill="#8e452d" stroke="#16221d" stroke-linecap="round" stroke-linejoin="round"/><path d="M1285.657,340.3l-.461,17.521-19.933,9.32.489-18.6Z" fill="#16221d" stroke="#16221d" stroke-miterlimit="10"/><path d="M1232.206,340.205c-.029,1.1,29.154-10.09,29.154-10.09l27.162,6.159-25.492,10.814Z" fill="#b05232" stroke="#16221d" stroke-linecap="round" stroke-linejoin="round"/><path d="M1237.366,339.9c-.024.9,23.81-8.24,23.81-8.24l22.183,5.03-20.819,8.831Z" fill="#bdb0ae" stroke="#16221d" stroke-miterlimit="10"/><path d="M1293.415,338.462s-7.754,10.857-31.758,12.888-50.982,13.833-56.407,31.9l93.709,28.4,68.212-57.525Z" fill="#fff"/><path d="M1299.074,412.206l-.26-.079-94.187-28.543.144-.478c2.565-8.542,9.994-16.241,21.483-22.262a96.464,96.464,0,0,1,35.362-9.992c23.5-1.988,31.316-12.574,31.392-12.681l.19-.267.321.069,74.756,15.874Zm-93.2-29.288,92.966,28.173,67.224-56.69-72.449-15.384c-1.383,1.728-9.754,10.956-31.919,12.831C1230.741,354.468,1210.311,369.373,1205.878,382.918Z" fill="#16221d"/><g clip-path="url(#clip-path-9)"><line x1="1194.991" y1="375.033" x2="1303.028" y2="408.217" fill="none" stroke="#16221d" stroke-miterlimit="10"/><line x1="1202.758" y1="371.395" x2="1308.848" y2="403.309" fill="none" stroke="#16221d" stroke-miterlimit="10"/><line x1="1210.525" y1="367.757" x2="1314.667" y2="398.402" fill="none" stroke="#16221d" stroke-miterlimit="10"/><line x1="1218.292" y1="364.118" x2="1320.486" y2="393.494" fill="none" stroke="#16221d" stroke-miterlimit="10"/><line x1="1226.06" y1="360.48" x2="1326.305" y2="388.587" fill="none" stroke="#16221d" stroke-miterlimit="10"/><line x1="1233.827" y1="356.842" x2="1332.124" y2="383.68" fill="none" stroke="#16221d" stroke-miterlimit="10"/><line x1="1241.594" y1="353.203" x2="1337.943" y2="378.772" fill="none" stroke="#16221d" stroke-miterlimit="10"/><line x1="1249.361" y1="349.565" x2="1343.763" y2="373.865" fill="none" stroke="#16221d" stroke-miterlimit="10"/><line x1="1257.129" y1="345.927" x2="1349.582" y2="368.957" fill="none" stroke="#16221d" stroke-miterlimit="10"/><line x1="1264.896" y1="342.288" x2="1355.401" y2="364.05" fill="none" stroke="#16221d" stroke-miterlimit="10"/><line x1="1272.663" y1="338.65" x2="1361.22" y2="359.142" fill="none" stroke="#16221d" stroke-miterlimit="10"/></g><path d="M1235.5,376.644c.361-.648,51.58,14.605,51.58,14.605l28.591-20.881-45.953-12.429Z" fill="#8e452d" stroke="#16221d" stroke-miterlimit="10"/><path d="M1240.827,376.361c.312-.561,44.717,12.662,44.717,12.662l24.787-18.1-39.839-10.776Z" fill="#16221d" stroke="#16221d" stroke-miterlimit="10"/><line x1="1076.355" y1="382.791" x2="1076.244" y2="386.994" fill="#bdb0ae" stroke="#16221d" stroke-miterlimit="10"/><g clip-path="url(#clip-path-10)"><path d="M1105.6,530.808c-15.2,1.584-28.429,9.306-44.47,8.111-21.791-1.623-37.845-7.081-59.137,2.662-1.881.861-3.814,1.874-4.946,3.605a10.8,10.8,0,0,0-1.271,6.072c.06,6.479,1.37,13.083,4.781,18.591,7.926,12.8,22.115,11.713,35.146,9.724,12.274-1.873,23.451,3.628,35.452,4.6,13.2,1.071,23.643-4.153,36.257-7.007,11.176-2.529,33.586,3.537,39.24-9.584,8.474-19.666-8.288-31.924-25.674-35.914A46.256,46.256,0,0,0,1105.6,530.808Z" fill="#f2e6d4" stroke="#16221d" stroke-miterlimit="10" stroke-width="1.378"/><path d="M1147.773,550.819s-5.065,18.615-29.355,16.137a30,30,0,0,1-16.138-7.083c-4.517-3.79-12.093-8.092-21.183-5.156a21.8,21.8,0,0,0-9.249,6.063c-4.932,5.346-23.136,19.537-71.289,9.069,0,0,1.232,18.1,3.958,18.689s86.866,5.76,86.866,5.76h72.883Z" fill="#fbc8a2"/></g><path d="M1105.6,530.808c-15.2,1.584-28.429,9.306-44.47,8.111-21.791-1.623-37.845-7.081-59.137,2.662-1.881.861-3.814,1.874-4.946,3.605a10.8,10.8,0,0,0-1.271,6.072c.06,6.479,1.37,13.083,4.781,18.591,7.926,12.8,22.115,11.713,35.146,9.724,12.274-1.873,23.451,3.628,35.452,4.6,13.2,1.071,23.643-4.153,36.257-7.007,11.176-2.529,33.586,3.537,39.24-9.584,8.474-19.666-8.288-31.924-25.674-35.914A46.256,46.256,0,0,0,1105.6,530.808Z" fill="none" stroke="#16221d" stroke-miterlimit="10" stroke-width="1.378"/></g></svg>