<svg id="Layer_1" data-name="Layer 1" xmlns="http://www.w3.org/2000/svg" xmlns:xlink="http://www.w3.org/1999/xlink" width="1367" height="769" viewBox="0 0 1367 769">
  <defs>
    <style>
      .cls-1 {
        fill: none;
      }

      .cls-2 {
        fill: #fff;
      }

      .cls-3 {
        fill: #16221d;
        stroke-width: 1.41px;
      }

      .cls-3, .cls-5 {
        stroke: #16221d;
      }

      .cls-3, .cls-4, .cls-5 {
        stroke-miterlimit: 10;
      }

      .cls-4 {
        stroke-width: 0.75px;
        opacity: 0.5;
        isolation: isolate;
        fill: url(#新增圖樣色票_2);
        stroke: url(#新增圖樣色票_2-3);
      }

      .cls-5 {
        fill: #7c3b25;
        stroke-width: 1.5px;
      }
    </style>
    <pattern id="新增圖樣色票_2" data-name="新增圖樣色票 2" width="871.45" height="899.06" patternTransform="matrix(0.75, 0, 0, -0.75, 2178.5, 1199.05)" patternUnits="userSpaceOnUse" viewBox="0 0 871.45 899.06">
      <rect class="cls-1" width="871.45" height="899.06"/>
      <rect class="cls-1" width="871.45" height="899.06"/>
      <circle class="cls-2" cx="88.93" cy="896.63" r="1.27"/>
      <circle class="cls-2" cx="186.44" cy="841.28" r="1.27"/>
      <circle class="cls-2" cx="310.18" cy="897.79" r="1.27"/>
      <circle class="cls-2" cx="355.55" cy="815.14" r="1.27"/>
      <circle class="cls-2" cx="389.39" cy="775.01" r="1.27"/>
      <circle class="cls-2" cx="403.06" cy="890.66" r="1.27"/>
      <circle class="cls-2" cx="627.12" cy="712.72" r="1.27"/>
      <circle class="cls-2" cx="585.87" cy="788.39" r="1.27"/>
      <circle class="cls-2" cx="842.23" cy="827.07" r="1.27"/>
      <circle class="cls-2" cx="25.04" cy="709.2" r="1.27"/>
      <circle class="cls-2" cx="130.09" cy="706.17" r="1.27"/>
      <circle class="cls-2" cx="247.87" cy="703.17" r="1.27"/>
      <circle class="cls-2" cx="349.82" cy="700.47" r="1.27"/>
      <circle class="cls-2" cx="454.38" cy="845.54" r="1.27"/>
      <circle class="cls-2" cx="540.14" cy="749.59" r="1.27"/>
      <circle class="cls-2" cx="515.25" cy="821.97" r="1.27"/>
      <circle class="cls-2" cx="660.28" cy="732.82" r="1.27"/>
      <circle class="cls-2" cx="735.96" cy="709.55" r="1.27"/>
      <circle class="cls-2" cx="1.27" cy="662.69" r="1.27"/>
      <circle class="cls-2" cx="239.5" cy="714.07" r="1.27"/>
      <circle class="cls-2" cx="144.33" cy="733.78" r="1.27"/>
      <circle class="cls-2" cx="323.75" cy="605.5" r="1.27"/>
      <circle class="cls-2" cx="334.44" cy="724.98" r="1.27"/>
      <circle class="cls-2" cx="535.81" cy="769.12" r="1.27"/>
      <circle class="cls-2" cx="611.05" cy="607.31" r="1.27"/>
      <circle class="cls-2" cx="751.88" cy="653.66" r="1.27"/>
      <circle class="cls-2" cx="662.16" cy="701.26" r="1.27"/>
      <circle class="cls-2" cx="68.23" cy="526.63" r="1.27"/>
      <circle class="cls-2" cx="272.26" cy="559.61" r="1.27"/>
      <circle class="cls-2" cx="227.67" cy="667.86" r="1.27"/>
      <circle class="cls-2" cx="369.27" cy="676.67" r="1.27"/>
      <circle class="cls-2" cx="339.43" cy="613.62" r="1.27"/>
      <circle class="cls-2" cx="458.33" cy="692.34" r="1.27"/>
      <circle class="cls-2" cx="525.48" cy="500.41" r="1.27"/>
      <circle class="cls-2" cx="655.45" cy="612.51" r="1.27"/>
      <circle class="cls-2" cx="706.38" cy="496.35" r="1.27"/>
      <circle class="cls-2" cx="156.19" cy="398.02" r="1.27"/>
      <circle class="cls-2" cx="99.46" cy="473.65" r="1.27"/>
      <circle class="cls-2" cx="312.14" cy="600.49" r="1.27"/>
      <circle class="cls-2" cx="427.87" cy="461.23" r="1.27"/>
      <circle class="cls-2" cx="498.11" cy="522.87" r="1.27"/>
      <circle class="cls-2" cx="555.91" cy="621.66" r="1.27"/>
      <circle class="cls-2" cx="618.11" cy="462.92" r="1.27"/>
      <circle class="cls-2" cx="717.83" cy="552.31" r="1.27"/>
      <circle class="cls-2" cx="703.76" cy="535.69" r="1.27"/>
      <circle class="cls-2" cx="61.77" cy="383.45" r="1.27"/>
      <circle class="cls-2" cx="184.33" cy="328.02" r="1.27"/>
      <circle class="cls-2" cx="293.25" cy="444.08" r="1.27"/>
      <circle class="cls-2" cx="357.44" cy="443.25" r="1.27"/>
      <circle class="cls-2" cx="450.82" cy="424.6" r="1.27"/>
      <circle class="cls-2" cx="438.04" cy="316.2" r="1.27"/>
      <circle class="cls-2" cx="498.5" cy="410.24" r="1.27"/>
      <circle class="cls-2" cx="644.01" cy="391.89" r="1.27"/>
      <circle class="cls-2" cx="795.38" cy="468.72" r="1.27"/>
      <circle class="cls-2" cx="29.56" cy="302.78" r="1.27"/>
      <circle class="cls-2" cx="218" cy="392.23" r="1.27"/>
      <circle class="cls-2" cx="246.05" cy="369.76" r="1.27"/>
      <circle class="cls-2" cx="314.06" cy="459.47" r="1.27"/>
      <circle class="cls-2" cx="422.59" cy="477.65" r="1.27"/>
      <circle class="cls-2" cx="558.42" cy="324.42" r="1.27"/>
      <circle class="cls-2" cx="516.46" cy="295.87" r="1.27"/>
      <circle class="cls-2" cx="625.8" cy="449.58" r="1.27"/>
      <circle class="cls-2" cx="765.12" cy="287.08" r="1.27"/>
      <circle class="cls-2" cx="77.8" cy="197.66" r="1.27"/>
      <circle class="cls-2" cx="192.16" cy="313.41" r="1.27"/>
      <circle class="cls-2" cx="327.76" cy="262.87" r="1.27"/>
      <circle class="cls-2" cx="398.4" cy="199.04" r="1.27"/>
      <circle class="cls-2" cx="423" cy="348.91" r="1.27"/>
      <circle class="cls-2" cx="516.18" cy="309.53" r="1.27"/>
      <circle class="cls-2" cx="547.04" cy="272.64" r="1.27"/>
      <circle class="cls-2" cx="650.06" cy="377.74" r="1.27"/>
      <circle class="cls-2" cx="806.94" cy="423.52" r="1.27"/>
      <circle class="cls-2" cx="57.49" cy="220.41" r="1.27"/>
      <circle class="cls-2" cx="190.14" cy="127.51" r="1.27"/>
      <circle class="cls-2" cx="159.13" cy="124.37" r="1.27"/>
      <circle class="cls-2" cx="362.81" cy="194.56" r="1.27"/>
      <circle class="cls-2" cx="471.01" cy="133.85" r="1.27"/>
      <circle class="cls-2" cx="574.39" cy="291.95" r="1.27"/>
      <circle class="cls-2" cx="605.84" cy="215.37" r="1.27"/>
      <circle class="cls-2" cx="730.55" cy="254.98" r="1.27"/>
      <circle class="cls-2" cx="796.42" cy="158.86" r="1.27"/>
      <circle class="cls-2" cx="49.76" cy="192.42" r="1.27"/>
      <circle class="cls-2" cx="214.21" cy="1.27" r="1.27"/>
      <circle class="cls-2" cx="151.3" cy="221.74" r="1.27"/>
      <circle class="cls-2" cx="293.45" cy="54.12" r="1.27"/>
      <circle class="cls-2" cx="344.14" cy="23.28" r="1.27"/>
      <circle class="cls-2" cx="457.8" cy="206.18" r="1.27"/>
      <circle class="cls-2" cx="588.3" cy="63.97" r="1.27"/>
      <circle class="cls-2" cx="652.18" cy="50.44" r="1.27"/>
      <circle class="cls-2" cx="870.18" cy="180.42" r="1.27"/>
    </pattern>
    <pattern id="新增圖樣色票_2-3" data-name="新增圖樣色票 2-3" width="871.45" height="899.06" patternTransform="matrix(0.75, 0, 0, -0.75, 1701.62, 1453.14)" patternUnits="userSpaceOnUse" viewBox="0 0 871.45 899.06">
      <rect class="cls-1" width="871.45" height="899.06"/>
      <rect class="cls-1" width="871.45" height="899.06"/>
      <circle class="cls-2" cx="88.93" cy="896.63" r="1.27"/>
      <circle class="cls-2" cx="186.44" cy="841.28" r="1.27"/>
      <circle class="cls-2" cx="310.18" cy="897.79" r="1.27"/>
      <circle class="cls-2" cx="355.55" cy="815.14" r="1.27"/>
      <circle class="cls-2" cx="389.39" cy="775.01" r="1.27"/>
      <circle class="cls-2" cx="403.06" cy="890.66" r="1.27"/>
      <circle class="cls-2" cx="627.12" cy="712.72" r="1.27"/>
      <circle class="cls-2" cx="585.87" cy="788.39" r="1.27"/>
      <circle class="cls-2" cx="842.23" cy="827.07" r="1.27"/>
      <circle class="cls-2" cx="25.04" cy="709.2" r="1.27"/>
      <circle class="cls-2" cx="130.09" cy="706.17" r="1.27"/>
      <circle class="cls-2" cx="247.87" cy="703.17" r="1.27"/>
      <circle class="cls-2" cx="349.82" cy="700.47" r="1.27"/>
      <circle class="cls-2" cx="454.38" cy="845.54" r="1.27"/>
      <circle class="cls-2" cx="540.14" cy="749.59" r="1.27"/>
      <circle class="cls-2" cx="515.25" cy="821.97" r="1.27"/>
      <circle class="cls-2" cx="660.28" cy="732.82" r="1.27"/>
      <circle class="cls-2" cx="735.96" cy="709.55" r="1.27"/>
      <circle class="cls-2" cx="1.27" cy="662.69" r="1.27"/>
      <circle class="cls-2" cx="239.5" cy="714.07" r="1.27"/>
      <circle class="cls-2" cx="144.33" cy="733.78" r="1.27"/>
      <circle class="cls-2" cx="323.75" cy="605.5" r="1.27"/>
      <circle class="cls-2" cx="334.44" cy="724.98" r="1.27"/>
      <circle class="cls-2" cx="535.81" cy="769.12" r="1.27"/>
      <circle class="cls-2" cx="611.05" cy="607.31" r="1.27"/>
      <circle class="cls-2" cx="751.88" cy="653.66" r="1.27"/>
      <circle class="cls-2" cx="662.16" cy="701.26" r="1.27"/>
      <circle class="cls-2" cx="68.23" cy="526.63" r="1.27"/>
      <circle class="cls-2" cx="272.26" cy="559.61" r="1.27"/>
      <circle class="cls-2" cx="227.67" cy="667.86" r="1.27"/>
      <circle class="cls-2" cx="369.27" cy="676.67" r="1.27"/>
      <circle class="cls-2" cx="339.43" cy="613.62" r="1.27"/>
      <circle class="cls-2" cx="458.33" cy="692.34" r="1.27"/>
      <circle class="cls-2" cx="525.48" cy="500.41" r="1.27"/>
      <circle class="cls-2" cx="655.45" cy="612.51" r="1.27"/>
      <circle class="cls-2" cx="706.38" cy="496.35" r="1.27"/>
      <circle class="cls-2" cx="156.19" cy="398.02" r="1.27"/>
      <circle class="cls-2" cx="99.46" cy="473.65" r="1.27"/>
      <circle class="cls-2" cx="312.14" cy="600.49" r="1.27"/>
      <circle class="cls-2" cx="427.87" cy="461.23" r="1.27"/>
      <circle class="cls-2" cx="498.11" cy="522.87" r="1.27"/>
      <circle class="cls-2" cx="555.91" cy="621.66" r="1.27"/>
      <circle class="cls-2" cx="618.11" cy="462.92" r="1.27"/>
      <circle class="cls-2" cx="717.83" cy="552.31" r="1.27"/>
      <circle class="cls-2" cx="703.76" cy="535.69" r="1.27"/>
      <circle class="cls-2" cx="61.77" cy="383.45" r="1.27"/>
      <circle class="cls-2" cx="184.33" cy="328.02" r="1.27"/>
      <circle class="cls-2" cx="293.25" cy="444.08" r="1.27"/>
      <circle class="cls-2" cx="357.44" cy="443.25" r="1.27"/>
      <circle class="cls-2" cx="450.82" cy="424.6" r="1.27"/>
      <circle class="cls-2" cx="438.04" cy="316.2" r="1.27"/>
      <circle class="cls-2" cx="498.5" cy="410.24" r="1.27"/>
      <circle class="cls-2" cx="644.01" cy="391.89" r="1.27"/>
      <circle class="cls-2" cx="795.38" cy="468.72" r="1.27"/>
      <circle class="cls-2" cx="29.56" cy="302.78" r="1.27"/>
      <circle class="cls-2" cx="218" cy="392.23" r="1.27"/>
      <circle class="cls-2" cx="246.05" cy="369.76" r="1.27"/>
      <circle class="cls-2" cx="314.06" cy="459.47" r="1.27"/>
      <circle class="cls-2" cx="422.59" cy="477.65" r="1.27"/>
      <circle class="cls-2" cx="558.42" cy="324.42" r="1.27"/>
      <circle class="cls-2" cx="516.46" cy="295.87" r="1.27"/>
      <circle class="cls-2" cx="625.8" cy="449.58" r="1.27"/>
      <circle class="cls-2" cx="765.12" cy="287.08" r="1.27"/>
      <circle class="cls-2" cx="77.8" cy="197.66" r="1.27"/>
      <circle class="cls-2" cx="192.16" cy="313.41" r="1.27"/>
      <circle class="cls-2" cx="327.76" cy="262.87" r="1.27"/>
      <circle class="cls-2" cx="398.4" cy="199.04" r="1.27"/>
      <circle class="cls-2" cx="423" cy="348.91" r="1.27"/>
      <circle class="cls-2" cx="516.18" cy="309.53" r="1.27"/>
      <circle class="cls-2" cx="547.04" cy="272.64" r="1.27"/>
      <circle class="cls-2" cx="650.06" cy="377.74" r="1.27"/>
      <circle class="cls-2" cx="806.94" cy="423.52" r="1.27"/>
      <circle class="cls-2" cx="57.49" cy="220.41" r="1.27"/>
      <circle class="cls-2" cx="190.14" cy="127.51" r="1.27"/>
      <circle class="cls-2" cx="159.13" cy="124.37" r="1.27"/>
      <circle class="cls-2" cx="362.81" cy="194.56" r="1.27"/>
      <circle class="cls-2" cx="471.01" cy="133.85" r="1.27"/>
      <circle class="cls-2" cx="574.39" cy="291.95" r="1.27"/>
      <circle class="cls-2" cx="605.84" cy="215.37" r="1.27"/>
      <circle class="cls-2" cx="730.55" cy="254.98" r="1.27"/>
      <circle class="cls-2" cx="796.42" cy="158.86" r="1.27"/>
      <circle class="cls-2" cx="49.76" cy="192.42" r="1.27"/>
      <circle class="cls-2" cx="214.21" cy="1.27" r="1.27"/>
      <circle class="cls-2" cx="151.3" cy="221.74" r="1.27"/>
      <circle class="cls-2" cx="293.45" cy="54.12" r="1.27"/>
      <circle class="cls-2" cx="344.14" cy="23.28" r="1.27"/>
      <circle class="cls-2" cx="457.8" cy="206.18" r="1.27"/>
      <circle class="cls-2" cx="588.3" cy="63.97" r="1.27"/>
      <circle class="cls-2" cx="652.18" cy="50.44" r="1.27"/>
      <circle class="cls-2" cx="870.18" cy="180.42" r="1.27"/>
    </pattern>
  </defs>
  <g>
    <polygon class="cls-3" points="1125.19 256.72 630.36 256.72 266.62 256.72 266.62 289.15 178.4 373.54 178.4 709.6 630.36 709.6 1125.19 709.6 1138.18 709.6 1138.18 677.17 1226.4 592.78 1226.4 256.72 1125.19 256.72"/>
    <polygon class="cls-4" points="1125.19 256.72 630.36 256.72 266.62 256.72 266.62 289.15 178.4 373.54 178.4 709.6 630.36 709.6 1125.19 709.6 1138.18 709.6 1138.18 677.17 1226.4 592.78 1226.4 256.72 1125.19 256.72"/>
    <g>
      <rect class="cls-5" x="1211.4" y="540.26" width="15.01" height="99.83"/>
      <rect class="cls-5" x="1196.39" y="554.17" width="15.01" height="99.83"/>
      <rect class="cls-5" x="1181.37" y="568.06" width="15.01" height="99.83"/>
      <rect class="cls-5" x="1166.36" y="581.96" width="15.01" height="99.83"/>
      <rect class="cls-5" x="1151.35" y="595.87" width="15.01" height="99.83"/>
      <rect class="cls-5" x="1136.34" y="609.77" width="15.01" height="99.83"/>
    </g>
    <g>
      <rect class="cls-5" x="178.4" y="326.23" width="15.01" height="99.83"/>
      <rect class="cls-5" x="193.41" y="312.32" width="15.01" height="99.83"/>
      <rect class="cls-5" x="208.42" y="298.42" width="15.01" height="99.83"/>
      <rect class="cls-5" x="223.43" y="284.52" width="15.01" height="99.83"/>
      <rect class="cls-5" x="238.44" y="270.62" width="15.01" height="99.83"/>
      <rect class="cls-5" x="253.45" y="256.72" width="15.01" height="99.83"/>
    </g>
  </g>
</svg>
