<svg xmlns="http://www.w3.org/2000/svg" viewBox="0 0 1367 769">
  <g>
    <path d="M1216.83,519.7s41.61,16.66,41.53,27.5-33.9,49.48-56.51,40.4,15.33-66.6,15.33-66.6" fill="#f2f2f2" stroke="#16221d" stroke-miterlimit="10" stroke-width="1.5"/>
    <path d="M1257.17,464.14c-37.09,52.49-46.57,67.77-60.46,75.58,15.83,9,15.35,6.89,27.65,20.3,7.7-11.09,66.86-47.67,73.92-51.85h0a87.74,87.74,0,0,0-31.38-37.49Z" fill="#f2e6d4" stroke="#16221d" stroke-miterlimit="10" stroke-width="1.5"/>
    <path d="M1233.14,504.42s2.77-1.72,11.24-9.6c0,0,17.57-7.87,30.2-17.17l8.75,7.33S1267.4,500.94,1233.14,504.42Z" fill="#e8a390"/>
    <path d="M1277.67,479.52l-20.21-15.27s-7.57,13.83-32.52,38.74C1233.84,502.48,1252.79,496.46,1277.67,479.52Z" fill="#968d80"/>
    <path d="M1288.56,491.23s-6.42,8.5-25.85,18.93c0,0,14.07-2.45,30.29-12.14Z" fill="#ffd377"/>
    <path d="M1257.17,464.14c-37.09,52.49-46.57,67.77-60.46,75.58,15.83,9,15.35,6.89,27.65,20.3,7.7-11.09,66.86-47.67,73.92-51.85h0a87.74,87.74,0,0,0-31.38-37.49Z" fill="none" stroke="#16221d" stroke-miterlimit="10" stroke-width="1.5"/>
    <g>
      <path d="M1245,481.3l1.5,1.31" fill="none" stroke="#16221d" stroke-miterlimit="10" stroke-width="1.5"/>
      <path d="M1249.2,485.06c7.73,7,23.7,22,28.36,31.37" fill="none" stroke="#16221d" stroke-miterlimit="10" stroke-width="1.5" stroke-dasharray="3.69 3.69"/>
      <path d="M1278.31,518.13a9.13,9.13,0,0,1,.5,1.93" fill="none" stroke="#16221d" stroke-miterlimit="10" stroke-width="1.5"/>
    </g>
    <g>
      <path d="M1260.2,471l-.11.06a.91.91,0,0,0-.39.28,1,1,0,0,0-.27.42,1,1,0,0,0-.09.49,1,1,0,0,0,.09.48l.16.27a1.15,1.15,0,0,0,.51.39l.32.07a1.2,1.2,0,0,0,.62-.1l.11-.06a.93.93,0,0,0,.39-.29,1,1,0,0,0,.27-.41,1,1,0,0,0,.08-.5.86.86,0,0,0-.08-.47l-.16-.27a1.15,1.15,0,0,0-.51-.39l-.32-.08A1.32,1.32,0,0,0,1260.2,471Z" fill="#16221d"/>
      <path d="M1265.7,478a1.27,1.27,0,1,0-.68-1.56A1.28,1.28,0,0,0,1265.7,478Z" fill="#16221d"/>
      <path d="M1271.11,482.11h.08a.88.88,0,0,0,.48.07.82.82,0,0,0,.46-.1.9.9,0,0,0,.38-.29,1,1,0,0,0,.28-.41l.08-.33a1.17,1.17,0,0,0-.09-.64l-.15-.27a1.23,1.23,0,0,0-.51-.39H1272a.85.85,0,0,0-.47-.07,1,1,0,0,0-.47.1.9.9,0,0,0-.38.29,1,1,0,0,0-.28.41l-.08.33a1.39,1.39,0,0,0,.09.64l.16.27A1.15,1.15,0,0,0,1271.11,482.11Z" fill="#16221d"/>
      <path d="M1277.51,487.12a1.27,1.27,0,1,0-.68-1.56A1.28,1.28,0,0,0,1277.51,487.12Z" fill="#16221d"/>
      <path d="M1282.8,493.75a1.27,1.27,0,1,0-.67-1.52A1.27,1.27,0,0,0,1282.8,493.75Z" fill="#16221d"/>
      <path d="M1287,499.15a1.27,1.27,0,1,0-.68-1.56A1.28,1.28,0,0,0,1287,499.15Z" fill="#16221d"/>
      <path d="M1290.94,505a1.27,1.27,0,1,0-.67-1.52A1.27,1.27,0,0,0,1290.94,505Z" fill="#16221d"/>
    </g>
    <path d="M1196.71,531.93c2.62,3.37,7.42,4.46,11.21,6.42a12.67,12.67,0,0,0,7.7,1.72c2.64-.42,5.15-2.53,5.27-5.21.09-2-1.08-3.78-2.2-5.43-2.81-4.11-7.34-6.76-11.62-9.32s-8.69-4.53-12.31-1.1c6.46-8.12-3.71,1.08-7.43,7.06C1185.9,528.36,1196.71,531.93,1196.71,531.93Z" fill="#f2f2f2" stroke="#16221d" stroke-linecap="round" stroke-miterlimit="10" stroke-width="1.5"/>
    <g>
      <rect x="1158.11" y="720.83" width="117.43" height="15.18" fill="#bdb0ae" stroke="#16221d" stroke-miterlimit="10" stroke-width="1.5"/>
      <polygon points="1275.55 720.83 1158.11 720.83 1167.41 688.6 1267.09 688.6 1275.55 720.83" fill="#f2f2f2" stroke="#16221d" stroke-miterlimit="10" stroke-width="1.5"/>
    </g>
    <path d="M1201,534.05a30.13,30.13,0,0,0-10.34-7.87c-11.18-5-14.52,14.23-14.52,14.23-.66,6.43-7.08,22.92-7.23,25.25-.34,5.23,4,9.4,7.8,13,4,3.83,17.37,20.14,17.37,20.14,1,1.48,2.6,2.89,2.65,4.69.64,21.68-2.5,49.78-15.07,94.17-.71,2.51-1.38,5.47.21,7.54.91,1.18,40.52,9.74,66.89.55,6.34-2.21,5.25-11.43,3.36-17.87-12.84-43.84-9.91-41.17-6.87-86.74,0,0,26-47.87,23.3-52.16s-10.75-33.6-13-34-17.85-22.36-21-14.9,3.32,15.29,6.21,18.45l2.89,3.15s.58,18.62,3.64,21.6c0,0-16.66,5.45-22.43,21.53" fill="#f2f2f2"/>
    <path d="M1201.85,508.34q7.59-15,16.25-29.45c2.67.86,4.32,3.68,4.6,6.47a19.33,19.33,0,0,1-1.51,8.19,103,103,0,0,1-6.6,14.74" fill="#fff" stroke="#16221d" stroke-linecap="round" stroke-miterlimit="10" stroke-width="1.5"/>
    <path d="M1189.53,549c14.47,6,23.17,23.39,19.32,38.59" fill="none" stroke="#16221d" stroke-miterlimit="10" stroke-width="1.5"/>
    <path d="M1196.93,685.75c-4.62-19.7,4.37-55,8.72-70.07a3.17,3.17,0,0,1,5.6-1c3.31,4.6,6.74,10.75,6.34,16.15l.75-21.39s-7.27-.38-10.94-1.08l-2-.64h0c-3.14-1.05-8.29-2.94-8.68-4.2,0,0-.51,29.41-3.76,45.89s-11.71,49.84-11.71,49.84a4.9,4.9,0,0,0,2.28,6.53,4.48,4.48,0,0,0,.72.28c5.21,2,39.15,7.46,63.7,0a7.74,7.74,0,0,0,5.59-7.79S1202.91,711.29,1196.93,685.75Z" fill="#ccc"/>
    <path d="M1202.74,606s7.58,3.13,11.31,3.41,12.63-3.41,12.63-3.41" fill="none" stroke="#16221d" stroke-linecap="round" stroke-miterlimit="10" stroke-width="1.5"/>
    <path d="M1218.33,614.27s.25,17.18-1.5,26.77" fill="none" stroke="#16221d" stroke-linecap="round" stroke-miterlimit="10" stroke-width="1.5"/>
    <path d="M1223.15,616.34s1.53,24.22-.22,33.81" fill="none" stroke="#16221d" stroke-linecap="round" stroke-miterlimit="10" stroke-width="1.5"/>
    <path d="M1223.77,607.72s3.07,5.33,7.61,4.5,1.53,26,2.34,32.39,1.48,36.21,19.5,48c0,0-11.75-38.18-10.85-51.6s2.9-39.87,2.9-39.87,22.25-41.16,23.49-50.38c0,0-22.74,12-26.39,31.27S1226.41,607.42,1223.77,607.72Z" fill="#ccc"/>
    <path d="M1186,539.72c-2.42,2.35-4.88,4.75-6.48,7.73a25.69,25.69,0,0,0-1.9,4.79,69.61,69.61,0,0,0-2.61,12.12c6-5.22,12-13,16.18-19.7-1.64-1.9-3.76-2.37-4.73-4.68" fill="#ccc"/>
    <g>
      <path d="M1230.08,452.63C1214.71,515,1188.13,548.7,1178,561c18,2.56,28,6,44.37,13.94,3.12-13.14,57-89.89,62-96.36h0a87.83,87.83,0,0,0-42.9-23.45Z" fill="#f2e6d4" stroke="#16221d" stroke-miterlimit="10" stroke-width="1.5"/>
      <path d="M1222.41,498.91s1.95-2.62,7-13.05c0,0,13.49-13.73,21.85-27l10.82,3.64S1253,483.17,1222.41,498.91Z" fill="#fcc013"/>
      <path d="M1254.78,459.47l-24.39-6.84s-2,15.64-16.14,47.94C1222.35,496.85,1237.8,484.32,1254.78,459.47Z" fill="#ffd377"/>
      <path d="M1269.19,466.4s-2.87,10.26-17.16,27.06c0,0,12.2-7.42,23.77-22.35Z" fill="#ffd377"/>
      <path d="M1193.3,565.06s5.93-12.43,10.34-17.46c0,0-4.52-12.53-2.18-18.26,0,0-15.72,19.17-22.69,32.26Z" fill="#ffd377"/>
      <path d="M1189.09,563.93s-3.62-12.53-2.78-14.21l-7.54,11.88S1188,563.54,1189.09,563.93Z" fill="#fcc013"/>
      <path d="M1172.82,567.38c13.48,3.75,35.14,10.08,48.62,13.83,0,0-.23-1.18,1-6.23-16.34-8-26.36-11.38-44.37-13.94C1174.85,565,1172.82,567.38,1172.82,567.38Z" fill="#f2e6d4" stroke="#16221d" stroke-miterlimit="10" stroke-width="1.5"/>
      <path d="M1230.08,452.63C1214.71,515,1188.13,548.7,1178,561c18,2.56,28,6,44.37,13.94,3.12-13.14,57-89.89,62-96.36h0a87.83,87.83,0,0,0-42.9-23.45Z" fill="none" stroke="#16221d" stroke-miterlimit="10" stroke-width="1.5"/>
      <g>
        <path d="M1225,473.07l1.88.67" fill="none" stroke="#16221d" stroke-miterlimit="10" stroke-width="1.5"/>
        <path d="M1230.3,475c9.74,3.67,30.1,11.86,37.85,18.86" fill="none" stroke="#16221d" stroke-miterlimit="10" stroke-width="1.5" stroke-dasharray="3.69 3.69"/>
        <path d="M1269.46,495.19a8.88,8.88,0,0,1,1.18,1.61" fill="none" stroke="#16221d" stroke-miterlimit="10" stroke-width="1.5"/>
      </g>
      <g>
        <path d="M1235.41,457.92l-.09.1a.91.91,0,0,0-.25.41,1,1,0,0,0-.11.48.93.93,0,0,0,.11.49.91.91,0,0,0,.25.41l.25.2a1.19,1.19,0,0,0,.61.17h.33a1.17,1.17,0,0,0,.54-.33l.09-.09a.91.91,0,0,0,.25-.41,1,1,0,0,0,.1-.49,1.43,1.43,0,0,0-.35-.9l-.25-.19a1.15,1.15,0,0,0-.62-.18l-.32.05a1.3,1.3,0,0,0-.54.32Z" fill="#16221d"/>
        <path d="M1243.08,462.42a1.27,1.27,0,1,0-1.27-1.27A1.27,1.27,0,0,0,1243.08,462.42Z" fill="#16221d"/>
        <path d="M1249.61,464.28h.09a.86.86,0,0,0,.47-.11,1,1,0,0,0,.4-.26,1,1,0,0,0,.25-.41.92.92,0,0,0,.1-.49v-.34a1.35,1.35,0,0,0-.31-.56l-.25-.19a1.15,1.15,0,0,0-.62-.18h-.09a1.12,1.12,0,0,0-.47.11.93.93,0,0,0-.39.26,1,1,0,0,0-.25.41.93.93,0,0,0-.11.49v.34a1.35,1.35,0,0,0,.31.56l.25.2a1.19,1.19,0,0,0,.61.17Z" fill="#16221d"/>
        <path d="M1257.4,466.61a1.27,1.27,0,1,0-1.27-1.27A1.27,1.27,0,0,0,1257.4,466.61Z" fill="#16221d"/>
        <path d="M1264.75,470.85a1.27,1.27,0,1,0-1.15-1.15A1.27,1.27,0,0,0,1264.75,470.85Z" fill="#16221d"/>
        <path d="M1270.64,474.34a1.27,1.27,0,1,0-1.27-1.27,1.27,1.27,0,0,0,1.27,1.27Z" fill="#16221d"/>
        <path d="M1276.43,478.36a1.27,1.27,0,1,0-1.15-1.15A1.27,1.27,0,0,0,1276.43,478.36Z" fill="#16221d"/>
      </g>
    </g>
    <g>
      <g>
        <path d="M1207.81,525.75c3.21,4.11,9.9,5.65,15,6.82.68.15,8,8.93,12.07,8,3.38-.77,4.27-3.59,2.83-6.75a38.21,38.21,0,0,0-3.94-6.4c-3.3-4.54-12.11-15.73-20.44-18.79,0,0-8-2.69-12.17,1a81.83,81.83,0,0,0-9.17,10.51" fill="#f2f2f2" stroke="#16221d" stroke-linecap="round" stroke-miterlimit="10" stroke-width="1.5"/>
        <path d="M1236.94,538.11c-6.66-1.47-8.52-5.7-8.52-5.7s-.08-1.13,3-2.53" fill="none" stroke="#16221d" stroke-miterlimit="10" stroke-width="1.5"/>
        <path d="M1223.7,533.11a5.3,5.3,0,0,1-.17-5.36s-2,.84-2.41,4.24Z" fill="#ccc"/>
        <path d="M1207.81,525.75c3.21,4.11,9.9,5.65,15,6.82.68.15,8,8.93,12.07,8,3.38-.77,4.27-3.59,2.83-6.75a38.21,38.21,0,0,0-3.94-6.4c-3.3-4.54-12.11-15.73-20.44-18.79,0,0-8-2.69-12.17,1a81.83,81.83,0,0,0-9.17,10.51" fill="none" stroke="#16221d" stroke-linecap="round" stroke-miterlimit="10" stroke-width="1.5"/>
      </g>
      <path d="M1196.71,534.84c3.21,4.11,9.9,5.65,15,6.82.68.15,8,8.93,12.07,8,3.38-.77,4.28-3.6,2.84-6.76a38.53,38.53,0,0,0-3.94-6.39c-3.31-4.55-12.12-15.74-20.45-18.8" fill="#f2f2f2" stroke="#16221d" stroke-linecap="round" stroke-miterlimit="10" stroke-width="1.5"/>
      <path d="M1225.84,547.2c-6.66-1.47-8.52-5.7-8.52-5.7s-.08-1.13,3-2.52" fill="none" stroke="#16221d" stroke-miterlimit="10" stroke-width="1.5"/>
      <path d="M1212.55,542.2a5.35,5.35,0,0,1-.17-5.36s-2,.84-2.41,4.25Z" fill="#ccc"/>
      <path d="M1196.71,534.84c3.21,4.11,9.9,5.65,15,6.82.68.15,8,8.93,12.07,8,3.38-.77,4.28-3.6,2.84-6.76a38.53,38.53,0,0,0-3.94-6.39c-3.31-4.55-12.12-15.74-20.45-18.8" fill="none" stroke="#16221d" stroke-linecap="round" stroke-miterlimit="10" stroke-width="1.5"/>
    </g>
    <g>
      <path d="M1180.56,564.59l-.09.1a.94.94,0,0,0-.25.4,1.25,1.25,0,0,0,0,1,1,1,0,0,0,.25.41l.25.2a1.23,1.23,0,0,0,.62.17h.32a1.17,1.17,0,0,0,.54-.33l.09-.09a1,1,0,0,0,.25-.41,1.17,1.17,0,0,0,0-1,1,1,0,0,0-.25-.41l-.25-.2a1.17,1.17,0,0,0-.61-.17h-.33a1.3,1.3,0,0,0-.54.32Z" fill="#16221d"/>
      <path d="M1188.23,569.08a1.27,1.27,0,1,0-1.15-1.15A1.27,1.27,0,0,0,1188.23,569.08Z" fill="#16221d"/>
      <path d="M1194.77,571h.09a1.12,1.12,0,0,0,.47-.11.93.93,0,0,0,.39-.26,1.49,1.49,0,0,0,.36-.9v-.34a1.35,1.35,0,0,0-.31-.56l-.25-.2a1.19,1.19,0,0,0-.61-.17h-.09a.86.86,0,0,0-.47.11,1,1,0,0,0-.4.26,1.16,1.16,0,0,0-.25.41,1,1,0,0,0-.1.49v.34a1.35,1.35,0,0,0,.31.56l.25.19a1.15,1.15,0,0,0,.62.18Z" fill="#16221d"/>
      <path d="M1202.56,573.27a1.27,1.27,0,1,0-1.15-1.15A1.27,1.27,0,0,0,1202.56,573.27Z" fill="#16221d"/>
      <path d="M1209.9,576.25a1.27,1.27,0,1,0-1.15-1.15A1.27,1.27,0,0,0,1209.9,576.25Z" fill="#16221d"/>
    </g>
    <g>
      <path d="M1186.48,538.73a23.17,23.17,0,0,0,10.75,10.95,7.07,7.07,0,0,1,1.8,1.05,8,8,0,0,1,1.36,2,17.38,17.38,0,0,0,5.1,5.49,3.86,3.86,0,0,0,6-3.93,38,38,0,0,0-2.39-7.12c-2.19-5.17-4.41-10.26-11.71-16.71" fill="#f2f2f2" stroke="#16221d" stroke-linecap="round" stroke-miterlimit="10" stroke-width="1.5"/>
      <path d="M1209.76,558.27c-6.16-2.94-7-7.48-7-7.48s.18-1.11,3.51-1.78" fill="none" stroke="#16221d" stroke-miterlimit="10" stroke-width="1.5"/>
      <path d="M1199.82,550.79a5.3,5.3,0,0,1-.17-5.36s-2,.84-2.42,4.25Z" fill="#ccc"/>
      <path d="M1186.48,538.73a23.17,23.17,0,0,0,10.75,10.95,7.07,7.07,0,0,1,1.8,1.05,8,8,0,0,1,1.36,2,17.38,17.38,0,0,0,5.1,5.49,3.86,3.86,0,0,0,6-3.93,38,38,0,0,0-2.39-7.12c-2.19-5.17-4.41-10.26-11.71-16.71" fill="none" stroke="#16221d" stroke-linecap="round" stroke-miterlimit="10" stroke-width="1.5"/>
    </g>
    <path d="M1244.83,544.39s-20.82,10.22-19,26.73a5.58,5.58,0,0,0,.12.89c2.7,17,10-1.82,10-1.82Z" fill="#f2f2f2"/>
    <path d="M1259.72,524.11c-1.79-5.09-3.34-8.94-4.14-9.07-2.25-.37-17.85-22.36-21-14.9s3.32,15.29,6.21,18.45l2.89,3.15s.58,18.62,3.64,21.6" fill="#f2f2f2"/>
    <path d="M1236,498.91s0,4.82,3.17,7.42,6.39-1.45,6.39-1.45" fill="#fff" stroke="#16221d" stroke-linecap="round" stroke-miterlimit="10" stroke-width="1.5"/>
    <path d="M1234.64,501.32c1.22,4.2-.24,5.95,6.12,14.28,2.66,3.48,7.17,4.47,11.54,4.74-2.14,1-8.25,2.16-8.59,1.85a33.24,33.24,0,0,1-9.69-16.31c-.39-1.57-.57-3.47.62-4.56" fill="#ccc"/>
    <path d="M1244.62,528.35s1.34,12.68,11.79,14.71c0,0-7,2.79-9.12.28S1244.09,529.93,1244.62,528.35Z" fill="#ccc"/>
    <path d="M1201,534.05a30.13,30.13,0,0,0-10.34-7.87c-11.18-5-14.52,14.23-14.52,14.23-.66,6.43-7.08,22.92-7.23,25.25-.34,5.23,4,9.4,7.8,13,4,3.83,17.37,20.14,17.37,20.14,1,1.48,2.6,2.89,2.65,4.69.64,21.68-2.5,49.78-15.07,94.17-.71,2.51-1.38,5.47.21,7.54.91,1.18,40.52,9.74,66.89.55,6.34-2.21,5.25-11.43,3.36-17.87-12.84-43.84-9.91-41.17-6.87-86.74,0,0,26-47.87,23.3-52.16s-10.75-33.6-13-34-17.85-22.36-21-14.9,3.32,15.29,6.21,18.45l2.89,3.15s.58,18.62,3.64,21.6c0,0-17.21,4.51-21.45,23.21" fill="none" stroke="#16221d" stroke-miterlimit="10" stroke-width="1.5"/>
  </g>
</svg>
