<svg xmlns="http://www.w3.org/2000/svg" xmlns:xlink="http://www.w3.org/1999/xlink" width="1361.07" height="226.56" viewBox="0 0 1361.07 226.56">
  <defs>
    <clipPath id="a">
      <polygon points="331.84 47.23 275.26 108.76 430.6 108.76 480.87 49.27 331.84 47.23" fill="none"/>
    </clipPath>
    <clipPath id="b">
      <path d="M353.44,53.67C332.5,55.78,314.28,66,292.19,64.45c-30-2.15-52.13-9.41-81.46,3.54-2.59,1.15-5.25,2.49-6.81,4.8s-1.78,5.28-1.75,8.07c.08,8.61,1.89,17.39,6.59,24.71,10.91,17,30.46,15.57,48.4,12.93,16.91-2.49,32.3,4.82,48.83,6.12,18.18,1.42,32.57-5.52,49.94-9.32,15.4-3.36,46.26,4.7,54.05-12.74,11.67-26.14-11.41-42.44-35.36-47.74A66,66,0,0,0,353.44,53.67Z" fill="none"/>
    </clipPath>
  </defs>
  <g>
    <line x1="1113.97" y1="0.75" x2="226.59" y2="0.75" fill="none" stroke="#16221d" stroke-miterlimit="10" stroke-width="1.5"/>
    <g>
      <polygon points="332.84 47.23 275.26 108.76 1075.64 108.76 1018.69 47.23 332.84 47.23" fill="#16221d"/>
      <rect x="332.84" y="28.85" width="685.85" height="18.38" stroke-width="1.5" stroke="#16221d" stroke-linecap="round" stroke-linejoin="round" fill="#5e2a15"/>
      <polygon points="1018.69 28.85 1075.64 90.38 1075.64 108.76 1018.69 47.23 1018.69 28.85" fill="#5e2a15" stroke="#16221d" stroke-linecap="round" stroke-linejoin="round" stroke-width="1.5"/>
      <polygon points="332.84 28.85 275.26 90.38 275.26 108.76 332.84 47.23 332.84 28.85" fill="#5e2a15" stroke="#16221d" stroke-linecap="round" stroke-linejoin="round" stroke-width="1.5"/>
    </g>
    <g clip-path="url(#a)">
      <g>
        <g clip-path="url(#b)">
          <path d="M353.44,53.67C332.5,55.78,314.28,66,292.19,64.45c-30-2.15-52.13-9.41-81.46,3.54-2.59,1.15-5.25,2.49-6.81,4.8s-1.78,5.28-1.75,8.07c.08,8.61,1.89,17.39,6.59,24.71,10.91,17,30.46,15.57,48.4,12.93,16.91-2.49,32.3,4.82,48.83,6.12,18.18,1.42,32.57-5.52,49.94-9.32,15.4-3.36,46.26,4.7,54.05-12.74,11.67-26.14-11.41-42.44-35.36-47.74A66,66,0,0,0,353.44,53.67Z" fill="#f2e6d4" stroke="#16221d" stroke-miterlimit="10" stroke-width="1.38"/>
          <path d="M411.52,80.27s-7,24.75-40.43,21.46a42.09,42.09,0,0,1-22.23-9.42c-6.22-5-16.65-10.76-29.17-6.85A30.08,30.08,0,0,0,307,93.52c-6.8,7.1-31.87,26-98.19,12,0,0,1.69,24.06,5.45,24.85s119.64,7.65,119.64,7.65H434.24Z" fill="#fbc8a2"/>
        </g>
        <path d="M353.44,53.67C332.5,55.78,314.28,66,292.19,64.45c-30-2.15-52.13-9.41-81.46,3.54-2.59,1.15-5.25,2.49-6.81,4.8s-1.78,5.28-1.75,8.07c.08,8.61,1.89,17.39,6.59,24.71,10.91,17,30.46,15.57,48.4,12.93,16.91-2.49,32.3,4.82,48.83,6.12,18.18,1.42,32.57-5.52,49.94-9.32,15.4-3.36,46.26,4.7,54.05-12.74,11.67-26.14-11.41-42.44-35.36-47.74A66,66,0,0,0,353.44,53.67Z" fill="none" stroke="#16221d" stroke-miterlimit="10" stroke-width="1.38"/>
      </g>
    </g>
  </g>
</svg>
