<svg xmlns="http://www.w3.org/2000/svg" xmlns:xlink="http://www.w3.org/1999/xlink" viewBox="0 0 528.732 501.087"><defs><style>.cls-1,.cls-11,.cls-13,.cls-14,.cls-15,.cls-8{fill:none;}.cls-2{fill:#fff;}.cls-3{fill:#d3bccb;stroke:#0c0007;stroke-linecap:round;stroke-linejoin:round;}.cls-3,.cls-4,.cls-8{stroke-width:1.498px;}.cls-4{fill:#7c3b25;}.cls-11,.cls-12,.cls-13,.cls-4,.cls-6,.cls-8,.cls-9{stroke:#16221d;}.cls-11,.cls-12,.cls-13,.cls-14,.cls-15,.cls-4,.cls-6,.cls-8,.cls-9{stroke-miterlimit:10;}.cls-5{clip-path:url(#clip-path);}.cls-6{fill:#16221d;}.cls-12,.cls-13,.cls-14,.cls-6{stroke-width:1.411px;}.cls-7{fill:url(#新增圖樣色票_2);}.cls-9{fill:#f2e6d4;}.cls-11,.cls-9{stroke-width:1.5px;}.cls-10{fill:#fbc8a2;}.cls-12{fill:#fcc013;}.cls-14,.cls-15{stroke:#fff;}</style><clipPath id="clip-path"><polygon class="cls-1" points="93.086 459.702 4.592 492.742 4.592 173.328 90.001 173.328 93.086 459.702"/></clipPath><pattern id="新增圖樣色票_2" data-name="新增圖樣色票 2" width="871.454" height="899.055" patternTransform="translate(1641.56 1549.505) scale(0.745)" patternUnits="userSpaceOnUse" viewBox="0 0 871.454 899.055"><rect class="cls-1" width="871.454" height="899.055"/><circle class="cls-2" cx="88.928" cy="2.435" r="1.27"/><circle class="cls-2" cx="186.44" cy="57.78" r="1.27"/><circle class="cls-2" cx="310.184" cy="1.27" r="1.27"/><circle class="cls-2" cx="355.551" cy="83.916" r="1.27"/><circle class="cls-2" cx="389.39" cy="124.049" r="1.27"/><circle class="cls-2" cx="403.06" cy="8.401" r="1.27"/><circle class="cls-2" cx="627.119" cy="186.341" r="1.27"/><circle class="cls-2" cx="585.867" cy="110.673" r="1.27"/><circle class="cls-2" cx="842.233" cy="71.994" r="1.27"/><circle class="cls-2" cx="25.04" cy="189.855" r="1.27"/><circle class="cls-2" cx="130.086" cy="192.889" r="1.27"/><circle class="cls-2" cx="247.875" cy="195.894" r="1.27"/><circle class="cls-2" cx="349.823" cy="198.586" r="1.27"/><circle class="cls-2" cx="454.381" cy="53.525" r="1.27"/><circle class="cls-2" cx="540.14" cy="149.468" r="1.27"/><circle class="cls-2" cx="515.247" cy="77.089" r="1.27"/><circle class="cls-2" cx="660.284" cy="166.245" r="1.27"/><circle class="cls-2" cx="735.964" cy="189.512" r="1.27"/><circle class="cls-2" cx="1.27" cy="236.367" r="1.27"/><circle class="cls-2" cx="239.505" cy="184.992" r="1.27"/><circle class="cls-2" cx="144.329" cy="165.275" r="1.27"/><circle class="cls-2" cx="323.746" cy="293.559" r="1.27"/><circle class="cls-2" cx="334.442" cy="174.076" r="1.27"/><circle class="cls-2" cx="535.811" cy="129.941" r="1.27"/><circle class="cls-2" cx="611.049" cy="291.749" r="1.27"/><circle class="cls-2" cx="751.884" cy="245.398" r="1.27"/><circle class="cls-2" cx="662.158" cy="197.801" r="1.27"/><circle class="cls-2" cx="68.226" cy="372.431" r="1.27"/><circle class="cls-2" cx="272.257" cy="339.445" r="1.27"/><circle class="cls-2" cx="227.666" cy="231.196" r="1.27"/><circle class="cls-2" cx="369.267" cy="222.393" r="1.27"/><circle class="cls-2" cx="339.433" cy="285.437" r="1.27"/><circle class="cls-2" cx="458.331" cy="206.722" r="1.27"/><circle class="cls-2" cx="525.483" cy="398.648" r="1.27"/><circle class="cls-2" cx="655.447" cy="286.553" r="1.27"/><circle class="cls-2" cx="706.376" cy="402.711" r="1.27"/><circle class="cls-2" cx="156.187" cy="501.045" r="1.27"/><circle class="cls-2" cx="99.458" cy="425.405" r="1.27"/><circle class="cls-2" cx="312.138" cy="298.571" r="1.27"/><circle class="cls-2" cx="427.866" cy="437.833" r="1.27"/><circle class="cls-2" cx="498.11" cy="376.195" r="1.27"/><circle class="cls-2" cx="555.906" cy="277.397" r="1.27"/><circle class="cls-2" cx="618.107" cy="436.14" r="1.27"/><circle class="cls-2" cx="717.826" cy="346.75" r="1.27"/><circle class="cls-2" cx="703.758" cy="363.374" r="1.27"/><circle class="cls-2" cx="61.767" cy="515.612" r="1.27"/><circle class="cls-2" cx="184.33" cy="571.039" r="1.27"/><circle class="cls-2" cx="293.251" cy="454.977" r="1.27"/><circle class="cls-2" cx="357.445" cy="455.815" r="1.27"/><circle class="cls-2" cx="450.819" cy="474.461" r="1.27"/><circle class="cls-2" cx="438.037" cy="582.859" r="1.27"/><circle class="cls-2" cx="498.504" cy="488.815" r="1.27"/><circle class="cls-2" cx="644.008" cy="507.17" r="1.27"/><circle class="cls-2" cx="795.379" cy="430.339" r="1.27"/><circle class="cls-2" cx="29.564" cy="596.28" r="1.27"/><circle class="cls-2" cx="217.999" cy="506.826" r="1.27"/><circle class="cls-2" cx="246.049" cy="529.299" r="1.27"/><circle class="cls-2" cx="314.062" cy="439.592" r="1.27"/><circle class="cls-2" cx="422.589" cy="421.406" r="1.27"/><circle class="cls-2" cx="558.422" cy="574.639" r="1.27"/><circle class="cls-2" cx="516.456" cy="603.188" r="1.27"/><circle class="cls-2" cx="625.805" cy="449.478" r="1.27"/><circle class="cls-2" cx="765.119" cy="611.984" r="1.27"/><circle class="cls-2" cx="77.802" cy="701.397" r="1.27"/><circle class="cls-2" cx="192.163" cy="585.645" r="1.27"/><circle class="cls-2" cx="327.761" cy="636.188" r="1.27"/><circle class="cls-2" cx="398.397" cy="700.017" r="1.27"/><circle class="cls-2" cx="422.996" cy="550.153" r="1.27"/><circle class="cls-2" cx="516.18" cy="589.529" r="1.27"/><circle class="cls-2" cx="547.036" cy="626.42" r="1.27"/><circle class="cls-2" cx="650.06" cy="521.324" r="1.27"/><circle class="cls-2" cx="806.943" cy="475.539" r="1.27"/><circle class="cls-2" cx="57.489" cy="678.648" r="1.27"/><circle class="cls-2" cx="190.142" cy="771.554" r="1.27"/><circle class="cls-2" cx="159.132" cy="774.685" r="1.27"/><circle class="cls-2" cx="362.806" cy="704.501" r="1.27"/><circle class="cls-2" cx="471.014" cy="765.215" r="1.27"/><circle class="cls-2" cx="574.392" cy="607.111" r="1.27"/><circle class="cls-2" cx="605.845" cy="683.695" r="1.27"/><circle class="cls-2" cx="730.549" cy="644.082" r="1.27"/><circle class="cls-2" cx="796.419" cy="740.204" r="1.27"/><circle class="cls-2" cx="49.764" cy="706.638" r="1.27"/><circle class="cls-2" cx="214.212" cy="897.786" r="1.27"/><circle class="cls-2" cx="151.296" cy="677.323" r="1.27"/><circle class="cls-2" cx="293.45" cy="844.943" r="1.27"/><circle class="cls-2" cx="344.141" cy="875.784" r="1.27"/><circle class="cls-2" cx="457.804" cy="692.884" r="1.27"/><circle class="cls-2" cx="588.301" cy="835.089" r="1.27"/><circle class="cls-2" cx="652.178" cy="848.62" r="1.27"/><circle class="cls-2" cx="870.184" cy="718.643" r="1.27"/></pattern></defs><g id="Layer_1" data-name="Layer 1"><polygon class="cls-3" points="114.005 459.52 4.592 500.338 4.592 492.742 93.086 459.702 114.005 459.52"/><polygon class="cls-4" points="90.001 173.328 111.106 173.328 114.19 459.451 114.005 459.52 93.086 459.702 90.001 173.328"/><g class="cls-5"><polygon class="cls-6" points="93.086 459.702 4.592 492.742 4.592 173.328 90.001 173.328 93.086 459.702"/><polygon class="cls-7" points="93.086 459.702 4.592 492.742 4.592 173.328 90.001 173.328 93.086 459.702"/></g><polygon class="cls-8" points="93.086 459.702 4.592 492.742 4.592 173.328 90.001 173.328 93.086 459.702"/><path class="cls-9" d="M5.61,371.359c14.97-1.878,43.927-37.458,58.9-39.337,1.064,9.022,41.682,41.943,47.5,48.918,36.73,44.037,30.268,45.906,72.63,48.635,4.127.266,8.87.172,11.579-2.954,3.343-3.858,1.549-9.851-.934-14.31-7.736-13.891-20.293-24.37-30.065-36.912-12.371-15.878-20.079-34.782-29.233-52.708-10.515-20.592-23.054-40.078-35.83-59.35-6.451-9.732-14.362-20.323-25.941-21.826-5.832-.757-11.666,1-17.286,2.726-18.726,5.768-33.609,9.346-52.335,15.114Z"/><path class="cls-10" d="M5.687,324.73a2.467,2.467,0,0,0,1.675-.483c6.69-3.874,13.256-8.127,20.59-10.57s15.727-2.885,22.534.779c5.248,2.824,8.992,7.728,12.721,12.378a286.53,286.53,0,0,0,20.81,23.23c5.961,5.966,12.694,11.929,21.012,13.319-6.247-20.831-22.356-37.064-32.665-56.213-4.911-9.12-8.491-18.887-12.819-28.3a7.261,7.261,0,0,0-2.727-3.6c-1.656-.9-3.694-.41-5.5.12-17.721,5.193-29.052,9.155-45.4,17.74Z"/><path class="cls-10" d="M136.756,363.458s-16.2,8.249-14.886,30.663l-8.553-12.7S121.393,365.146,136.756,363.458Z"/><path class="cls-11" d="M.749,261.544l56.178-17.3c5.62-1.731,11.454-3.483,17.286-2.726,11.579,1.5,19.49,12.094,25.941,21.826,12.776,19.272,25.315,38.758,35.83,59.35,9.154,17.926,16.862,36.83,29.233,52.708,9.772,12.542,22.329,23.021,30.065,36.912,2.483,4.459,4.277,10.452.934,14.31-2.709,3.126-7.452,3.22-11.579,2.954-42.362-2.729-35.9-4.6-72.63-48.635-5.818-6.975-46.436-39.9-47.5-48.918-14.97,1.879-43.927,37.459-58.9,39.337a613.509,613.509,0,0,1-4-109.559"/><rect class="cls-12" x="433.255" y="47.157" width="48.466" height="2.88" transform="translate(661.531 460.935) rotate(-122.392)"/><path class="cls-12" d="M447,28.351l20.191,31.826a6.147,6.147,0,1,1-10.381,6.586L436.621,34.937a6.115,6.115,0,0,1-.648-1.389l-36.9,23.413,25.963,40.924L240.966,214.66l14.477,22.82L439.509,120.705l35.417-22.469a10.312,10.312,0,1,1,17.415-11.049l35.417-22.469L487.318.974l-41.3,26.2A6.148,6.148,0,0,1,447,28.351Z"/><path class="cls-12" d="M124.705,245.971c.091.143.189.278.281.42A52.8,52.8,0,1,0,176.8,328.01c.259.435.508.873.781,1.3A52.8,52.8,0,1,0,235.7,250l24.96-15.836-14.477-22.819-24.969,15.841a52.8,52.8,0,1,0-96.513,18.782ZM105.15,316.819a32.729,32.729,0,1,1,45.179,10.106A32.631,32.631,0,0,1,105.15,316.819Zm144.658-33.33a32.729,32.729,0,1,1-45.179-10.106A32.627,32.627,0,0,1,249.808,283.489Zm-73.718-97.82a32.729,32.729,0,1,1-25.025,4.218A32.624,32.624,0,0,1,176.09,185.669Z"/><rect class="cls-12" x="229.592" y="216.974" width="41.415" height="15.533" rx="7.767" transform="translate(194.615 556.49) rotate(-122.392)"/><rect class="cls-12" x="230.083" y="212.305" width="62.65" height="10.777" rx="5.389" transform="translate(217.625 555.047) rotate(-122.392)"/><path class="cls-13" d="M253.75,280.946a37.383,37.383,0,1,1-51.6-11.543A37.271,37.271,0,0,1,253.75,280.946Z"/><path class="cls-13" d="M200.608,197.181a37.384,37.384,0,1,1-51.6-11.542A37.271,37.271,0,0,1,200.608,197.181Z"/><path class="cls-13" d="M164.742,278.378a37.382,37.382,0,1,1-51.6-11.543A37.267,37.267,0,0,1,164.742,278.378Z"/><path class="cls-14" d="M127.472,243.919c.17.664-20.133-30.7,9.01-62.177"/><path class="cls-14" d="M216.449,226.534s4.883-40.288-35.342-55.707"/><path class="cls-15" d="M255.607,324.726s19.282-19.3,2.391-46.136S212.765,260.4,212.765,260.4"/><line class="cls-13" x1="270.213" y1="221.513" x2="469.405" y2="95.142"/><line class="cls-13" x1="494.133" y1="79.454" x2="524.493" y2="60.193"/><rect class="cls-12" x="386.602" y="76.754" width="48.466" height="2.88" transform="translate(564.893 466.994) rotate(-122.392)"/><line class="cls-14" x1="265.547" y1="205.396" x2="366.264" y2="141.499"/><path class="cls-9" d="M2.605,426.957c15.78.129,27.134-14.532,35.834-27.7,18.846-28.521,22.109-68.309,54.647-78.794,26.138-8.423,35.565-58.843,32.883-64.14-4.061-8.022-16.138-4.9-23.992-.523a803.708,803.708,0,0,0-99.1,65.258Z"/><path class="cls-10" d="M59.874,304.49S67.554,320.967,90,320.435l-12.988,8.106S61.026,319.9,59.874,304.49Z"/><path class="cls-10" d="M2.707,386.8l-.1,40.158c15.78.129,27.134-14.532,35.834-27.7,9.07-13.726,14.535-30.055,21.386-44.478C46.313,366.708,29.5,374.854,12.95,382.373,9.607,383.891,6.184,385.4,2.707,386.8Z"/><path class="cls-11" d="M2.605,426.957c15.78.129,27.134-14.532,35.834-27.7,18.846-28.521,22.109-68.309,54.647-78.794,26.138-8.423,35.565-58.843,32.883-64.14-4.061-8.022-16.138-4.9-23.992-.523a803.708,803.708,0,0,0-99.1,65.258Z"/><path class="cls-9" d="M72.355,316.515s12.4,5.187,20.731,3.95"/><path class="cls-9" d="M125.037,376.609s-4.525,9.225-3.825,15.592"/><path class="cls-10" d="M68.424,277.815A15.413,15.413,0,0,0,81.543,283a28.94,28.94,0,0,0,8.712-2.846q7.31-3.324,14.439-7.029c3.206-1.667,6.544-3.541,8.347-6.672-8.04,3.473-16.4,7.012-25.154,6.811-3.41-.079-6.909-.719-10.177.261-3.021.906-5.5,3.105-8.449,4.216"/><path class="cls-11" d="M67.205,276.274s6.931,8.446,16.839,6.465,36.33-21.726,36.33-21.726"/><path class="cls-9" d="M70.889,274.77s5.973,4.771,12.248,4.111"/><path class="cls-10" d="M165.426,379.358c-1.944,4.15-1.232,9.153.783,13.268s5.2,7.524,8.33,10.867c-1.283,1.179-3.339.462-4.859-.39a47.561,47.561,0,0,1-9.878-7.381,17.758,17.758,0,0,1-4.721-6.7,8,8,0,0,1,1.166-7.805,12.166,12.166,0,0,1,3.6-2.482c1.625-.851,3.692-1.673,5.172-.59"/><path class="cls-11" d="M163.216,376.06s-11.4,8.961-9.516,9.885,7.561,21.136,34.67,26.238"/></g></svg>