<?xml version="1.0" encoding="utf-8"?>
<!-- Generator: Adobe Illustrator 24.1.2, SVG Export Plug-In . SVG Version: 6.00 Build 0)  -->
<svg version="1.1" id="Layer_1" xmlns="http://www.w3.org/2000/svg" xmlns:xlink="http://www.w3.org/1999/xlink" x="0px" y="0px"
	 viewBox="0 0 1367 844.7" style="enable-background:new 0 0 1367 844.7;" xml:space="preserve">
<style type="text/css">
	.st0{fill:#8E452D;}
	.st1{fill:none;stroke:#16221D;stroke-width:1.53;stroke-linecap:round;stroke-linejoin:round;}
	.st2{fill:#D3BCCB;stroke:#0C0007;stroke-width:1.5;stroke-linecap:round;stroke-linejoin:round;}
	.st3{fill:#7C3B25;stroke:#16221D;stroke-width:1.5;stroke-miterlimit:10;}
	.st4{clip-path:url(#SVGID_2_);}
	.st5{fill:#16221D;stroke:#16221D;stroke-width:1.41;stroke-miterlimit:10;}
	.st6{fill:none;stroke:#16221D;stroke-width:1.5;stroke-miterlimit:10;}
	.st7{fill:none;}
	.st8{fill:#F2E6D4;}
	.st9{fill:#16221D;}
	.st10{fill:#CCCCCC;stroke:#16221D;stroke-width:1.5;stroke-miterlimit:10;}
	.st11{fill:#FFFFFF;}
	.st12{fill:#16221D;stroke:#16221D;stroke-width:1.5;stroke-miterlimit:10;}
	.st13{fill:none;stroke:#666666;stroke-width:1.5;stroke-miterlimit:10;}
	.st14{fill:#666666;}
	.st15{fill:#DEB88C;stroke:#231815;stroke-width:1.5;stroke-linecap:round;stroke-linejoin:round;}
	.st16{opacity:9.000000e-02;}
</style>
<polygon class="st0" points="133.5,750.7 133.5,0.4 -0.2,0.4 -0.2,841 "/>
<polyline class="st1" points="-0.2,0.4 -0.2,841 133.5,750.7 133.5,0.4 "/>
<g>
	<polygon class="st2" points="134.5,624.2 37.8,660.2 37.8,653.5 116,624.3 	"/>
	<polygon class="st3" points="113.3,371.1 132,371.1 134.7,624.1 134.5,624.2 116,624.3 	"/>
	<g>
		<defs>
			<polygon id="SVGID_1_" points="116,624.3 37.8,653.5 37.8,371.1 113.3,371.1 			"/>
		</defs>
		<clipPath id="SVGID_2_">
			<use xlink:href="#SVGID_1_"  style="overflow:visible;"/>
		</clipPath>
		<g class="st4">
			<polygon class="st5" points="116,621.1 37.8,650.3 37.8,367.9 113.3,367.9 			"/>
		</g>
	</g>
	<polygon class="st6" points="116,624.3 37.8,653.5 37.8,371.1 113.3,371.1 	"/>
</g>
<ellipse class="st0" cx="200.9" cy="783.5" rx="90.8" ry="14.9"/>
<g>
	<line class="st7" x1="130.6" y1="789" x2="180.2" y2="757.9"/>
	<g>
		<g>
			<g>
				<path class="st8" d="M81.8,679.7c1.3,3.9,18.7,38.9,20,42.8c0,0,35,24.7,57.8-34.2l-25.1-31.2L81.8,679.7z"/>
				<path class="st9" d="M79.6,680.3c1.2,3.1,2.6,6.2,4.1,9.2c2.4,5,4.8,10.1,7.2,15.1c2.2,4.7,4.5,9.3,6.6,14
					c0.4,0.8,0.8,1.6,1.1,2.4l0.4,1c0.1,0.1,0.1,0.3,0.2,0.4c0-0.1-0.2-0.5,0,0c0.3,0.9,0.8,1.7,1.5,2.2c10.3,6.5,23.3,7,34,1.2
					c11.5-6.4,18.9-18.5,24.1-30.1c1-2.2,1.9-4.4,2.8-6.7c0.2-0.8,0-1.6-0.6-2.2l-22-27.3l-3.1-3.9c-0.7-0.7-1.8-0.9-2.7-0.3
					l-17.7,7.6l-28.5,12.1l-6.5,2.8c-1.1,0.6-1.4,2-0.8,3.1c0.7,1,2,1.4,3.1,0.8l17.7-7.6l28.4-12.1l6.5-2.8l-2.7-0.4l22,27.3
					l3.1,3.9l-0.6-2.2c-3.4,8.8-7.8,17.7-13.9,24.9c-2.1,2.5-4.6,4.8-7.2,6.8c-1.2,0.9-2.4,1.6-3.7,2.3c-0.6,0.3-1.2,0.6-1.8,0.9
					l-0.8,0.4c0,0-0.7,0.3-0.2,0.1l-0.6,0.2c-1.1,0.5-2.3,0.8-3.5,1.1c-0.6,0.1-1.1,0.3-1.7,0.4l-0.9,0.2h-0.3
					c-0.6,0.1,0.5-0.1-0.1,0c-2.1,0.3-4.3,0.3-6.4,0.1l-0.7-0.1h-0.4c0,0,0.6,0.1,0.2,0l-1.4-0.2c-0.9-0.2-1.8-0.4-2.7-0.6
					s-1.6-0.5-2.4-0.8l-1-0.4l-0.5-0.2c-0.2-0.1,0.5,0.2,0,0c-1.6-0.6-3-1.4-4.4-2.4l1,1.3c-0.7-2-1.6-3.9-2.5-5.8
					c-1.5-3.2-3-6.5-4.6-9.7c-3.4-7.1-6.8-14.1-10.1-21.2c-0.7-1.4-1.3-2.8-1.9-4.2c-0.1-0.2-0.2-0.5-0.3-0.7l-0.2-0.3
					c-0.2-0.5,0.2,0.4,0,0s-0.3-0.6-0.3-0.9C83,676.3,78.7,677.5,79.6,680.3z"/>
			</g>
			<path class="st10" d="M278.5,677.8l7.6,9.8c-19.8,21-42.7,38.8-67.9,52.8c-12.5,7-25.9,13.1-40.2,13.5l3.6,8.8
				c-16.4,9.2-32.3,19.3-47.6,30.1c-3.8-4.6-8.9-10.6-12.7-15.2l21-30.2L278.5,677.8z"/>
			<path class="st11" d="M136.3,727.8c2.9,0,2.9-4.5,0-4.5S133.4,727.8,136.3,727.8z"/>
			<path class="st12" d="M120.9,779.2c15-16.4,36.5-25.1,57.2-33.2c38.5-15.1,79.8-32.3,100.8-67.9l-7.6-7.7c-1.4-1.4-3.5-1.5-5-0.3
				c-14.3,10.9-30.3,21.7-48,20c-7.1-0.7-13.8-3.3-20.7-5.2c-13.5-3.7-27.5-4.7-41.4-2.9c3.1,18.3-13.5,35-31.6,39.3
				c-7.8,1.7-15.9,2.1-23.9,1.2C100.7,722.5,102.7,761.5,120.9,779.2"/>
			<path class="st13" d="M162.1,752.5c-2.7-15.2,4.9-31.7,18.3-39.3c4.1-2.4,8.6-3.9,12.9-5.7c7.6-3.1,14.9-6.9,21.8-11.3
				c1.5-1,3.7-2.9,4.2-4.6"/>
			<path class="st13" d="M158.5,754c-2.7-15.2,5.1-34.4,18.5-42.1c4.1-2.4,8.6-3.9,12.9-5.7c7.6-3.1,14.9-6.9,21.8-11.3
				c1.5-1,3.7-2.9,4.2-4.6"/>
			<path class="st13" d="M161.3,694.9c21-5.9,32.4-6.7,54.1-5.1"/>
			<path class="st13" d="M208.5,733.4c-1.6-8.1-6.6-20.9-11.8-27.3"/>
			<path class="st13" d="M211.8,731.8c-0.8-7.3-7.6-21.2-11.8-27.3"/>
			<path class="st13" d="M248.8,711c-1.4-7-5.8-18.1-10.4-23.6"/>
			<path class="st13" d="M251.3,708.7c-0.7-6.3-6.3-17.4-10-22.6"/>
			<g>
				<path class="st14" d="M156,733.1c1.7,0.5,2.7,2.3,2.3,4c-0.2,0.8-0.7,1.5-1.4,2c-0.7,0.5-1.6,0.7-2.5,0.5
					c-0.9-0.2-1.7-0.7-2.1-1.4c-1-1.6-0.5-3.7,1.1-4.7C154.1,733,155.1,732.8,156,733.1L156,733.1z"/>
				<path class="st14" d="M165.9,715.7c0.7,0.6,1.1,1.4,1.1,2.3c0.1,0.8-0.1,1.7-0.6,2.3c-0.5,0.7-1.3,1.1-2.1,1.2
					c-0.9,0.1-1.7,0-2.5-0.5c-0.8-0.5-1.3-1.3-1.4-2.2c-0.1-0.9,0.1-1.9,0.7-2.6c0.6-0.8,1.4-1.3,2.4-1.3
					C164.3,714.8,165.2,715.1,165.9,715.7z"/>
				<path class="st14" d="M182.8,705.2c0.7,1.7-0.1,3.7-1.8,4.4c-1.7,0.7-3.7-0.1-4.4-1.8c-0.7-1.7,0.1-3.7,1.8-4.4
					C180.1,702.7,182,703.4,182.8,705.2z"/>
				<path class="st14" d="M201.3,697.3c0.9,1.6,0.2,3.7-1.4,4.5c-1.6,0.9-3.7,0.2-4.5-1.4c-0.1-0.1-0.1-0.2-0.1-0.3
					c-0.7-1.7,0.1-3.7,1.9-4.4C198.6,695.1,200.5,695.8,201.3,697.3z"/>
			</g>
			<path class="st13" d="M109.6,758.8c0,0,12.7-8.4,32.8,3.5"/>
			<path class="st14" d="M131.3,753.7c-0.3,0.9-0.9,1.6-1.7,2c-0.8,0.5-1.8,0.6-2.8,0.4c-1.9-0.2-3.4-1.9-3.4-3.8
				c0.1-1.9,2.2-3.2,4.6-2.8c1.1,0.2,2,0.8,2.8,1.6C131.3,751.8,131.5,752.8,131.3,753.7z"/>
			<path class="st13" d="M111.1,761.8c0,0,12.1-7,28.2,2.3"/>
			<path class="st13" d="M101.1,727c0,0,29,11.5,51.5-16.5c16.4-20.5,6.4-28.8,6.4-28.8"/>
			<path class="st13" d="M165.6,693.7c0,0,1-6.9-2.2-12.4"/>
			<path class="st13" d="M169.7,692.6c0,0,1.3-6.3-1.8-11.8"/>
			<path class="st13" d="M173.9,692c1-3.6,0.5-7.5-1.3-10.8"/>
			<path class="st13" d="M177.9,690.9c0,0,1.6-4.5-1.6-9.9"/>
			<path class="st13" d="M181.3,690.5c0,0,2.1-3.4-1-8.9"/>
			<path class="st13" d="M184.9,689.8c0,0,1.8-2.6-1.3-8"/>
			<path class="st9" d="M122.5,780.8c17.7-19.2,43.6-27.5,67.2-37c22.7-9.1,45.4-19.3,64.6-34.6c10.6-8.3,19.6-18.5,26.5-30
				c0.5-0.9,0.4-2-0.4-2.7l-4-4c-1.3-1.5-2.8-2.9-4.4-4.2c-1.9-1.4-4.4-1.6-6.5-0.5c-0.9,0.6-1.8,1.3-2.7,2l-3,2.3
				c-3.9,2.9-8,5.5-12.2,8c-8,4.6-16.9,8.1-26.3,8.1c-10.3,0-19.8-4.7-29.7-6.8c-11.8-2.5-23.8-3-35.8-1.4c-1.3,0-2.3,1.1-2.2,2.3
				c0,0,0,0,0,0c0,0.2,0,0.3,0.1,0.5c1.4,8.8-2.4,17.4-8.2,23.8c-6.5,6.9-15,11.6-24.3,13.3c-6.8,1.2-13.8,1.4-20.7,0.6
				c-1.2,0-2.2,1-2.3,2.3c0.3,5,0.9,10,1.8,14.9c1.6,10,4.6,19.7,8.9,28.8c2.5,5.4,5.9,10.2,10.1,14.5c2.1,2,5.3-1.2,3.2-3.2
				c-7.2-7-11.4-16.7-14.3-26.2c-1.3-4.5-2.4-9-3.3-13.6c-0.7-3.8-1.2-6.8-1.5-10.3c-0.2-1.6-0.3-3.3-0.4-4.9l-2.3,2.3
				c12,1.2,24.6,0.2,35.4-5.5c8.9-4.7,16.5-12.2,20.4-21.5c2.1-5.2,2.7-10.9,1.8-16.4l-2.2,2.8c10.3-1.4,20.8-1.2,31.1,0.5
				c5.1,1,10.1,2.2,15.1,3.8c4.8,1.6,9.8,2.8,14.8,3.6c9.3,1.1,18.6-1.3,27-5.2c4.3-2,8.4-4.4,12.4-7c2-1.3,4-2.7,5.9-4.1l2.8-2.1
				c0.9-0.8,1.8-1.5,2.8-2.1c0.9-0.3,1.5,0.2,2.1,0.8l2.6,2.6l4.6,4.6l-0.4-2.7c-12.2,20.7-31.9,35.3-52.8,46.3
				c-10.8,5.6-21.9,10.6-33.2,15c-11.8,4.8-23.9,9.2-35.5,14.5c-13.3,6.1-26.2,13.8-36.2,24.6C117.3,779.7,120.5,782.9,122.5,780.8
				L122.5,780.8z"/>
		</g>
		<path class="st15" d="M96.8,713.3c1.1-6.5,6.5-11.4,11.8-15.3c17.6-13.1,77.5-31.5,66.7-41.5l-56.9-64.3
			c-15.8-17.9-35.2-30.7-45.8-52.1l-34.7-57.7v152.4L96.8,713.3z"/>
	</g>
	<path class="st6" d="M130.6,789c0,0,35.6-24.5,49.6-31.2"/>
	<path class="st6" d="M89.8,703.1c0,0,17.5-23.7,35.7-28.3c19-4.9,29-9,37.3-21.6"/>
	<line class="st6" x1="59" y1="649.2" x2="89.6" y2="694.5"/>
	<line class="st6" x1="106.9" y1="647.4" x2="127.7" y2="663.6"/>
	<g class="st16">
		<path class="st9" d="M124.5,664.3c-2.1-0.1-4.2,0-6.2,0.4c-3.9,0.8-7,3.6-10.5,5.5c-6.9,3.7-15.3,3.7-22.6,1.2s-13.7-7.4-19-13.1
			c-4.4-4.8-9.3-13.7-13.3-20.3c-1.9,0.7-3.8,1.4-5.6,2.3l50,72.6c1.1-6.5,6.5-11.4,11.8-15.3c17.6-13.1,77.5-31.5,66.7-41.5
			l-20.5-5.1c-1.2,1.2-2.4,2.3-3.7,3.4C143.9,660.6,134.4,664.1,124.5,664.3z"/>
	</g>
</g>
</svg>
