<svg xmlns="http://www.w3.org/2000/svg" xmlns:xlink="http://www.w3.org/1999/xlink" viewBox="0 0 1367 769">
  <defs>
    <clipPath id="a">
      <path d="M218,78.31c-16.69,1.74-31.21,10.22-48.82,8.91-23.93-1.78-41.56-7.77-64.93,2.92-2.07,1-4.19,2.06-5.43,4s-1.42,4.36-1.4,6.67c.07,7.11,1.51,14.36,5.25,20.41,8.7,14,24.28,12.86,38.59,10.67,13.47-2,25.75,4,38.92,5.06,14.49,1.17,26-4.56,39.81-7.7,12.27-2.77,36.87,3.89,43.08-10.52,9.31-21.59-9.1-35-28.19-39.43A51,51,0,0,0,218,78.31Z" fill="none"/>
    </clipPath>
    <clipPath id="b">
      <path d="M135.18,220.68v-28.8L41.89,469V708.64s50.7,9.15,50.91-13V683.73c1.57-1.47,4.48-3.06,9.84-4.12A44.62,44.62,0,0,1,114,678.9c8,.47,21.23.42,21.23-10.8V647.74c8.1.39,20.21-.11,20.21-10.86V160.66Z" fill="none"/>
    </clipPath>
    <clipPath id="c">
      <polygon points="167.05 285.75 54.78 397.55 54.78 107.53 167.05 107.53 167.05 285.75" fill="none"/>
    </clipPath>
  </defs>
  <g>
    <g clip-path="url(#a)">
      <g>
        <path d="M218,78.31c-16.69,1.74-31.21,10.22-48.82,8.91-23.93-1.78-41.56-7.77-64.93,2.92-2.07,1-4.19,2.06-5.43,4s-1.42,4.36-1.4,6.67c.07,7.11,1.51,14.36,5.25,20.41,8.7,14,24.28,12.86,38.59,10.67,13.47-2,25.75,4,38.92,5.06,14.49,1.17,26-4.56,39.81-7.7,12.27-2.77,36.87,3.89,43.08-10.52,9.31-21.59-9.1-35-28.19-39.43A51,51,0,0,0,218,78.31Z" fill="#f2e6d4" stroke="#16221d" stroke-miterlimit="10" stroke-width="1.38"/>
        <path d="M264.33,100.29S258.77,120.72,232.1,118a33,33,0,0,1-17.72-7.77c-5-4.17-13.27-8.89-23.25-5.67A24,24,0,0,0,181,111.22c-5.41,5.87-25.4,21.45-78.27,10,0,0,1.35,19.87,4.35,20.52S202.42,148,202.42,148h80Z" fill="#fbc8a2"/>
      </g>
    </g>
    <path d="M218,78.31c-16.69,1.74-31.21,10.22-48.82,8.91-23.93-1.78-41.56-7.77-64.93,2.92-2.07,1-4.19,2.06-5.43,4s-1.42,4.36-1.4,6.67c.07,7.11,1.51,14.36,5.25,20.41,8.7,14,24.28,12.86,38.59,10.67,13.47-2,25.75,4,38.92,5.06,14.49,1.17,26-4.56,39.81-7.7,12.27-2.77,36.87,3.89,43.08-10.52,9.31-21.59-9.1-35-28.19-39.43A51,51,0,0,0,218,78.31Z" fill="none" stroke="#16221d" stroke-miterlimit="10" stroke-width="1.38"/>
  </g>
  <g>
    <g>
      <g>
        <rect x="242.41" y="332.22" width="8.15" height="31.67" fill="#bdb0ae" stroke="#16221d" stroke-miterlimit="10" stroke-width="1.5"/>
        <path d="M269.3,286.16,237,307.78c-3,2-.69,10.77,5.19,19.55s13.09,14.26,16.1,12.24L290.6,318Z" fill="#e5d3d0" stroke="#16221d" stroke-miterlimit="10" stroke-width="1.5"/>
        <ellipse cx="279.95" cy="302.09" rx="6.57" ry="19.14" transform="translate(-120.75 206.86) rotate(-33.81)" fill="#918887" stroke="#16221d" stroke-miterlimit="10" stroke-width="1.5"/>
        <ellipse cx="280.24" cy="301.89" rx="4.19" ry="15.93" transform="translate(-120.59 206.99) rotate(-33.81)" fill="#ffd893" stroke="#16221d" stroke-miterlimit="10" stroke-width="1.5"/>
        <rect x="231.13" y="320.44" width="30.61" height="9.68" rx="2.13" transform="translate(-139.33 192.14) rotate(-33.81)" fill="#e5d3d0" stroke="#16221d" stroke-miterlimit="10" stroke-width="1.5"/>
        <circle cx="255.1" cy="319.5" r="2.05" fill="#8e8584" stroke="#16221d" stroke-miterlimit="10" stroke-width="1.5"/>
      </g>
      <path d="M95.22,358.73h157a4.41,4.41,0,0,1,4.39,4.39h0v5.22a4.41,4.41,0,0,1-4.39,4.39h-157a7,7,0,0,1-7-7h0a7,7,0,0,1,7-7Z" fill="#e5d3d0" stroke="#16221d" stroke-miterlimit="10" stroke-width="1.37"/>
    </g>
    <g>
      <g>
        <g>
          <g clip-path="url(#b)">
            <g>
              <path d="M135.18,220.68v-28.8L41.89,469V708.64s50.7,9.15,50.91-13V683.73c1.57-1.47,4.48-3.06,9.84-4.12A44.62,44.62,0,0,1,114,678.9c8,.47,21.23.42,21.23-10.8V647.74c8.1.39,20.21-.11,20.21-10.86V160.66Z" fill="#b05232"/>
              <path d="M92.8,683.73V537.14s-6.65,119.12,42.3,81.18v65.41S112.49,700.06,92.8,683.73Z" fill="#8e452d"/>
              <path d="M135.49,649.65V549.51s-6.64,72.66,42.3,34.72v65.42S155.18,666,135.49,649.65Z" fill="#8e452d"/>
              <path d="M109.32,450.08l6.22,17.23s-15.9.54-21.89,65V431.19Z" fill="#8e452d"/>
            </g>
          </g>
          <line x1="92.8" y1="683.73" x2="92.8" y2="524.32" fill="none" stroke="#16221d" stroke-miterlimit="10" stroke-width="1.5"/>
          <line x1="92.8" y1="566.03" x2="92.8" y2="406.61" fill="none" stroke="#16221d" stroke-miterlimit="10" stroke-width="1.5"/>
          <line x1="135.18" y1="647.74" x2="135.18" y2="586.38" fill="none" stroke="#16221d" stroke-miterlimit="10" stroke-width="1.5"/>
          <line x1="135.18" y1="568.41" x2="135.18" y2="562.37" fill="none" stroke="#16221d" stroke-miterlimit="10" stroke-width="1.5"/>
          <line x1="135.18" y1="402.63" x2="135.18" y2="247.06" fill="none" stroke="#16221d" stroke-miterlimit="10" stroke-width="1.5"/>
          <g>
            <path d="M135.18,445.37v7.72A13.88,13.88,0,0,0,135.18,445.37Z" fill="#8e452d"/>
            <path d="M92.8,324.84V469.37c31.76.23,40.39-9.18,42.38-16.28V315.81Z" fill="#8e452d"/>
            <path d="M155.39,291,169,279.5l-33.81,7.2V416.27C162.5,408,155.4,377.5,155.4,377.5Z" fill="#8e452d"/>
          </g>
          <line x1="135.18" y1="540.31" x2="135.18" y2="431.19" fill="none" stroke="#16221d" stroke-miterlimit="10" stroke-width="1.5"/>
          <line x1="135.18" y1="397.91" x2="135.18" y2="242.34" fill="none" stroke="#16221d" stroke-miterlimit="10" stroke-width="1.5"/>
        </g>
        <path d="M135.18,220.68v-28.8L41.89,469V708.64s50.7,9.15,50.91-13V683.73c1.57-1.47,4.48-3.06,9.84-4.12A44.62,44.62,0,0,1,114,678.9c8,.47,21.23.42,21.23-10.8V647.74c8.1.39,20.21-.11,20.21-10.86V160.66Z" fill="none" stroke="#16221d" stroke-miterlimit="10" stroke-width="1.5"/>
      </g>
      <polygon points="191.19 396.11 0.5 607.48 0.5 0.5 191.19 0.5 191.19 396.11" fill="#9faac4" stroke="#16221d" stroke-miterlimit="10" stroke-width="1.38"/>
      <polygon points="168.18 289.31 53.66 403.35 53.66 107.53 168.18 107.53 168.18 289.31" fill="#424e63" stroke="#16221d" stroke-miterlimit="10" stroke-width="1.25"/>
      <g clip-path="url(#c)">
        <g>
          <rect x="52.29" y="106.29" width="220.12" height="179.46" fill="#5d6b85" stroke="#16221d" stroke-miterlimit="10" stroke-width="1.25"/>
          <polygon points="90.35 298.03 129.59 285.75 95.54 285.75 90.35 298.03" fill="#231f20" stroke="#16221d" stroke-linecap="round" stroke-linejoin="round" stroke-width="1.38"/>
          <path d="M105.43,261.69c-2.88-7-.83-11.63-.83-11.63h-.75V250H103V250h-.22v0h-.88v-.05h.1v0h-1.18v-.05H101v-.05H99.93v0h0v-.05H99v0h0a10,10,0,0,1-2.79-.09c-3.29-5.35-2.45-14-2.45-14,1.52-13.47,8.63-8.59,8.63-8.59l-.5-2.73a8.88,8.88,0,0,1,.48-4.73,79.24,79.24,0,0,0,3.68-13.6c1.22-6.73-1.17-13.14-6.19-16.88h-3.5L95,182h-.36a15.57,15.57,0,0,0-2.3-1.44c-7.18-3.7-16-3.81-16-3.81a46.88,46.88,0,0,0-16.82,3.8,21.65,21.65,0,0,0-12.58,18.3A70.48,70.48,0,0,0,47.3,212a9,9,0,0,1-.6,4.73l-1.11,2.73s5,3.35,5.58,3.94a8,8,0,0,1,1.16-.51,21.21,21.21,0,0,1-.06,5.16s-2.48,19.29-14.9,18.06c0,0,1,4.6-3.46,11.64,0,0-14.09,21.74,4.36,34.6l.22.16H43A33.86,33.86,0,0,0,63.16,298c2.49-.11,5-.11,7.42,0a40.41,40.41,0,0,0,21.62-5.57C114.61,283.43,105.43,261.69,105.43,261.69Z" fill="#bd9c78" stroke="#231815" stroke-linecap="round" stroke-linejoin="round" stroke-width="2"/>
          <path d="M99.79,257.71c-2.87-7-.82-11.63-.82-11.63C86.27,247.3,88.15,228,88.15,228c1.52-13.47,8.62-8.59,8.62-8.59l-.5-2.73a8.92,8.92,0,0,1,.48-4.74,78.88,78.88,0,0,0,3.68-13.59c1.39-7.66-1.9-14.93-8.43-18.29-7.18-3.7-16-3.81-16-3.81a46.88,46.88,0,0,0-16.82,3.8,21.63,21.63,0,0,0-12.57,18.3,70.29,70.29,0,0,0,.6,13.6,8.9,8.9,0,0,1-.59,4.73l-1.12,2.73s8.21-4.88,6.69,8.59c0,0-2.49,19.29-14.9,18.07,0,0,1,4.59-3.46,11.63,0,0-14.09,21.74,4.36,34.6a33.55,33.55,0,0,0,20.36,5.57c2.48-.11,5-.11,7.41,0a40.44,40.44,0,0,0,21.63-5.57C109,279.45,99.79,257.71,99.79,257.71Z" fill="#deb88c" stroke="#231815" stroke-linecap="round" stroke-linejoin="round" stroke-width="2"/>
          <polygon points="57.97 267.1 56.31 250.49 69.18 250.49 61.5 267.1 56.31 298.03 53.82 298.03 57.97 267.1" fill="#515254" stroke="#16221d" stroke-linecap="round" stroke-linejoin="round" stroke-width="1.38"/>
          <path d="M77.9,125.31l6.85.1-11.12,96.9-11-.31S76.86,129.46,77.9,125.31Z" fill="#515254" stroke="#16221d" stroke-linecap="round" stroke-linejoin="round" stroke-width="1.38"/>
          <line x1="81.21" y1="134.64" x2="64.74" y2="253.35" fill="none" stroke="#16221d" stroke-linecap="round" stroke-linejoin="round" stroke-width="1.38"/>
          <line x1="61.52" y1="253.35" x2="79.36" y2="134.64" fill="none" stroke="#16221d" stroke-linecap="round" stroke-linejoin="round" stroke-width="1.38"/>
          <line x1="58.42" y1="253.35" x2="77.45" y2="134.64" fill="none" stroke="#16221d" stroke-linecap="round" stroke-linejoin="round" stroke-width="1.38"/>
          <path d="M73.25,232.26s-2.58-.1-.66-3a6.74,6.74,0,0,1,5.78-3.14,3.52,3.52,0,0,1,3.21,3.1,8.13,8.13,0,0,1-.34,4.26c-1.75,5.34-7,22.94-1.59,25.65,0,0,2.22.71,3-1.18a3.38,3.38,0,0,1-.48-4.34c1.12-1.77,3.59-2.36,4.59-1,.55.73.67,1.94-.61,3.89a9.72,9.72,0,0,1-5.29,4.07c-2.14.61-4.77.4-6.24-3.29a11.77,11.77,0,0,1-.46-6.44c.58-3.12,2-8.7,5.8-17.93a6.2,6.2,0,0,0,.49-2.4c0-1.43-.77-3.1-4.21-2.31C76.25,228.19,76.56,232.12,73.25,232.26Z" fill="#515254" stroke="#16221d" stroke-linecap="round" stroke-linejoin="round" stroke-width="0.97"/>
          <path d="M56.9,231.8s2.61-.09,1.44-3a4.78,4.78,0,0,0-9,0,8.58,8.58,0,0,0-.79,4.26c.33,5.34,1,22.94-5.2,25.65,0,0-2.41.72-2.7-1.17,0,0,2.54-1.86,1.63-4.35a2.68,2.68,0,0,0-3.45-1.54,2.84,2.84,0,0,0-.86.54c-.75.74-1.19,1.94-.43,3.89a6.74,6.74,0,0,0,4.22,4.07c2,.62,4.67.41,7.11-3.29A13.69,13.69,0,0,0,51,250.42c.25-3.12.26-8.69-1-17.93a5.89,5.89,0,0,1,.14-2.4c.43-1.43,1.6-3.1,4.82-2.31C55,227.73,53.63,231.66,56.9,231.8Z" fill="#515254" stroke="#16221d" stroke-linecap="round" stroke-linejoin="round" stroke-width="0.97"/>
          <polygon points="88.93 118.77 86.13 118.77 86.44 115.42 78.88 115.42 78.31 118.77 74.76 118.77 73.98 125.54 77.15 125.54 75.69 134.11 84.72 134.11 85.51 125.54 88.93 125.54 88.93 118.77" fill="#deb88c" stroke="#231815" stroke-linecap="round" stroke-linejoin="round" stroke-width="2"/>
        </g>
      </g>
      <polygon points="168.18 289.31 53.66 403.35 53.66 107.53 168.18 107.53 168.18 289.31" fill="none" stroke="#16221d" stroke-miterlimit="10" stroke-width="1.38"/>
      <g>
        <path d="M132.18,19.67a9.78,9.78,0,0,0-3.78.72c7.61,3.2,13.19,15.63,13,30.43s-6,27.1-13.7,30.13a9.94,9.94,0,0,0,3.76.8c9.46.11,17.28-13.7,17.47-30.85S141.64,19.77,132.18,19.67Z" fill="#5d6b85" stroke="#16221d" stroke-miterlimit="10" stroke-width="1.38"/>
        <ellipse cx="128.05" cy="50.67" rx="30.28" ry="13.36" transform="translate(75.98 178.16) rotate(-89.37)" fill="#2a3631" stroke="#16221d" stroke-miterlimit="10" stroke-width="1.38"/>
      </g>
    </g>
  </g>
  <path d="M186.72,503.12c2.58-5.88-8.8-10.41-12.48-12.3a75,75,0,0,0-11.34-4.74,24.73,24.73,0,0,0-4.38-1.21,1.46,1.46,0,0,0-.7-.38c-11.91-2.59-26.42-3.89-37.07,3.28-4.59,3.09-8.31,7.64-9.54,13.11-1,4.25-.21,9.6,4,11.87,2.89,1.56,6.31,1.09,9.45.91,4-.24,8-.53,12-.71,6.68-.3,13.39,1.7,20,0,5.67-1.46,10.75-4.68,16.47-6C177.15,506,184.53,508.13,186.72,503.12Z" fill="#f2e6d4" stroke="#16221d" stroke-miterlimit="10" stroke-width="1.5"/>
</svg>
