<?xml version="1.0" encoding="utf-8"?>
<!-- Generator: Adobe Illustrator 24.1.2, SVG Export Plug-In . SVG Version: 6.00 Build 0)  -->
<svg version="1.1" id="Layer_1" xmlns="http://www.w3.org/2000/svg" xmlns:xlink="http://www.w3.org/1999/xlink" x="0px" y="0px"
	 viewBox="0 0 1367 790.3" style="enable-background:new 0 0 1367 790.3;" xml:space="preserve">
<style type="text/css">
	.st0{fill:#16221D;}
	.st1{fill:#FFFFFF;stroke:#16221D;stroke-width:1.52;stroke-miterlimit:10;}
	.st2{fill:#BDB0AE;stroke:#16221D;stroke-width:1.45;stroke-miterlimit:10;}
	.st3{opacity:0.22;}
	.st4{fill:#BDB0AE;}
	.st5{fill:none;stroke:#CCCCCC;stroke-width:1.52;stroke-miterlimit:10;stroke-dasharray:10.31;}
	.st6{fill:#FFFFFF;}
	.st7{fill:#4DA58E;stroke:#16221D;stroke-width:1.75;stroke-miterlimit:10;}
	.st8{fill:#9FAAC4;stroke:#16221D;stroke-width:1.5;stroke-miterlimit:10;}
	.st9{fill:#FFD377;stroke:#16221D;stroke-width:1.75;stroke-miterlimit:10;}
	.st10{fill:#FFD377;}
	.st11{fill:none;stroke:#16221D;stroke-width:1.52;stroke-miterlimit:10;}
</style>
<g>
	<path class="st0" d="M354.7,593.3c2.6,0.7,5.3,0.9,8,0.7c0.8,0,1.5-0.7,1.5-1.5c0-0.8-0.7-1.5-1.5-1.5c-1.2,0.1-2.5,0.1-3.7,0
		l-0.9-0.1c-0.2,0-0.2,0,0,0h-0.2l-0.5-0.1c-0.6-0.1-1.2-0.3-1.8-0.4c-0.8-0.2-1.6,0.2-1.9,1.1C353.4,592.3,353.9,593.1,354.7,593.3
		L354.7,593.3z"/>
	<g>
		<path class="st1" d="M93.6,213.9c0,0-50,8-42.6,59s13.4,385.5,35.2,397.8c0,0-6.5-280.4-9-282.5s-8.5-135.9-8.5-135.9
			S86.2,218.8,93.6,213.9z"/>
		<path class="st2" d="M70.2,252.3c-6.8-1.3-10.1-9.1-8-15s7.7-10.3,13.5-13.9c19.9-12,35.3-17.7,59.1-20.9
			c28.7-3.8,57.9-4,86.9-4.2l103.9-0.7c-1.2,11.3-1.4,22.6-0.6,33.9l-135.3,8.8c-28.1,1.8-56.3,3.7-83.9,8.5
			c-16.1,2.8-15.2,6.5-31.6,5.8"/>
		<path class="st2" d="M294.6,204c19.8-0.1,39.5,1.5,59,5.1l-6.2,18.4c-0.2,0.8-0.6,1.6-1.3,2.1c-0.5,0.3-1.1,0.5-1.8,0.6
			c-10.2,1.9-20.5,2.8-30.8,2.5c-1.9,0.1-3.7-0.3-5.4-1c-1.1-0.7-2.1-1.6-2.9-2.7c-5.2-6.5-8.5-14.3-9.7-22.5"/>
		<path class="st2" d="M68.2,249.3c-4-0.1-6.7-4.1-6.3-7.6s3.2-6.5,6.3-8.7c9-6.5,12.3-8.5,23.7-10.5c36.5-6.5,72.9-13.6,109.2-21.1
			c27.5-5.7,55.4-11.9,79.8-24.7l26.9,55.4L68.2,249.3z"/>
		<path class="st1" d="M373.4,657.1c7.8,1.2-6.4-422.8-25.9-426.1C260.8,222.5,67,249.5,67,249.5C82.1,387.2,67.2,533.6,86.1,671
			C86.1,671,259.1,684.4,373.4,657.1z"/>
	</g>
	<g class="st3">
		<path class="st4" d="M360.6,645.6c1.8-15.3-6.8-27.1-19.5-35.8c-5.8-4-12.6-6.2-19-9.2c-29.9-14.2-49.1-48.4-45.5-81.4
			c-12.7,25.1-11.2,56.7,3.6,80.5c5.3,8.4,12.5,16.2,21.9,19.3c7.6,2.5,15.8,1.8,23.6,2.8c12.3,1.7,23.6,7.5,32.1,16.6
			c2.5,2.7,4,8.2,0.4,9.1"/>
		<path class="st4" d="M357.1,648c-0.4-3.9-2.4-7.4-5.4-9.8c-3.1-2.4-6.9-3.6-10.8-3.5c-2.1-0.1-4.1,0.5-5.7,1.7
			c-1.6,1.3-2.3,3.7-1.3,5.5s3.2,2.2,5.1,2s3.7-1,5.6-1.4c5-0.9,10.1,1.1,13.1,5.3"/>
		<path class="st4" d="M351.8,603.7c-17-3.4-32.4-12.6-43.5-25.9c-12.3-14.8-18.6-33.7-17.7-52.9c0.2-4.8,8.2-4.3,8.4,0.4
			c0.8,17.1,5.9,33.8,16.5,47.5c9.7,12.5,22.7,22,37.5,27.5C354.9,601,353.8,604.2,351.8,603.7L351.8,603.7z"/>
		<path class="st4" d="M322.2,570.1c-4-5.3-7.4-11.5-7.1-18.2c0.2-4.3,2.7-9.2,7-9.7c2.9-0.4,5.7,1.3,7.5,3.6
			c3,3.7,3.8,8.8,3.8,13.5s-0.5,9.6,0.3,14.3c1.5,8.2,6.9,15.2,14.5,18.8C348.2,592.4,334.9,587.3,322.2,570.1z"/>
		<path class="st4" d="M338.5,561.3c1.6-4.8,5.5-8.1,7.9-12.4c4.7-7.9,5.8-17.4,3.2-26.3c-2.5-8.1-9.2-16.8-18.5-16.7
			c-4.2,0.1-8.3,2-10.2,5.9c-1.9,3.8-1.5,8.3,1,11.7c2.2,2.8,6.8,3.8,9.8,1.3c1.2-1,2.1-3.2,1.2-4.6c-0.3-0.4-0.4-0.4-1.1-0.5
			c-0.9-0.2-0.8,0.4-0.9,0.7c-2,4.9-9.3,1.4-7.4-3.5c2.2-5.9,10.3-7.2,14.9-3.3c5.4,4.6,4.3,13.2-0.5,17.7
			c-4.8,4.3-11.7,5.3-17.5,2.5c-5.9-3-9.5-9.6-9.6-16.1c0-6.7,3.1-13.5,8.9-17c5.9-3.5,13.2-4.1,19.6-1.5
			c12.1,4.7,18.9,18.5,19.1,30.8c0.2,7.1-1.5,14.1-4.9,20.3c-1.9,3.3-4.3,6.4-7,9.1c-6.4,6.2-3.2,15.2-1.5,20c0.5,1.4-2-2.2-4.3-5.4
			c-2.6-3.6-3.3-8.3-2-12.6C338.5,561.4,338.5,561.4,338.5,561.3z"/>
	</g>
	<g class="st3">
		<path class="st4" d="M74,257.5c-1.6,17.9,8.9,31.4,24,41.1c6.9,4.4,15,6.8,22.5,10c35.5,15.5,59,54.7,56.1,93.3
			c13.9-29.7,11.1-66.6-7.2-93.9c-6.4-9.6-15.1-18.4-26.3-21.7c-8.9-2.6-18.4-1.5-27.7-2.4c-14.4-1.5-27.8-7.9-38-18.2
			c-3-3.1-4.9-9.5-0.8-10.6"/>
		<path class="st4" d="M78,254.6c0.6,4.5,3,8.6,6.7,11.3c3.7,2.6,8.2,3.9,12.7,3.7c2.4,0,4.7-0.7,6.6-2.2c1.8-1.6,2.6-4.4,1.3-6.4
			s-3.8-2.4-6-2.1s-4.3,1.3-6.5,1.9c-5.8,1.3-11.9-0.9-15.5-5.7"/>
		<path class="st4" d="M85.7,306c20,3.4,38.3,13.5,51.8,28.7c14.9,16.9,22.9,38.6,22.6,61.1c-0.1,5.6-9.4,5.3-9.8-0.2
			c-1.6-20-8.1-39.2-20.9-54.8c-11.8-14.2-27.3-24.9-44.8-30.7C82.2,309.4,83.3,305.6,85.7,306L85.7,306z"/>
		<path class="st4" d="M121.5,344.2c4.8,6.1,9.1,13.2,8.9,20.9c-0.1,5.1-2.8,10.8-7.8,11.6c-3.3,0.5-6.7-1.3-8.8-3.9
			c-3.6-4.2-4.7-10.1-5-15.6s0.2-11.2-0.9-16.7c-2-9.6-8.6-17.6-17.5-21.4C90.3,319.1,106,324.6,121.5,344.2z"/>
		<path class="st4" d="M102.8,355c-1.7,5.7-6.1,9.7-8.8,14.8c-5.2,9.4-6.2,20.6-2.8,30.8c3.3,9.4,11.3,19.3,22.2,18.8
			c4.9-0.2,9.6-2.6,11.7-7.2c2.1-4.5,1.5-9.8-1.6-13.6c-2.7-3.2-8.1-4.2-11.4-1.2c-1.3,1.2-2.4,3.8-1.2,5.4c0.4,0.5,0.5,0.4,1.3,0.5
			c1.1,0.1,0.9-0.5,1.1-0.8c2.2-5.8,10.8-1.9,8.8,3.8c-2.4,6.9-11.8,8.8-17.3,4.4c-6.4-5.1-5.5-15.2-0.1-20.7
			c5.4-5.3,13.5-6.7,20.4-3.5c7,3.2,11.5,10.8,11.8,18.4c0.3,7.8-3.2,15.8-9.8,20.2c-6.8,4.3-15.2,5.2-22.8,2.5
			c-14.3-5-22.7-20.8-23.4-35.3c-0.5-8.3,1.2-16.5,5-23.9c2.1-4,4.8-7.6,7.9-10.9c7.2-7.4,3.2-17.9,1.1-23.3
			c-0.6-1.6,2.4,2.5,5.2,6.1c3.2,4.2,4.2,9.6,2.8,14.6C102.9,355,102.9,355,102.8,355z"/>
	</g>
	<path class="st5" d="M101.2,515.9c0,0,141.3-3.9,252.5-0.2"/>
	<path class="st5" d="M101.4,383.1c0,0,135.7-3.9,246.9-0.2"/>
	<path class="st6" d="M195.6,567.7h113.8c10,0,18.1,8.1,18.1,18.2v0c0,10-8.1,18.2-18.1,18.2H195.6c-10,0-18.1-8.1-18.1-18.2v0
		C177.4,575.8,185.6,567.7,195.6,567.7z"/>
	<g>
		<circle class="st7" cx="131.2" cy="451.4" r="28.9"/>
		<path class="st0" d="M144.2,450.5c0.2-0.6,0.3-1.3,0.3-2c0-4-3.2-7.2-7.2-7.2s-7.2,3.2-7.2,7.2c0.1-4-2.9-7.3-6.9-7.5
			s-7.3,2.9-7.5,6.9c0,0.2,0,0.4,0,0.5c-0.1,9.5,12.9,15.3,14.3,15.8l0,0h0.1l0,0l0,0C131.3,463.8,142.6,458.8,144.2,450.5z"/>
	</g>
	<g>
		<circle class="st8" cx="131.2" cy="591.8" r="28.9"/>
		<g>
			<circle class="st0" cx="125.3" cy="599.2" r="5.5"/>
			<rect x="128.5" y="579" class="st0" width="2.2" height="21.2"/>
			<rect x="128.5" y="579" class="st0" width="13.2" height="7.2"/>
		</g>
	</g>
	<g>
		<circle class="st9" cx="131.2" cy="302.8" r="28.9"/>
		<g>
			<path class="st0" d="M131.8,290c-4.4-0.2-8.8-0.9-13-2c-1.2-0.3-2.4,0.3-2.7,1.5c-0.1,0.3-0.1,0.5-0.1,0.8
				c0.8,11.9,4.1,19.9,7.5,25.1c3,4.7,9.3,6,14,3c1.2-0.8,2.2-1.8,3-3c3.4-5.2,6.7-13.2,7.5-25.1c0.1-1.2-0.8-2.3-2-2.3
				c-0.3,0-0.5,0-0.8,0.1c-4.2,1.1-8.6,1.8-13,2H131.8z"/>
			<path class="st10" d="M138.6,304.6c0,0-0.4,2.3-4,3.6c-1.7,0.6-3.6,0.6-5.3,0c-3.6-1.3-4-3.6-4-3.6c-0.2,1.3,0.1,2.5,0.8,3.6
				c2.4,4,9.4,4,11.8,0C138.5,307.1,138.8,305.9,138.6,304.6z"/>
			<path class="st10" d="M122.3,301c0.3-1.3,1.1-2.3,2.3-2.9c0.9-0.5,2.1-0.5,3,0c1.2,0.6,2,1.6,2.3,2.9c0.1-1,0-2-0.4-2.9
				c-0.6-1.8-2.6-2.8-4.5-2.2c-1,0.4-1.9,1.2-2.2,2.2C122.4,299.1,122.3,300.1,122.3,301z"/>
			<path class="st10" d="M141,301c-0.3-1.3-1.1-2.3-2.3-2.9c-0.9-0.5-2.1-0.5-3,0c-1.2,0.6-2,1.6-2.3,2.9c-0.1-1,0.1-2,0.4-2.9
				c0.6-1.8,2.6-2.8,4.5-2.2c1,0.4,1.9,1.2,2.2,2.2C141,299.1,141.1,300.1,141,301z"/>
		</g>
	</g>
	<path class="st11" d="M67.3,249.3c0,0-6.9-13.1,29.5-16.9s167.4-24.9,192.1-39.4"/>
</g>
</svg>
