<svg xmlns="http://www.w3.org/2000/svg" xmlns:xlink="http://www.w3.org/1999/xlink" viewBox="0 0 1367 844.74">
  <defs>
    <clipPath id="a">
      <polygon points="116.04 624.31 37.8 653.52 37.8 371.12 113.31 371.12 116.04 624.31" fill="none"/>
    </clipPath>
  </defs>
  <polygon points="133.53 750.72 133.53 0.86 -0.2 0.43 -0.2 840.99 133.53 750.72" fill="#8e452d" stroke="#16221d" stroke-linecap="round" stroke-linejoin="round" stroke-width="1.53"/>
  <g>
    <polygon points="134.54 624.15 37.8 660.24 37.8 653.52 116.04 624.31 134.54 624.15" fill="#d3bccb" stroke="#0c0007" stroke-linecap="round" stroke-linejoin="round" stroke-width="1.5"/>
    <polygon points="113.31 371.12 131.97 371.12 134.7 624.09 134.54 624.15 116.04 624.31 113.31 371.12" fill="#7c3b25" stroke="#16221d" stroke-miterlimit="10" stroke-width="1.5"/>
    <g clip-path="url(#a)">
      <polygon points="116.04 621.11 37.8 650.32 37.8 367.92 113.31 367.92 116.04 621.11" fill="#16221d" stroke="#16221d" stroke-miterlimit="10" stroke-width="1.41"/>
    </g>
    <polygon points="116.04 624.31 37.8 653.52 37.8 371.12 113.31 371.12 116.04 624.31" fill="none" stroke="#16221d" stroke-miterlimit="10" stroke-width="1.5"/>
  </g>
  <ellipse cx="200.92" cy="783.52" rx="90.77" ry="14.91" fill="#8e452d"/>
  <g>
    <line x1="130.63" y1="789.03" x2="180.22" y2="757.87" fill="none"/>
    <g>
      <g>
        <g>
          <path d="M81.75,679.66c1.28,3.91,18.66,38.93,20,42.84,0,0,35,24.71,57.75-34.15l-25.11-31.21Z" fill="#f2e6d4"/>
          <path d="M79.58,680.26a85.83,85.83,0,0,0,4.11,9.19c2.38,5,4.8,10.09,7.22,15.12,2.23,4.66,4.47,9.32,6.64,14,.37.81.75,1.62,1.11,2.44l.44,1c.05.12.1.25.16.37,0-.07-.19-.47,0,0a4.34,4.34,0,0,0,1.52,2.23,33.56,33.56,0,0,0,34,1.16c11.47-6.39,18.91-18.48,24.1-30.14q1.47-3.28,2.76-6.65a2.27,2.27,0,0,0-.57-2.19l-22-27.34L136,655.58a2.28,2.28,0,0,0-2.72-.35l-17.73,7.59L87.1,674.94l-6.49,2.78a2.26,2.26,0,0,0-.81,3.08,2.31,2.31,0,0,0,3.08.8l17.73-7.6L129,661.86l6.49-2.77-2.73-.36,22,27.35,3.1,3.86-.57-2.19c-3.43,8.83-7.75,17.66-13.94,24.9a45.32,45.32,0,0,1-7.2,6.85,35,35,0,0,1-3.66,2.35c-.58.33-1.17.63-1.77.92l-.83.38s-.67.29-.2.09l-.55.22a28.84,28.84,0,0,1-3.52,1.13c-.56.14-1.11.27-1.68.38l-.86.15h-.35c-.59.09.5-.06-.09,0a29.67,29.67,0,0,1-6.39.08l-.68-.07-.45,0s.56.08.16,0l-1.43-.24c-.89-.18-1.78-.39-2.66-.63s-1.6-.48-2.38-.76l-1-.37-.51-.21c-.23-.09.52.23,0,0a26.35,26.35,0,0,1-4.45-2.37l1,1.34a62.85,62.85,0,0,0-2.51-5.77c-1.51-3.24-3-6.46-4.59-9.69-3.38-7.08-6.8-14.13-10.12-21.24-.66-1.39-1.3-2.78-1.93-4.19-.11-.24-.22-.49-.32-.74l-.15-.33c-.23-.54.15.38,0,0s-.25-.61-.35-.93C83,676.33,78.65,677.5,79.58,680.26Z" fill="#16221d"/>
        </g>
        <path d="M278.48,677.84l7.59,9.82a281.57,281.57,0,0,1-67.91,52.83c-12.47,7-25.94,13.12-40.22,13.51l3.56,8.84q-24.56,13.85-47.65,30.08c-3.78-4.63-8.93-10.57-12.71-15.2l21-30.24Z" fill="#ccc" stroke="#16221d" stroke-miterlimit="10" stroke-width="1.5"/>
        <path d="M136.32,727.83c2.9,0,2.9-4.5,0-4.5S133.42,727.83,136.32,727.83Z" fill="#fff"/>
        <path d="M120.87,779.16c15-16.4,36.51-25.08,57.23-33.2,38.46-15.06,79.82-32.27,100.75-67.88l-7.62-7.66a3.84,3.84,0,0,0-5.05-.33c-14.25,10.94-30.28,21.67-48,20-7.1-.66-13.84-3.3-20.71-5.22A103.17,103.17,0,0,0,156.1,682c3.1,18.25-13.54,35-31.56,39.3a72.8,72.8,0,0,1-23.87,1.23s2,39,20.18,56.54" fill="#16221d" stroke="#16221d" stroke-miterlimit="10" stroke-width="1.5"/>
        <path d="M162.11,752.52c-2.73-15.17,4.93-31.65,18.28-39.35,4.08-2.36,8.56-3.92,12.92-5.7a136.14,136.14,0,0,0,21.79-11.26c1.53-1,3.7-2.88,4.17-4.64" fill="none" stroke="#666" stroke-miterlimit="10" stroke-width="1.5"/>
        <path d="M158.46,754c-2.72-15.16,5.13-34.43,18.47-42.13,4.09-2.36,8.57-3.92,12.93-5.7a138.66,138.66,0,0,0,21.79-11.26c1.53-1,3.7-2.88,4.17-4.64" fill="none" stroke="#666" stroke-miterlimit="10" stroke-width="1.5"/>
        <path d="M161.29,694.92c21-5.89,32.43-6.7,54.14-5.14" fill="none" stroke="#666" stroke-miterlimit="10" stroke-width="1.5"/>
        <path d="M208.48,733.4c-1.62-8.07-6.59-20.93-11.8-27.3" fill="none" stroke="#666" stroke-miterlimit="10" stroke-width="1.5"/>
        <path d="M211.83,731.8c-.83-7.3-7.65-21.22-11.81-27.28" fill="none" stroke="#666" stroke-miterlimit="10" stroke-width="1.5"/>
        <path d="M248.75,711c-1.43-7-5.8-18.12-10.38-23.63" fill="none" stroke="#666" stroke-miterlimit="10" stroke-width="1.5"/>
        <path d="M251.27,708.65c-.74-6.31-6.31-17.39-10-22.64" fill="none" stroke="#666" stroke-miterlimit="10" stroke-width="1.5"/>
        <g>
          <path d="M156,733.06a3.46,3.46,0,0,1,2.32,4,3.42,3.42,0,0,1-1.45,2,3.49,3.49,0,0,1-2.5.51,3.23,3.23,0,0,1-2.14-1.43,3.39,3.39,0,0,1,3.77-5.07Z" fill="#666"/>
          <path d="M165.86,715.68A3.56,3.56,0,0,1,167,718a3.46,3.46,0,0,1-.63,2.33,3.28,3.28,0,0,1-2.11,1.21,3.45,3.45,0,0,1-2.48-.52,3.19,3.19,0,0,1-1.42-2.16,3.41,3.41,0,0,1,.7-2.61,3.25,3.25,0,0,1,2.36-1.34A3.06,3.06,0,0,1,165.86,715.68Z" fill="#666"/>
          <path d="M182.75,705.15a3.35,3.35,0,1,1-4.4-1.77A3.36,3.36,0,0,1,182.75,705.15Z" fill="#666"/>
          <path d="M201.26,697.28a3.36,3.36,0,1,1-5.95,3.13,2.92,2.92,0,0,1-.14-.31,3.36,3.36,0,0,1,6.09-2.82Z" fill="#666"/>
        </g>
        <path d="M109.55,758.8s12.69-8.36,32.8,3.45" fill="none" stroke="#666" stroke-miterlimit="10" stroke-width="1.5"/>
        <path d="M131.27,753.71a3.2,3.2,0,0,1-1.7,2,4,4,0,0,1-2.79.41,3.84,3.84,0,0,1-3.38-3.8c.1-1.87,2.16-3.17,4.56-2.79a4.77,4.77,0,0,1,2.75,1.59A2.92,2.92,0,0,1,131.27,753.71Z" fill="#666"/>
        <path d="M111.05,761.84s12.14-7.05,28.23,2.28" fill="none" stroke="#666" stroke-miterlimit="10" stroke-width="1.5"/>
        <path d="M101.07,727s29,11.51,51.48-16.48c16.45-20.5,6.4-28.8,6.4-28.8" fill="none" stroke="#666" stroke-miterlimit="10" stroke-width="1.5"/>
        <path d="M165.64,693.74s1-6.94-2.16-12.38" fill="none" stroke="#666" stroke-miterlimit="10" stroke-width="1.5"/>
        <path d="M169.73,692.58s1.32-6.32-1.82-11.76" fill="none" stroke="#666" stroke-miterlimit="10" stroke-width="1.5"/>
        <path d="M173.89,692a14.25,14.25,0,0,0-1.34-10.84" fill="none" stroke="#666" stroke-miterlimit="10" stroke-width="1.5"/>
        <path d="M177.9,690.86s1.58-4.49-1.56-9.93" fill="none" stroke="#666" stroke-miterlimit="10" stroke-width="1.5"/>
        <path d="M181.34,690.55s2.14-3.42-1-8.86" fill="none" stroke="#666" stroke-miterlimit="10" stroke-width="1.5"/>
        <path d="M184.86,689.79s1.81-2.57-1.33-8" fill="none" stroke="#666" stroke-miterlimit="10" stroke-width="1.5"/>
        <path d="M122.46,780.75c17.75-19.24,43.59-27.46,67.2-37,22.66-9.12,45.36-19.25,64.59-34.58a110.67,110.67,0,0,0,26.55-30,2.28,2.28,0,0,0-.36-2.72l-4-4a40.6,40.6,0,0,0-4.36-4.24,6.11,6.11,0,0,0-6.45-.47,20,20,0,0,0-2.67,2L260,672a137.73,137.73,0,0,1-12.16,8c-8,4.62-16.91,8.13-26.27,8.08-10.25,0-19.82-4.72-29.71-6.82a105.26,105.26,0,0,0-35.75-1.39,2.29,2.29,0,0,0-2.23,2.36,2,2,0,0,0,.06.48c1.43,8.78-2.37,17.42-8.24,23.79a44.17,44.17,0,0,1-24.33,13.3,73.94,73.94,0,0,1-20.69.6,2.27,2.27,0,0,0-2.25,2.25,124.1,124.1,0,0,0,1.85,14.89,107.63,107.63,0,0,0,8.87,28.79,51.81,51.81,0,0,0,10.12,14.45c2.07,2,5.26-1.16,3.18-3.18-7.21-7-11.4-16.67-14.28-26.16a129.24,129.24,0,0,1-3.28-13.59c-.7-3.78-1.15-6.82-1.53-10.31-.18-1.63-.34-3.26-.43-4.89l-2.25,2.25c12,1.16,24.57.23,35.41-5.46,8.89-4.66,16.54-12.17,20.38-21.53a30.2,30.2,0,0,0,1.81-16.39l-2.17,2.85a101.73,101.73,0,0,1,31.06.55,124,124,0,0,1,15.07,3.8,85.62,85.62,0,0,0,14.8,3.59c9.33,1.14,18.6-1.27,27-5.22a96.38,96.38,0,0,0,12.39-7c2-1.33,4-2.72,5.9-4.14l2.79-2.07a13.87,13.87,0,0,1,2.84-2.09c.9-.35,1.53.17,2.12.76l2.63,2.64,4.59,4.62-.35-2.73c-12.22,20.7-31.85,35.26-52.78,46.34A362.12,362.12,0,0,1,191,738.45c-11.84,4.81-23.88,9.17-35.5,14.51-13.31,6.12-26.16,13.76-36.17,24.61-2,2.12,1.21,5.31,3.18,3.18Z" fill="#16221d"/>
      </g>
      <path d="M96.82,713.28c1.08-6.53,6.5-11.38,11.8-15.35,17.56-13.14,77.49-31.46,66.67-41.53l-56.93-64.35c-15.84-17.9-35.21-30.69-45.82-52.12L37.8,482.19V634.61Z" fill="#deb88c" stroke="#231815" stroke-linecap="round" stroke-linejoin="round" stroke-width="1.5"/>
    </g>
    <path d="M130.63,789s35.58-24.5,49.59-31.16" fill="none" stroke="#16221d" stroke-miterlimit="10" stroke-width="1.5"/>
    <path d="M89.82,703.12s17.55-23.69,35.73-28.34c19-4.88,29-9,37.29-21.64" fill="none" stroke="#16221d" stroke-miterlimit="10" stroke-width="1.5"/>
    <line x1="59.01" y1="649.18" x2="89.63" y2="694.47" fill="none" stroke="#16221d" stroke-miterlimit="10" stroke-width="1.5"/>
    <line x1="106.93" y1="647.44" x2="127.71" y2="663.61" fill="none" stroke="#16221d" stroke-miterlimit="10" stroke-width="1.5"/>
    <g opacity="0.09">
      <path d="M124.47,664.35a30.16,30.16,0,0,0-6.23.37c-3.88.85-7,3.63-10.5,5.49-6.87,3.65-15.29,3.68-22.64,1.15s-13.7-7.43-19-13.13c-4.39-4.75-9.3-13.66-13.29-20.26-1.91.68-3.8,1.44-5.64,2.27l50,72.57c1.09-6.54,6.51-11.38,11.81-15.35,17.55-13.11,77.49-31.48,66.66-41.55l-20.48-5.12c-1.21,1.18-2.43,2.34-3.71,3.42A43.46,43.46,0,0,1,124.47,664.35Z" fill="#16221d"/>
    </g>
  </g>
</svg>
