<svg xmlns="http://www.w3.org/2000/svg" width="1367" height="790.26" viewBox="0 0 1367 790.26">
  <g>
    <path d="M354.69,593.3a22.92,22.92,0,0,0,7.95.7,1.53,1.53,0,0,0,1.5-1.5,1.5,1.5,0,0,0-1.5-1.5,22.12,22.12,0,0,1-3.73,0l-.86-.09c-.18,0-.19,0,0,0l-.21,0-.5-.08c-.61-.11-1.22-.25-1.82-.41a1.5,1.5,0,1,0-.8,2.9Z" fill="#16221d"/>
    <g>
      <path d="M93.58,213.89s-50,8-42.6,59,13.38,385.5,35.16,397.8c0,0-6.46-280.41-9-282.55s-8.49-135.86-8.49-135.86S86.24,218.84,93.58,213.89Z" fill="#fff" stroke="#16221d" stroke-miterlimit="10" stroke-width="1.52"/>
      <path d="M70.18,252.34c-6.84-1.31-10.08-9.05-8-15S69.9,227,75.71,223.48c19.93-12,35.28-17.68,59.07-20.86,28.72-3.82,57.86-4,86.89-4.23l103.93-.71a191.58,191.58,0,0,0-.59,33.95l-135.32,8.83c-28.09,1.83-56.26,3.67-83.9,8.54-16.14,2.84-15.2,6.49-31.62,5.81" fill="#bdb0ae" stroke="#16221d" stroke-miterlimit="10" stroke-width="1.45"/>
      <path d="M294.64,204a318.5,318.5,0,0,1,59,5.06l-6.17,18.39a3.82,3.82,0,0,1-1.31,2.13,4.54,4.54,0,0,1-1.76.6,145.45,145.45,0,0,1-30.84,2.53,12.14,12.14,0,0,1-5.42-1,9.83,9.83,0,0,1-2.92-2.71,46.08,46.08,0,0,1-9.67-22.53" fill="#bdb0ae" stroke="#16221d" stroke-miterlimit="10" stroke-width="1.45"/>
      <path d="M68.19,249.31c-4-.13-6.73-4.11-6.27-7.63s3.25-6.47,6.34-8.71c9-6.51,12.35-8.49,23.69-10.51q54.78-9.77,109.17-21.12c27.52-5.74,55.4-11.94,79.77-24.72l26.88,55.43Z" fill="#bdb0ae" stroke="#16221d" stroke-miterlimit="10" stroke-width="1.45"/>
      <path d="M373.44,657.1S351.21,231.3,347.58,231C260.75,222.52,67,249.46,67,249.46,82.09,387.2,67.24,533.61,86.14,671,86.14,671,259.14,684.44,373.44,657.1Z" fill="#fff" stroke="#16221d" stroke-miterlimit="10" stroke-width="1.52"/>
    </g>
    <g opacity="0.22">
      <path d="M360.56,645.58c1.81-15.26-6.78-27.14-19.48-35.81-5.81-4-12.61-6.18-19-9.2-29.93-14.22-49.06-48.4-45.53-81.36-12.67,25.07-11.24,56.7,3.63,80.53,5.26,8.42,12.49,16.15,21.91,19.25,7.56,2.48,15.75,1.76,23.63,2.8a53.51,53.51,0,0,1,32.06,16.62c2.5,2.71,3.95,8.23.36,9.06" fill="#bdb0ae"/>
      <path d="M357.08,648a14.21,14.21,0,0,0-5.44-9.83,17.17,17.17,0,0,0-10.78-3.51,9.07,9.07,0,0,0-5.74,1.72c-1.56,1.31-2.32,3.72-1.27,5.47s3.17,2.17,5.08,2,3.7-1,5.58-1.41a13.12,13.12,0,0,1,13.11,5.29" fill="#bdb0ae"/>
      <path d="M351.8,603.74a76.07,76.07,0,0,1-43.52-25.92,77.44,77.44,0,0,1-17.74-52.9c.24-4.78,8.17-4.32,8.38.4.79,17.14,5.9,33.79,16.47,47.47a84.35,84.35,0,0,0,37.55,27.46c2,.71.89,3.92-1.14,3.49Z" fill="#bdb0ae"/>
      <path d="M322.23,570.08c-4-5.34-7.42-11.51-7.09-18.15.22-4.34,2.72-9.16,7-9.71,2.86-.37,5.66,1.32,7.47,3.56,3,3.72,3.78,8.75,3.84,13.52s-.48,9.59.33,14.3a25.8,25.8,0,0,0,14.45,18.8S334.93,587.28,322.23,570.08Z" fill="#bdb0ae"/>
      <path d="M338.46,561.3c1.57-4.81,5.46-8.13,7.94-12.41a33.14,33.14,0,0,0,3.23-26.27c-2.53-8.09-9.19-16.78-18.49-16.67-4.23.06-8.28,2-10.23,5.86a11.16,11.16,0,0,0,1,11.72c2.24,2.84,6.84,3.83,9.77,1.35,1.16-1,2.15-3.16,1.17-4.61-.3-.43-.4-.37-1.12-.48-.94-.15-.82.38-.93.67-2,4.92-9.26,1.38-7.42-3.52,2.2-5.88,10.33-7.19,14.9-3.31,5.35,4.56,4.32,13.19-.45,17.7a15.76,15.76,0,0,1-17.54,2.49c-5.89-3-9.54-9.57-9.6-16.07-.05-6.71,3.12-13.45,8.92-17a22.21,22.21,0,0,1,19.56-1.51c12.1,4.69,18.87,18.45,19.11,30.85a39.34,39.34,0,0,1-4.94,20.28,41.38,41.38,0,0,1-7.05,9.1c-6.35,6.17-3.17,15.24-1.54,20,.46,1.36-2-2.2-4.27-5.38a14.26,14.26,0,0,1-2-12.58A.56.56,0,0,1,338.46,561.3Z" fill="#bdb0ae"/>
    </g>
    <g opacity="0.22">
      <path d="M74,257.47c-1.56,17.88,8.9,31.44,24,41.09,6.93,4.42,15,6.76,22.48,10.05,35.46,15.51,59,54.72,56.11,93.32,13.87-29.72,11.06-66.6-7.17-93.87-6.44-9.63-15.15-18.4-26.27-21.67-8.91-2.63-18.44-1.49-27.68-2.41a62.51,62.51,0,0,1-38-18.24c-3-3.07-4.91-9.46-.75-10.56" fill="#bdb0ae"/>
      <path d="M78,254.57a16.53,16.53,0,0,0,6.7,11.28,20.14,20.14,0,0,0,12.71,3.7,10.5,10.5,0,0,0,6.63-2.22c1.78-1.58,2.59-4.43,1.3-6.43s-3.79-2.42-6-2.09-4.28,1.34-6.46,1.85a15.34,15.34,0,0,1-15.5-5.7" fill="#bdb0ae"/>
      <path d="M85.73,306a88.86,88.86,0,0,1,51.75,28.68,90.46,90.46,0,0,1,22.63,61.11c-.11,5.58-9.38,5.33-9.8-.17-1.55-20-8.11-39.23-20.95-54.81a98.48,98.48,0,0,0-44.82-30.69c-2.35-.76-1.2-4.54,1.19-4.12Z" fill="#bdb0ae"/>
      <path d="M121.48,344.21c4.8,6.09,9.07,13.17,8.93,20.93-.1,5.07-2.84,10.79-7.85,11.59-3.33.53-6.66-1.34-8.85-3.89-3.63-4.23-4.73-10.07-5-15.64s.21-11.21-.9-16.67a30.08,30.08,0,0,0-17.55-21.42S106,324.59,121.48,344.21Z" fill="#bdb0ae"/>
      <path d="M102.85,355.05c-1.66,5.67-6.09,9.68-8.82,14.77a38.73,38.73,0,0,0-2.82,30.79c3.25,9.35,11.35,19.25,22.19,18.78,4.94-.21,9.6-2.6,11.73-7.21a13,13,0,0,0-1.56-13.64c-2.72-3.23-8.13-4.23-11.45-1.22-1.32,1.18-2.39,3.77-1.19,5.41.36.5.47.43,1.32.53,1.11.14.94-.48,1.06-.82,2.19-5.82,10.75-1.94,8.79,3.84-2.36,6.94-11.8,8.77-17.27,4.4-6.42-5.12-5.52-15.23-.13-20.67a18.4,18.4,0,0,1,20.39-3.54c7,3.22,11.49,10.82,11.79,18.4.31,7.84-3.16,15.81-9.8,20.22a25.86,25.86,0,0,1-22.76,2.47c-14.3-5-22.71-20.84-23.43-35.31a45.83,45.83,0,0,1,5-23.85,48.59,48.59,0,0,1,7.9-10.89c7.19-7.42,3.15-17.89,1.08-23.34-.59-1.57,2.41,2.49,5.17,6.13a16.65,16.65,0,0,1,2.83,14.61A.57.57,0,0,1,102.85,355.05Z" fill="#bdb0ae"/>
    </g>
    <rect x="177.45" y="435.91" width="150.14" height="36.31" rx="18.15" fill="#4da58e" opacity="0.5"/>
    <rect x="177.45" y="335.5" width="150.14" height="36.31" rx="18.15" fill="#ffd377" opacity="0.5"/>
    <path d="M101.21,515.86s141.27-3.9,252.46-.18" fill="none" stroke="#ccc" stroke-miterlimit="10" stroke-width="1.52" stroke-dasharray="10.31"/>
    <path d="M101.38,383.14s135.69-3.91,246.88-.18" fill="none" stroke="#ccc" stroke-miterlimit="10" stroke-width="1.52" stroke-dasharray="10.31"/>
    <rect x="177.45" y="567.7" width="150.14" height="36.31" rx="18.15" fill="#fff"/>
    <rect x="177.45" y="577.04" width="150.14" height="36.31" rx="18.15" fill="#d3bccb" opacity="0.5"/>
    <g>
      <circle cx="131.18" cy="451.41" r="28.94" fill="#4da58e" stroke="#16221d" stroke-miterlimit="10" stroke-width="1.75"/>
      <path d="M144.16,450.48a7,7,0,0,0,.29-2,7.19,7.19,0,0,0-14.38,0,7.19,7.19,0,1,0-14.37,0c-.1,9.55,12.94,15.27,14.26,15.83v0l.06,0,0,0v0C131.3,463.79,142.61,458.83,144.16,450.48Z" fill="#16221d"/>
    </g>
    <g>
      <circle cx="131.18" cy="591.85" r="28.94" fill="#d3bccb" stroke="#16221d" stroke-miterlimit="10" stroke-width="1.5"/>
      <g>
        <circle cx="125.26" cy="599.24" r="5.49" fill="#16221d"/>
        <rect x="128.51" y="578.97" width="2.23" height="21.23" fill="#16221d"/>
        <rect x="128.51" y="578.97" width="13.24" height="7.24" fill="#16221d"/>
      </g>
    </g>
    <g>
      <circle cx="131.18" cy="302.84" r="28.94" fill="#ffd377" stroke="#16221d" stroke-miterlimit="10" stroke-width="1.75"/>
      <g>
        <path d="M131.83,290a59.58,59.58,0,0,1-13-2,2.19,2.19,0,0,0-2.81,2.25c.82,11.91,4.12,19.92,7.52,25.12a10.12,10.12,0,0,0,17,0c3.4-5.2,6.7-13.21,7.52-25.12a2.19,2.19,0,0,0-2.81-2.25,59.58,59.58,0,0,1-13,2Z" fill="#16221d"/>
        <path d="M138.62,304.6s-.37,2.27-4,3.6a7.76,7.76,0,0,1-5.25,0c-3.64-1.33-4-3.6-4-3.6a5.55,5.55,0,0,0,.75,3.62c2.39,4,9.37,4,11.76,0A5.55,5.55,0,0,0,138.62,304.6Z" fill="#ffd377"/>
        <path d="M122.35,301.05a4.12,4.12,0,0,1,2.28-2.9,3.22,3.22,0,0,1,3,0,4.09,4.09,0,0,1,2.27,2.9,6.1,6.1,0,0,0-.42-2.92,3.53,3.53,0,0,0-6.69,0A6.22,6.22,0,0,0,122.35,301.05Z" fill="#ffd377"/>
        <path d="M141,301.05a4.09,4.09,0,0,0-2.27-2.9,3.22,3.22,0,0,0-3,0,4.12,4.12,0,0,0-2.28,2.9,6.22,6.22,0,0,1,.43-2.92,3.53,3.53,0,0,1,6.69,0A6.1,6.1,0,0,1,141,301.05Z" fill="#ffd377"/>
      </g>
    </g>
    <path d="M67.26,249.31s-6.86-13.14,29.47-16.85,167.45-24.85,192.14-39.38" fill="none" stroke="#16221d" stroke-miterlimit="10" stroke-width="1.52"/>
  </g>
</svg>
