<svg xmlns="http://www.w3.org/2000/svg" xmlns:xlink="http://www.w3.org/1999/xlink" width="1367.5" height="724.45" viewBox="0 0 1367.5 724.45">
  <defs>
    <clipPath id="a">
      <path d="M194.08,592.93c-35.65,3.71-66.65,21.82-104.26,19-51.09-3.81-88.73-16.6-138.65,6.24-4.41,2-8.94,4.39-11.6,8.45s-3,9.31-3,14.24c.14,15.19,3.21,30.67,11.21,43.58,18.58,30,51.85,27.46,82.4,22.8,28.78-4.39,55,8.5,83.12,10.79,30.94,2.51,55.43-9.74,85-16.43,26.2-5.92,78.74,8.3,92-22.47,19.87-46.1-19.43-74.84-60.19-84.2A108.69,108.69,0,0,0,194.08,592.93Z" fill="none"/>
    </clipPath>
    <clipPath id="b">
      <polygon points="123.14 386.51 46.73 411.49 46.73 170 120.48 170 123.14 386.51" fill="none"/>
    </clipPath>
    <clipPath id="c">
      <rect x="44.9" y="226.69" width="262.4" height="206.04" fill="none"/>
    </clipPath>
    <clipPath id="d">
      <path d="M19.81,387.63c-1.58-5.51-8.42-8.61-12.06-10.7s-7.84-8.87-9.21-17.53,1.55-9,6.7-13.63c2.86-2.56.73-4.7-1.73-6.1a14.61,14.61,0,0,0-5.94-1.83C-12,337-14.09,329.6-14.09,329.6l-16.57,1.72s1.94,7.49-2.57,9.3-8.45,4.07-7,7.45,10.59,2.85,14.09,7.5,13.21,18.47,7,23.67c0,0-4.87,1.08-2.66,10.23Z" fill="none"/>
    </clipPath>
    <clipPath id="e">
      <path d="M43.05,321.77s1.59,7.07-4.42,9.61-11.14,5.35-8.64,9.13,12.18,4,17,6.49a21.91,21.91,0,0,1,10,12.16c1.46,4.52,3.84,11.13-1.16,13.6s-11.16,3.95-8.63,13.4l55.22-2.38a17.41,17.41,0,0,0-8.8-9.38c-6.9-3.39-10.39-4.12-13.37-13.46s-1.55-16.37,1.47-18.81,10.46-5.57,10.34-7.83-.65-4.42-10.14-6.83S70.4,318,70.4,318Z" fill="none"/>
    </clipPath>
    <clipPath id="f">
      <path d="M171.63,371.33c-2.41-.5-7.16-3.21-9.24-4.88s-18,.49-20.86,1.43S135.9,373,133,375c-2.06,1.45-1.69,5.32-1.31,7.41l22.3-1,24.21-1.13C177.22,376,173.83,371.78,171.63,371.33Z" fill="none"/>
    </clipPath>
  </defs>
  <g clip-path="url(#a)">
    <g>
      <path d="M194.08,592.93c-35.65,3.71-66.65,21.82-104.26,19-51.09-3.81-88.73-16.6-138.65,6.24-4.41,2-8.94,4.39-11.6,8.45s-3,9.31-3,14.24c.14,15.19,3.21,30.67,11.21,43.58,18.58,30,51.85,27.46,82.4,22.8,28.78-4.39,55,8.5,83.12,10.79,30.94,2.51,55.43-9.74,85-16.43,26.2-5.92,78.74,8.3,92-22.47,19.87-46.1-19.43-74.84-60.19-84.2A108.69,108.69,0,0,0,194.08,592.93Z" fill="#f2e6d4" stroke="#16221d" stroke-miterlimit="10" stroke-width="1.38"/>
      <path d="M293,639.85s-11.88,43.64-68.83,37.83c-14-1.43-27-7.56-37.83-16.61-10.59-8.88-28.36-19-49.67-12.09a51.2,51.2,0,0,0-21.68,14.22C103.38,675.73,60.7,709-52.2,684.46c0,0,2.89,42.43,9.28,43.82s203.66,13.5,203.66,13.5H331.61Z" fill="#fbc8a2"/>
    </g>
  </g>
  <path d="M194.08,592.93c-35.65,3.71-66.65,21.82-104.26,19-51.09-3.81-88.73-16.6-138.65,6.24-4.41,2-8.94,4.39-11.6,8.45s-3,9.31-3,14.24c.14,15.19,3.21,30.67,11.21,43.58,18.58,30,51.85,27.46,82.4,22.8,28.78-4.39,55,8.5,83.12,10.79,30.94,2.51,55.43-9.74,85-16.43,26.2-5.92,78.74,8.3,92-22.47,19.87-46.1-19.43-74.84-60.19-84.2A108.69,108.69,0,0,0,194.08,592.93Z" fill="none" stroke="#16221d" stroke-miterlimit="10" stroke-width="1.38"/>
  <path d="M240.88,537.18,150.8,58.62-54.93-4.85C-30.39,192.24,42.69,489.84,54.41,687.71L239.8,536.48" fill="#b05232" stroke="#16221d" stroke-miterlimit="10"/>
  <polygon points="141.21 386.37 46.73 417.23 46.73 411.49 123.14 386.51 141.21 386.37" fill="#d3bccb" stroke="#0c0007" stroke-linecap="round" stroke-linejoin="round" stroke-width="1.5"/>
  <polygon points="120.48 170 138.71 170 141.37 386.32 141.21 386.37 123.14 386.51 120.48 170" fill="#7c3b25" stroke="#16221d" stroke-miterlimit="10" stroke-width="1.5"/>
  <g clip-path="url(#b)">
    <polygon points="123.14 383.77 46.73 408.75 46.73 167.26 120.48 167.26 123.14 383.77" fill="#16221d" stroke="#16221d" stroke-miterlimit="10" stroke-width="1.41"/>
  </g>
  <polygon points="123.14 386.51 46.73 411.49 46.73 170 120.48 170 123.14 386.51" fill="none" stroke="#16221d" stroke-miterlimit="10" stroke-width="1.5"/>
  <g clip-path="url(#c)">
    <g>
      <path d="M207.86,270.86a7.83,7.83,0,0,1-2.16,2.28c-1.48.9-3.66.94-4.46,2.48-.88,1.72.72,4-.24,5.67-.48.86-1.5,1.28-2.14,2a3,3,0,0,0,.58,4.25,3.3,3.3,0,0,0,.39.26c1,.45,2.3.47,2.76,1.44a96.72,96.72,0,0,1-14,7.36,10.18,10.18,0,0,0,3.15-4.95c.68-1.85,1.22-3.93.45-5.75a7.29,7.29,0,0,0-2.39-2.75,22.61,22.61,0,0,0-8.35-4.09l3.87-12.29c-35.4,5.6-78.44,7.78-78.44,7.78-.48,1.32-7.86,7.35-14.4,9.82a22.35,22.35,0,0,1-14.88.25c-2.05-.84.95-4.35.95-4.35a60.73,60.73,0,0,1-26.34,5.64c-10.94,6.9-23.86,9.28-23.86,9.28l-6.21-3.49-4.56,9.09-26.91,3.61-2.47-3.58-9.71,1L-50.9,324.29s1,4.83.56,7.62-3.11,6.41-.83,11.2l-8.21,7.11,278.24-31.14L208,270.71Z" fill="#fff" stroke="#16221d" stroke-linecap="round" stroke-linejoin="round" stroke-width="1.5"/>
      <path d="M32.74,301.82a40.1,40.1,0,0,1,18-6.66c1.73-.2,3.84-.1,4.73,1.39.6,1,.42,2.34,1.06,3.32s2.19,1.37,3.5,1.37c6.47,0,12-4.25,17.42-7.83,6.14-4.09,13-7.6,20.31-8.15,4.79-.37,9.61.54,14.39.11A26.1,26.1,0,0,0,126,279.79a10.52,10.52,0,0,0,2.83-3.15c1-2,1-4.3,1-6.53a2.45,2.45,0,0,0-3.18-2.75,112.67,112.67,0,0,0-18.22,2.23c-21.61,3.93-43,8.8-64.66,12.67a40.56,40.56,0,0,0-10,2.65,13.22,13.22,0,0,0-7.16,7.14c-1.17,3.25-.28,7.35,2.61,9.26a3.32,3.32,0,0,0,2.81.57" fill="#4da58e" stroke="#16221d" stroke-miterlimit="10" stroke-width="1.5"/>
      <path d="M28.08,316.64a17.55,17.55,0,0,0,14.67-3.4c.94-.75,1.88-1.93,1.43-3.05-.19-.47-.6-.82-.77-1.29a2.64,2.64,0,0,1,1-2.55c2.48-2.5,6-4,8-6.83a1.71,1.71,0,0,0,.4-1.66c-.32-.65-1.23-.69-1.94-.6-7.4.94-13.79,5.56-19.4,10.48a21.09,21.09,0,0,0-4.1,4.39,4.4,4.4,0,0,0-.88,2.71,2,2,0,0,0,1.83,1.91" fill="#4da58e" stroke="#16221d" stroke-miterlimit="10" stroke-width="1.5"/>
      <path d="M-8.46,315.23c0,.09-2.47,2.76,3.6,2.92s18.54-3.27,17.57-1-6.85,5.28-5.64,6.55a8.65,8.65,0,0,0,3.12,1.91l1.24-.3-.85-3s3.9-2.93,3.72-10.36Z" fill="#4da58e" stroke="#16221d" stroke-miterlimit="10" stroke-width="1.5"/>
      <polyline points="12.64 319.63 31.24 317.26 29.06 320.14" fill="none" stroke="#16221d" stroke-linecap="round" stroke-linejoin="round" stroke-width="1.5"/>
      <polyline points="31.24 317.26 32.14 320.25 29.71 322.83 29.06 320.14 10.58 322.26" fill="none" stroke="#16221d" stroke-linecap="round" stroke-linejoin="round" stroke-width="1.5"/>
      <path d="M59.08,290.24s0,4.16-1.24,5.52-1.46,1.94,1,2.29,11.36.17,15.93-3.85,1.91-4.38.7-5.08-2.55-4.56-2.55-4.56S65.66,283.91,59.08,290.24Z" fill="#fff" stroke="#16221d" stroke-miterlimit="10" stroke-width="1.5"/>
      <path d="M62.93,288.23l6.08-.15s4.07-2.7,3.15-2.87S65.62,285.39,62.93,288.23Z" fill="#16221d" stroke="#16221d" stroke-miterlimit="10" stroke-width="1.5"/>
      <path d="M59.75,290.69s1.27.92,6.13-.57a17.36,17.36,0,0,0,7.44-4.42" fill="none" stroke="#16221d" stroke-miterlimit="10" stroke-width="1.5"/>
      <path d="M189.85,283.18a7.29,7.29,0,0,1,2.39,2.75c.77,1.82.22,3.9-.45,5.75a10.18,10.18,0,0,1-3.15,4.95,96.72,96.72,0,0,0,14-7.36c-.46-1-1.79-1-2.76-1.44a3,3,0,0,1-1.22-4.12,2.59,2.59,0,0,1,.25-.39c.65-.75,1.66-1.17,2.14-2,1-1.68-.64-4,.24-5.67.8-1.54,3-1.57,4.46-2.48a7.83,7.83,0,0,0,2.16-2.28l.1-.15-1.78-7.9c-6.28,1.49-13.38,2.82-20.81,4l-3.87,12.29A22.54,22.54,0,0,1,189.85,283.18Z" fill="#4da58e" stroke="#16221d" stroke-linecap="round" stroke-linejoin="round" stroke-width="1.5"/>
      <path d="M159.51,261.86c-4.75-1.74-.86-3.56-.86-3.56L26.51,283.09l-4.33,8.64,6.22,3.48s12.92-2.37,23.86-9.27A60.79,60.79,0,0,0,78.6,280.3s-3,3.51-1,4.35a22.25,22.25,0,0,0,14.89-.25c6.54-2.46,13.92-8.5,14.4-9.82,0,0,63-3.19,99.25-11.77l-1.85-8.24S164.27,263.61,159.51,261.86Z" fill="#fff" stroke="#16221d" stroke-linecap="round" stroke-linejoin="round" stroke-width="1.5"/>
      <line x1="134.58" y1="285.82" x2="140.77" y2="311.93" fill="none" stroke="#16221d" stroke-miterlimit="10" stroke-width="1.5"/>
      <polygon points="-10.98 304.83 -8.46 315.23 28.13 309.88 40.01 299.76 37.35 289 -10.98 304.83" fill="#ccc" stroke="#16221d" stroke-miterlimit="10" stroke-width="1.5"/>
      <path d="M1.65,294.42l-12.38,9.38a.84.84,0,0,0-.18,1.15.83.83,0,0,0,.84.32l34.48-5.77a4,4,0,0,0,1.89-.87l10.76-9.08a.83.83,0,0,0-.71-1.44L2,294.25A1,1,0,0,0,1.65,294.42Z" fill="#16221d" stroke="#16221d" stroke-miterlimit="10" stroke-width="1.5"/>
      <path d="M31.67,318.3s6.78-2.35,8.7-5.38,1.18-2.36,1.18-2.36a10.39,10.39,0,0,1-4.25-5.2,7.65,7.65,0,0,0-1.19-2.26v0s-4-1-12.41,2.39-9.4,6.43-9.4,6.43-.24,5.51-1.65,7.72l18.6-2.36Z" fill="#fff" stroke="#16221d" stroke-miterlimit="10" stroke-width="1.5"/>
      <path d="M14.29,311.9s-.62,1.6.74,2,22.1-2.28,22.16-8.8" fill="none" stroke="#16221d" stroke-miterlimit="10" stroke-width="1.5"/>
      <path d="M15.26,312.58c.56,1.05,3,.58,5.15.25S34.74,309.34,36,306s-4.43-2.54-9.8-.7S14.27,310.73,15.26,312.58Z" fill="#16221d" stroke="#16221d" stroke-miterlimit="10" stroke-width="1.5"/>
      <path d="M36.09,297.8l.61,6.2.75,2.15s3.56,1,8.39-2.6,4.64-6.34,4.64-6.34-3.46-1.72-4-3-1.2-2.61-2.3-2.19S36.4,295.08,36.09,297.8Z" fill="#fff" stroke="#16221d" stroke-miterlimit="10" stroke-width="1.5"/>
      <path d="M37,298.16c.32.36,1.31-.06,2.16-.4S44.78,295,45,293.54s-2.06-.59-4.14.66S36.39,297.51,37,298.16Z" fill="#16221d" stroke="#16221d" stroke-miterlimit="10" stroke-width="1.5"/>
      <line x1="25.59" y1="299.86" x2="26.66" y2="304.29" fill="none" stroke="#16221d" stroke-miterlimit="10" stroke-width="1.5"/>
      <path d="M24.67,290.2l2.89-6.07,21-3.88s2.28,4.91,9.69,4.32,19.59-5,19.89-5.43-.51-3.43,2.55-5.37l20.9-3.58L146.36,262" fill="none" stroke="#16221d" stroke-miterlimit="10" stroke-width="1.5"/>
      <path d="M176.65,278.44l.72.32c2.71,1.24,12.15,5.79,12.76,9.59.71,4.45-20.16,16.28-33.18,21.23s-39.68,4.29-46.08,2.19-21.19,1.07-28.35.43-14.79-7.91-3.5-17.51,25.19-8.44,25.19-8.44l61.53-17.05,11.18,9.36" fill="#4da58e" stroke="#16221d" stroke-linecap="round" stroke-linejoin="round" stroke-width="1.5"/>
      <polygon points="185.41 262.87 148.63 262.09 100.05 283.5 134.58 285.82 185.41 262.87" fill="#fff" stroke="#16221d" stroke-linecap="round" stroke-linejoin="round" stroke-width="1.5"/>
      <polygon points="181.5 263.77 148.88 263.13 103.77 282.75 134 284.45 181.5 263.77" fill="#16221d" stroke="#16221d" stroke-miterlimit="10" stroke-width="1.5"/>
      <polygon points="134.58 285.82 100.05 283.5 100.05 283.5 105.93 307.82 140.78 311.93 189.21 287.04 185.41 262.87 134.58 285.82" fill="#ccc" stroke="#16221d" stroke-linecap="round" stroke-linejoin="round" stroke-width="1.5"/>
      <path d="M157.27,315.39c-3.69-.66-6.45-8.09-6.45-8.09-6.46-5.46-21.69,2.06-21.69,2.06l-47.5,6.27s-2.07-.79-3.53-1.16-2.6-2.83-2.6-2.83c-1.9-3.87-9-7.15-19.86-4.08s-14.06,13.62-14.06,13.62l-42.88,6c-1.5.12-7-3.28-7-3.28s1.8-2.54-7.19-.85c-11.32,2.13-16.4,8.12-16.47,8.6-1,6.87.37,7.06-4.77,8.83-2.51.85-6,3.94-4.73,7.75h0c1.31,3.81,4,3.66,5.61,4.21s7.44-.8,14,11,1.74,14.91,1.74,14.91C-26,382.84-23,389.63-23,389.63l154.66-7.22c-.38-2.09-.75-6,1.31-7.41,2.88-2,5.62-6.17,8.52-7.12s18.77-3.09,20.85-1.42,6.84,4.37,9.25,4.87c2.2.45,5.59,4.62,6.58,8.91l2-.09c1.76-11.09-12.46-13.52-15.53-15.59s-6.33-14.95-5.77-22.63,12.36-10.3,13.77-10.56,7.58-1.43,7.09-7.91S161,316,157.27,315.39Z" fill="#ccc" stroke="#16221d" stroke-linecap="round" stroke-linejoin="round" stroke-width="1.5"/>
      <path d="M19.81,387.63c-1.58-5.51-8.42-8.61-12.06-10.7s-7.84-8.87-9.21-17.53,1.55-9,6.7-13.63c2.86-2.56.73-4.7-1.73-6.1a14.61,14.61,0,0,0-5.94-1.83C-12,337-14.09,329.6-14.09,329.6l-16.57,1.72s1.94,7.49-2.57,9.3-8.45,4.07-7,7.45,10.59,2.85,14.09,7.5,13.21,18.47,7,23.67c0,0-4.87,1.08-2.66,10.23Z" fill="#16221d" stroke="#16221d" stroke-miterlimit="10" stroke-width="1.5"/>
      <path d="M-12.49,329.22s2.17,6,6.76,6.55S5.66,337.54,7,341.5s-1.22,6-4.51,8-4.18,6.61-1.83,13.33,3.09,11.06,9.8,14.38S19.76,383,20.9,387.58l25.31-1.18s-2.3-7.21,1.12-10,11.3-3.09,10-10.55S52.52,348.5,40,346.1s-10.83-3.71-11.63-6.28.29-6,7.42-8.18,6.22-7.39,5.94-9.56Z" fill="#fff" stroke="#16221d" stroke-linecap="round" stroke-linejoin="round" stroke-width="1.5"/>
      <path d="M43.05,321.77s1.59,7.07-4.42,9.61-11.14,5.35-8.64,9.13,12.18,4,17,6.49a21.91,21.91,0,0,1,10,12.16c1.46,4.52,3.84,11.13-1.16,13.6s-11.16,3.95-8.63,13.4l55.22-2.38a17.41,17.41,0,0,0-8.8-9.38c-6.9-3.39-10.39-4.12-13.37-13.46s-1.55-16.37,1.47-18.81,10.46-5.57,10.34-7.83-.65-4.42-10.14-6.83S70.4,318,70.4,318Z" fill="#16221d" stroke="#16221d" stroke-miterlimit="10" stroke-width="1.5"/>
      <path d="M71.89,317.5s2.36,6.75,8.11,8.14,13.59,2.54,13.65,7.45-8.16,8.6-10.9,10-4.32,19.33,2.65,25S102,376,104,383.7l26.37-1.23s-1.28-6.65,1.81-8.84,8.4-5.11,6.21-14.66-2.31-18.76-16.66-23.09-3.54-11.63-1.25-13.15,9.18-4.87,7.91-12.63Z" fill="#fff" stroke="#16221d" stroke-miterlimit="10" stroke-width="1.5"/>
      <path d="M-23,389.63s-3.07-6.79,2.85-11.27c0,0,4.82-3.08-1.74-14.91s-12.41-10.49-14-11-4.3-.4-5.6-4.2h0l-18.13,2,15.93,40.32,175.34-8.14h0Z" fill="#fff" stroke="#16221d" stroke-linecap="round" stroke-linejoin="round" stroke-width="1.5"/>
      <polygon points="131.7 382.41 154 381.37 131.7 382.41 131.7 382.41" fill="none" stroke="#16221d" stroke-miterlimit="10" stroke-width="1.5"/>
      <path d="M218.86,319.08l-39.13,4.37c.49,6.49-5.69,7.66-7.09,7.92s-13.22,2.88-13.77,10.56,2.71,20.56,5.78,22.63,16.43,4.16,15.53,15.59l46-2.15Z" fill="#fff" stroke="#16221d" stroke-miterlimit="10" stroke-width="1.5"/>
      <polygon points="178.21 380.24 180.18 380.15 180.18 380.15 178.21 380.24 178.21 380.24" fill="none" stroke="#16221d" stroke-miterlimit="10" stroke-width="1.5"/>
      <polygon points="154 381.37 178.21 380.24 178.21 380.24 154 381.37" fill="none" stroke="#16221d" stroke-miterlimit="10" stroke-width="1.5"/>
      <path d="M171.63,371.33c-2.41-.5-7.16-3.21-9.24-4.88s-18,.49-20.86,1.43S135.9,373,133,375c-2.06,1.45-1.69,5.32-1.31,7.41l22.3-1,24.21-1.13C177.22,376,173.83,371.78,171.63,371.33Z" fill="#16221d" stroke="#16221d" stroke-miterlimit="10" stroke-width="1.5"/>
      <path d="M43.29,320.77l27.92-3.83s3.52-4.17,2.32-6.35-9.24-6.07-19.41-1.56S43.29,320.77,43.29,320.77Z" fill="#16221d" stroke="#16221d" stroke-miterlimit="10" stroke-width="1.5"/>
      <g clip-path="url(#d)">
        <g>
          <line x1="-23.17" y1="329.16" x2="0.07" y2="390.93" fill="none" stroke="#fff" stroke-miterlimit="10" stroke-width="1.5"/>
          <line x1="-15.72" y1="327.88" x2="6.83" y2="389.81" fill="none" stroke="#fff" stroke-miterlimit="10" stroke-width="1.5"/>
          <line x1="-8.05" y1="326.03" x2="14.51" y2="387.96" fill="none" stroke="#fff" stroke-miterlimit="10" stroke-width="1.5"/>
          <line x1="22.57" y1="382.5" x2="-33.32" y2="386.17" fill="none" stroke="#fff" stroke-miterlimit="10" stroke-width="1.5"/>
          <line x1="20.9" y1="375.12" x2="-34.99" y2="378.79" fill="none" stroke="#fff" stroke-miterlimit="10" stroke-width="1.5"/>
          <line x1="19.23" y1="367.74" x2="-36.66" y2="371.41" fill="none" stroke="#fff" stroke-miterlimit="10" stroke-width="1.5"/>
          <line x1="17.56" y1="360.35" x2="-38.33" y2="364.02" fill="none" stroke="#fff" stroke-miterlimit="10" stroke-width="1.5"/>
          <line x1="15.89" y1="352.97" x2="-40" y2="356.64" fill="none" stroke="#fff" stroke-miterlimit="10" stroke-width="1.5"/>
          <line x1="14.23" y1="345.58" x2="-41.66" y2="349.26" fill="none" stroke="#fff" stroke-miterlimit="10" stroke-width="1.5"/>
          <line x1="12.56" y1="338.2" x2="-43.33" y2="341.87" fill="none" stroke="#fff" stroke-miterlimit="10" stroke-width="1.5"/>
          <line x1="10.89" y1="330.82" x2="-45" y2="334.49" fill="none" stroke="#fff" stroke-miterlimit="10" stroke-width="1.5"/>
        </g>
      </g>
      <g clip-path="url(#e)">
        <g>
          <line x1="104.32" y1="375.02" x2="36.32" y2="379.82" fill="none" stroke="#fff" stroke-miterlimit="10" stroke-width="1.5"/>
          <line x1="102.34" y1="366.26" x2="34.34" y2="371.07" fill="none" stroke="#fff" stroke-miterlimit="10" stroke-width="1.5"/>
          <line x1="100.37" y1="357.51" x2="32.37" y2="362.32" fill="none" stroke="#fff" stroke-miterlimit="10" stroke-width="1.5"/>
          <line x1="98.39" y1="348.76" x2="30.39" y2="353.57" fill="none" stroke="#fff" stroke-miterlimit="10" stroke-width="1.5"/>
          <line x1="96.41" y1="340.01" x2="28.41" y2="344.81" fill="none" stroke="#fff" stroke-miterlimit="10" stroke-width="1.5"/>
          <line x1="94.43" y1="331.25" x2="26.43" y2="336.06" fill="none" stroke="#fff" stroke-miterlimit="10" stroke-width="1.5"/>
          <line x1="92.46" y1="322.5" x2="24.45" y2="327.31" fill="none" stroke="#fff" stroke-miterlimit="10" stroke-width="1.5"/>
          <line x1="25.74" y1="320.58" x2="47.39" y2="393.05" fill="none" stroke="#fff" stroke-miterlimit="10" stroke-width="1.5"/>
          <line x1="34.15" y1="319.24" x2="55.8" y2="391.71" fill="none" stroke="#fff" stroke-miterlimit="10" stroke-width="1.5"/>
          <line x1="43.38" y1="319.63" x2="65.03" y2="392.1" fill="none" stroke="#fff" stroke-miterlimit="10" stroke-width="1.5"/>
          <line x1="52.61" y1="320.02" x2="74.25" y2="392.49" fill="none" stroke="#fff" stroke-miterlimit="10" stroke-width="1.5"/>
          <line x1="61.83" y1="320.41" x2="83.48" y2="392.88" fill="none" stroke="#fff" stroke-miterlimit="10" stroke-width="1.5"/>
          <line x1="71.06" y1="320.8" x2="92.71" y2="393.27" fill="none" stroke="#fff" stroke-miterlimit="10" stroke-width="1.5"/>
          <line x1="80.28" y1="321.19" x2="101.93" y2="393.66" fill="none" stroke="#fff" stroke-miterlimit="10" stroke-width="1.5"/>
        </g>
      </g>
      <g clip-path="url(#f)">
        <g>
          <line x1="134.23" y1="365.59" x2="138.02" y2="387.25" fill="none" stroke="#fff" stroke-miterlimit="10" stroke-width="1.5"/>
          <line x1="143.84" y1="364.21" x2="147.63" y2="385.87" fill="none" stroke="#fff" stroke-miterlimit="10" stroke-width="1.5"/>
          <line x1="154.15" y1="362.8" x2="157.94" y2="384.45" fill="none" stroke="#fff" stroke-miterlimit="10" stroke-width="1.5"/>
          <line x1="164.93" y1="361.54" x2="168.72" y2="383.19" fill="none" stroke="#fff" stroke-miterlimit="10" stroke-width="1.5"/>
          <line x1="130.6" y1="375.64" x2="182.29" y2="371.46" fill="none" stroke="#fff" stroke-miterlimit="10" stroke-width="1.5"/>
        </g>
      </g>
      <path d="M201.06,276.12s-.74,2.74,8.77,2.86" fill="none" stroke="#16221d" stroke-linecap="round" stroke-linejoin="round" stroke-width="1.5"/>
      <path d="M208.29,271.53a9.6,9.6,0,0,1-4,3.2c-2.62,1.12-2.5,1.93.32,2.63a16.32,16.32,0,0,0,5.07.49Z" fill="#16221d" stroke="#16221d" stroke-linecap="round" stroke-linejoin="round" stroke-width="1.5"/>
      <path d="M179.73,323.45s4.38-12.12,33.85-15.55l2.77,11.46Z" fill="#4da58e" stroke="#16221d" stroke-linecap="round" stroke-linejoin="round" stroke-width="1.5"/>
      <line x1="135.03" y1="286.17" x2="139.89" y2="306.28" fill="none" stroke="#16221d" stroke-linecap="round" stroke-linejoin="round" stroke-width="1.5"/>
      <path d="M178.81,321.31s9-13.66,35.82-14.84l3.08,12.73" fill="none" stroke="#16221d" stroke-linecap="round" stroke-linejoin="round" stroke-width="1.5"/>
      <path d="M153.36,312.19s1.22,3.07,9.39,0,28.5-16.69,28.5-16.69" fill="none" stroke="#16221d" stroke-linecap="round" stroke-linejoin="round" stroke-width="1.5"/>
      <path d="M205.91,325.15c-1.47,14.91-8,29.17-17.42,40.87-2,2.5-4.16,4.88-6.4,7.16a11.37,11.37,0,0,1,1,3l39.28-1.83L216.12,324Z" fill="#ccc"/>
    </g>
  </g>
  <path d="M579.15,701.54v10.12" fill="none" stroke="#fff" stroke-miterlimit="10" stroke-width="1.5"/>
</svg>
