<svg id="Layer_1" data-name="Layer 1" xmlns="http://www.w3.org/2000/svg" width="1367" height="769" viewBox="0 0 1367 769">
  <defs>
    <style>
      .cls-1 {
        fill: #5e2a15;
      }

      .cls-1, .cls-2, .cls-3, .cls-5, .cls-6, .cls-8 {
        stroke: #16221d;
        stroke-miterlimit: 10;
      }

      .cls-1, .cls-3, .cls-5, .cls-8 {
        stroke-width: 1.5px;
      }

      .cls-2, .cls-7 {
        fill: #16221d;
      }

      .cls-2 {
        stroke-width: 1.41px;
      }

      .cls-3 {
        fill: #f2e6d4;
      }

      .cls-4 {
        fill: #f2f2f2;
      }

      .cls-5 {
        fill: #ffd377;
      }

      .cls-6, .cls-8 {
        fill: none;
      }
    </style>
  </defs>
  <g>
    <g>
      <path class="cls-1" d="M76.11,508.27a6.48,6.48,0,0,0-4.41,2.1c8.94,8.53,15.63,42.45,15.64,83s-6.68,74.49-15.62,83a6.42,6.42,0,0,0,4.41,2.09c11.07,0,20-38.11,20-85.11S87.17,508.27,76.11,508.27Z"/>
      <ellipse class="cls-2" cx="71.71" cy="593.39" rx="15.63" ry="83.02"/>
    </g>
    <g>
      <path class="cls-3" d="M64.22,661.53c6.34.65,7.86,1.39,13.93,3.34,8.79,2.83,17.13,6.87,25.44,10.91l30.73,14.93L126,672c-6.3-14.24-12.73-29.75-9.23-44.92-19.31,2.34-43.38-1.17-60.73-10,0,13.13,4.82,29.26,8.14,44.45"/>
      <path class="cls-4" d="M77.49,641.06A46.41,46.41,0,0,1,106.1,677l28.22,13.71L126,672c-6.3-14.24-12.73-29.75-9.23-44.92-19.31,2.34-43.38-1.17-60.73-10a99.19,99.19,0,0,0,2.45,19.64C65,637.73,71.45,638.74,77.49,641.06Z"/>
      <path class="cls-3" d="M138.74,642.19c14.95,14.13,40.76,20.3,61.08,23.56l-11.52-17.1c-1.94-2.88-4-5.84-6.82-7.8-6.84-4.68-16-2.41-24.13-.81a117.48,117.48,0,0,1-26.46,2.17,3.14,3.14,0,0,1-2.12-.6c-1.06-1-.3-2.76.5-4l6.6-10a4.56,4.56,0,0,1,1.34-1.49c1.31-.76,3,0,4.29.73L163.27,639"/>
      <path class="cls-3" d="M144.07,693.69c-.09,3.57,2.34,6.66,4.76,9.28,28.93,31.35,76.09,44.51,117.07,32.64-10.56-17.26-21.36-35.15-24.28-55.18a6.54,6.54,0,0,0-.8-2.72c-1.9-2.79-6.22-.83-8.92,1.2A110.35,110.35,0,0,1,164,700.85c-7.17-.14-15.3-1.56-19.19-7.59"/>
      <path class="cls-5" d="M145,695.78c-5.56-5.48-1.86-15.59-5.08-22.71a57.24,57.24,0,0,1,44.31,26S154.69,705.33,145,695.78Z"/>
      <path class="cls-6" d="M254.45,738.26s-24-26.88-22.55-59.35"/>
      <path class="cls-7" d="M255.8,734.12a1.51,1.51,0,0,1-.73-.09,2.62,2.62,0,0,1-1.89-2.71,2.26,2.26,0,0,1,1.24-1.55,3.2,3.2,0,0,1,2-.23,2.44,2.44,0,0,1,1.76,1.12C260,733.87,256,734.08,255.8,734.12Z"/>
      <path class="cls-7" d="M251.6,727.77a1.48,1.48,0,0,1-.72-.09A2.58,2.58,0,0,1,249,725a2.23,2.23,0,0,1,1.24-1.56,3.2,3.2,0,0,1,2-.23,2.45,2.45,0,0,1,1.77,1.13C255.76,727.52,251.8,727.73,251.6,727.77Z"/>
      <path class="cls-7" d="M247.05,719.84a1.48,1.48,0,0,1-.72-.09,2.62,2.62,0,0,1-1.89-2.71,2.26,2.26,0,0,1,1.24-1.55,3.27,3.27,0,0,1,2-.24,2.48,2.48,0,0,1,1.77,1.13C251.22,719.59,247.26,719.8,247.05,719.84Z"/>
      <path class="cls-7" d="M243,710.9a1.48,1.48,0,0,1-.72-.09,2.59,2.59,0,0,1-1.89-2.71,2.24,2.24,0,0,1,1.24-1.55,3.2,3.2,0,0,1,2-.23,2.46,2.46,0,0,1,1.77,1.12C247.21,710.65,243.24,710.86,243,710.9Z"/>
      <path class="cls-7" d="M240.29,702.75a1.48,1.48,0,0,1-.72-.09,2.6,2.6,0,0,1-1.89-2.71,2.24,2.24,0,0,1,1.24-1.55,3.2,3.2,0,0,1,2-.23,2.46,2.46,0,0,1,1.77,1.12C244.46,702.5,240.49,702.71,240.29,702.75Z"/>
      <path class="cls-7" d="M237.54,694.24a1.48,1.48,0,0,1-.72-.09,2.62,2.62,0,0,1-1.89-2.71,2.24,2.24,0,0,1,1.24-1.55,3.2,3.2,0,0,1,2-.24,2.5,2.5,0,0,1,1.77,1.13C241.71,694,237.74,694.2,237.54,694.24Z"/>
      <path class="cls-7" d="M236.29,686.16a1.48,1.48,0,0,1-.72-.09,2.59,2.59,0,0,1-1.89-2.71,2.26,2.26,0,0,1,1.24-1.55,3.2,3.2,0,0,1,2-.23,2.44,2.44,0,0,1,1.77,1.12C240.46,685.91,236.5,686.12,236.29,686.16Z"/>
    </g>
    <path class="cls-8" d="M121.61,684.53s-20-28.16-13.77-58.73"/>
    <path class="cls-7" d="M122.73,678.91a1.25,1.25,0,0,1-.57-.13,2.08,2.08,0,0,1-1.27-2.33,1.81,1.81,0,0,1,1.13-1.13,2.67,2.67,0,0,1,1.63,0,2,2,0,0,1,1.31,1.06C126.07,679.08,122.89,678.9,122.73,678.91Z"/>
    <path class="cls-7" d="M120,673.48a1.26,1.26,0,0,1-.57-.14,2.08,2.08,0,0,1-1.27-2.33,1.8,1.8,0,0,1,1.13-1.12,2.67,2.67,0,0,1,1.63,0,2,2,0,0,1,1.3,1.06C123.29,673.65,120.11,673.46,120,673.48Z"/>
    <path class="cls-7" d="M117,666.75a1.26,1.26,0,0,1-.57-.14,2.09,2.09,0,0,1-1.26-2.33,1.82,1.82,0,0,1,1.12-1.13,2.67,2.67,0,0,1,1.63,0,2,2,0,0,1,1.31,1.06C120.38,666.92,117.2,666.73,117,666.75Z"/>
    <path class="cls-7" d="M114.63,659.26a1.14,1.14,0,0,1-.57-.13,2.06,2.06,0,0,1-1.26-2.33,1.8,1.8,0,0,1,1.12-1.13,2.67,2.67,0,0,1,1.63,0,2,2,0,0,1,1.31,1.05C118,659.43,114.79,659.25,114.63,659.26Z"/>
    <path class="cls-7" d="M113.16,652.52a1.25,1.25,0,0,1-.57-.13,2.1,2.1,0,0,1-1.26-2.33,1.81,1.81,0,0,1,1.13-1.13,2.5,2.5,0,0,1,1.62,0,2,2,0,0,1,1.31,1.06C116.51,652.69,113.33,652.51,113.16,652.52Z"/>
    <path class="cls-7" d="M111.73,645.49a1.25,1.25,0,0,1-.57-.13A2.1,2.1,0,0,1,109.9,643a1.82,1.82,0,0,1,1.1-1.1,2.67,2.67,0,0,1,1.63,0A2,2,0,0,1,114,643C115.07,645.66,111.89,645.48,111.73,645.49Z"/>
    <path class="cls-7" d="M111,638.23a1.25,1.25,0,0,1-.57-.13,2.1,2.1,0,0,1-1.26-2.33,1.8,1.8,0,0,1,1.12-1.13,2.67,2.67,0,0,1,1.63,0,2,2,0,0,1,1.31,1.06C114.32,638.4,111.15,638.22,111,638.23Z"/>
  </g>
</svg>
