<?xml version="1.0" encoding="utf-8"?>
<!-- Generator: Adobe Illustrator 24.1.2, SVG Export Plug-In . SVG Version: 6.00 Build 0)  -->
<svg version="1.1" id="Layer_1" xmlns="http://www.w3.org/2000/svg" xmlns:xlink="http://www.w3.org/1999/xlink" x="0px" y="0px"
	 viewBox="0 0 1367 769" style="enable-background:new 0 0 1367 769;" xml:space="preserve">
<style type="text/css">
	.st0{clip-path:url(#SVGID_2_);}
	.st1{fill:#F2E6D4;stroke:#16221D;stroke-width:1.38;stroke-miterlimit:10;}
	.st2{fill:#FBC8A2;}
	.st3{fill:none;stroke:#16221D;stroke-width:1.38;stroke-miterlimit:10;}
	.st4{fill:#BDB0AE;stroke:#16221D;stroke-width:1.5;stroke-miterlimit:10;}
	.st5{fill:#E5D3D0;stroke:#16221D;stroke-width:1.5;stroke-miterlimit:10;}
	.st6{fill:#918887;stroke:#16221D;stroke-width:1.5;stroke-miterlimit:10;}
	.st7{fill:#FFD893;stroke:#16221D;stroke-width:1.5;stroke-miterlimit:10;}
	.st8{fill:#8E8584;stroke:#16221D;stroke-width:1.5;stroke-miterlimit:10;}
	.st9{fill:#E5D3D0;stroke:#16221D;stroke-width:1.37;stroke-miterlimit:10;}
	.st10{clip-path:url(#SVGID_4_);}
	.st11{fill:#B05232;}
	.st12{fill:#8E452D;}
	.st13{fill:none;stroke:#16221D;stroke-width:1.5;stroke-miterlimit:10;}
	.st14{fill:#9FAAC4;stroke:#16221D;stroke-width:1.38;stroke-miterlimit:10;}
	.st15{fill:#424E63;stroke:#16221D;stroke-width:1.25;stroke-miterlimit:10;}
	.st16{clip-path:url(#SVGID_6_);}
	.st17{fill:#5D6B85;stroke:#16221D;stroke-width:1.25;stroke-miterlimit:10;}
	.st18{fill:#231F20;stroke:#16221D;stroke-width:1.38;stroke-linecap:round;stroke-linejoin:round;}
	.st19{fill:#BD9C78;stroke:#231815;stroke-width:2;stroke-linecap:round;stroke-linejoin:round;}
	.st20{fill:#DEB88C;stroke:#231815;stroke-width:2;stroke-linecap:round;stroke-linejoin:round;}
	.st21{fill:#515254;stroke:#16221D;stroke-width:1.38;stroke-linecap:round;stroke-linejoin:round;}
	.st22{fill:none;stroke:#16221D;stroke-width:1.38;stroke-linecap:round;stroke-linejoin:round;}
	.st23{fill:#515254;stroke:#16221D;stroke-width:0.97;stroke-linecap:round;stroke-linejoin:round;}
	.st24{fill:#F2E6D4;stroke:#16221D;stroke-width:1.5;stroke-miterlimit:10;}
</style>
<g>
	<g>
		<defs>
			<path id="SVGID_1_" d="M218,78.3c-16.7,1.7-31.2,10.2-48.8,8.9c-23.9-1.8-41.6-7.8-64.9,2.9c-2.1,1-4.2,2.1-5.4,4
				s-1.4,4.4-1.4,6.7c0.1,7.1,1.5,14.4,5.3,20.4c8.7,14,24.3,12.9,38.6,10.7c13.5-2,25.8,4,38.9,5.1c14.5,1.2,26-4.6,39.8-7.7
				c12.3-2.8,36.9,3.9,43.1-10.5c9.3-21.6-9.1-35-28.2-39.4C229.3,78,223.6,77.7,218,78.3z"/>
		</defs>
		<clipPath id="SVGID_2_">
			<use xlink:href="#SVGID_1_"  style="overflow:visible;"/>
		</clipPath>
		<g class="st0">
			<g>
				<path class="st1" d="M218,78.3c-16.7,1.7-31.2,10.2-48.8,8.9c-23.9-1.8-41.6-7.8-64.9,2.9c-2.1,1-4.2,2.1-5.4,4
					s-1.4,4.4-1.4,6.7c0.1,7.1,1.5,14.4,5.3,20.4c8.7,14,24.3,12.9,38.6,10.7c13.5-2,25.8,4,38.9,5.1c14.5,1.2,26-4.6,39.8-7.7
					c12.3-2.8,36.9,3.9,43.1-10.5c9.3-21.6-9.1-35-28.2-39.4C229.3,78,223.6,77.7,218,78.3z"/>
				<path class="st2" d="M264.3,100.3c0,0-5.6,20.4-32.2,17.7c-6.6-0.8-12.7-3.5-17.7-7.8c-5-4.2-13.3-8.9-23.3-5.7
					c-3.9,1.3-7.4,3.6-10.1,6.7c-5.4,5.9-25.4,21.4-78.3,10c0,0,1.3,19.9,4.3,20.5s95.3,6.3,95.3,6.3h80L264.3,100.3z"/>
			</g>
		</g>
	</g>
	<path class="st3" d="M218,78.3c-16.7,1.7-31.2,10.2-48.8,8.9c-23.9-1.8-41.6-7.8-64.9,2.9c-2.1,1-4.2,2.1-5.4,4s-1.4,4.4-1.4,6.7
		c0.1,7.1,1.5,14.4,5.3,20.4c8.7,14,24.3,12.9,38.6,10.7c13.5-2,25.8,4,38.9,5.1c14.5,1.2,26-4.6,39.8-7.7
		c12.3-2.8,36.9,3.9,43.1-10.5c9.3-21.6-9.1-35-28.2-39.4C229.3,78,223.6,77.7,218,78.3z"/>
</g>
<g>
	<g>
		<g>
			<rect x="242.4" y="332.2" class="st4" width="8.1" height="31.7"/>
			<path class="st5" d="M269.3,286.2L237,307.8c-3,2-0.7,10.8,5.2,19.5s13.1,14.3,16.1,12.2l32.3-21.6L269.3,286.2z"/>
			
				<ellipse transform="matrix(0.8309 -0.5564 0.5564 0.8309 -120.7502 206.8635)" class="st6" cx="280" cy="302.1" rx="6.6" ry="19.1"/>
			
				<ellipse transform="matrix(0.8309 -0.5564 0.5564 0.8309 -120.5913 206.9913)" class="st7" cx="280.2" cy="301.9" rx="4.2" ry="15.9"/>
			<path class="st5" d="M232.8,328.6l21.9-14.7c1-0.7,2.3-0.4,3,0.6l3,4.5c0.7,1,0.4,2.3-0.6,3l-21.9,14.7c-1,0.7-2.3,0.4-3-0.6
				l-3-4.5C231.5,330.6,231.8,329.2,232.8,328.6z"/>
			<circle class="st8" cx="255.1" cy="319.5" r="2"/>
		</g>
		<path class="st9" d="M95.2,358.7h157c2.4,0,4.4,2,4.4,4.4l0,0v5.2c0,2.4-2,4.4-4.4,4.4h-157c-3.9,0-7-3.1-7-7l0,0
			C88.2,361.9,91.4,358.7,95.2,358.7L95.2,358.7z"/>
	</g>
	<g>
		<g>
			<g>
				<g>
					<defs>
						<path id="SVGID_3_" d="M135.2,220.7v-28.8L41.9,469v239.6c0,0,50.7,9.2,50.9-13v-11.9c1.6-1.5,4.5-3.1,9.8-4.1
							c3.7-0.7,7.6-1,11.4-0.7c8,0.5,21.2,0.4,21.2-10.8v-20.4c8.1,0.4,20.2-0.1,20.2-10.9V160.7L135.2,220.7z"/>
					</defs>
					<clipPath id="SVGID_4_">
						<use xlink:href="#SVGID_3_"  style="overflow:visible;"/>
					</clipPath>
					<g class="st10">
						<g>
							<path class="st11" d="M135.2,220.7v-28.8L41.9,469v239.6c0,0,50.7,9.2,50.9-13v-11.9c1.6-1.5,4.5-3.1,9.8-4.1
								c3.7-0.7,7.6-1,11.4-0.7c8,0.5,21.2,0.4,21.2-10.8v-20.4c8.1,0.4,20.2-0.1,20.2-10.9V160.7L135.2,220.7z"/>
							<path class="st12" d="M92.8,683.7V537.1c0,0-6.7,119.1,42.3,81.2v65.4C135.1,683.7,112.5,700.1,92.8,683.7z"/>
							<path class="st12" d="M135.5,649.7V549.5c0,0-6.6,72.7,42.3,34.7v65.4C177.8,649.6,155.2,666,135.5,649.7z"/>
							<path class="st12" d="M109.3,450.1l6.2,17.2c0,0-15.9,0.5-21.9,65V431.2L109.3,450.1z"/>
						</g>
					</g>
				</g>
				<line class="st13" x1="92.8" y1="683.7" x2="92.8" y2="524.3"/>
				<line class="st13" x1="92.8" y1="566" x2="92.8" y2="406.6"/>
				<line class="st13" x1="135.2" y1="647.7" x2="135.2" y2="586.4"/>
				<line class="st13" x1="135.2" y1="568.4" x2="135.2" y2="562.4"/>
				<line class="st13" x1="135.2" y1="402.6" x2="135.2" y2="247.1"/>
				<g>
					<path class="st12" d="M135.2,445.4v7.7C135.9,450.6,135.9,447.9,135.2,445.4z"/>
					<path class="st12" d="M92.8,324.8v144.5c31.8,0.2,40.4-9.2,42.4-16.3V315.8L92.8,324.8z"/>
					<path class="st12" d="M155.4,291l13.6-11.5l-33.8,7.2v129.6c27.3-8.3,20.2-38.8,20.2-38.8L155.4,291z"/>
				</g>
				<line class="st13" x1="135.2" y1="540.3" x2="135.2" y2="431.2"/>
				<line class="st13" x1="135.2" y1="397.9" x2="135.2" y2="242.3"/>
			</g>
			<path class="st13" d="M135.2,220.7v-28.8L41.9,469v239.6c0,0,50.7,9.2,50.9-13v-11.9c1.6-1.5,4.5-3.1,9.8-4.1
				c3.7-0.7,7.6-1,11.4-0.7c8,0.5,21.2,0.4,21.2-10.8v-20.4c8.1,0.4,20.2-0.1,20.2-10.9V160.7L135.2,220.7z"/>
		</g>
		<polygon class="st14" points="191.2,396.1 0.5,607.5 0.5,0.5 191.2,0.5 		"/>
		<polygon class="st15" points="168.2,289.3 53.7,403.4 53.7,107.5 168.2,107.5 		"/>
		<g>
			<defs>
				<polygon id="SVGID_5_" points="167.1,285.8 54.8,397.5 54.8,107.5 167.1,107.5 				"/>
			</defs>
			<clipPath id="SVGID_6_">
				<use xlink:href="#SVGID_5_"  style="overflow:visible;"/>
			</clipPath>
			<g class="st16">
				<g>
					<rect x="52.3" y="106.3" class="st17" width="220.1" height="179.5"/>
					<polygon class="st18" points="90.3,298 129.6,285.8 95.5,285.8 					"/>
					<path class="st19" d="M105.4,261.7c-2.9-7-0.8-11.6-0.8-11.6h-0.8V250H103l0,0h-0.2l0,0h-0.9v-0.1h0.1l0,0h-1.2v-0.1h0.2v-0.1
						h-1.1l0,0l0,0v-0.1H99l0,0l0,0c-0.9,0.1-1.9,0.1-2.8-0.1c-3.3-5.4-2.4-14-2.4-14c1.5-13.5,8.6-8.6,8.6-8.6l-0.5-2.7
						c-0.3-1.6-0.1-3.2,0.5-4.7c1.6-4.4,2.9-9,3.7-13.6c1.2-6.7-1.2-13.1-6.2-16.9h-3.5L95,182h-0.4c-0.7-0.5-1.5-1-2.3-1.4
						c-7.2-3.7-16-3.8-16-3.8c-5.8,0.2-11.5,1.5-16.8,3.8c-7.2,3.3-12.1,10.4-12.6,18.3c-0.3,4.4-0.2,8.8,0.4,13.1
						c0.2,1.6,0,3.2-0.6,4.7l-1.1,2.7c0,0,5,3.4,5.6,3.9c0.4-0.2,0.8-0.4,1.2-0.5c0.2,1.7,0.2,3.4-0.1,5.2c0,0-2.5,19.3-14.9,18.1
						c0,0,1,4.6-3.5,11.6c0,0-14.1,21.7,4.4,34.6l0.2,0.2H43c6,3.9,13,5.8,20.2,5.5c2.5-0.1,5-0.1,7.4,0c7.6,0.2,15.1-1.7,21.6-5.6
						C114.6,283.4,105.4,261.7,105.4,261.7z"/>
					<path class="st20" d="M99.8,257.7c-2.9-7-0.8-11.6-0.8-11.6C86.3,247.3,88.2,228,88.2,228c1.5-13.5,8.6-8.6,8.6-8.6l-0.5-2.7
						c-0.3-1.6-0.1-3.2,0.5-4.7c1.6-4.4,2.9-9,3.7-13.6c1.4-7.7-1.9-14.9-8.4-18.3c-7.2-3.7-16-3.8-16-3.8
						c-5.8,0.2-11.5,1.5-16.8,3.8c-7.2,3.3-12.1,10.4-12.6,18.3c-0.2,4.5,0,9.1,0.6,13.6c0.2,1.6,0,3.2-0.6,4.7l-1.1,2.7
						c0,0,8.2-4.9,6.7,8.6c0,0-2.5,19.3-14.9,18.1c0,0,1,4.6-3.5,11.6c0,0-14.1,21.7,4.4,34.6c6,4,13.2,6,20.4,5.6
						c2.5-0.1,5-0.1,7.4,0c7.6,0.2,15.1-1.7,21.6-5.6C109,279.5,99.8,257.7,99.8,257.7z"/>
					<polygon class="st21" points="58,267.1 56.3,250.5 69.2,250.5 61.5,267.1 56.3,298 53.8,298 					"/>
					<path class="st21" d="M77.9,125.3l6.8,0.1l-11.1,96.9l-11-0.3C62.6,222,76.9,129.5,77.9,125.3z"/>
					<line class="st22" x1="81.2" y1="134.6" x2="64.7" y2="253.4"/>
					<line class="st22" x1="61.5" y1="253.4" x2="79.4" y2="134.6"/>
					<line class="st22" x1="58.4" y1="253.4" x2="77.4" y2="134.6"/>
					<path class="st23" d="M73.3,232.3c0,0-2.6-0.1-0.7-3c1.3-2,3.4-3.2,5.8-3.1c1.7,0.1,3,1.4,3.2,3.1c0.3,1.4,0.2,2.9-0.3,4.3
						c-1.8,5.3-7,22.9-1.6,25.7c0,0,2.2,0.7,3-1.2c-1.2-1.1-1.4-3-0.5-4.3c1.1-1.8,3.6-2.4,4.6-1c0.6,0.7,0.7,1.9-0.6,3.9
						c-1.2,1.9-3.1,3.4-5.3,4.1c-2.1,0.6-4.8,0.4-6.2-3.3c-0.8-2.1-0.9-4.3-0.5-6.4c0.6-3.1,2-8.7,5.8-17.9c0.3-0.8,0.5-1.6,0.5-2.4
						c0-1.4-0.8-3.1-4.2-2.3C76.3,228.2,76.6,232.1,73.3,232.3z"/>
					<path class="st23" d="M56.9,231.8c0,0,2.6-0.1,1.4-3c-0.9-2.5-3.6-3.8-6.1-2.9c-1.3,0.5-2.4,1.5-2.9,2.9
						c-0.6,1.3-0.9,2.8-0.8,4.3c0.3,5.3,1,22.9-5.2,25.6c0,0-2.4,0.7-2.7-1.2c0,0,2.5-1.9,1.6-4.4c-0.5-1.4-2.1-2.1-3.5-1.5
						c-0.3,0.1-0.6,0.3-0.9,0.5c-0.8,0.7-1.2,1.9-0.4,3.9c0.7,1.9,2.3,3.4,4.2,4.1c2,0.6,4.7,0.4,7.1-3.3c1.2-1.9,2-4.1,2.1-6.4
						c0.3-3.1,0.3-8.7-1-17.9c-0.1-0.8-0.1-1.6,0.1-2.4c0.4-1.4,1.6-3.1,4.8-2.3C55,227.7,53.6,231.7,56.9,231.8z"/>
					<polygon class="st20" points="88.9,118.8 86.1,118.8 86.4,115.4 78.9,115.4 78.3,118.8 74.8,118.8 74,125.5 77.2,125.5 
						75.7,134.1 84.7,134.1 85.5,125.5 88.9,125.5 					"/>
				</g>
			</g>
		</g>
		<polygon class="st3" points="168.2,289.3 53.7,403.4 53.7,107.5 168.2,107.5 		"/>
	</g>
</g>
<path class="st24" d="M186.7,503.1c2.6-5.9-8.8-10.4-12.5-12.3c-3.6-1.9-7.4-3.5-11.3-4.7c-1.4-0.5-2.9-0.9-4.4-1.2
	c-0.2-0.2-0.4-0.3-0.7-0.4c-11.9-2.6-26.4-3.9-37.1,3.3c-4.6,3.1-8.3,7.6-9.5,13.1c-1,4.3-0.2,9.6,4,11.9c2.9,1.6,6.3,1.1,9.4,0.9
	c4-0.2,8-0.5,12-0.7c6.7-0.3,13.4,1.7,20,0c5.7-1.5,10.8-4.7,16.5-6C177.1,506,184.5,508.1,186.7,503.1z"/>
</svg>
