<svg xmlns="http://www.w3.org/2000/svg" viewBox="0 0 281.21 61.16"><defs><style>.cls-1{fill:#fff;}.cls-2{opacity:0.25;}.cls-3{fill:none;stroke:#fff;stroke-miterlimit:10;stroke-width:2px;}</style></defs><g id="圖層_1" data-name="圖層 1"><path id="Path_235" data-name="Path 235" class="cls-1" d="M265,.28a19.23,19.23,0,0,0-19.58,8.8l-4.84,3.05a14,14,0,0,1,2,6,10.2,10.2,0,0,1,.1,1.22,9.08,9.08,0,0,1-.1,1.17,13.18,13.18,0,0,1-2,6l4.83,3A19.28,19.28,0,0,0,272,35.73a19.07,19.07,0,0,0,3.36-2.64v5.34h5.7V19.86C281.1,10.86,273.92,1.7,265,.28Zm-1.17,32.4a13.48,13.48,0,0,1-15.41-11.29c0-.16-.05-.26-.05-.41s0-.25,0-.41h0a10.29,10.29,0,0,1-.05-1.27c0-.46.05-.91.05-1.37h0a1.15,1.15,0,0,1,0-.26A13.51,13.51,0,1,1,275.2,21c-.05.36-.11.71-.16,1.07C274.08,27,268.89,31.92,263.85,32.68Z"/><path id="Path_236" data-name="Path 236" class="cls-1" d="M218.78,28l-4.42,3.71a19.12,19.12,0,0,0,7.53,5.5l2.18-5.39A13.73,13.73,0,0,1,218.78,28Z"/><path id="Path_237" data-name="Path 237" class="cls-1" d="M215.68,20.27l-5.8.4a19.18,19.18,0,0,0,2.9,8.91l4.88-3.06A13.83,13.83,0,0,1,215.68,20.27Z"/><path id="Path_238" data-name="Path 238" class="cls-1" d="M224.07,6.79l-2.18-5.34a19.1,19.1,0,0,0-7.53,5.49l4.42,3.71A13.24,13.24,0,0,1,224.07,6.79Z"/><path id="Path_239" data-name="Path 239" class="cls-1" d="M215.63,18.49v-.26a13.5,13.5,0,0,1,2-6.05l-4.93-3a20.22,20.22,0,0,0-2.8,8.75v.25l2.85.05Z"/><path id="Path_240" data-name="Path 240" class="cls-1" d="M230.13,5.82a11.47,11.47,0,0,1,2.29.36l1.37-5.6a23.3,23.3,0,0,0-3.26-.51,20.52,20.52,0,0,0-6.1.51l1.42,5.65A13.41,13.41,0,0,1,230.13,5.82Z"/><path id="Path_241" data-name="Path 241" class="cls-1" d="M234.2,31.87l2.18,5.39a19.19,19.19,0,0,0,7.58-5.5l-4.42-3.71A14.29,14.29,0,0,1,234.2,31.87Z"/><path id="Path_242" data-name="Path 242" class="cls-1" d="M228.19,32.78a17.07,17.07,0,0,1-2.29-.35l-1.37,5.64a17.42,17.42,0,0,0,3.31.51,13.38,13.38,0,0,0,1.42.05,20,20,0,0,0,4.63-.56l-1.37-5.64A12.81,12.81,0,0,1,228.19,32.78Z"/><path id="Path_243" data-name="Path 243" class="cls-1" d="M239.49,10.6l4.42-3.71a18.91,18.91,0,0,0-7.58-5.49L234.2,6.79A13.61,13.61,0,0,1,239.49,10.6Z"/><path id="Path_244" data-name="Path 244" class="cls-1" d="M242.49,42.5a2.38,2.38,0,0,1,1.78.76,2.62,2.62,0,0,1,.76,1.83,2.8,2.8,0,0,1-.71,1.83,2.56,2.56,0,0,1-3.61,0l-.06,0a2.69,2.69,0,0,1,0-3.66A2.39,2.39,0,0,1,242.49,42.5Zm0,4.47a1.74,1.74,0,0,0,1.27-.56,1.63,1.63,0,0,0,.51-1.32,1.87,1.87,0,0,0-.56-1.32,1.48,1.48,0,0,0-1.22-.56,1.81,1.81,0,0,0-1.78,1.88,1.8,1.8,0,0,0,.5,1.32,1.74,1.74,0,0,0,1.28.56Z"/><path id="Path_245" data-name="Path 245" class="cls-1" d="M247,43.36a2.24,2.24,0,0,1,1.78-.86,2.46,2.46,0,0,1,1.83.76,2.63,2.63,0,0,1,.06,3.66,2.39,2.39,0,0,1-1.78.77,2.52,2.52,0,0,1-1.84-.87v2.44h-.76V42.6H247ZM248.84,47a1.66,1.66,0,0,0,1.28-.56,2,2,0,0,0,0-2.69,1.85,1.85,0,0,0-1.33-.56,1.83,1.83,0,0,0-1.32.56,1.71,1.71,0,0,0-.51,1.37,2.11,2.11,0,0,0,.56,1.38,2.07,2.07,0,0,0,1.32.5Z"/><path id="Path_246" data-name="Path 246" class="cls-1" d="M257.49,45.19h-4.32a1.85,1.85,0,0,0,.56,1.33,1.76,1.76,0,0,0,1.17.51,2,2,0,0,0,1.78-1.17l.61.3a3.19,3.19,0,0,1-1,1.17,2.2,2.2,0,0,1-1.37.36,2.41,2.41,0,0,1-1.83-.77,2.69,2.69,0,0,1,0-3.66,2.37,2.37,0,0,1,1.78-.76,2.54,2.54,0,0,1,1.78.71A2.48,2.48,0,0,1,257.49,45.19Zm-.81-.66a1.41,1.41,0,0,0-.61-1,1.8,1.8,0,0,0-1.12-.36,1.69,1.69,0,0,0-1.68,1.32Z"/><path id="Path_247" data-name="Path 247" class="cls-1" d="M263,47.48h-.72V45.14a8.47,8.47,0,0,0-.05-1.12,1.5,1.5,0,0,0-.2-.5.64.64,0,0,0-.36-.31,1.81,1.81,0,0,0-.56-.1,1.62,1.62,0,0,0-.66.15,1.66,1.66,0,0,0-.86,1.07,10.86,10.86,0,0,0-.1,1.27v1.83h-.77V42.6h.77v.71a2.13,2.13,0,0,1,1.73-.86,2.11,2.11,0,0,1,1,.25,1.91,1.91,0,0,1,.66.76,3.51,3.51,0,0,1,.21,1.48l0,2.54Z"/><path id="Path_248" data-name="Path 248" class="cls-1" d="M270.82,47.48h-.71v-.71a2.4,2.4,0,0,1-3.61.1,2.56,2.56,0,0,1,0-3.66,2.38,2.38,0,0,1,1.83-.76,2.17,2.17,0,0,1,1.78.86V42.6h.71v4.88ZM268.33,47a1.64,1.64,0,0,0,1.27-.56,2,2,0,0,0,0-2.74,1.83,1.83,0,0,0-1.32-.56,1.85,1.85,0,0,0-1.33.56,1.9,1.9,0,0,0,0,2.64,1.62,1.62,0,0,0,1.33.66Z"/><path id="Path_249" data-name="Path 249" class="cls-1" d="M274.38,42.65l-.36.66a.71.71,0,0,0-.3-.1.63.63,0,0,0-.51.25,2.12,2.12,0,0,0-.36.72,5.77,5.77,0,0,0-.1,1.62v1.68H272V42.6h.76v.51a1.48,1.48,0,0,1,.46-.51,1,1,0,0,1,.51-.15A2.55,2.55,0,0,1,274.38,42.65Z"/><path id="Path_250" data-name="Path 250" class="cls-1" d="M277.53,43.26h-1v3.46c0,.1,0,.2.05.2a.54.54,0,0,0,.25,0h.46v.67a2.94,2.94,0,0,1-.66,0,1,1,0,0,1-.66-.21.81.81,0,0,1-.21-.66V43.26h-.86V42.6h.86V40.77h.77V42.6h1Z"/><path id="Path_251" data-name="Path 251" class="cls-1" d="M281.1,43.16l-.46.51a1.77,1.77,0,0,0-1-.51.56.56,0,0,0-.46.2.66.66,0,0,0-.2.46.56.56,0,0,0,.2.46,3.48,3.48,0,0,0,.77.46,2.34,2.34,0,0,1,.81.61,1.26,1.26,0,0,1,.31.81,1.57,1.57,0,0,1-1.53,1.53,1.87,1.87,0,0,1-1.48-.77l.46-.51a1.28,1.28,0,0,0,1,.56,1.46,1.46,0,0,0,.61-.2.7.7,0,0,0,.25-.51.68.68,0,0,0-.2-.51,3,3,0,0,0-.76-.45,3.68,3.68,0,0,1-.82-.67,1.09,1.09,0,0,1-.25-.86,1.27,1.27,0,0,1,.41-.92,1.32,1.32,0,0,1,1-.35A1.77,1.77,0,0,1,281.1,43.16Z"/><path class="cls-1" d="M212.64,53.24c-.33.07-.6.12-.82.15l-.65.1a3.14,3.14,0,0,0-.13-.4,1.15,1.15,0,0,0-.24-.35,8,8,0,0,0,1.11-.1c.36,0,.71-.12,1.07-.2a8.32,8.32,0,0,0,.81-.24,3.09,3.09,0,0,0,.52-.27,2.57,2.57,0,0,0,.2.46,1.44,1.44,0,0,0,.3.38c.1.1.15.17.14.2s-.07,0-.17,0a1.91,1.91,0,0,0-.49,0,7.92,7.92,0,0,0-.86.13v1.75l.88,0c.28,0,.49,0,.65-.05v.82a5.08,5.08,0,0,0-.65,0l-.88,0v3.77c0,.24,0,.52,0,.81s0,.6.07.9h-1c0-.3,0-.6.05-.9s0-.57,0-.81V56.63a8.49,8.49,0,0,1-.58,1.34,14.85,14.85,0,0,1-.95,1.48,3.38,3.38,0,0,0-.31-.41l-.36-.37a14.52,14.52,0,0,0,1.17-1.47,7.87,7.87,0,0,0,.89-1.7h-.71l-.46,0H211l-.26,0v-.82l.28,0,.34,0h1.26Zm1.76,5.09a7.33,7.33,0,0,0-.41-.76,8.88,8.88,0,0,0-.5-.75l.54-.47c.19.25.37.51.56.78l.47.69Zm1.84,1.58h-.9c0-.15,0-.29,0-.41s0-.23,0-.33a2.71,2.71,0,0,1,0-.29V53.79c0-.17,0-.32,0-.44a1.33,1.33,0,0,0,0-.34l.52,0,.44,0h1.76l.49,0,.45,0a2.61,2.61,0,0,0,0,.31c0,.12,0,.28,0,.47v4.53c0,.23,0,.44,0,.64s0,.44.06.71h-.88v-.89h-1.91Zm1.91-6.13h-1.91v4.31h1.91Z"/><path class="cls-1" d="M226.81,53.73h-2.09l-.8,0-.71,0V53l.73,0,.79,0h2.08q0-.39,0-.69c0-.19,0-.34,0-.45l.28,0,.28,0h.42c.07,0,.12,0,.14,0s0,.08-.08.14a.34.34,0,0,0-.12.21,1.17,1.17,0,0,0,0,.3v.37l2.07,0,1.55,0v.82l-1.55-.06-2.07,0v.82h1.73l.64,0,.63,0v.78l-.63,0-.64,0h-1.73V56h2.33l.78,0,.84,0v.79l-.91,0-.81,0h-2.55a6,6,0,0,1-.61.73c-.24.25-.51.5-.8.75V60l1.83-.75a1.28,1.28,0,0,0,.13.73l-1,.38-.85.34-.66.3-.44.21a2,2,0,0,0-.17-.41,3.15,3.15,0,0,0-.24-.38,4.08,4.08,0,0,0,.63-.15V58.6a12.28,12.28,0,0,1-1.87,1,2.65,2.65,0,0,0-.26-.51,1.45,1.45,0,0,0-.31-.35,4,4,0,0,0,1-.26,6.72,6.72,0,0,0,1-.48,6.09,6.09,0,0,0,.91-.65,6.71,6.71,0,0,0,.79-.81h-2l-.66,0-.74,0v-.79l.56,0,.48,0h2.9v-.78h-1.72l-.65,0-.63,0v-.78l.63,0,.65,0h1.72Zm1.67,4.53.61-.38c.16-.11.31-.22.43-.32s.22-.19.3-.28a3.47,3.47,0,0,0,.25-.29l.17.14.22.17.21.14.16.11c.07.06.11.1.09.14s-.07.05-.18,0l-.18,0a1.82,1.82,0,0,0-.32.14l-.55.28-.87.49a4.13,4.13,0,0,0,1.11.78,4.23,4.23,0,0,0,1.54.42,2.73,2.73,0,0,0-.47.49,1.29,1.29,0,0,0-.23.46,6.76,6.76,0,0,1-1.45-.72,4.81,4.81,0,0,1-1.11-1.05,7,7,0,0,1-.59-.87q-.27-.45-.51-.93l.69-.36a5.42,5.42,0,0,0,.27.63A6.42,6.42,0,0,0,228.48,58.26Z"/><path class="cls-1" d="M236.74,56.18l-.33-.27-.38-.27a3.26,3.26,0,0,0-.4-.24c-.13-.08-.26-.14-.38-.2l.5-.77c.28.15.55.31.81.47s.5.32.74.49Zm.49,1.35c0,.1,0,.18-.07.26s0,.17-.08.27l-.1.37c0,.14-.08.31-.13.52s-.1.43-.14.59-.08.31-.11.45,0,.27-.08.4,0,.26-.07.42a4,4,0,0,0-.48-.32,3.6,3.6,0,0,0-.52-.26c.12-.24.23-.5.35-.79s.22-.6.32-.93a9.69,9.69,0,0,0,.38-1.5,1.78,1.78,0,0,0,.35.32A2,2,0,0,0,237.23,57.53ZM237,53.78a7.84,7.84,0,0,0-.54-.61,3.59,3.59,0,0,0-.64-.51l.62-.68c.21.18.42.36.62.56a6.32,6.32,0,0,1,.56.6Zm3.2,5.87c.14.09.13.14,0,.14a1,1,0,0,0-.32.1l-.59.31-.75.4c-.3.14-.58.28-.86.4a1.69,1.69,0,0,0-.29-.35,1.76,1.76,0,0,0-.39-.26c.21-.06.42-.14.65-.23a6.68,6.68,0,0,0,.67-.31,7,7,0,0,0,.66-.36c.22-.13.41-.26.59-.39a3.29,3.29,0,0,0,.35.32Zm1-6.83h1l.69,0,.5,0,.38-.05v1.91H243V53.47h-4.47v1.35h-.79v-2.1l.41,0a4.16,4.16,0,0,0,.54,0l.72,0h1c0-.14-.07-.27-.12-.41a2,2,0,0,0-.15-.37l1-.15c0,.11,0,.25.07.42A4.7,4.7,0,0,0,241.23,52.82ZM241,55.59l1.26,0,.94,0c0,.19,0,.42,0,.7s0,.59,0,.91,0,.67,0,1,0,.64,0,.89L242.12,59l-1.53,0-1.46,0-1,0c0-.21,0-.48,0-.82s0-.68,0-1,0-.64,0-.93,0-.54,0-.73c.26,0,.57,0,.92.06l1.26,0v-.66l-.78,0-.6,0V54.2c.23,0,.5,0,.8.06h2.17c.27,0,.53,0,.76-.06V55l-.69-.05H241Zm-.74.58h-1.38V57h1.38Zm0,1.35h-1.38v.83h1.38ZM241,57h1.41v-.81H241Zm0,1.37h1.41v-.83H241ZM243.24,61c-.32-.25-.67-.49-1.05-.74s-.74-.46-1.1-.65l.6-.55.51.28.55.33.55.33.51.33Z"/><path class="cls-1" d="M250.67,54l-1.26,0-1,0v-.91c.36,0,.76,0,1.18.06l1.46,0a6,6,0,0,0,.4-1.55l.25.08.3.07.28.05.23,0c.1,0,.16,0,.18.08s0,.1-.17.2a.17.17,0,0,0-.06.06.69.69,0,0,0-.09.15l-.16.3-.26.52c.94,0,1.78,0,2.52,0s1.37,0,1.91-.08v.91c-.57,0-1.26-.07-2.08-.08s-1.71,0-2.7,0a9.38,9.38,0,0,1-.62,1.09,13.68,13.68,0,0,1-.85,1.11v3.11c0,.11,0,.24,0,.38s0,.29,0,.46,0,.36,0,.58h-.92c0-.22,0-.41,0-.58s0-.33,0-.46,0-.27,0-.38V57.11c-.32.32-.65.64-1,.94a2.37,2.37,0,0,0-.38-.39,2.25,2.25,0,0,0-.35-.22,6.44,6.44,0,0,0,.9-.65,9.71,9.71,0,0,0,.81-.76c0-.18,0-.32,0-.45a1.43,1.43,0,0,0-.05-.28,1.81,1.81,0,0,0,.36.05h.31A7.3,7.3,0,0,0,250.67,54Zm3,2.4c.49,0,.9,0,1.24,0a8.41,8.41,0,0,0,.92-.07v.9a8.41,8.41,0,0,0-.92-.07c-.34,0-.75,0-1.24,0v2.42l1.51,0,1.13-.07v.91c-.37,0-.79-.06-1.26-.07s-1.05,0-1.73,0-1.25,0-1.72,0-.88,0-1.26.07v-.91l1.1.07,1.42,0V57.14l-1.13,0c-.32,0-.6,0-.86.08v-.93a7.67,7.67,0,0,0,.87.07c.31,0,.68,0,1.12,0a11.45,11.45,0,0,0-.09-1.87,3.46,3.46,0,0,0,.48.07,4.12,4.12,0,0,0,.51,0c.17,0,.18.05,0,.16a.36.36,0,0,0-.1.15.68.68,0,0,0,0,.19Z"/><path class="cls-1" d="M268.56,56.8c-.51,0-1.11-.06-1.79-.07s-1.5,0-2.45,0-1.77,0-2.44,0-1.28,0-1.79.07V55.67c.52,0,1.12.06,1.79.07s1.49,0,2.44,0,1.77,0,2.45,0,1.28,0,1.79-.07Z"/><path class="cls-1" d="M275.37,57.2l.85,0,.5,0v.77l-.51,0-.84,0v1.71a3.47,3.47,0,0,0,.94.26,7.28,7.28,0,0,0,1.23.1c.47,0,1,0,1.61-.06s1.29-.11,2.06-.2a2,2,0,0,0-.17.46,2.92,2.92,0,0,0-.08.46c-1.3.06-2.36.08-3.18.07a12.48,12.48,0,0,1-1.81-.11,2.82,2.82,0,0,1-.7-.22,3.23,3.23,0,0,1-.66-.4,3.29,3.29,0,0,1-.59-.53,3.07,3.07,0,0,1-.47-.62,9.34,9.34,0,0,1-.64,2,2.22,2.22,0,0,0-.32-.31,2.67,2.67,0,0,0-.35-.22,4.26,4.26,0,0,0,.56-1.45,15.84,15.84,0,0,0,.29-2.11l.51.08a3,3,0,0,0,.41,0c.14,0,.15,0,0,.14a.77.77,0,0,0-.15.28,4.74,4.74,0,0,0-.16.6,6,6,0,0,0,.41.72,3.21,3.21,0,0,0,.48.55V56H274l-.53,0L273,56l-.43,0v-.81l.41,0,.42,0,.48,0h.59V54h-1L273,54l-.34,0v-.78l.34,0,.38,0h1c0-.3,0-.58,0-.84a5.35,5.35,0,0,0-.06-.66l.46,0h.47c.09,0,.13,0,.14,0s0,.06-.07.1a.41.41,0,0,0-.19.38v1l.65,0,.53,0v.78l-.53,0-.65,0V55.3h.8l.33,0,.33,0V56l-.58-.05-.68,0ZM278,55.75v2a1.63,1.63,0,0,0,0,.24.15.15,0,0,0,.06.13.26.26,0,0,0,.15.06l.28,0h.45l.42,0a1.08,1.08,0,0,0,.29,0,.39.39,0,0,0,.2-.14,1,1,0,0,0,.17-.32c.05-.14.1-.32.17-.55a2.21,2.21,0,0,0,.37.3,1.33,1.33,0,0,0,.38.18c-.1.28-.18.5-.25.66a1,1,0,0,1-.24.36.74.74,0,0,1-.33.17,4.68,4.68,0,0,1-.56.07l-.26,0-.34,0h-.64a5.17,5.17,0,0,1-.61,0,.47.47,0,0,1-.32-.12.56.56,0,0,1-.13-.32c0-.15,0-.35,0-.62V53.91c0-.25,0-.48,0-.67s0-.4-.08-.64a4.18,4.18,0,0,0,.65.07h1.6l.48,0,.34,0,.29,0c0,.16,0,.34-.05.52s0,.43,0,.71v1.11c0,.24,0,.45,0,.63s0,.39.06.59h-.87v-.41Zm1.65-.67V53.41H278v1.67Z"/><path class="cls-1" d="M133.29,38.15a2.38,2.38,0,0,1,1.22-3,2.17,2.17,0,0,1,2.86,1.32,2.4,2.4,0,0,1-1.22,3A2.18,2.18,0,0,1,133.29,38.15Z"/><path class="cls-1" d="M126.73,40.91a2.38,2.38,0,0,1,1.22-3,2.17,2.17,0,0,1,2.86,1.32,2.38,2.38,0,0,1-1.22,3A2.17,2.17,0,0,1,126.73,40.91Z"/><path class="cls-1" d="M120.17,43.67a2.38,2.38,0,0,1,1.22-3A2.17,2.17,0,0,1,124.25,42,2.4,2.4,0,0,1,123,45,2.17,2.17,0,0,1,120.17,43.67Z"/><path class="cls-1" d="M113.61,46.43a2.38,2.38,0,0,1,1.22-3,2.17,2.17,0,0,1,2.86,1.32,2.4,2.4,0,0,1-1.22,3A2.18,2.18,0,0,1,113.61,46.43Z"/><path class="cls-1" d="M107.05,49.19a2.39,2.39,0,0,1,1.22-3,2.19,2.19,0,0,1,2.86,1.33,2.4,2.4,0,0,1-1.22,3.05A2.17,2.17,0,0,1,107.05,49.19Z"/><path class="cls-1" d="M100.49,52a2.38,2.38,0,0,1,1.22-3,2.16,2.16,0,0,1,2.85,1.32,2.39,2.39,0,0,1-1.21,3.05A2.17,2.17,0,0,1,100.49,52Z"/><path class="cls-1" d="M130.42,30.48a2.38,2.38,0,0,1,1.21-3,2.18,2.18,0,0,1,2.86,1.33,2.38,2.38,0,0,1-1.22,3A2.16,2.16,0,0,1,130.42,30.48Z"/><path class="cls-1" d="M123.85,33.25a2.4,2.4,0,0,1,1.22-3.05,2.18,2.18,0,0,1,2.86,1.33,2.38,2.38,0,0,1-1.22,3A2.17,2.17,0,0,1,123.85,33.25Z"/><path class="cls-1" d="M117.29,36a2.4,2.4,0,0,1,1.22-3,2.17,2.17,0,0,1,2.86,1.33,2.38,2.38,0,0,1-1.22,3A2.17,2.17,0,0,1,117.29,36Z"/><path class="cls-1" d="M110.73,38.77A2.39,2.39,0,0,1,112,35.72a2.17,2.17,0,0,1,2.86,1.33,2.38,2.38,0,0,1-1.22,3A2.17,2.17,0,0,1,110.73,38.77Z"/><path class="cls-1" d="M104.17,41.53a2.4,2.4,0,0,1,1.22-3.05,2.17,2.17,0,0,1,2.86,1.33,2.38,2.38,0,0,1-1.22,3A2.17,2.17,0,0,1,104.17,41.53Z"/><path class="cls-1" d="M97.61,44.29a2.4,2.4,0,0,1,1.22-3,2.17,2.17,0,0,1,2.86,1.33,2.39,2.39,0,0,1-1.22,3A2.19,2.19,0,0,1,97.61,44.29Z"/><path class="cls-1" d="M127.54,22.82a2.38,2.38,0,0,1,1.21-3,2.17,2.17,0,0,1,2.86,1.33,2.37,2.37,0,0,1-1.22,3A2.16,2.16,0,0,1,127.54,22.82Z"/><path class="cls-1" d="M121,25.58a2.38,2.38,0,0,1,1.21-3,2.17,2.17,0,0,1,2.86,1.33,2.38,2.38,0,0,1-1.21,3A2.17,2.17,0,0,1,121,25.58Z"/><path class="cls-1" d="M114.42,28.34a2.38,2.38,0,0,1,1.21-3,2.17,2.17,0,0,1,2.86,1.33,2.37,2.37,0,0,1-1.21,3A2.17,2.17,0,0,1,114.42,28.34Z"/><path class="cls-1" d="M107.86,31.1a2.37,2.37,0,0,1,1.22-3,2.16,2.16,0,0,1,2.85,1.33,2.37,2.37,0,0,1-1.21,3A2.16,2.16,0,0,1,107.86,31.1Z"/><path class="cls-1" d="M101.29,33.86a2.39,2.39,0,0,1,1.22-3,2.17,2.17,0,0,1,2.86,1.33,2.39,2.39,0,0,1-1.21,3A2.18,2.18,0,0,1,101.29,33.86Z"/><path class="cls-1" d="M94.74,36.63A2.39,2.39,0,0,1,96,33.58a2.16,2.16,0,0,1,2.85,1.33,2.37,2.37,0,0,1-1.22,3A2.17,2.17,0,0,1,94.74,36.63Z"/><path class="cls-1" d="M124.66,15.16a2.38,2.38,0,0,1,1.22-3,2.17,2.17,0,0,1,2.86,1.33,2.39,2.39,0,0,1-1.22,3A2.17,2.17,0,0,1,124.66,15.16Z"/><path class="cls-1" d="M118.1,17.92a2.38,2.38,0,0,1,1.22-3,2.16,2.16,0,0,1,2.85,1.32A2.39,2.39,0,0,1,121,19.25,2.17,2.17,0,0,1,118.1,17.92Z"/><path class="cls-1" d="M111.54,20.68a2.38,2.38,0,0,1,1.22-3A2.15,2.15,0,0,1,115.61,19a2.37,2.37,0,0,1-1.21,3A2.17,2.17,0,0,1,111.54,20.68Z"/><path class="cls-1" d="M105,23.44a2.38,2.38,0,0,1,1.22-3,2.17,2.17,0,0,1,2.86,1.32,2.4,2.4,0,0,1-1.22,3.05A2.17,2.17,0,0,1,105,23.44Z"/><path class="cls-1" d="M98.42,26.2a2.38,2.38,0,0,1,1.22-3,2.17,2.17,0,0,1,2.86,1.33,2.39,2.39,0,0,1-1.22,3A2.17,2.17,0,0,1,98.42,26.2Z"/><path class="cls-1" d="M91.86,29a2.38,2.38,0,0,1,1.22-3,2.17,2.17,0,0,1,2.86,1.33,2.4,2.4,0,0,1-1.22,3A2.17,2.17,0,0,1,91.86,29Z"/><path class="cls-1" d="M121.78,7.5a2.39,2.39,0,0,1,1.22-3,2.18,2.18,0,0,1,2.86,1.33,2.38,2.38,0,0,1-1.22,3A2.17,2.17,0,0,1,121.78,7.5Z"/><path class="cls-1" d="M115.22,10.26a2.39,2.39,0,0,1,1.22-3,2.17,2.17,0,0,1,2.86,1.33,2.38,2.38,0,0,1-1.22,3A2.17,2.17,0,0,1,115.22,10.26Z"/><path class="cls-1" d="M108.66,13a2.38,2.38,0,0,1,1.22-3,2.17,2.17,0,0,1,2.86,1.32,2.39,2.39,0,0,1-1.22,3A2.17,2.17,0,0,1,108.66,13Z"/><path class="cls-1" d="M102.1,15.78a2.39,2.39,0,0,1,1.22-3,2.18,2.18,0,0,1,2.86,1.33,2.38,2.38,0,0,1-1.22,3A2.17,2.17,0,0,1,102.1,15.78Z"/><path class="cls-1" d="M95.54,18.54a2.38,2.38,0,0,1,1.22-3,2.17,2.17,0,0,1,2.86,1.32,2.39,2.39,0,0,1-1.22,3.05A2.18,2.18,0,0,1,95.54,18.54Z"/><path class="cls-1" d="M89,21.3a2.38,2.38,0,0,1,1.21-3.05,2.18,2.18,0,0,1,2.86,1.33,2.39,2.39,0,0,1-1.22,3.05A2.16,2.16,0,0,1,89,21.3Z"/><g class="cls-2"><path class="cls-1" d="M101.32,33.79a2.37,2.37,0,0,1,1.2-3,2.16,2.16,0,0,1,2.85,1.29,2.38,2.38,0,0,1-1.2,3A2.15,2.15,0,0,1,101.32,33.79Z"/><path class="cls-1" d="M94.8,36.58a2.37,2.37,0,0,1,1.2-3,2.15,2.15,0,0,1,2.85,1.29,2.37,2.37,0,0,1-1.2,3A2.17,2.17,0,0,1,94.8,36.58Z"/><path class="cls-1" d="M88.29,39.36a2.35,2.35,0,0,1,1.2-3,2.15,2.15,0,0,1,2.85,1.29,2.38,2.38,0,0,1-1.2,3A2.15,2.15,0,0,1,88.29,39.36Z"/><path class="cls-1" d="M81.78,42.15a2.37,2.37,0,0,1,1.2-3,2.15,2.15,0,0,1,2.84,1.3,2.35,2.35,0,0,1-1.19,3A2.15,2.15,0,0,1,81.78,42.15Z"/><path class="cls-1" d="M75.27,44.94a2.37,2.37,0,0,1,1.19-3,2.15,2.15,0,0,1,2.85,1.29,2.36,2.36,0,0,1-1.2,3A2.14,2.14,0,0,1,75.27,44.94Z"/><path class="cls-1" d="M68.75,47.73a2.38,2.38,0,0,1,1.2-3A2.15,2.15,0,0,1,72.8,46a2.38,2.38,0,0,1-1.2,3A2.15,2.15,0,0,1,68.75,47.73Z"/><path class="cls-1" d="M98.42,26.21a2.37,2.37,0,0,1,1.2-3,2.16,2.16,0,0,1,2.85,1.3,2.36,2.36,0,0,1-1.2,3A2.15,2.15,0,0,1,98.42,26.21Z"/><path class="cls-1" d="M91.91,29a2.36,2.36,0,0,1,1.19-3A2.15,2.15,0,0,1,96,27.27a2.35,2.35,0,0,1-1.19,3A2.15,2.15,0,0,1,91.91,29Z"/><path class="cls-1" d="M85.39,31.78a2.37,2.37,0,0,1,1.2-3,2.15,2.15,0,0,1,2.85,1.29,2.37,2.37,0,0,1-1.2,3A2.16,2.16,0,0,1,85.39,31.78Z"/><path class="cls-1" d="M78.88,34.57a2.36,2.36,0,0,1,1.2-3,2.15,2.15,0,0,1,2.85,1.29,2.38,2.38,0,0,1-1.2,3A2.15,2.15,0,0,1,78.88,34.57Z"/><path class="cls-1" d="M72.37,37.36a2.37,2.37,0,0,1,1.19-3,2.16,2.16,0,0,1,2.85,1.3,2.37,2.37,0,0,1-1.19,3A2.15,2.15,0,0,1,72.37,37.36Z"/><path class="cls-1" d="M65.85,40.15a2.39,2.39,0,0,1,1.2-3,2.16,2.16,0,0,1,2.85,1.3,2.35,2.35,0,0,1-1.2,3A2.16,2.16,0,0,1,65.85,40.15Z"/><path class="cls-1" d="M95.52,18.63a2.36,2.36,0,0,1,1.2-3,2.15,2.15,0,0,1,2.85,1.29,2.38,2.38,0,0,1-1.2,3A2.15,2.15,0,0,1,95.52,18.63Z"/><path class="cls-1" d="M89,21.42a2.35,2.35,0,0,1,1.2-3,2.15,2.15,0,0,1,2.85,1.29,2.38,2.38,0,0,1-1.2,3A2.17,2.17,0,0,1,89,21.42Z"/><path class="cls-1" d="M82.5,24.21a2.37,2.37,0,0,1,1.19-3,2.15,2.15,0,0,1,2.85,1.3,2.36,2.36,0,0,1-1.19,3A2.15,2.15,0,0,1,82.5,24.21Z"/><path class="cls-1" d="M76,27a2.38,2.38,0,0,1,1.2-3A2.15,2.15,0,0,1,80,25.26a2.37,2.37,0,0,1-1.2,3A2.16,2.16,0,0,1,76,27Z"/><path class="cls-1" d="M69.47,29.79a2.37,2.37,0,0,1,1.2-3,2.15,2.15,0,0,1,2.85,1.29,2.38,2.38,0,0,1-1.2,3A2.15,2.15,0,0,1,69.47,29.79Z"/><path class="cls-1" d="M63,32.57a2.36,2.36,0,0,1,1.2-3A2.14,2.14,0,0,1,67,30.84a2.37,2.37,0,0,1-1.19,3A2.15,2.15,0,0,1,63,32.57Z"/><path class="cls-1" d="M92.63,11.06a2.36,2.36,0,0,1,1.19-3,2.15,2.15,0,0,1,2.85,1.29,2.37,2.37,0,0,1-1.19,3A2.15,2.15,0,0,1,92.63,11.06Z"/><path class="cls-1" d="M86.11,13.84a2.36,2.36,0,0,1,1.2-3,2.15,2.15,0,0,1,2.85,1.29,2.37,2.37,0,0,1-1.2,3A2.15,2.15,0,0,1,86.11,13.84Z"/><path class="cls-1" d="M79.6,16.63a2.35,2.35,0,0,1,1.2-3,2.14,2.14,0,0,1,2.84,1.29,2.37,2.37,0,0,1-1.19,3A2.15,2.15,0,0,1,79.6,16.63Z"/><path class="cls-1" d="M73.09,19.42a2.37,2.37,0,0,1,1.19-3,2.15,2.15,0,0,1,2.85,1.3,2.37,2.37,0,0,1-1.2,3A2.15,2.15,0,0,1,73.09,19.42Z"/><path class="cls-1" d="M66.57,22.21a2.38,2.38,0,0,1,1.2-3,2.15,2.15,0,0,1,2.85,1.3,2.35,2.35,0,0,1-1.2,3A2.16,2.16,0,0,1,66.57,22.21Z"/><path class="cls-1" d="M60.06,25a2.37,2.37,0,0,1,1.2-3,2.16,2.16,0,0,1,2.85,1.29,2.38,2.38,0,0,1-1.2,3A2.15,2.15,0,0,1,60.06,25Z"/><path class="cls-1" d="M89.73,3.48a2.37,2.37,0,0,1,1.19-3,2.16,2.16,0,0,1,2.85,1.3,2.35,2.35,0,0,1-1.19,3A2.15,2.15,0,0,1,89.73,3.48Z"/><path class="cls-1" d="M83.22,6.27a2.37,2.37,0,0,1,1.19-3,2.15,2.15,0,0,1,2.85,1.29,2.37,2.37,0,0,1-1.2,3A2.14,2.14,0,0,1,83.22,6.27Z"/><path class="cls-1" d="M76.7,9.06a2.38,2.38,0,0,1,1.2-3,2.15,2.15,0,0,1,2.85,1.3,2.37,2.37,0,0,1-1.2,3A2.16,2.16,0,0,1,76.7,9.06Z"/><path class="cls-1" d="M70.19,11.84a2.36,2.36,0,0,1,1.2-3,2.16,2.16,0,0,1,2.85,1.29,2.38,2.38,0,0,1-1.2,3A2.15,2.15,0,0,1,70.19,11.84Z"/><path class="cls-1" d="M63.68,14.63a2.36,2.36,0,0,1,1.19-3,2.15,2.15,0,0,1,2.85,1.29,2.37,2.37,0,0,1-1.19,3A2.15,2.15,0,0,1,63.68,14.63Z"/><path class="cls-1" d="M57.17,17.42a2.37,2.37,0,0,1,1.19-3,2.17,2.17,0,0,1,2.85,1.3,2.35,2.35,0,0,1-1.2,3A2.14,2.14,0,0,1,57.17,17.42Z"/></g><polygon class="cls-1" points="137.05 23.38 148.23 55.69 97.03 55.96 139.89 44.27 137.05 23.38"/><path class="cls-1" d="M20.71,12.23v2.68H11.83v1.7h8v13c0,1.79-.69,2.68-2.06,2.68H14.7l-.37-2.86c1.19.14,1.88.18,2.07.18.36,0,.54-.23.54-.73V27l-1.07,1.84a16.94,16.94,0,0,1-1.26-3.92,7.91,7.91,0,0,1-1.7,4l-1.08-1.72v5.13H8.88V27.92L7.7,29.86a25.51,25.51,0,0,1-1-4.56,9,9,0,0,1-1.72,4.47L3.85,28v4.52H1V16.61H8.88v-1.7H.18V12.23ZM5.57,22.71H4.49V20.55h3a13.17,13.17,0,0,0,1.43,5.51V19.29h-5v7.36A5.8,5.8,0,0,0,5.57,22.71Zm7.87,0h-.9V20.55h2.87a10.64,10.64,0,0,0,1.53,5V19.29H11.83V26.2A5.05,5.05,0,0,0,13.44,22.71Z"/><path class="cls-1" d="M36.19,12.32h7.33v2H25.62v.82h8.16v.34h3.39l.09-.8H40l-.09.8h3.5V17.6H39.6l-.09.71h3.67v5.2H33.32v-5.2h3.51l.09-.71h-3.6v-.28h-.71V30.51a16,16,0,0,0,.71-3.42l1.88.18a24.19,24.19,0,0,1-.8,4.47l-1.79-.36v1.17H30.27V24.29c-1.35.21-2.82.39-4.38.58l-.18-2.07c.27,0,.53,0,.8,0V17.32h-.89v3.14a42.34,42.34,0,0,1-1.52,12L22,30.67A32.39,32.39,0,0,0,23.3,20.46V12.32h9.52c-.1-.32-.21-.62-.3-.89l3.39-.28C36,11.57,36.09,12,36.19,12.32ZM29.93,25.21v1.7H28.76v.73H30v1.61H28.76V30c.43-.05.85-.1,1.26-.17V31.4c-1.38.25-3,.46-4.75.62L25,30.32c.64,0,1.28-.07,1.88-.11v-1H25.8V27.64h1.08v-.73H25.8v-1.7Zm.34-7.15v-.74H28.76v.74Zm0,2.22v-.8H28.76v.8Zm0,2.13v-.69H28.76v.85C29.26,22.53,29.77,22.48,30.27,22.41Zm13.09,1.81v2.07H39a19.41,19.41,0,0,1,1.3,1.51l-1.69,1.35a12.35,12.35,0,0,0-1.08-1.51v2c0,.42.16.62.43.62h.46a1,1,0,0,0,.55-.14c.12,0,.21-.45.26-1.21l1.79.34c-.17-.53-.35-1-.53-1.58l1.88-.55A17.94,17.94,0,0,1,43.71,31l-2.14.62a15.67,15.67,0,0,0-.41-2,4.57,4.57,0,0,1-.66,2.18,2.14,2.14,0,0,1-1.54.45H36.9c-1,0-1.42-.68-1.42-2.06v-3h1.74c-.14-.16-.28-.32-.42-.46l.83-.52h-4.4V24.22ZM36.19,20.1h-.71v1.62h.71Zm2.43,0h-.74v1.62h.74Zm2.41,0h-.72v1.62H41Z"/><path class="cls-1" d="M52.49,13.84a50.58,50.58,0,0,1-1.44,5.45,8.54,8.54,0,0,1,1.44,4.22,4.07,4.07,0,0,1-.89,3c-.46.55-1.63.85-3.51.87v5.19H45.5V12.14h7ZM48.73,25c.74,0,1.1-.53,1.15-1.52a8.3,8.3,0,0,0-1.51-4.22,22.7,22.7,0,0,0,1.51-4.65H48.09V25A3.85,3.85,0,0,0,48.73,25Zm17-3.21v2.49h-3.6v4.75c0,.41.09.62.27.62h.71c.23,0,.37-.41.39-1.24,0,0,0-.62.07-1.88l2.59.8c-.18,2.39-.5,3.81-1,4.27a2,2,0,0,1-1.52.48H61.62a2.4,2.4,0,0,1-1.72-.5,2.11,2.11,0,0,1-.53-1.56V24.31H57.88a11.42,11.42,0,0,1-1.14,4.87,9.45,9.45,0,0,1-3.81,3.37l-1.88-2.5a6.79,6.79,0,0,0,3.16-2.32,7.27,7.27,0,0,0,.9-3.42H52.75V21.82Zm-5.07-8.69h4.88v5.36h-2v1.45H54.72V18.49h-2V13.13h4.81A14,14,0,0,0,57,11.5l3.3-.25C60.41,11.89,60.54,12.51,60.68,13.13Zm2.11,4.28V15.53H55.52v1.88Z"/><path class="cls-1" d="M7.18,36.45c-.21.55-.44,1.1-.67,1.61h3.9a12.11,12.11,0,0,0-.73-1.61L13,36.18c.23.62.46,1.24.67,1.88h6.58v2.15h-7v1h6.07v2H13.28v1h6.07v2H13.28v1h7.43v2.15h-18V43.49A19,19,0,0,1,1,45.14L0,42a14.52,14.52,0,0,0,4.49-6.17ZM19.63,56.79h-3V56H5.48v.8h-3V50.26H19.63Zm-3-3V52.39H5.48v1.44ZM10.41,40.21H5.57v1h4.84Zm0,3H5.57v1h4.84ZM5.57,47.12h4.84v-1H5.57Z"/><path class="cls-1" d="M43.09,49.18v2.31h-5.6A27.22,27.22,0,0,1,43.27,54l-.89,2.68a26,26,0,0,0-6.63-3.14l1-2.07h-2v3.14a2,2,0,0,1-2.24,2.25H29.47L29,54.17c1.15.08,1.79.1,2,.1.42,0,.62-.16.62-.53V51.49H28.37l1.56,1.7a19.79,19.79,0,0,1-6.19,3.14l-1.33-2.68a16.88,16.88,0,0,0,5.48-2.16H22.84V49.18ZM43,36.54V39H36.74V40H42.1v5.48H23.83V40H29V39H22.84V36.54Zm-1.79,9.77v2H24.54v-2ZM29,41.91H26.69v1.72H29Zm5-3H31.72V40H34Zm0,3H31.72v1.72H34Zm5.21,0h-2.5v1.72h2.5Z"/><path class="cls-1" d="M49.7,52.82l1.83-5.29h1.8l1.83,5.29H53.73l-.27-1H51.41l-.27,1Zm2-2h1.44l-.54-1.74c0-.05,0-.14-.07-.26s-.07-.27-.11-.45l-.09.37a3.37,3.37,0,0,1-.1.34Z"/><path class="cls-1" d="M56,52.82V47.53h1.51a6.6,6.6,0,0,1,1.23.08,1.63,1.63,0,0,1,.61.28,1.37,1.37,0,0,1,.43.55,1.64,1.64,0,0,1,.16.74,1.59,1.59,0,0,1-.3,1,1.49,1.49,0,0,1-.88.51l1.44,2.13H58.53l-1.22-2.07v2.07ZM57.31,50h.27a1.12,1.12,0,0,0,.68-.16.56.56,0,0,0,.22-.5.7.7,0,0,0-.2-.56,1.06,1.06,0,0,0-.67-.17h-.3Z"/><path class="cls-1" d="M61.76,52.82v-4H60.58V47.53h3.81v1.25H63.2v4Z"/><path class="cls-1" d="M65.62,51.11a2.58,2.58,0,0,0,.64.55,1.23,1.23,0,0,0,.63.18.74.74,0,0,0,.47-.16.48.48,0,0,0,.18-.39.51.51,0,0,0-.16-.41,2.08,2.08,0,0,0-.72-.29,2.3,2.3,0,0,1-1.1-.55,1.25,1.25,0,0,1-.33-.92,1.64,1.64,0,0,1,.51-1.24,1.85,1.85,0,0,1,1.32-.48,2.82,2.82,0,0,1,.83.12,2.67,2.67,0,0,1,.74.36l-.45,1a1.84,1.84,0,0,0-.5-.32,1.43,1.43,0,0,0-.52-.11.64.64,0,0,0-.42.13.38.38,0,0,0-.16.32.4.4,0,0,0,.14.31,1.54,1.54,0,0,0,.55.23l.07,0A2.74,2.74,0,0,1,68.5,50a1.4,1.4,0,0,1,.28.47,1.66,1.66,0,0,1,.1.61,1.74,1.74,0,0,1-.55,1.35,2.1,2.1,0,0,1-1.48.51,2.51,2.51,0,0,1-1-.19,2.54,2.54,0,0,1-.87-.59Z"/><path class="cls-1" d="M73.36,52.82v-4H72.17V47.53H76v1.25H74.8v4Z"/><path class="cls-1" d="M77,52.82V47.53h1.46v5.29Z"/><path class="cls-1" d="M83.77,47.74v1.57a2.08,2.08,0,0,0-.59-.48,1.39,1.39,0,0,0-.63-.15,1.31,1.31,0,0,0-1,.42,1.56,1.56,0,0,0-.38,1.11,1.48,1.48,0,0,0,.39,1,1.3,1.3,0,0,0,1,.42,1.39,1.39,0,0,0,.63-.15,2.32,2.32,0,0,0,.59-.49v1.58a3.83,3.83,0,0,1-.69.25,2.58,2.58,0,0,1-.68.08,2.87,2.87,0,0,1-.8-.1,2.46,2.46,0,0,1-.68-.31,2.7,2.7,0,0,1-.9-1,3.16,3.16,0,0,1-.11-2.47,2.86,2.86,0,0,1,.59-.9,2.65,2.65,0,0,1,.85-.57,2.73,2.73,0,0,1,1.05-.2,2.59,2.59,0,0,1,.68.09A3.19,3.19,0,0,1,83.77,47.74Z"/><path class="cls-1" d="M84.88,52.82V47.53H86.3v2.4L88,47.53h1.69l-2,2.58,2.12,2.71H88L86.3,50.45v2.37Z"/><path class="cls-1" d="M90.53,52.82V47.53h3.25v1.16H91.94v.92h1.73v1.13H91.94v.9h1.84v1.18Z"/><path class="cls-1" d="M95.79,52.82v-4H94.6V47.53h3.81v1.25H97.23v4Z"/><line class="cls-3" x1="167.99" y1="22.15" x2="180.86" y2="35.02"/><line class="cls-3" x1="180.86" y1="22.15" x2="167.99" y2="35.02"/></g></svg>