<svg xmlns="http://www.w3.org/2000/svg" viewBox="0 0 58.7 58.7">
  <path d="M13.46,32.5c-1.07,2-4.36,1.86-5.36,3.88-.7,1.4.09,3.06.88,4.42l2.79,4.88,2.82-.85c1.22,2,1.43,4.44,2.13,6.67S19,56,21.33,56.28c2.59.27,4.73-2.16,5.48-4.64a9,9,0,0,1,1.16-3,7.41,7.41,0,0,1,3.33-2,24.05,24.05,0,0,0,10.36-8.07c.39,1.37,2.62.34,2.93-1s0-3.09,1.09-4a3.79,3.79,0,0,1,1.67-.66l5.79-1.26C52,30,52.2,27.24,51.59,25.18c-7.77-1.13-15.23-1.9-19.4-10.06-2.19-4.27-5.91-4.37-9.72-1.06a61.29,61.29,0,0,0-5.15,5.65l3.06,3.43c-1.47-.32-2.66-1-3.53-.7L8,25.44c1,.73,2.1,1.29,3.12,1.95C12.84,28.52,14.44,30.69,13.46,32.5Z" fill="#fff"/>
</svg>
