<svg xmlns="http://www.w3.org/2000/svg" viewBox="0 0 58.7 58.7">
  <path d="M54.14,13.7l-4,.85A2.68,2.68,0,0,0,49,15c-.74.62-.53,1.79-.74,2.73s-1.73,1.65-2,.72A16.5,16.5,0,0,1,39.18,24a5.23,5.23,0,0,0-2.28,1.34,6.24,6.24,0,0,0-.79,2.06c-.62,2-2.59,4-4.81,2.84a3.12,3.12,0,0,1-1-.77c-1.64-1.93-1.33-4.66-2.58-6.72l-1.93.58-2.3-4a2.63,2.63,0,0,1-.4-1.55c.07-1.19.93-1.64,1.85-2a2.77,2.77,0,0,0,1.43-3.66,2.85,2.85,0,0,0-1-1.21c-.69-.45-1.48-.83-2.13-1.33-3.2,1.12-6.38,2.28-9.54,3.51a5.69,5.69,0,0,0-2.62,2.62c-2.1,4.18-3.84,8.54-6,12.67a8.17,8.17,0,0,1-.8,1.21,14.57,14.57,0,0,0,7.52,4.89c.57,1.51-.46,4,1.1,4.37a2.87,2.87,0,0,0,1.47-.25,5.4,5.4,0,0,1,6.58,3.89,4.81,4.81,0,0,1,.13.66c1.54-.72,3.33,0,4.86.79L36.6,49.15c0-2,2.85-2.27,4.76-1.78A48.55,48.55,0,0,1,46.72,49c.56-1.94.89-4,2-5.62a10.49,10.49,0,0,0,1.19-10c-1.52-4.46-3-9.23,1.49-13.22,1.83-1.63,3.46-3.49,5.26-5.33A2.84,2.84,0,0,1,54.14,13.7Z" fill="#fff"/>
</svg>
