<svg xmlns="http://www.w3.org/2000/svg" viewBox="0 0 1367 780.81">
  <g>
    <g>
      <polygon points="268.16 704.63 267.41 752.56 275.16 742.44 275.91 694.51 268.16 704.63" fill="#5e2a15" stroke="#16221d" stroke-linecap="round" stroke-linejoin="round" stroke-width="1.5"/>
      <path d="M280.79,769.87c-.54-.09-1.07-.19-1.58-.31l-.36-.09c-.5-.12-1-.26-1.47-.42l-.17-.06c-.43-.15-.85-.31-1.27-.48l-.3-.13c-.44-.2-.87-.41-1.28-.64-.19-.1-.37-.21-.55-.32l-.29-.17c-.28-.17-.55-.36-.82-.55s-.81-.61-1.21-.92l-.73-.58-.78-.68-.67-.61-.85-.82c-.13-.13-.26-.26-.38-.4q-.61-.63-1.17-1.29L240,728.62l-1.87-2.29-.27-.32-.33-.39c-.66-.79-1.31-1.56-1.94-2.29l-.15-.17c-.63-.72-1.25-1.42-1.86-2.09l-.17-.19c-.6-.66-1.19-1.29-1.77-1.9l-.29-.31c-.56-.58-1.11-1.14-1.65-1.67l-.28-.28-.45-.44-1.2-1.13h0c-.51-.48-1-.91-1.5-1.33l-.37-.31c-.49-.41-1-.8-1.43-1.15h0c-.46-.35-.92-.67-1.38-1l-.37-.25c-.4-.27-.79-.53-1.19-.78l-.21-.13c-.39-.24-.77-.46-1.15-.67l-.14-.08c-.61-.33-1.22-.64-1.82-.92l-.29-.12q-.76-.35-1.53-.63l-.57-.2c-.44-.15-.87-.29-1.31-.41L214,707c-.6-.14-1.2-.28-1.79-.37q-7-1.11-11.41,3c-.22.21-.44.43-.64.66s-.41.47-.6.72l-7.75,10.12a11.53,11.53,0,0,1,1.24-1.37q4.41-4.14,11.41-3c.59.1,1.19.23,1.79.38l.54.15c.43.12.87.25,1.3.4l.58.2c.5.19,1,.4,1.53.63l.29.12c.6.28,1.21.59,1.81.93.43.23.86.48,1.29.74l.21.13,1.2.78.37.25c.46.32.93.66,1.39,1a16.86,16.86,0,0,1,1.44,1.15l.37.32c.49.41,1,.85,1.5,1.32h0q.79.74,1.65,1.56l.28.29c.54.53,1.09,1.08,1.65,1.67l.29.3c.58.61,1.17,1.24,1.77,1.9l.17.2c.61.67,1.23,1.36,1.86,2.09l.14.17c.64.73,1.29,1.5,2,2.29l.32.38c.7.84,1.41,1.71,2.14,2.61l26.94,32.78c.37.44.76.87,1.16,1.3l.39.39c.18.19.36.38.55.56l.29.27.68.61c.25.22.51.45.78.67l.73.58.43.36.78.57c.26.19.54.37.82.55l.28.16.48.29h.07q.63.33,1.29.63l.3.13c.41.18.84.34,1.27.49l.16.06c.48.15,1,.29,1.48.42l.36.08c.51.12,1,.23,1.58.31a15.71,15.71,0,0,0,7.58-.41A11.78,11.78,0,0,0,286,776l7.76-10.13a11.8,11.8,0,0,1-5.36,3.64A15.82,15.82,0,0,1,280.79,769.87Z" fill="#5e2a15" stroke="#16221d" stroke-linecap="round" stroke-linejoin="round" stroke-width="1.5"/>
      <path d="M193.24,751.87a4.22,4.22,0,0,1-1-.2l-.32-.09c-.22-.06-.45-.12-.67-.2l-.36-.13-.6-.24-.37-.17-.57-.28-.38-.21c-.14-.08-.28-.16-.41-.25l-.42-.27-.4-.28-.36-.27c-.33-.26-.66-.53-1-.82l-.54-.53-.44-.44-.33-.36c-.15-.16-.29-.32-.43-.49l-.3-.36c-.2-.24-.39-.48-.57-.73-.07-.09-.14-.17-.2-.26-.25-.34-.49-.69-.73-1l-.1-.17c-.24-.37-.47-.76-.7-1.15-.07-.12-.14-.24-.2-.36-.26-.45-.5-.91-.74-1.4-.09-.18-.18-.37-.26-.55l-.36-.79-.21-.5c-.11-.26-.22-.52-.32-.78s-.14-.37-.2-.55-.2-.53-.29-.8l-.19-.57-.27-.84-.15-.53c-.19-.64-.37-1.3-.53-2l-.09-.41c-.17-.71-.33-1.43-.47-2.17a64,64,0,0,1-1-12.81,49.09,49.09,0,0,1,2.82-16.68c.27-.71.56-1.4.87-2.08l.24-.53c.26-.55.53-1.09.81-1.61l.18-.35c.33-.61.69-1.2,1-1.77.09-.15.18-.28.28-.42.36-.55.73-1.09,1.12-1.6L176.35,703c-.23.3-.46.6-.68.92l-.45.68-.22.4a13.52,13.52,0,0,0-1,1.78c-.07.11-.12.23-.19.34-.28.53-.54,1.06-.8,1.62-.08.17-.17.35-.25.53l-.18.4c-.24.54-.47,1.11-.68,1.68A49.2,49.2,0,0,0,169,728a63.27,63.27,0,0,0,1,12.81c.14.75.3,1.47.46,2.18a2,2,0,0,0,.1.4c.16.68.34,1.34.52,2v.14l.12.38c.09.28.17.57.27.84s.12.39.19.58l.28.79.21.55.31.78c.07.17.14.34.22.51s.23.53.36.79.1.23.16.34a2,2,0,0,0,.1.21,15.18,15.18,0,0,0,.73,1.4l.21.35c.22.4.46.78.7,1.16l.07.12h0a10.35,10.35,0,0,0,.73,1l.19.26c.19.25.38.5.57.73a.64.64,0,0,1,.1.13l.21.24.42.48.34.36.44.45.17.18.37.34c.32.29.65.57,1,.83l.12.1.24.17.4.28.41.27.41.24.17.11.22.1.56.29.38.17.59.23.37.14.67.19a1.68,1.68,0,0,0,.32.09c.33.08.66.15,1,.21a10.74,10.74,0,0,0,6.45-.69,11,11,0,0,0,3.1-2.17c.28-.3.55-.61.8-.93L203.52,748a10.32,10.32,0,0,1-3.91,3.11A10.73,10.73,0,0,1,193.24,751.87Z" fill="#5e2a15" stroke="#16221d" stroke-linecap="round" stroke-linejoin="round" stroke-width="1.5"/>
    </g>
    <path d="M176.73,717.88a49.09,49.09,0,0,1,2.82-16.68,30.31,30.31,0,0,1,7.27-11.39,24.29,24.29,0,0,1,10.89-6,34.05,34.05,0,0,1,13.82-.41,46.36,46.36,0,0,1,19.75,8.42q9.56,6.79,20.31,20.69l23.57,29.92.75-47.93a15.34,15.34,0,0,1,4-1,18.11,18.11,0,0,1,5.3.12c3.27.52,5.69,1.62,7.23,3.3a8.66,8.66,0,0,1,2.28,6.28l-1,62.59a11.8,11.8,0,0,1-5.36,3.64,15.83,15.83,0,0,1-7.58.41,18.69,18.69,0,0,1-8.09-3.17,31.34,31.34,0,0,1-5.79-5.3L240,728.62q-9.28-11.52-15.55-16.27a27.77,27.77,0,0,0-12.31-5.72q-7-1.11-11.41,3t-4.56,13.45a36.22,36.22,0,0,0,2.33,13.82,55.89,55.89,0,0,0,5.42,10.72,10.37,10.37,0,0,1-4.22,3.54,10.7,10.7,0,0,1-6.44.68,13,13,0,0,1-6.86-3.41,24.28,24.28,0,0,1-5.28-7.3,41,41,0,0,1-3.34-10.47A63.68,63.68,0,0,1,176.73,717.88Z" fill="#7c3b25" stroke="#16221d" stroke-miterlimit="10" stroke-width="1.5"/>
  </g>
  <g>
    <g>
      <path d="M33.67,661.6c.07.29.14.57.22.86.15.57.32,1.15.49,1.72.08.25.15.5.23.75.26.81.53,1.61.83,2.4l-2.91-19c-.3-.8-.57-1.6-.83-2.4-.08-.25-.15-.51-.23-.76-.17-.57-.34-1.14-.49-1.72-.08-.28-.15-.57-.22-.85-.15-.59-.28-1.18-.41-1.77-.06-.26-.11-.51-.17-.76-.17-.85-.32-1.7-.45-2.56l2.91,19q.16,1.15.39,2.28l.06.29a3.38,3.38,0,0,0,.17.75C33.38,660.43,33.52,661,33.67,661.6Z" fill="#7c3b25" stroke="#16221d" stroke-miterlimit="10" stroke-width="1.5"/>
      <path d="M96.25,621.84c-.47-.19-.94-.37-1.42-.53-.23-.09-.45-.19-.68-.26l-.87-.26-.72-.21c-.82-.22-1.64-.42-2.47-.59H90l-.46-.07a7.34,7.34,0,0,1-.92-.15l-.58-.06q-.42-.06-.84-.09H86.9a17.24,17.24,0,0,0-2.49,0H83.08l-.63.07-.75.1h-.17l-.33.06-1.08.21-.53.12c-.37.09-.74.19-1.1.3l-.32.09h-.09c-.7.22-1.39.47-2.09.75l-.35.15a13.33,13.33,0,0,0-2,1l-.35.19a22.41,22.41,0,0,0-2,1.19L71,624c-.71.46-1.42,1-2.12,1.48q-9.45,7.15-9.23,18.24a27,27,0,0,0,.33,3.8l2.91,19a27,27,0,0,1-.33-3.8q-.21-11.09,9.23-18.23c.7-.54,1.41-1,2.12-1.49l.26-.17c.67-.43,1.36-.82,2-1.19l.35-.18c.67-.35,1.35-.67,2-1l.35-.14c.69-.28,1.39-.54,2.08-.75l.42-.12c.36-.11.73-.21,1.1-.3L83,639l1.08-.21.5-.09.75-.09.63-.07h1.33a20.69,20.69,0,0,1,2.49,0h.29l.84.09.58.07.93.15L93,639c.83.16,1.65.36,2.47.59l.72.21c.52.15,1,.33,1.55.51a13.93,13.93,0,0,1,1.42.53l1.3.55c.47.21.93.43,1.4.66s1.16.58,1.74.9l.25.14c.77.44,1.54.92,2.3,1.42l.38.25c.74.5,1.48,1,2.21,1.59l.39.3c.73.58,1.47,1.19,2.2,1.82l.29.26c.76.68,1.52,1.39,2.27,2.13s1.3,1.33,1.9,2l.49.54c.5.56,1,1.13,1.44,1.69.08.11.18.21.26.32.52.66,1,1.31,1.46,2l.34.5c.36.53.69,1.06,1,1.59l.27.45a18,18,0,0,1,1,1.95l.18.4c.22.48.42,1,.6,1.42s.29.77.42,1.16.24.71.34,1.07.21.77.29,1.15.24,1,.31,1.49h0l-2.91-19.05a4.91,4.91,0,0,0-.14-.84c0-.28-.12-.44-.17-.65-.08-.39-.18-.77-.29-1.16s-.21-.71-.33-1.07-.27-.77-.43-1.16c-.06-.15-.1-.31-.17-.47-.13-.31-.28-.63-.43-.94l-.18-.41c-.32-.64-.66-1.29-1-1.94-.08-.15-.18-.3-.27-.45-.32-.53-.66-1.07-1-1.6-.11-.16-.22-.33-.34-.49-.46-.66-.94-1.31-1.46-2-.08-.11-.18-.22-.26-.32-.46-.57-.94-1.13-1.44-1.7l-.48-.53c-.61-.66-1.24-1.33-1.91-2s-1.51-1.45-2.27-2.13l-.29-.26c-.73-.64-1.46-1.24-2.2-1.82l-.39-.3c-.73-.56-1.47-1.09-2.21-1.59l-.38-.26c-.76-.5-1.52-1-2.29-1.41l-.26-.14c-.35-.2-.7-.4-1.06-.58L99,623c-.46-.23-.93-.45-1.4-.65S96.69,622,96.25,621.84Z" fill="#5e2a15" stroke="#16221d" stroke-linecap="round" stroke-linejoin="round" stroke-width="1.5"/>
      <path d="M2.71,710.4q-.36-8.62,8.16-15.07a17.49,17.49,0,0,1,2-1.39c.24-.14.48-.26.71-.4.44-.27.88-.54,1.33-.77.26-.14.54-.25.81-.38s.84-.41,1.27-.59l.9-.33c.41-.15.81-.31,1.23-.43.64-.2,1.29-.36,1.95-.51l.58-.11c.53-.1,1.06-.19,1.59-.25h.39c.62-.07,1.26-.11,1.89-.13h2.56a15.16,15.16,0,0,1,2.3.24l.52.08c.56.09,1.13.18,1.7.3l1.65.37,1,.23c.65.18,1.32.38,2,.59l.72.22.65.23c.63.21,1.26.43,1.89.67l1,.4c.55.22,1.09.44,1.64.68.36.15.72.32,1.09.49l1.59.74,1.15.57c.71.36,1.42.72,2.15,1.12h0a27.74,27.74,0,0,1,1.8,2.49c.19.27.35.54.53.81.37.56.73,1.12,1.07,1.68.19.31.37.62.55.94.29.51.58,1,.84,1.53l.49,1c.25.51.48,1,.7,1.52s.33.73.47,1.09c.08.19.15.38.22.56.22.58.43,1.16.61,1.73l.09.26c.2.66.37,1.31.53,2a3.21,3.21,0,0,0,.11.52c.14.62.27,1.24.36,1.86l-2.9-19c-.06-.38-.13-.76-.2-1.14s-.11-.48-.16-.72l-.12-.51c-.15-.65-.33-1.3-.53-2l-.09-.26c-.18-.58-.39-1.16-.61-1.73-.07-.19-.14-.37-.22-.56a5.38,5.38,0,0,0-.2-.51c-.08-.2-.18-.4-.27-.59-.22-.5-.45-1-.7-1.52-.16-.32-.32-.64-.49-1s-.55-1-.84-1.54c-.18-.31-.36-.63-.55-.94-.34-.56-.7-1.12-1.07-1.68-.17-.26-.34-.53-.53-.8-.56-.83-1.16-1.66-1.8-2.5L45,677.31c-.31-.17-.61-.31-.92-.46l-1.15-.58-1.59-.74L40.17,675c-.55-.24-1.09-.46-1.63-.68-.33-.13-.65-.27-1-.39-.63-.24-1.25-.46-1.87-.67L35,673h0l-.64-.19c-.67-.21-1.34-.42-2-.59l-1-.24c-.55-.13-1.1-.26-1.64-.37l-.28-.06c-.48-.09-1-.16-1.43-.23l-.52-.09c-.7-.09-1.4-.17-2.08-.22h-.22c-.85,0-1.71,0-2.56,0h-.2a15.82,15.82,0,0,0-1.69.13h-.39l-.81.1-.78.15-.58.12c-.65.14-1.3.3-1.94.49h0c-.41.12-.8.28-1.2.43l-.93.33c-.41.17-.81.38-1.21.57s-.58.25-.87.4-.86.5-1.29.75c-.25.15-.5.27-.75.43-.66.43-1.33.89-2,1.38Q-.56,682.73-.2,691.36a17.31,17.31,0,0,0,.2,1.89l2.9,19A16.33,16.33,0,0,1,2.71,710.4Z" fill="#5e2a15" stroke="#16221d" stroke-linecap="round" stroke-linejoin="round" stroke-width="1.5"/>
      <path d="M152,675a47.33,47.33,0,0,1-14.25,16.48c-1,.77-2,1.48-3,2.17l-.65.43c-1,.65-2,1.27-3,1.85l-.51.28q-1.4.78-2.79,1.47l-.47.24c-1,.48-2,.92-3,1.33l-.67.26c-1,.4-2.08.77-3.12,1.09l-.41.11c-1,.28-2,.54-2.93.76-.38.09-.77.15-1.15.23-.78.15-1.56.3-2.34.41l-.73.1c-1.07.13-2.14.24-3.22.29H104a14.91,14.91,0,0,1-2.11-.1l-1.62-.12-2-.2-1.61-.22c-.65-.09-1.3-.19-1.94-.31l-1.53-.28c-.79-.16-1.56-.34-2.34-.52-.44-.11-.89-.21-1.33-.33-.88-.23-1.74-.49-2.61-.76l-1-.3c-1.14-.38-2.28-.78-3.41-1.23l1.85,12.09A34.84,34.84,0,0,1,82.84,720q-3,10.32-14.06,18.68c-.7.53-1.41,1-2.12,1.53l-.7.46c-.49.32-1,.65-1.47,1l-.83.5c-.46.28-.92.55-1.39.81l-.87.48c-.47.25-.94.49-1.42.72-.28.14-.57.29-.86.42-.51.25-1,.48-1.55.7l-.75.33c-.77.32-1.55.62-2.33.9h0c-.77.27-1.55.52-2.34.76s-1.85.54-2.79.76-1.6.37-2.4.53l-.77.13c-.52.1-1,.18-1.54.26s-1.24.16-1.86.23l-1,.12c-.77.07-1.55.12-2.32.15H35.41a14.49,14.49,0,0,1-2.08-.1c-.69-.1-1.14-.1-1.7-.15a2.71,2.71,0,0,1-.85-.09q-1.29-.15-2.58-.36c-.62-.1-1.24-.23-1.86-.35-1.17-.23-2.34-.49-3.51-.79h-.06c-1.15-.29-2.3-.64-3.45-1l-1.11-.36-1.45-.51-1.28-.47L14,744.63c-.42-.18-.85-.35-1.27-.54l-1.45-.65L10,742.85l-1.45-.72c-.59-.3-1.17-.59-1.75-.9A88,88,0,0,1-13.39,726c-.94-.93-1.83-1.86-2.71-2.79l-.73-.78c-.68-.73-1.34-1.47-2-2.2l-.58-.65q-1.18-1.38-2.28-2.76l-.45-.58c-.58-.75-1.14-1.49-1.68-2.23l-.57-.8c-.59-.84-1.17-1.68-1.71-2.51,0-.09-.11-.17-.17-.26-.58-.91-1.13-1.83-1.66-2.74l-.42-.76c-.4-.71-.78-1.43-1.14-2.14-.12-.23-.24-.47-.35-.7-.45-.91-.86-1.81-1.24-2.72-.14-.33-.26-.65-.39-1s-.33-.82-.48-1.23-.24-.67-.35-1-.28-.81-.41-1.21-.2-.69-.29-1-.24-.8-.34-1.19-.16-.69-.24-1-.19-.79-.27-1.18c-.13-.65-.24-1.29-.34-1.93l2.91,19c.08.56.18,1.12.29,1.68a.42.42,0,0,0,0,.24c.08.4.18.79.27,1.19s.15.69.24,1,.22.8.33,1.2.19.68.3,1l.41,1.22c.14.41.22.67.35,1s.31.82.48,1.23.21.58.34.86a.61.61,0,0,0,0,.12c.38.9.79,1.81,1.24,2.72l.35.7c.36.71.74,1.42,1.14,2.14l.42.75c.53.92,1.07,1.83,1.66,2.75l.17.25c.54.84,1.12,1.68,1.71,2.52l.57.79c.54.74,1.1,1.49,1.68,2.24l.45.58c.73.92,1.49,1.83,2.28,2.75l.57.66c.64.73,1.3,1.46,2,2.2l.73.78c.87.93,1.77,1.86,2.71,2.79A88,88,0,0,0,9.74,760.28l.92.48c.27.15.55.27.82.41.48.25,1,.49,1.46.72s.84.4,1.27.6l1.45.65,1.27.53,1.45.58,1.28.48,1.45.51.66.23.44.13c1.16.37,2.31.71,3.46,1h.06c1.17.3,2.34.55,3.51.78l.43.1,1.43.26q1.29.21,2.58.36l.85.08,1.5.15h.19l2.09.09h4c.78,0,1.55-.09,2.33-.16l1-.11c.62-.07,1.24-.14,1.86-.24H48l1.13-.2.76-.14c.81-.16,1.61-.33,2.41-.52s1.87-.49,2.79-.76h.17c1.53-.47,3-1,4.51-1.63l.74-.32c.53-.23,1.05-.46,1.56-.7l.86-.42,1.42-.73.87-.47c.47-.27.93-.53,1.39-.81l.83-.5,1.47-1,.7-.46c.71-.49,1.42-1,2.12-1.53q11.06-8.4,14.06-18.72a36.08,36.08,0,0,0,.94-15.67l-.91-6c1,.38,1.94.73,2.92,1.06l.16.05c.27.09.55.16.82.24.87.27,1.74.53,2.62.77l1.33.32c.78.19,1.55.37,2.33.52l.64.14.9.15c.64.11,1.29.22,1.94.31s1.07.15,1.61.21,1.31.15,2,.2l.91.1h.71c.7,0,1.41.07,2.12.09h5.83c1.08-.06,2.15-.17,3.22-.3l.72-.09.67-.09c.56-.09,1.12-.22,1.67-.33.39-.07.77-.13,1.16-.22,1-.22,2-.48,2.94-.77l.4-.11h0c1-.32,2-.68,3.08-1.08l.67-.26c1-.4,2-.84,3-1.33l.46-.23c.94-.46,1.87-1,2.8-1.47l.51-.29c1-.57,2-1.19,3-1.85l.64-.43q1.5-1,3-2.16A47.39,47.39,0,0,0,154.92,694a36.39,36.39,0,0,0,3.82-19.18c-.09-1.12-.22-2.25-.39-3.38l-2.91-19c.18,1.13.3,2.26.39,3.38A36.2,36.2,0,0,1,152,675Z" fill="#5e2a15" stroke="#16221d" stroke-linecap="round" stroke-linejoin="round" stroke-width="1.5"/>
    </g>
    <path d="M35.33,611.6A47.76,47.76,0,0,1,46.5,600.12a52.93,52.93,0,0,1,20.64-9.74,57.13,57.13,0,0,1,22.3-.44,73.33,73.33,0,0,1,22.66,8.19,97.28,97.28,0,0,1,21.69,16.47,85.26,85.26,0,0,1,15.82,20.74,52.47,52.47,0,0,1,6.22,20.46A36.37,36.37,0,0,1,152,675a47.33,47.33,0,0,1-14.25,16.48q-13.59,10.29-28.08,11a64.42,64.42,0,0,1-27.3-4.33A37.82,37.82,0,0,1,82.84,720q-3,10.32-14.06,18.68a52.26,52.26,0,0,1-40.59,10.09,68.83,68.83,0,0,1-21.36-7.49A88.14,88.14,0,0,1-13.39,726q-20.14-20-21.18-39.34t17.62-33.48q11.75-8.88,24.63-9.4a57.37,57.37,0,0,1,24.85,4.51,54.51,54.51,0,0,1-3-12A36.88,36.88,0,0,1,30,623.85,35.28,35.28,0,0,1,35.33,611.6ZM90.09,620Q79,617.82,68.84,625.5q-9.45,7.15-9.23,18.24t9.45,23.88q12.16,7.23,23.4,7.29a31.92,31.92,0,0,0,20-6.56q9.67-7.33,9.11-17T111,631.86q-9.8-9.71-20.91-11.86M27.85,718.78A23.9,23.9,0,0,0,46,714q9.68-7.32,8.76-16.69T46.2,677.94q-11.62-6.3-21-6.92A24.93,24.93,0,0,0,8,676.28q-8.56,6.45-8.2,15.08t9.38,17.56q8.64,8.57,18.67,9.86" fill="#7c3b25" stroke="#16221d" stroke-miterlimit="10" stroke-width="1.5"/>
  </g>
  <g>
    <g>
      <path d="M63.21,370.14v-2.76a15.6,15.6,0,0,0-.23-2.25v-.07a3.6,3.6,0,0,0-.13-.73c-.05-.24-.05-.33-.09-.5s-.12-.55-.19-.82-.06-.29-.1-.43h0a.27.27,0,0,0-.07-.22c-.1-.36-.2-.72-.32-1.07a1.74,1.74,0,0,0-.16-.47c-.05-.16-.2-.55-.31-.83v-.11l-.1-.24c-.17-.41-.35-.82-.55-1.24-.07-.14-.13-.29-.21-.43-.23-.47-.48-1-.74-1.41v-.1h0c-.25-.43-.51-.86-.79-1.3L59,354.8l-.63-.93-.36-.48-.61-.81-.41-.51-.64-.77-.45-.52L55,350l-.48-.51-.77-.78-.48-.48-.9-.84-.44-.41q-.68-.62-1.41-1.23l-9.85,3.85c.49.41,1,.82,1.42,1.24l.43.4.9.84.49.49.76.77.48.52.69.75.45.53c.22.25.43.5.64.76s.28.34.41.52l.61.8.36.48c.22.31.42.62.63.93l.24.37c.28.43.55.86.79,1.3a.75.75,0,0,1,.07.12c.27.47.51.94.74,1.41l.22.44c.19.41.37.82.54,1.24.05.11.1.23.14.34.11.28.21.56.31.83s.11.31.16.47c.12.36.22.71.32,1.07a1.09,1.09,0,0,0,.07.24c0,.08.07.29.1.43s.14.54.2.82l.09.52a7.28,7.28,0,0,0,.13.77c.11.76.18,1.51.23,2.26v.51c0,.75.05,1.5,0,2.25v.07a20,20,0,0,1-.15,2.05,9.82,9.82,0,0,1-.13,1c0,.36-.15.91-.24,1.36s-.13.65-.21,1-.23.9-.36,1.34-.18.61-.28.91c-.15.46-.32.92-.5,1.37-.11.29-.22.57-.34.86-.21.49-.45,1-.69,1.47-.12.24-.22.48-.35.72-.38.72-.78,1.44-1.23,2.15a30.66,30.66,0,0,1-6,7c-.57.49-1.14,1-1.7,1.4l-.56.42c-.37.28-.74.57-1.11.83l-1.06.72-.54.36a17.6,17.6,0,0,1-1.57.94,3.3,3.3,0,0,0,.1,1h0a11.28,11.28,0,0,0,.26,1.26h0A9.15,9.15,0,0,0,37,403.3a.91.91,0,0,0,.11.3c0,.1.09.28.15.42l.28.67c.18.41.39.82.6,1.2h0l.08.12c.18.32.38.62.59.92l.23.3c.18.23.37.46.57.68l.24.26a10,10,0,0,0,.88.84A7.56,7.56,0,0,0,49,410.38l9.85-3.86a7.51,7.51,0,0,1-8.16-1.29,11.51,11.51,0,0,1-.88-.83l-.25-.27c-.19-.22-.38-.44-.56-.68l-.23-.3c-.21-.29-.41-.59-.6-.91l-.07-.12a11.8,11.8,0,0,1-.62-1.23c-.16-.37-.3-.73-.43-1.08,0-.1-.08-.2-.11-.3-.13-.37-.24-.73-.34-1.08a11.28,11.28,0,0,1-.26-1.26,9.88,9.88,0,0,1-.11-1.08c.52-.29,1-.61,1.57-.94.17-.12.35-.25.53-.36.34-.23.68-.45,1-.7h0c.37-.26.74-.55,1.11-.83l.56-.41c.56-.45,1.13-.91,1.7-1.4a30.45,30.45,0,0,0,6-7.05c.45-.71.85-1.43,1.23-2.15.13-.23.23-.47.35-.71.24-.49.48-1,.69-1.48.12-.28.23-.57.34-.85.17-.46.35-.91.5-1.37.1-.3.19-.61.28-.91s.15-.46.21-.7.1-.43.15-.65.15-.64.21-1,.17-.91.23-1.37.1-.63.13-1c0-.14,0-.27.06-.4,0-.55.08-1.11.1-1.66Z" fill="#5e2a15" stroke="#16221d" stroke-linecap="round" stroke-linejoin="round" stroke-width="1.5"/>
      <path d="M34.89,355.46c.33-.44.64-.89,1-1.37a7.57,7.57,0,0,0,.68-1.18c.07-.13.13-.27.19-.4s.28-.54.4-.82l.2-.48c.11-.26.21-.52.31-.79s.12-.34.17-.51.17-.53.25-.8l.09-.32v-.18c.12-.45.22-.9.3-1.36v-.14c.09-.51.16-1,.21-1.55a.43.43,0,0,0,0-.16c0-.3.05-.61.07-.92,0-.8.05-1.57,0-2.32v-1.52q-.06-.63-.15-1.23v-.06q-.15-1-.39-1.92v-.1h0c-.16-.57-.34-1.11-.54-1.64a.2.2,0,0,0,0-.16,1.31,1.31,0,0,1-.13-.31q-8.73-7.37-15.83-7.7a11.65,11.65,0,0,0-4.89.76l-9.84,3.85a11.61,11.61,0,0,1,4.88-.76q7.11.35,15.83,7.7l.18.47a15.72,15.72,0,0,1,.54,1.64v.14c.16.63.29,1.27.39,1.91a.09.09,0,0,1,0,.07c.06.4.11.8.15,1.22v.31l.06,1v2.48a6.38,6.38,0,0,1-.09,1.08c-.05.53-.12,1-.21,1.55v.14c-.09.46-.19.92-.3,1.36l-.14.5c-.08.27-.16.54-.25.8s-.11.35-.17.51-.2.53-.31.79l-.2.48c-.07.16-.26.56-.4.83s-.12.26-.19.39c-.21.4-.44.79-.68,1.18s-.62.94-.94,1.38l-.3.38c-.24.31-.49.61-.74.89l-.31.36c-.32.34-.64.66-1,1l-.1.1a12.63,12.63,0,0,1-1.14.91c-.13.1-.26.18-.4.27l-.66.43-.45.25-.68.34c-.25.11-.49.23-.74.33h0l9.85-3.85.48-.21c.09,0,.17-.08.26-.12l.67-.34.46-.26.66-.42c.1-.07.2-.12.29-.19l.11-.08c.39-.29.77-.58,1.14-.91l.1-.1c.33-.3.66-.63,1-1,.11-.11.22-.23.32-.35.25-.29.5-.58.74-.89Z" fill="#5e2a15" stroke="#16221d" stroke-linecap="round" stroke-linejoin="round" stroke-width="1.5"/>
      <path d="M17.25,380.49a35.09,35.09,0,0,1-11.92-7A40.54,40.54,0,0,1-3.57,363l-.33-.6c-.32-.58-.63-1.16-.92-1.75l-.2-.4c-.32-.67-.62-1.35-.89-2-.08-.18-.14-.36-.21-.54-.16-.4-.3-.81-.44-1.21l-.21-.63c-.13-.41-.26-.83-.37-1.25-.06-.19-.11-.38-.16-.57q-.15-.57-.27-1.14a2.83,2.83,0,0,0-.13-.56c-.12-.57-.22-1.14-.31-1.72a5,5,0,0,0-.07-.52c-.07-.5-.13-1-.18-1.51l-.06-.63c0-.46-.06-.91-.08-1.37v-3.13a14.52,14.52,0,0,1,.12-1.86V341a11,11,0,0,1,.15-1.27,4.11,4.11,0,0,1,.08-.6c.09-.63.2-1.25.32-1.88s.3-1.39.48-2.08c.08-.32.17-.64.26-1s.09-.34.14-.51c.15-.47.3-.94.46-1.41v-.15c.19-.52.38-1,.59-1.55.06-.16.13-.32.2-.48.15-.36.3-.72.47-1.08l.26-.56c.15-.33.32-.67.48-1s.19-.38.29-.56q.27-.53.57-1.05l.27-.49c.29-.5.59-1,.91-1.51s.69-1.08,1-1.6l.36-.5c.24-.34.49-.68.74-1l.44-.56.7-.86.49-.56c.23-.26.46-.52.7-.77l.51-.53c.24-.25.48-.48.72-.71l.53-.5.76-.67.53-.44.82-.64.51-.38c.44-.31.87-.61,1.32-.9.63-.4,1.27-.76,1.92-1.09.2-.11.41-.2.61-.3.58-.28,1.16-.56,1.76-.79h0l-9.84,3.85c-.32.12-.62.25-.93.39l-.84.4L0,316c-.65.34-1.29.7-1.92,1.1-.4.25-.79.51-1.18.79l-.14.1-.5.38c-.28.21-.56.42-.83.64l-.52.45c-.26.22-.52.44-.77.67l-.52.49c-.25.23-.49.47-.73.71l-.51.53-.7.78-.49.56-.7.86-.44.56c-.25.32-.49.67-.74,1l-.36.49a17.78,17.78,0,0,0-1,1.6c-.29.55-.62,1-.91,1.52l-.27.48-.57,1.05-.28.57c-.17.33-.33.66-.49,1-.09.18-.18.37-.26.56-.16.36-.32.72-.47,1.08l-.2.47c-.2.52-.4,1-.58,1.55l-.05.14c-.16.47-.32.95-.46,1.42-.06.18-.1.35-.15.52s-.14.47-.2.71L-17,339c-.18.69-.34,1.38-.48,2.08s-.22,1.26-.32,1.88a4.11,4.11,0,0,1-.08.6c0,.43-.11.85-.15,1.28v.59c0,.62-.09,1.25-.12,1.87v3.12a10.66,10.66,0,0,0,.09,1.38,2.56,2.56,0,0,0,0,.62c.05.51.11,1,.18,1.52v.52c.09.58.19,1.15.31,1.72a3,3,0,0,0,.13.56c.08.38.17.76.27,1.13a.49.49,0,0,0,0,.17l.12.4c.11.42.24.84.37,1.26l.21.62c.14.41.28.81.44,1.21l.14.39.07.16c.27.68.57,1.36.89,2,.07.14.14.27.2.41.29.59.6,1.17.92,1.75,0,.09.09.18.14.26a3.72,3.72,0,0,1,.19.34,40.71,40.71,0,0,0,8.9,10.49,34.77,34.77,0,0,0,11.92,7,21.63,21.63,0,0,0,11,.7,20.8,20.8,0,0,0,3.44-1l9.84-3.85a22.94,22.94,0,0,1-3.44,1A21.89,21.89,0,0,1,17.25,380.49Z" fill="#5e2a15" stroke="#16221d" stroke-linecap="round" stroke-linejoin="round" stroke-width="1.5"/>
    </g>
    <path d="M36.26,312.63a71.27,71.27,0,0,1,17.25,11.2,90.13,90.13,0,0,1,16.65,17.91,54.44,54.44,0,0,1,8.23,17.91,40.39,40.39,0,0,1,.45,17.3A47.41,47.41,0,0,1,72.38,393Q66.86,401.82,61,405.42t-10.34-.19a11.78,11.78,0,0,1-3.21-4.34,13.59,13.59,0,0,1-1.25-4.8,40.71,40.71,0,0,0,6.54-4.67,30.45,30.45,0,0,0,6-7.05,27.66,27.66,0,0,0,4.19-19.24q-1.49-10.2-12.39-19.4a33.49,33.49,0,0,1-.24,9.69,30.62,30.62,0,0,1-4.62,12,37.5,37.5,0,0,1-7.85,9.13,22.11,22.11,0,0,1-9.61,4.68,21.88,21.88,0,0,1-10.95-.7,35.09,35.09,0,0,1-11.92-7A40.6,40.6,0,0,1-3.57,363,35,35,0,0,1-8,350.59a38.74,38.74,0,0,1,.32-13.37,39.41,39.41,0,0,1,5.43-13.39A33.21,33.21,0,0,1,7.92,313.2a25.17,25.17,0,0,1,13-3.91A36.26,36.26,0,0,1,36.26,312.63Zm2.54,31.85a20.85,20.85,0,0,0-1.35-9.22q-8.73-7.36-15.83-7.7t-11.53,6.71a15.54,15.54,0,0,0-2.24,11.85q1.31,6.19,7.12,11.1,6.3,5.32,11.77,4t9.1-7.12a19.85,19.85,0,0,0,3-9.61" fill="#7c3b25" stroke="#16221d" stroke-miterlimit="10" stroke-width="1.5"/>
  </g>
  <g>
    <path d="M-46.86,173.52c-4.39,2-6.85,4.36-7.35,7a7.53,7.53,0,0,0-.11.83l-1,14.6a5.71,5.71,0,0,1,.11-.83c.5-2.69,3-5,7.34-7l87-39.79,1-14.6Z" fill="#5e2a15" stroke="#16221d" stroke-linecap="round" stroke-linejoin="round" stroke-width="1.5"/>
    <path d="M74.4,139.29v-1a1.61,1.61,0,0,0-.08-.61v-.42q-.1-.57-.27-1.14V136c-.13-.41-.27-.82-.44-1.22l-.15-.36c-.14-.3-.28-.61-.44-.92-.06-.12-.13-.24-.19-.37-.23-.41-.47-.83-.74-1.25L69,127.05,45.11,109.76c-.45-.33-.9-.65-1.35-1l-.44-.28-.9-.57-.13-.08-.34-.19-.93-.51-.52-.26-.87-.41-.3-.15-.27-.1-.52-.21q-.33-.14-.66-.24l-.51-.18-.29-.09-.43-.12-.38-.1c-.3-.08-.6-.14-.9-.2l-.2,0h0c-.34-.07-.69-.12-1-.16h-3.3l-.73.1-.5.08a3.35,3.35,0,0,0-.75.16l-.47.11-.8.25-.39.13c-.4.15-.79.31-1.18.48-3.19,1.46-5.28,3.31-6.25,5.55a15,15,0,0,0-1.3,5l-1,14.59a15,15,0,0,1,1.3-5q1.45-3.34,6.25-5.54c.39-.18.78-.34,1.18-.48l.39-.13.8-.25.47-.11c.25-.06.5-.12.74-.16l.5-.09.74-.09h3.22a6.71,6.71,0,0,1,1.08.16h.2a3.64,3.64,0,0,1,.9.2l.37.1.72.21.52.17.66.25c.17.06.35.13.52.21l.57.24.87.41.52.27c.31.16.61.33.92.51l.48.27.89.57.45.28a14.64,14.64,0,0,1,1.35,1L67.84,141.6,71,146.49c.27.42.51.84.74,1.25l.18.37c.16.31.31.62.44.92.06.12.11.24.16.36.16.41.31.82.44,1.22v.07c.12.38.2.76.28,1.14a.89.89,0,0,0,.07.42,2.13,2.13,0,0,1,.08.6v1.71l1-14.6v-.42A1.93,1.93,0,0,0,74.4,139.29Z" fill="#5e2a15" stroke="#16221d" stroke-linecap="round" stroke-linejoin="round" stroke-width="1.5"/>
    <path d="M71,146.49Q74.54,152,73,157t-8,7.89L-43.94,214.71c-.93-.92-2.17-2.17-3.72-3.78A36,36,0,0,1-52,205.42q-4-6.22-3.22-10.25c.5-2.69,3-5,7.34-7l87-39.79L17.51,132.74a13.9,13.9,0,0,1,1.31-6.41q1.45-3.35,6.25-5.54,8.76-4,19.06,3.57l23.73,17.29Z" fill="#7c3b25" stroke="#16221d" stroke-miterlimit="10" stroke-width="1.5"/>
  </g>
  <path d="M23.17,246.15v9.39c0,5.19,6.66,9.39,14.88,9.39s14.87-4.2,14.87-9.39v-9.39Z" fill="#5e2a15" stroke="#16221d" stroke-linecap="round" stroke-linejoin="round" stroke-width="1.5"/>
  <ellipse cx="38.05" cy="246.15" rx="14.88" ry="9.39" fill="#7c3b25" stroke="#16221d" stroke-miterlimit="10" stroke-width="1.5"/>
</svg>
