<svg xmlns="http://www.w3.org/2000/svg" viewBox="0 0 168.65 183.62">
  <g opacity="0.22">
    <path d="M129.25,180.22C129.55,161.38,117.58,148,101,139c-7.58-4.11-16.15-6-24.28-8.84C38.47,116.58,10.86,77.31,11,36.7c-12.3,32.14-6.59,70.52,14.52,97.7C33,144,42.8,152.53,54.68,155.13c9.52,2.08,19.42.17,29.16.45A65.55,65.55,0,0,1,125,171.82c3.38,3,5.84,9.54,1.58,11" fill="#bdb0ae"/>
    <path d="M125.3,183.55a17.4,17.4,0,0,0-7.85-11.3,21.13,21.13,0,0,0-13.58-2.93,11.11,11.11,0,0,0-6.78,2.82c-1.74,1.79-2.37,4.83-.88,6.83s4.15,2.24,6.45,1.73,4.37-1.71,6.62-2.41a16.1,16.1,0,0,1,16.65,4.8" fill="#bdb0ae"/>
    <path d="M113.33,130.31A93.31,93.31,0,0,1,57,104.16,95,95,0,0,1,28.77,41.9c-.3-5.85,9.42-6.28,10.27-.56,3.11,20.8,11.42,40.46,26,55.8a103.31,103.31,0,0,0,49.2,28.77c2.52.62,1.59,4.67-.94,4.4Z" fill="#bdb0ae"/>
    <path d="M73.06,93c-5.48-6-10.48-13.11-10.91-21.25-.28-5.31,2.16-11.5,7.35-12.71,3.44-.81,7.06.9,9.55,3.41,4.12,4.15,5.7,10.18,6.38,16s.62,11.75,2.19,17.39a31.56,31.56,0,0,0,20,21.1S90.7,112.38,73.06,93Z" fill="#bdb0ae"/>
    <path d="M91.74,80.24c1.32-6,5.65-10.58,8.13-16.12a40.61,40.61,0,0,0,.65-32.43c-4.1-9.54-13.31-19.3-24.63-18-5.15.6-9.85,3.44-11.74,8.42a13.7,13.7,0,0,0,2.66,14.17c3.08,3.18,8.82,3.81,12.08.42,1.28-1.34,2.21-4.12.84-5.76-.42-.5-.53-.41-1.43-.45-1.17-.07-.94.57-1,.93-1.86,6.26-11.11,2.85-9.48-3.35C69.76,20.62,79.51,18,85.56,22.16c7.11,4.89,6.92,15.53,1.68,21.63A19.3,19.3,0,0,1,66.17,49c-7.56-2.85-12.83-10.46-13.71-18.38-.91-8.17,2.12-16.78,8.73-21.89A27.18,27.18,0,0,1,84.84,4.46c15.34,4.2,25.32,20.12,27.16,35.21A48.13,48.13,0,0,1,108.53,65a50.32,50.32,0,0,1-7.46,12c-7,8.31-2,19,.62,24.52.74,1.59-2.71-2.44-5.87-6a17.5,17.5,0,0,1-4.06-15.09Z" fill="#bdb0ae"/>
  </g>
</svg>
