<svg xmlns="http://www.w3.org/2000/svg" viewBox="0 0 34 34">
  <g>
    <circle cx="17" cy="17" r="14.98" fill="#ffd377" stroke="#16221d" stroke-miterlimit="10" stroke-width="1.75"/>
    <path d="M17.33,10.35a30,30,0,0,1-6.74-1,1.14,1.14,0,0,0-1.46,1.17c.43,6.16,2.13,10.31,3.89,13a5.24,5.24,0,0,0,8.79,0c1.76-2.69,3.47-6.84,3.89-13a1.14,1.14,0,0,0-1.45-1.17,30.27,30.27,0,0,1-6.75,1Z" fill="#16221d"/>
    <path d="M20.85,17.91s-.2,1.17-2.07,1.86a4,4,0,0,1-2.72,0C14.18,19.08,14,17.91,14,17.91a2.88,2.88,0,0,0,.38,1.87,3.78,3.78,0,0,0,6.09,0A2.88,2.88,0,0,0,20.85,17.91Z" fill="#ffd377"/>
    <path d="M12.43,16.07a2.13,2.13,0,0,1,1.18-1.5,1.67,1.67,0,0,1,1.54,0,2.13,2.13,0,0,1,1.18,1.5,3.19,3.19,0,0,0-.22-1.51,1.83,1.83,0,0,0-3.46,0A3.19,3.19,0,0,0,12.43,16.07Z" fill="#ffd377"/>
    <path d="M22.1,16.07a2.13,2.13,0,0,0-1.18-1.5,1.7,1.7,0,0,0-1.55,0,2.13,2.13,0,0,0-1.18,1.5,3.07,3.07,0,0,1,.23-1.51,1.83,1.83,0,0,1,3.46,0A3.19,3.19,0,0,1,22.1,16.07Z" fill="#ffd377"/>
  </g>
</svg>
