<svg xmlns="http://www.w3.org/2000/svg" width="1367" height="515.63" viewBox="0 0 1367 515.63">
  <g>
    <g>
      <polygon points="1197.69 -1.08 1139.7 26.02 1118.28 -1.14 851.04 252.93 828.96 258.39 828.96 358.6 743.27 358.6 743.27 419.8 869.4 418.84 1180.6 77.85 1275.48 77.85 1275.48 -1.08 1197.69 -1.08" fill="#b05232" stroke="#16221d" stroke-miterlimit="10" stroke-width="1.1"/>
      <polygon points="828.96 273.91 939.45 272.6 939.24 251.88 828.96 253.19 828.96 273.91" fill="#7c3b25" stroke="#16221d" stroke-miterlimit="10" stroke-width="1.65"/>
      <polygon points="916.16 189.98 1026.27 188.67 1026.06 167.95 915.94 169.26 916.16 189.98" fill="#7c3b25" stroke="#16221d" stroke-miterlimit="10" stroke-width="1.65"/>
      <polygon points="894.45 210.97 1004.57 209.65 1004.35 188.93 894.24 190.24 894.45 210.97" fill="#7c3b25" stroke="#16221d" stroke-miterlimit="10" stroke-width="1.65"/>
      <polygon points="872.75 231.95 982.86 230.63 982.65 209.91 872.53 211.23 872.75 231.95" fill="#7c3b25" stroke="#16221d" stroke-miterlimit="10" stroke-width="1.65"/>
      <polygon points="851.04 252.93 961.16 251.62 960.94 230.9 850.83 232.21 851.04 252.93" fill="#7c3b25" stroke="#16221d" stroke-miterlimit="10" stroke-width="1.65"/>
      <polygon points="743.27 358.6 853.76 357.29 853.55 336.57 743.27 337.88 743.27 358.6" fill="#7c3b25" stroke="#16221d" stroke-miterlimit="10" stroke-width="1.65"/>
      <polygon points="713.79 380.14 824.28 378.83 824.07 358.11 713.79 359.42 713.79 380.14" fill="#7c3b25" stroke="#16221d" stroke-miterlimit="10" stroke-width="1.65"/>
      <polygon points="689.07 401.19 799.56 399.88 799.35 379.16 689.07 380.47 689.07 401.19" fill="#7c3b25" stroke="#16221d" stroke-miterlimit="10" stroke-width="1.65"/>
      <polygon points="654.57 419.91 765.06 418.61 764.87 399.76 654.59 401.06 654.57 419.91" fill="#7c3b25" stroke="#16221d" stroke-miterlimit="10" stroke-width="2.03"/>
      <polygon points="808.76 295.65 918.88 294.34 918.66 273.62 808.55 274.94 808.76 295.65" fill="#7c3b25" stroke="#16221d" stroke-miterlimit="10" stroke-width="1.65"/>
      <polygon points="787.06 316.64 897.17 315.32 896.96 294.61 786.84 295.92 787.06 316.64" fill="#7c3b25" stroke="#16221d" stroke-miterlimit="10" stroke-width="1.65"/>
      <polygon points="765.35 337.62 875.47 336.31 875.25 315.59 765.14 316.9 765.35 337.62" fill="#7c3b25" stroke="#16221d" stroke-miterlimit="10" stroke-width="1.65"/>
      <polygon points="935.04 167.95 1045.53 166.64 1045.32 145.92 935.04 147.23 935.04 167.95" fill="#7c3b25" stroke="#16221d" stroke-miterlimit="10" stroke-width="1.65"/>
      <polygon points="1022.23 84.03 1132.35 82.72 1132.14 61.99 1022.02 63.31 1022.23 84.03" fill="#7c3b25" stroke="#16221d" stroke-miterlimit="10" stroke-width="1.65"/>
      <polygon points="1000.53 105.01 1110.64 103.7 1110.43 82.98 1000.32 84.29 1000.53 105.01" fill="#7c3b25" stroke="#16221d" stroke-miterlimit="10" stroke-width="1.65"/>
      <polygon points="978.82 125.99 1088.94 124.68 1088.73 103.96 978.61 105.27 978.82 125.99" fill="#7c3b25" stroke="#16221d" stroke-miterlimit="10" stroke-width="1.65"/>
      <polygon points="957.12 146.97 1067.23 145.66 1067.02 124.94 956.91 126.25 957.12 146.97" fill="#7c3b25" stroke="#16221d" stroke-miterlimit="10" stroke-width="1.65"/>
      <polygon points="1087.79 20.95 1197.91 19.64 1197.69 -1.08 1087.58 0.23 1087.79 20.95" fill="#7c3b25" stroke="#16221d" stroke-miterlimit="10" stroke-width="1.65"/>
      <polygon points="1066.09 41.93 1176.2 40.62 1175.99 19.9 1065.88 21.21 1066.09 41.93" fill="#7c3b25" stroke="#16221d" stroke-miterlimit="10" stroke-width="1.65"/>
      <polygon points="1044.38 62.91 1154.5 61.6 1154.28 40.88 1044.17 42.19 1044.38 62.91" fill="#7c3b25" stroke="#16221d" stroke-miterlimit="10" stroke-width="1.65"/>
    </g>
    <g>
      <g>
        <path d="M1234.49,242.41c-23.92-13.81-52.23-9.56-63.23,9.49L1053.41,373.79,1143,440.72s113-135.65,114.85-138.81C1268.88,282.86,1258.4,256.22,1234.49,242.41Z" fill="#fcc013" stroke="#16221d" stroke-miterlimit="10" stroke-width="1.41"/>
        <path d="M1067.74,359s27.67-14.79,61.27,7.37c29.33,19.35,31.21,46.65,26.37,58.94l-8.92,10.5-89.75-65.28Z" fill="#e29c00" stroke="#16221d" stroke-miterlimit="10" stroke-width="1.5"/>
        <ellipse cx="1097.84" cy="407.7" rx="44.73" ry="56.15" transform="translate(195.84 1154.61) rotate(-60)" fill="#e29c00" stroke="#16221d" stroke-miterlimit="10" stroke-width="1.5"/>
        <ellipse cx="1097.84" cy="407.7" rx="33.04" ry="41.48" transform="translate(195.84 1154.61) rotate(-60)" fill="gray" stroke="#16221d" stroke-miterlimit="10" stroke-width="1.11"/>
        <ellipse cx="1097.84" cy="407.7" rx="28.65" ry="35.97" transform="translate(195.84 1154.61) rotate(-60)" fill="#16221d" stroke="#16221d" stroke-miterlimit="10" stroke-width="0.96"/>
        <path d="M1103.43,323.43s27.67-14.79,61.27,7.37c29.34,19.34,31.21,46.65,26.37,58.94" fill="none" stroke="#16221d" stroke-miterlimit="10" stroke-width="1.5"/>
        <path d="M1234.49,242.41c-23.92-13.81-52.23-9.56-63.23,9.49a37.59,37.59,0,0,1,23.88-9.73c14.55-.37,31.64,1,49.25,19.9s11.47,37.61,9.51,44.89c2.37-2.92,3.79-4.72,4-5C1268.88,282.86,1258.4,256.22,1234.49,242.41Z" fill="#e29c00" stroke="#16221d" stroke-miterlimit="10" stroke-width="1.5"/>
      </g>
      <g>
        <path d="M1073.91,390.65s-8.28,21.59,11.86,34.63" fill="none" stroke="#fff" stroke-miterlimit="10" stroke-width="1.11"/>
        <path d="M1110.63,388.56a33.7,33.7,0,0,1,16.17,30.38" fill="none" stroke="#fff" stroke-miterlimit="10" stroke-width="1.11"/>
      </g>
      <g opacity="0.26">
        <path d="M1202.19,349.23c-7.29-5-9.14-13.29-8-22.09.5-4,2.14-7.81,3.26-11.71,5.29-18.37-2.19-39.69-17.78-50.75A48.3,48.3,0,0,1,1213.05,297c1.63,5.48,2.22,11.56,0,16.82-1.81,4.21-5.25,7.48-7.81,11.28a30.9,30.9,0,0,0-5.06,20.21c.22,2.11,2,4.84,3.78,3.61" fill="#5e2a15"/>
        <path d="M1204.55,348.63a8.19,8.19,0,0,1-2.18-6.1,9.94,9.94,0,0,1,2.6-6,5.25,5.25,0,0,1,2.94-1.82,2.57,2.57,0,0,1,2.85,1.53,3,3,0,0,1-1.1,2.94c-.83.74-1.86,1.21-2.74,1.88a7.58,7.58,0,0,0-2.72,7.69" fill="#5e2a15"/>
        <path d="M1187.45,329.47a43.92,43.92,0,0,0,5.41-28.71,44.7,44.7,0,0,0-16.09-27.87c-2.16-1.71-5,1.89-3,3.78,7.11,6.89,12.36,15.45,14.23,25.24a48.65,48.65,0,0,1-2.47,26.72c-.44,1.13,1.36,1.88,2,.84Z" fill="#5e2a15"/>
        <path d="M1184.19,303.84c-.8-3.75-2.15-7.61-5.14-10-2-1.56-5-2.32-6.88-.67a5,5,0,0,0-1.31,4.59c.46,2.72,2.33,5,4.37,6.82s4.33,3.46,6.06,5.6a14.88,14.88,0,0,1,2.61,13.43S1186.78,315.89,1184.19,303.84Z" fill="#5e2a15"/>
        <path d="M1174.2,307.5c-2.68-1.16-5.6-.74-8.4-1.31a19.07,19.07,0,0,1-12.59-8.63c-2.53-4.18-3.74-10.38-.15-14.35a6.33,6.33,0,0,1,11.14,2.7,4.06,4.06,0,0,1-3.15,4.74c-.86.13-2.18-.28-2.43-1.25-.08-.3,0-.32.21-.67s.48-.21.65-.15c2.9,1,4.13-3.47,1.31-4.55-3.38-1.29-7,1.72-7.12,5.18-.07,4.06,4,6.9,7.82,6.56a9.08,9.08,0,0,0,7.77-6.63,10.57,10.57,0,0,0-3.28-10.28,11.41,11.41,0,0,0-10.77-2.65,12.77,12.77,0,0,0-8.11,7.87c-2.6,7,.76,15.21,6,20a22.63,22.63,0,0,0,10.65,5.61,23.85,23.85,0,0,0,6.63.43c5.09-.39,7.8,4.44,9.22,6.95.4.72-.19-1.71-.7-3.9a8.22,8.22,0,0,0-4.67-5.68Z" fill="#5e2a15"/>
        <path d="M1232.37,295.4c2.14-3.18,4-6.82,3.62-10.64-.23-2.49-1.79-5.21-4.29-5.42a5,5,0,0,0-4.21,2.24c-1.64,2.22-2,5.14-1.88,7.89s.52,5.51.17,8.24a14.89,14.89,0,0,1-7.85,11.2S1225.48,305.63,1232.37,295.4Z" fill="#5e2a15"/>
        <path d="M1222.8,290.74c-1-2.73-3.36-4.54-4.89-6.94a19.06,19.06,0,0,1-2.52-15.06c1.25-4.73,4.87-9.9,10.23-10.07a6.33,6.33,0,0,1,5.78,9.89,4.06,4.06,0,0,1-5.6,1A2.23,2.23,0,0,1,1225,267c.16-.26.22-.23.64-.31s.48.2.55.36c1.29,2.79,5.37.56,4.19-2.21-1.42-3.33-6.14-3.89-8.67-1.53-3,2.76-2.16,7.7.7,10.18a9.07,9.07,0,0,0,10.17,1,10.59,10.59,0,0,0,5.13-9.49,11.47,11.47,0,0,0-5.57-9.6,12.81,12.81,0,0,0-11.31-.38c-6.85,3-10.41,11.1-10.23,18.26A22.68,22.68,0,0,0,1214,284.8a24,24,0,0,0,4.29,5.07c3.82,3.39,2.21,8.69,1.39,11.45-.23.79,1.1-1.32,2.32-3.21a8.21,8.21,0,0,0,.86-7.3Z" fill="#5e2a15"/>
        <path d="M1191.29,359.61c-4.68-7.53-12.83-9.78-21.67-9.11-4,.31-7.91,1.76-11.86,2.69-18.6,4.38-39.54-4.12-49.81-20.24a48.28,48.28,0,0,0,30.64,35c5.4,1.9,11.44,2.78,16.8.78,4.3-1.61,7.73-4.88,11.65-7.25a30.91,30.91,0,0,1,20.43-4.07c2.1.32,4.74,2.29,3.43,3.95" fill="#5e2a15"/>
        <path d="M1190.58,361.94a8.18,8.18,0,0,0-6-2.47,9.92,9.92,0,0,0-6.12,2.3,5.16,5.16,0,0,0-2,2.84,2.57,2.57,0,0,0,1.39,2.93,3,3,0,0,0,3-1c.78-.79,1.3-1.79,2-2.64a7.57,7.57,0,0,1,7.81-2.34" fill="#5e2a15"/>
        <path d="M1172.28,343.92a43.92,43.92,0,0,1-29,4,44.72,44.72,0,0,1-27-17.44c-1.62-2.24,2.12-4.88,3.92-2.84,6.53,7.44,14.83,13.1,24.51,15.45a48.62,48.62,0,0,0,26.81-1.16c1.15-.39,1.81,1.44.75,2Z" fill="#5e2a15"/>
        <path d="M1146.83,339.42c-3.71-1-7.49-2.52-9.73-5.63-1.47-2-2.08-5.1-.34-6.9a5,5,0,0,1,4.65-1.09c2.69.6,4.85,2.58,6.6,4.71s3.24,4.49,5.3,6.32a14.88,14.88,0,0,0,13.28,3.26S1158.74,342.59,1146.83,339.42Z" fill="#5e2a15"/>
        <path d="M1151,329.61c-1-2.73-.46-5.62-.89-8.44a19.09,19.09,0,0,0-8-13c-4-2.73-10.18-4.24-14.33-.85a6.32,6.32,0,0,0,2.16,11.25,4.06,4.06,0,0,0,4.89-2.91,2.21,2.21,0,0,0-1.13-2.49c-.3-.09-.32,0-.68.18s-.23.47-.18.64c.86,2.95-3.67,4-4.61,1.09-1.13-3.44,2.06-7,5.52-6.86,4,.13,6.69,4.38,6.17,8.13a9.06,9.06,0,0,1-7,7.44,10.58,10.58,0,0,1-10.11-3.77,11.46,11.46,0,0,1-2.12-10.9,12.78,12.78,0,0,1,8.26-7.72c7.14-2.24,15.15,1.51,19.72,7a22.7,22.7,0,0,1,5.08,10.91,23.9,23.9,0,0,1,.11,6.65c-.64,5.06,4.06,8,6.49,9.54.7.44-1.69-.28-3.86-.89a8.2,8.2,0,0,1-5.45-4.94Z" fill="#5e2a15"/>
      </g>
      <path d="M1222.66,317.85l-52.43,66.45s71-8.11,118.31,25.93l41.72-73.66s-69.13-2.47-94.37-20.48A9.65,9.65,0,0,0,1222.66,317.85Z" fill="#fcc013" stroke="#16221d" stroke-linecap="round" stroke-linejoin="round" stroke-width="1.29"/>
      <path d="M1170.23,384.3v7.51s71.64-5.25,116,22.92l2.28-4.5S1244.18,376.61,1170.23,384.3Z" fill="#e29c00" stroke="#16221d" stroke-linecap="round" stroke-linejoin="round" stroke-width="1.38"/>
      <g>
        <path d="M1377.62,281.08c-26-9.44-53.09-.34-60.62,20.33l-94.89,140.5L1322,492.26s87.74-153.22,89-156.65C1418.51,314.94,1403.57,290.53,1377.62,281.08Z" fill="#fcc013" stroke="#16221d" stroke-miterlimit="10" stroke-width="1.41"/>
        <path d="M1236.48,420.64s23.11-17.21,59.53-.07c31.79,15,37.54,41.72,34.51,54.58l-7.33,11.66-96.48-50.94Z" fill="#e29c00" stroke="#16221d" stroke-miterlimit="10" stroke-width="1.5"/>
        <ellipse cx="1271.75" cy="467.6" rx="44.73" ry="56.15" transform="translate(397.43 1502.76) rotate(-70)" fill="#e29c00" stroke="#16221d" stroke-miterlimit="10" stroke-width="1.5"/>
        <ellipse cx="1271.75" cy="467.6" rx="33.04" ry="41.48" transform="translate(397.43 1502.76) rotate(-70)" fill="gray" stroke="#16221d" stroke-miterlimit="10" stroke-width="1.11"/>
        <ellipse cx="1271.75" cy="467.6" rx="28.63" ry="35.95" transform="translate(397.43 1502.76) rotate(-70)" fill="#16221d" stroke="#16221d" stroke-miterlimit="10" stroke-width="0.96"/>
        <path d="M1271.12,370.11s24.09-17.87,59-1.64c30.45,14.16,36.06,39.71,33.21,52" fill="none" stroke="#16221d" stroke-miterlimit="10" stroke-width="1.43"/>
      </g>
      <g>
        <path d="M1246.13,451.33S1237.85,472.92,1258,486" fill="none" stroke="#fff" stroke-miterlimit="10" stroke-width="1.11"/>
        <path d="M1282.86,449.24A33.72,33.72,0,0,1,1299,479.62" fill="none" stroke="#fff" stroke-miterlimit="10" stroke-width="1.11"/>
      </g>
      <path d="M1379.61,280.68c-25.56-10.45-53-2.41-61.35,18a37.51,37.51,0,0,1,22.33-12.87c14.37-2.34,31.5-3.26,51.5,13.05s16.45,35.71,15.49,43.19c2-3.22,3.11-5.19,3.26-5.55C1419.16,316.1,1405.18,291.12,1379.61,280.68Z" fill="#e29c00" stroke="#16221d" stroke-miterlimit="10" stroke-width="1.5"/>
      <g opacity="0.26">
        <path d="M1291.64,339.32c8.5,4.23,11.73,12.69,11.9,22.19.08,4.35-1.08,8.61-1.67,12.92-2.8,20.28,8.38,41.74,26.6,51.08a51.7,51.7,0,0,1-40.36-29.16c-2.57-5.56-4.12-11.92-2.53-17.84,1.28-4.74,4.43-8.73,6.56-13.15a33,33,0,0,0,2.27-22.2c-.55-2.2-2.91-4.82-4.55-3.25" fill="#5e2a15"/>
        <path d="M1289.23,340.31a8.77,8.77,0,0,1,3.24,6.14,10.6,10.6,0,0,1-1.84,6.76,5.62,5.62,0,0,1-2.83,2.38,2.77,2.77,0,0,1-3.26-1.2,3.19,3.19,0,0,1,.72-3.28c.76-.91,1.78-1.56,2.62-2.41a8.12,8.12,0,0,0,1.71-8.56" fill="#5e2a15"/>
        <path d="M1310.29,358a47,47,0,0,0-1.35,31.27,47.83,47.83,0,0,0,21.32,27.09c2.55,1.49,5-2.76,2.63-4.47-8.59-6.22-15.46-14.49-19-24.59a52.2,52.2,0,0,1-1.46-28.7c.3-1.27-1.72-1.79-2.19-.6Z" fill="#5e2a15"/>
        <path d="M1317.66,384.7c1.42,3.85,3.44,7.73,7,9.81,2.31,1.35,5.65,1.7,7.39-.34a5.34,5.34,0,0,0,.69-5.07c-.9-2.81-3.23-4.91-5.68-6.56s-5.11-3-7.27-5a15.93,15.93,0,0,1-4.82-13.83S1313.08,372.31,1317.66,384.7Z" fill="#5e2a15"/>
        <path d="M1327.7,379.29c3,.81,6-.07,9.09.1a20.46,20.46,0,0,1,14.67,7.23c3.32,4.05,5.55,10.43,2.35,15.19a6.77,6.77,0,0,1-12.22-1.16,4.37,4.37,0,0,1,2.62-5.51c.89-.26,2.35,0,2.77,1,.12.3.06.33-.13.74s-.47.29-.66.26c-3.23-.62-3.85,4.31-.7,5,3.78.85,7.22-2.9,6.76-6.57-.54-4.32-5.35-6.7-9.29-5.77a9.73,9.73,0,0,0-7.23,8.22,11.33,11.33,0,0,0,5,10.4,12.27,12.27,0,0,0,11.82,1.17,13.68,13.68,0,0,0,7.4-9.6c1.68-7.84-3.13-16-9.46-20.32a24.28,24.28,0,0,0-12.14-4.32,26,26,0,0,0-7.1.56c-5.33,1.19-8.94-3.52-10.83-6-.54-.7.46,1.78,1.34,4a8.81,8.81,0,0,0,5.81,5.32Z" fill="#5e2a15"/>
        <path d="M1301.61,326.65c6.12,7.26,15.1,8.41,24.37,6.35,4.25-.95,8.12-3.08,12.16-4.67,19.06-7.48,42.55-1.66,55.91,13.86a51.72,51.72,0,0,0-37.83-32.39c-6-1.19-12.55-1.2-17.93,1.74-4.31,2.36-7.45,6.35-11.25,9.47a33.07,33.07,0,0,1-21,7.43c-2.28,0-5.38-1.7-4.24-3.67" fill="#5e2a15"/>
        <path d="M1302,324.07a8.76,8.76,0,0,0,6.73,1.71,10.64,10.64,0,0,0,6.14-3.38,5.56,5.56,0,0,0,1.64-3.32,2.74,2.74,0,0,0-1.92-2.88,3.18,3.18,0,0,0-3,1.47c-.7.95-1.09,2.1-1.72,3.11a8.12,8.12,0,0,1-7.92,3.67" fill="#5e2a15"/>
        <path d="M1324.17,340.38a47,47,0,0,1,30.08-8.67,47.84,47.84,0,0,1,31.33,14.36c2.05,2.12-1.5,5.5-3.72,3.61-8.06-6.89-17.72-11.63-28.35-12.64a52.14,52.14,0,0,0-28.24,5.32c-1.16.6-2.15-1.25-1.1-2Z" fill="#5e2a15"/>
        <path d="M1351.84,341.27c4.08.48,8.32,1.52,11.17,4.47,1.87,1.93,3,5.1,1.41,7.27a5.3,5.3,0,0,1-4.76,1.86c-2.94-.22-5.54-2-7.72-4s-4.12-4.27-6.58-5.9a15.94,15.94,0,0,0-14.58-1.43S1338.72,339.72,1351.84,341.27Z" fill="#5e2a15"/>
        <path d="M1348.94,352.29c1.5,2.74,1.35,5.9,2.24,8.82a20.44,20.44,0,0,0,10.47,12.56c4.72,2.28,11.45,2.95,15.32-1.29a6.77,6.77,0,0,0-4-11.6,4.36,4.36,0,0,0-4.74,3.84c0,.93.52,2.3,1.58,2.46.33.06.34,0,.7-.29s.17-.53.09-.71c-1.36-3,3.28-4.75,4.72-1.86,1.71,3.48-1.13,7.7-4.81,8.12-4.32.49-7.76-3.62-7.78-7.68a9.74,9.74,0,0,1,6.28-9,11.34,11.34,0,0,1,11.3,2.47,12.24,12.24,0,0,1,3.91,11.22,13.67,13.67,0,0,1-7.58,9.45c-7.23,3.47-16.29.71-22-4.42a24.29,24.29,0,0,1-7.05-10.79,25.94,25.94,0,0,1-1.13-7c-.09-5.47-5.52-7.87-8.34-9.13-.8-.36,1.84,0,4.23.36a8.81,8.81,0,0,1,6.53,4.39Z" fill="#5e2a15"/>
      </g>
    </g>
    <line x1="1173.08" y1="258.4" x2="1121.09" y2="313.65" fill="none" stroke="#fff" stroke-miterlimit="10" stroke-width="1.11"/>
    <line x1="1277.74" y1="371.8" x2="1251.75" y2="410.33" fill="none" stroke="#fff" stroke-miterlimit="10" stroke-width="1.11"/>
    <path d="M1186.19,372.41s61.74,2.58,71.84,13.51" fill="none" stroke="#fff" stroke-miterlimit="10" stroke-width="1.11"/>
    <g opacity="0.26">
      <path d="M1205.61,356.42a47,47,0,0,1,22.58-21.67,47.82,47.82,0,0,1,34.42-1.89c2.8.93,1.22,5.57-1.62,4.93-10.34-2.34-21.1-2-31,2a52,52,0,0,0-22.51,17.86c-.76,1.07-2.49-.11-1.9-1.25Z" fill="#5e2a15"/>
      <path d="M1230.51,344.33c3.83-1.48,8.07-2.53,12-1.25,2.55.85,5,3.12,4.63,5.78a5.32,5.32,0,0,1-3.35,3.86c-2.7,1.18-5.82.82-8.68.08s-5.63-1.86-8.56-2.15a15.94,15.94,0,0,0-13.57,5.52S1218.18,349.07,1230.51,344.33Z" fill="#5e2a15"/>
      <path d="M1233.08,355.43c2.6,1.73,3.94,4.59,6.08,6.77a20.47,20.47,0,0,0,15.12,6.23c5.24-.18,11.5-2.72,13-8.28a6.77,6.77,0,0,0-9-8.39,4.35,4.35,0,0,0-2.4,5.6c.39.84,1.53,1.79,2.55,1.44.31-.1.28-.17.47-.58s-.09-.55-.25-.67c-2.6-2,.7-5.74,3.31-3.84,3.14,2.27,2.59,7.33-.47,9.41-3.59,2.45-8.56.42-10.46-3.16a9.73,9.73,0,0,1,1.39-10.86,11.34,11.34,0,0,1,11.14-3.08,12.27,12.27,0,0,1,8.69,8.11A13.69,13.69,0,0,1,1270,366c-4.78,6.44-14.08,8.22-21.51,6.33a24.39,24.39,0,0,1-11.27-6.27,25.64,25.64,0,0,1-4.26-5.69c-2.63-4.79-8.55-4.39-11.63-4.19-.88.05,1.64-.83,3.9-1.66a8.82,8.82,0,0,1,7.83.85Z" fill="#5e2a15"/>
    </g>
  </g>
</svg>
