<?xml version="1.0" encoding="utf-8"?>
<!-- Generator: Adobe Illustrator 24.1.2, SVG Export Plug-In . SVG Version: 6.00 Build 0)  -->
<svg version="1.1" id="Layer_1" xmlns="http://www.w3.org/2000/svg" xmlns:xlink="http://www.w3.org/1999/xlink" x="0px" y="0px"
	 viewBox="0 0 1366 768" style="enable-background:new 0 0 1366 768;" xml:space="preserve">
<style type="text/css">
	.st0{fill:none;}
	.st1{fill:#5E2A15;stroke:#16221D;stroke-width:1.5;stroke-miterlimit:10;}
	.st2{fill:#231F20;stroke:#16221D;stroke-width:1.5;stroke-linecap:round;stroke-linejoin:round;}
	.st3{fill:url(#SVGID_1_);stroke:url(#SVGID_2_);stroke-width:0.75;stroke-miterlimit:10;}
	.st4{fill:#9FAAC4;stroke:#16221D;stroke-width:1.5;stroke-miterlimit:10;}
	.st5{opacity:0.75;fill:#FCC013;enable-background:new    ;}
	.st6{fill:#FCC013;}
	.st7{fill:none;stroke:#FFFFFF;stroke-width:1.5;stroke-miterlimit:10;}
	.st8{fill:#BDB0AE;stroke:#16221D;stroke-width:1.498;stroke-miterlimit:10;}
	.st9{fill:#E5D3D0;stroke:#16221D;stroke-width:1.498;stroke-miterlimit:10;}
	.st10{fill:#918887;stroke:#16221D;stroke-width:1.498;stroke-miterlimit:9.998;}
	.st11{fill:#FFD893;stroke:#16221D;stroke-width:1.498;stroke-miterlimit:10;}
	.st12{fill:#8E8584;stroke:#16221D;stroke-width:1.498;stroke-miterlimit:10;}
</style>
<pattern  y="1014.5" width="1366" height="1014.5" patternUnits="userSpaceOnUse" id="SVGID_5_" viewBox="0 -1014.5 1366 1014.5" style="overflow:visible;">
	<g>
		<rect y="-1014.5" class="st0" width="1366" height="1014.5"/>
		<rect y="-1014.5" class="st0" width="1366" height="1014.5"/>
		<rect y="-1014.5" class="st0" width="1366" height="1014.5"/>
	</g>
</pattern>
<pattern  y="1014.5" width="1366" height="1014.5" patternUnits="userSpaceOnUse" id="SVGID_6_" viewBox="0 -1014.5 1366 1014.5" style="overflow:visible;">
	<g>
		<rect y="-1014.5" class="st0" width="1366" height="1014.5"/>
		<rect y="-1014.5" class="st0" width="1366" height="1014.5"/>
		<rect y="-1014.5" class="st0" width="1366" height="1014.5"/>
	</g>
</pattern>
<path class="st1" d="M1243,516.1c1.9-0.1,3.6-0.9,4.9-2.3c-9.7-9.7-16.6-47.8-16.1-93.4s8.2-83.5,18.2-93c-1.2-1.4-2.9-2.3-4.8-2.4
	c-12.1-0.1-22.4,42.5-23,95.3S1230.8,515.9,1243,516.1z"/>
<ellipse transform="matrix(1.000054e-02 -0.9999 0.9999 1.000054e-02 815.0829 1663.7776)" class="st2" cx="1247.8" cy="420.3" rx="93.2" ry="17.2"/>
<pattern  id="SVGID_1_" xlink:href="#SVGID_5_" patternTransform="matrix(8.000000e-03 -0.75 0.75 8.000000e-03 -6549.0181 -2651.9741)">
</pattern>
<pattern  id="SVGID_2_" xlink:href="#SVGID_6_" patternTransform="matrix(8.000000e-03 -0.75 0.75 8.000000e-03 -6807.8774 -2177.6245)">
</pattern>
<path class="st3" d="M1230.6,420c0.5-51.5,8.6-93.1,18.1-93s16.7,41.9,16.2,93.3c-0.5,51.5-8.6,93.1-18.1,93
	C1237.4,513.3,1230.1,471.5,1230.6,420z"/>
<polygon class="st4" points="1248.9,505.9 980.6,502.7 980.7,490.8 1254.4,494 "/>
<polygon class="st5" points="1261.7,190.6 1255.1,164.1 957.2,292 1245.5,370.7 "/>
<ellipse class="st6" cx="1067" cy="383.8" rx="178.6" ry="116.4"/>
<line class="st7" x1="1254.5" y1="206.8" x2="1245.5" y2="305.7"/>
<rect x="1283.5" y="173.6" class="st8" width="7.6" height="29.6"/>
<path class="st9" d="M1245.4,162.1l31.4-18.2c2.9-1.7,9.3,3.8,14.3,12.4s6.6,16.8,3.7,18.5l-31.4,18.2L1245.4,162.1z"/>
<ellipse transform="matrix(0.8642 -0.5031 0.5031 0.8642 81.1834 654.8809)" class="st10" cx="1253.8" cy="177" rx="6.1" ry="17.9"/>
<ellipse transform="matrix(0.8645 -0.5027 0.5027 0.8645 80.6699 654.512)" class="st11" cx="1254.1" cy="177.7" rx="3.9" ry="14.9"/>
<path class="st9" d="M1274.7,161.2l21.3-12.4c0.9-0.6,2.2-0.2,2.7,0.7l2.5,4.4c0.6,0.9,0.2,2.2-0.7,2.7l-21.3,12.4
	c-0.9,0.6-2.2,0.2-2.7-0.7l-2.5-4.4C1273.4,162.9,1273.7,161.7,1274.7,161.2z"/>
<circle class="st12" cx="1279.2" cy="163.8" r="1.9"/>
</svg>
