<svg xmlns="http://www.w3.org/2000/svg" xmlns:xlink="http://www.w3.org/1999/xlink" width="1366" height="768" viewBox="0 0 1366 768">
  <defs>
    <pattern id="a" data-name="新增圖樣色票 2" width="871.45" height="899.05" patternTransform="matrix(0.75, 0, 0, -0.75, 2068.6, -1511.14)" patternUnits="userSpaceOnUse" viewBox="0 0 871.45 899.05">
      <rect width="871.45" height="899.05" fill="none"/>
      <rect width="871.45" height="899.05" fill="none"/>
      <circle cx="88.93" cy="896.62" r="1.27" fill="#fff"/>
      <circle cx="186.44" cy="841.27" r="1.27" fill="#fff"/>
      <circle cx="310.18" cy="897.78" r="1.27" fill="#fff"/>
      <circle cx="355.55" cy="815.14" r="1.27" fill="#fff"/>
      <circle cx="389.39" cy="775.01" r="1.27" fill="#fff"/>
      <circle cx="403.06" cy="890.65" r="1.27" fill="#fff"/>
      <circle cx="627.12" cy="712.71" r="1.27" fill="#fff"/>
      <circle cx="585.87" cy="788.38" r="1.27" fill="#fff"/>
      <circle cx="842.23" cy="827.06" r="1.27" fill="#fff"/>
      <circle cx="25.04" cy="709.2" r="1.27" fill="#fff"/>
      <circle cx="130.09" cy="706.17" r="1.27" fill="#fff"/>
      <circle cx="247.88" cy="703.16" r="1.27" fill="#fff"/>
      <circle cx="349.82" cy="700.47" r="1.27" fill="#fff"/>
      <circle cx="454.38" cy="845.53" r="1.27" fill="#fff"/>
      <circle cx="540.14" cy="749.59" r="1.27" fill="#fff"/>
      <circle cx="515.25" cy="821.97" r="1.27" fill="#fff"/>
      <circle cx="660.28" cy="732.81" r="1.27" fill="#fff"/>
      <circle cx="735.96" cy="709.54" r="1.27" fill="#fff"/>
      <circle cx="1.27" cy="662.69" r="1.27" fill="#fff"/>
      <circle cx="239.51" cy="714.06" r="1.27" fill="#fff"/>
      <circle cx="144.33" cy="733.78" r="1.27" fill="#fff"/>
      <circle cx="323.75" cy="605.5" r="1.27" fill="#fff"/>
      <circle cx="334.44" cy="724.98" r="1.27" fill="#fff"/>
      <circle cx="535.81" cy="769.11" r="1.27" fill="#fff"/>
      <circle cx="611.05" cy="607.31" r="1.27" fill="#fff"/>
      <circle cx="751.88" cy="653.66" r="1.27" fill="#fff"/>
      <circle cx="662.16" cy="701.25" r="1.27" fill="#fff"/>
      <circle cx="68.23" cy="526.62" r="1.27" fill="#fff"/>
      <circle cx="272.26" cy="559.61" r="1.27" fill="#fff"/>
      <circle cx="227.67" cy="667.86" r="1.27" fill="#fff"/>
      <circle cx="369.27" cy="676.66" r="1.27" fill="#fff"/>
      <circle cx="339.43" cy="613.62" r="1.27" fill="#fff"/>
      <circle cx="458.33" cy="692.33" r="1.27" fill="#fff"/>
      <circle cx="525.48" cy="500.41" r="1.27" fill="#fff"/>
      <circle cx="655.45" cy="612.5" r="1.27" fill="#fff"/>
      <circle cx="706.38" cy="496.34" r="1.27" fill="#fff"/>
      <circle cx="156.19" cy="398.01" r="1.27" fill="#fff"/>
      <circle cx="99.46" cy="473.65" r="1.27" fill="#fff"/>
      <circle cx="312.14" cy="600.48" r="1.27" fill="#fff"/>
      <circle cx="427.87" cy="461.22" r="1.27" fill="#fff"/>
      <circle cx="498.11" cy="522.86" r="1.27" fill="#fff"/>
      <circle cx="555.91" cy="621.66" r="1.27" fill="#fff"/>
      <circle cx="618.11" cy="462.91" r="1.27" fill="#fff"/>
      <circle cx="717.83" cy="552.3" r="1.27" fill="#fff"/>
      <circle cx="703.76" cy="535.68" r="1.27" fill="#fff"/>
      <circle cx="61.77" cy="383.44" r="1.27" fill="#fff"/>
      <circle cx="184.33" cy="328.02" r="1.27" fill="#fff"/>
      <circle cx="293.25" cy="444.08" r="1.27" fill="#fff"/>
      <circle cx="357.45" cy="443.24" r="1.27" fill="#fff"/>
      <circle cx="450.82" cy="424.59" r="1.27" fill="#fff"/>
      <circle cx="438.04" cy="316.2" r="1.27" fill="#fff"/>
      <circle cx="498.5" cy="410.24" r="1.27" fill="#fff"/>
      <circle cx="644.01" cy="391.88" r="1.27" fill="#fff"/>
      <circle cx="795.38" cy="468.72" r="1.27" fill="#fff"/>
      <circle cx="29.56" cy="302.77" r="1.27" fill="#fff"/>
      <circle cx="218" cy="392.23" r="1.27" fill="#fff"/>
      <circle cx="246.05" cy="369.76" r="1.27" fill="#fff"/>
      <circle cx="314.06" cy="459.46" r="1.27" fill="#fff"/>
      <circle cx="422.59" cy="477.65" r="1.27" fill="#fff"/>
      <circle cx="558.42" cy="324.42" r="1.27" fill="#fff"/>
      <circle cx="516.46" cy="295.87" r="1.27" fill="#fff"/>
      <circle cx="625.8" cy="449.58" r="1.27" fill="#fff"/>
      <circle cx="765.12" cy="287.07" r="1.27" fill="#fff"/>
      <circle cx="77.8" cy="197.66" r="1.27" fill="#fff"/>
      <circle cx="192.16" cy="313.41" r="1.27" fill="#fff"/>
      <circle cx="327.76" cy="262.87" r="1.27" fill="#fff"/>
      <circle cx="398.4" cy="199.04" r="1.27" fill="#fff"/>
      <circle cx="423" cy="348.9" r="1.27" fill="#fff"/>
      <circle cx="516.18" cy="309.53" r="1.27" fill="#fff"/>
      <circle cx="547.04" cy="272.64" r="1.27" fill="#fff"/>
      <circle cx="650.06" cy="377.73" r="1.27" fill="#fff"/>
      <circle cx="806.94" cy="423.52" r="1.27" fill="#fff"/>
      <circle cx="57.49" cy="220.41" r="1.27" fill="#fff"/>
      <circle cx="190.14" cy="127.5" r="1.27" fill="#fff"/>
      <circle cx="159.13" cy="124.37" r="1.27" fill="#fff"/>
      <circle cx="362.81" cy="194.55" r="1.27" fill="#fff"/>
      <circle cx="471.01" cy="133.84" r="1.27" fill="#fff"/>
      <circle cx="574.39" cy="291.94" r="1.27" fill="#fff"/>
      <circle cx="605.84" cy="215.36" r="1.27" fill="#fff"/>
      <circle cx="730.55" cy="254.97" r="1.27" fill="#fff"/>
      <circle cx="796.42" cy="158.85" r="1.27" fill="#fff"/>
      <circle cx="49.76" cy="192.42" r="1.27" fill="#fff"/>
      <circle cx="214.21" cy="1.27" r="1.27" fill="#fff"/>
      <circle cx="151.3" cy="221.73" r="1.27" fill="#fff"/>
      <circle cx="293.45" cy="54.11" r="1.27" fill="#fff"/>
      <circle cx="344.14" cy="23.27" r="1.27" fill="#fff"/>
      <circle cx="457.8" cy="206.17" r="1.27" fill="#fff"/>
      <circle cx="588.3" cy="63.97" r="1.27" fill="#fff"/>
      <circle cx="652.18" cy="50.43" r="1.27" fill="#fff"/>
      <circle cx="870.18" cy="180.41" r="1.27" fill="#fff"/>
    </pattern>
  </defs>
  <path d="M963.41,602.64h331.77l.7-359.65a165.89,165.89,0,0,0-165.56-166.2H1130A165.89,165.89,0,0,0,964.11,242.35Z" fill="#b05232" stroke="#16221d" stroke-miterlimit="10"/>
  <path d="M963.41,602.64h331.77l.7-359.65a165.89,165.89,0,0,0-165.56-166.2H1130A165.89,165.89,0,0,0,964.11,242.35Z" fill="#b05232" stroke="#16221d" stroke-miterlimit="10"/>
  <path d="M964.11,242.35A165.89,165.89,0,0,1,1130,76.79h0a167.44,167.44,0,0,1,18.87,1.07,165.91,165.91,0,0,0-147,164.49l-.7,360.29H963.41Z" fill="#5e2a15" stroke="#16221d" stroke-linecap="round" stroke-linejoin="round" stroke-width="1.5"/>
  <path d="M963.41,602.64h331.77l.7-359.65a165.89,165.89,0,0,0-165.56-166.2H1130A165.89,165.89,0,0,0,964.11,242.35Z" fill="#16221d" stroke="#16221d" stroke-miterlimit="10" stroke-width="1.41"/>
  <path d="M963.41,602.64h331.77l.7-359.65a165.89,165.89,0,0,0-165.56-166.2H1130A165.89,165.89,0,0,0,964.11,242.35Z" opacity="0.5" fill="url(#a)" style="isolation: isolate"/>
  <line x1="983.96" y1="401.64" x2="1078.17" y2="492.43" fill="none"/>
  <path d="M1194.81,236.9c-7.77,4.89-74.38,61.38-82.15,66.28,0,0-34.78,89.15,105.07,106.85l54.17-71.2Z" fill="#f2e6d4"/>
  <path d="M1193.68,235a115.89,115.89,0,0,0-10.52,8.07c-6.11,4.9-12.16,9.88-18.21,14.86q-10.7,8.81-21.38,17.62-9.6,7.92-19.24,15.76-3.63,2.94-7.28,5.83c-.48.39-1,.76-1.45,1.14l-.33.26c-.12.09.38-.3,0,0l-.65.5c-.69.53-1.38,1-2.1,1.56a5,5,0,0,0-2.15,2.27c-.17.46-.33.93-.48,1.4q-1,3.06-1.62,6.2a81.92,81.92,0,0,0-1.5,10.45,74.67,74.67,0,0,0,.07,12.6,70.56,70.56,0,0,0,2.91,14.75,67.27,67.27,0,0,0,7.09,15.38,73.8,73.8,0,0,0,12.5,15,97.28,97.28,0,0,0,19.3,13.72,147,147,0,0,0,27.14,11.27,232.6,232.6,0,0,0,36.13,7.9c1.78.26,3.58.59,5.36.73a2.46,2.46,0,0,0,2.4-1.11l.56-.72,2.93-3.86,11.27-14.81,14.94-19.63,14.12-18.56,9-11.89,1.27-1.67a2.16,2.16,0,0,0,0-2.27l-7.69-10.18-18.39-24.31-22.24-29.41-19.29-25.51-9.34-12.35-.14-.18a2.32,2.32,0,0,0-3.08-.8,2.26,2.26,0,0,0-.8,3.07l7.69,10.17L1219,272.52l22.24,29.41,19.29,25.51,6.35,8.4c1,1.3,1.88,2.76,3,4a1.09,1.09,0,0,1,.13.17V337.7l-5.4,7.1-12.9,16.95L1236,382.35l-13.5,17.74L1218,406c-.7.92-1.5,1.82-2.13,2.8a.94.94,0,0,1-.09.12l1.94-1.11c-21.37-2.72-43.11-7.47-62.49-17.1a111.08,111.08,0,0,1-10.79-6.1,88.24,88.24,0,0,1-8.54-6.22,78.45,78.45,0,0,1-7.22-6.78q-1.59-1.69-3.06-3.48l-.72-.88c-.1-.13-.75-1-.45-.57-.45-.58-.88-1.17-1.31-1.77a66.67,66.67,0,0,1-4.55-7.28c-.63-1.17-1.22-2.36-1.78-3.57-.25-.55-.49-1.09-.73-1.64s.19.46,0-.06l-.18-.44c-.14-.35-.28-.69-.41-1a66,66,0,0,1-3.68-13.87l-.12-.83c0-.15-.08-.65,0,0l-.06-.41c-.07-.57-.13-1.14-.19-1.71-.11-1.09-.2-2.18-.26-3.27-.11-2-.13-4-.08-6.07.05-1.84.17-3.69.36-5.53,0-.43.09-.86.14-1.29,0-.19.05-.38.07-.57s.15-1,0-.18q.16-1.17.36-2.34a72.52,72.52,0,0,1,1.63-7.44c.33-1.16.78-2.29,1.09-3.45l.06-.15-1,1.35a122.63,122.63,0,0,0,10.66-8.2c6.24-5,12.4-10.08,18.58-15.16q10.76-8.85,21.49-17.72,9.64-7.95,19.34-15.84,3.56-2.86,7.15-5.71l.69-.53.39-.3c.4-.31-.27.2,0,0l1.21-.93c.64-.48,1.28-1,1.94-1.41.22-.16.45-.31.68-.46C1198.39,237.3,1196.13,233.4,1193.68,235Z" fill="#16221d"/>
  <path d="M1304.48,662.45l-17.2,21.73a628.4,628.4,0,0,1-151-118.85c-21.8-23.3-42.37-49.18-50.89-79.93l-17.27,12.46q-43.2-45.8-90.8-87.14c8-10.67,18.12-25,26.12-35.71l76.86,29.34Z" fill="#ccc" stroke="#16221d" stroke-miterlimit="10" stroke-width="1.5"/>
  <path d="M1124.59,381.4a1.5,1.5,0,1,0-1.5-1.5A1.5,1.5,0,0,0,1124.59,381.4Z" fill="#fff"/>
  <path d="M1000.12,375.19c43.64,23.81,74,65.67,102.72,106.24,53.34,75.29,112.87,155.71,201.32,182l12.5-20.64a8.56,8.56,0,0,0-2-11.13c-31.37-25-63.26-54-69.24-93.26-2.4-15.74-.29-31.78.17-47.7a230.3,230.3,0,0,0-16.08-91.2c-37.92,16.52-83.25-10.54-102.17-47.32-8.18-15.89-12.92-33.39-15.49-51.08,0,0-83.4,25.24-111.74,74.13" stroke="#16221d" stroke-miterlimit="10" stroke-width="1.5"/>
  <path d="M1080,450.27c31.42-14,71.27-6.31,95.13,18.49,7.3,7.59,13.1,16.46,19.31,25a306.51,306.51,0,0,0,36.1,41.17c2.94,2.8,8.25,6.49,12.31,6.57" fill="none" stroke="#666" stroke-miterlimit="10" stroke-width="1.5"/>
  <path d="M1075,443.14c31.42-14.05,77.42-7.39,101.28,17.41,7.3,7.59,13.1,16.46,19.31,25a307.21,307.21,0,0,0,36.1,41.18c2.94,2.79,8.25,6.48,12.31,6.56" fill="none" stroke="#666" stroke-miterlimit="10" stroke-width="1.5"/>
  <path d="M1204.48,417.56c24,42.27,32,66.7,40.23,114.62" fill="none" stroke="#666" stroke-miterlimit="10" stroke-width="1.5"/>
  <path d="M1146.4,540.53c16.63-7.84,41.85-25.52,52.84-40.25" fill="none" stroke="#666" stroke-miterlimit="10" stroke-width="1.5"/>
  <path d="M1151.68,547c15.37-5.73,41.9-28,52.8-40.27" fill="none" stroke="#666" stroke-miterlimit="10" stroke-width="1.5"/>
  <path d="M1216.6,615.82c14.37-6.85,36.16-22.3,45.64-35.21" fill="none" stroke="#666" stroke-miterlimit="10" stroke-width="1.5"/>
  <path d="M1223.06,620c13.29-5,34.32-23,43.72-33.76" fill="none" stroke="#666" stroke-miterlimit="10" stroke-width="1.5"/>
  <path d="M1087.64,429.06a2.24,2.24,0,0,1-4.31,1.19h0a2.24,2.24,0,0,1,4.31-1.19Z" fill="#666"/>
  <path d="M1100.82,426.84a2.23,2.23,0,1,1-2.5-2,2.22,2.22,0,0,1,2.5,2Z" fill="#666"/>
  <path d="M1114.2,426.39a2.23,2.23,0,1,1-2.21-2.28,2.23,2.23,0,0,1,2.21,2.28Z" fill="#666"/>
  <path d="M1127.52,427.54a2.23,2.23,0,1,1-1.94-2.52,2.22,2.22,0,0,1,1.94,2.52Z" fill="#666"/>
  <path d="M1140.63,430.22a2.08,2.08,0,1,1,0-.06S1140.64,430.2,1140.63,430.22Z" fill="#666"/>
  <path d="M1153.31,434.5a2.23,2.23,0,1,1-1.27-2.92,2.24,2.24,0,0,1,1.27,2.92Z" fill="#666"/>
  <path d="M1165.27,440.47a2.35,2.35,0,1,1,0-.06Z" fill="#666"/>
  <path d="M1176.07,448.34a2.16,2.16,0,1,1,.08-.09Z" fill="#666"/>
  <path d="M1185.22,458.1a2.23,2.23,0,1,1-2.88-3.41h0a2.23,2.23,0,0,1,2.88,3.41Z" fill="#666"/>
  <path d="M1193.26,468.8a2.23,2.23,0,1,1,.51-3.12A2.24,2.24,0,0,1,1193.26,468.8Z" fill="#666"/>
  <path d="M1201.08,479.66a2.23,2.23,0,1,1,.49-3.12A2.25,2.25,0,0,1,1201.08,479.66Z" fill="#666"/>
  <path d="M1209,490.48a2.23,2.23,0,1,1,.48-3.12h0a2.22,2.22,0,0,1-.47,3.11Z" fill="#666"/>
  <path d="M1217.14,501.07a2.23,2.23,0,1,1,.34-3.13h0A2.23,2.23,0,0,1,1217.14,501.07Z" fill="#666"/>
  <path d="M1226,511.15a2.23,2.23,0,1,1,.1-3.15h0A2.23,2.23,0,0,1,1226,511.15Z" fill="#666"/>
  <path d="M1235.78,520.19a2.23,2.23,0,0,1-3.62-2.6,1.47,1.47,0,0,1,.1-.13,2.23,2.23,0,0,1,3.52,2.73Z" fill="#666"/>
  <path d="M1038.19,339.71s24.93,23,10.12,73" fill="none" stroke="#666" stroke-miterlimit="10" stroke-width="1.5"/>
  <path d="M1052.93,345a2.24,2.24,0,1,1,.9-3,2.23,2.23,0,0,1-.9,3Z" fill="#666"/>
  <path d="M1057.75,357.5a2.18,2.18,0,1,1,.07,0Z" fill="#666"/>
  <path d="M1060.36,370.66a2.37,2.37,0,1,1,.05,0Z" fill="#666"/>
  <path d="M1060.92,384.06a2.25,2.25,0,1,1,.1,0Z" fill="#666"/>
  <path d="M1059.71,397.43a2.24,2.24,0,1,1,2.54-1.92,2.24,2.24,0,0,1-2.54,1.92Z" fill="#666"/>
  <path d="M1057,410.57a2.24,2.24,0,1,1,2.73-1.64,2.25,2.25,0,0,1-2.73,1.64Z" fill="#666"/>
  <path d="M1032.39,344.6s21.81,22.53,10.23,62.41" fill="none" stroke="#666" stroke-miterlimit="10" stroke-width="1.5"/>
  <path d="M1102.49,304.25s-9.35,69.12,63.4,102.76c53.28,24.64,65.89-1.62,65.89-1.62" fill="none" stroke="#666" stroke-miterlimit="10" stroke-width="1.5"/>
  <path d="M1209.38,426.34s15.57-1.58,25.67-11.32" fill="none" stroke="#666" stroke-miterlimit="10" stroke-width="1.5"/>
  <path d="M1214.08,434.59s14.42-.53,24.53-10.27" fill="none" stroke="#666" stroke-miterlimit="10" stroke-width="1.5"/>
  <path d="M1217.55,443.31a31.9,31.9,0,0,0,22.79-8.72" fill="none" stroke="#666" stroke-miterlimit="10" stroke-width="1.5"/>
  <path d="M1222.21,451.38s10.58,1,20.68-8.72" fill="none" stroke="#666" stroke-miterlimit="10" stroke-width="1.5"/>
  <path d="M1224.71,458.68s8.58,2.8,18.68-6.93" fill="none" stroke="#666" stroke-miterlimit="10" stroke-width="1.5"/>
  <path d="M1228.27,465.9s6.55,2.55,16.65-7.19" fill="none" stroke="#666" stroke-miterlimit="10" stroke-width="1.5"/>
  <path d="M999.36,376.48c25.43,13.94,46.54,34.19,65,56.29s34.44,45.86,51.2,69.11c16.09,22.33,32.65,44.35,50.69,65.15,17.71,20.42,36.9,39.68,58.33,56.22,21.1,16.27,44.4,29.72,69.61,38.51q4.73,1.65,9.53,3.07a1.52,1.52,0,0,0,1.7-.68l6.81-11.25,4.33-7.14a19,19,0,0,0,2.48-4.92c1.18-4.57-1-8.4-4.47-11.18q-6-4.77-11.83-9.71a286,286,0,0,1-22.66-21.1c-13.64-14.33-25.49-31-30.93-50.21-6.56-23.23-1.41-47.47-2.1-71.16a231.89,231.89,0,0,0-13-70.2c-1-2.76-2-5.51-3.08-8.23a1.54,1.54,0,0,0-1.92-1,1.69,1.69,0,0,0-.28.12c-19.49,8.4-41.48,4.78-59.64-5.22a102.07,102.07,0,0,1-43.49-47.81c-6.32-14.09-10.09-29.22-12.33-44.46a1.49,1.49,0,0,0-1.84-1.05,266,266,0,0,0-30.4,11.66c-20.2,8.94-39.87,19.86-56.85,34.1-9.89,8.29-18.87,17.87-25.39,29.06a1.5,1.5,0,0,0,2.59,1.51c11.55-19.8,30.57-34.43,49.95-46a298.47,298.47,0,0,1,50.42-23.82c3.46-1.27,7-2.52,10.48-3.59l-1.85-1.05c3.77,25.67,12,51.57,29.3,71.43,14.2,16.32,34,29.13,55.71,32.27a64.22,64.22,0,0,0,34.86-4.41l-2.2-.9A230,230,0,0,1,1243.7,469a294.64,294.64,0,0,1-.29,36c-.67,12-1.18,24.05.95,35.92,3.44,19.23,13.41,36.45,25.84,51.27a222.52,222.52,0,0,0,21.06,21.6q5.6,5.07,11.4,9.9c2,1.66,4,3.32,6,5a62,62,0,0,1,5.69,4.65c4.58,4.67.14,10-2.44,14.3l-8.48,14-.58,1,1.69-.69c-25.65-7.65-49.52-20.18-71.16-35.86-21.94-15.89-41.54-34.84-59.56-55-18.36-20.55-35.13-42.46-51.33-64.74-16.69-23-32.52-46.59-50.3-68.75s-37.91-43.05-62.14-58.3q-4.51-2.83-9.19-5.39c-1.7-.93-3.21,1.66-1.52,2.59Z" fill="#16221d"/>
  <path d="M1130,287.64c14.74-1.16,28.17,8,39.62,17.35,37.93,31,109.86,151.08,125.88,122.22l.36-184.22a165.19,165.19,0,0,0-35.4-102.75Z" fill="#deb88c" stroke="#231815" stroke-linecap="round" stroke-linejoin="round" stroke-width="1.33"/>
  <path d="M984,401.64s72.24,64,94.21,90.79" fill="none" stroke="#16221d" stroke-miterlimit="10" stroke-width="1.5"/>
  <path d="M1148.29,267s60.8,25.34,80.65,62.24c20.82,38.69,35,58,66.94,69.22" fill="none" stroke="#16221d" stroke-miterlimit="10"/>
  <line x1="1248.68" y1="171.23" x2="1166.94" y2="261.95" fill="none" stroke="#16221d" stroke-miterlimit="10"/>
  <line x1="1278.21" y1="274.19" x2="1254.32" y2="327.93" fill="none" stroke="#16221d" stroke-miterlimit="10"/>
  <g opacity="0.09">
    <path d="M1249.75,320.75c-1.19-4.5-2.08-9.13-4.15-13.3-3.94-7.95-11.64-13.22-17.56-19.82-11.6-12.92-16.19-31.17-14.65-48.46s8.74-33.69,18.26-48.2c7.93-12.09,24.63-27.51,36.79-39.71q-3.76-5.67-8-11L1130,287.64c14.74-1.16,28.17,8,39.62,17.35,37.93,31,109.86,151.08,125.88,122.22l.09-47.16c-3.2-2-6.37-4-9.4-6.2A96.92,96.92,0,0,1,1249.75,320.75Z" fill="#16221d"/>
  </g>
</svg>
