<svg xmlns="http://www.w3.org/2000/svg" width="1366" height="768" viewBox="0 0 1366 768">
  <polygon points="775.73 0 419.31 328.74 419.31 658.48 1346.15 658.48 1346.15 0 775.73 0" fill="#5e2a15" stroke="#16221d" stroke-linecap="round" stroke-linejoin="round" stroke-width="1.5"/>
  <polygon points="795.58 0 439.16 328.74 439.16 658.48 1366 658.48 1366 0 795.58 0" fill="#7c3b25" stroke="#16221d" stroke-miterlimit="10" stroke-width="1.5"/>
  <rect x="690.15" y="316.11" width="21.16" height="92.79" fill="#16221d"/>
  <circle cx="701.3" cy="326.61" r="33.29" fill="#16221d"/>
  <rect x="701.3" y="316.11" width="10.01" height="92.79" fill="#16221d"/>
  <circle cx="708.12" cy="329.24" r="26.47" fill="#16221d"/>
  <g opacity="0.26">
    <path d="M727.17,445.27c-5.53-26.65,7.81-48.92,28.89-66.14,9.64-7.89,21.3-12.83,32.05-19.13,50.63-29.65,79.16-92.87,67.89-150.45,26.17,42.28,28.49,98.3,5.89,142.59-8,15.65-19.55,30.4-35.71,37.3C813.24,395,798.68,395,784.94,398a94.74,94.74,0,0,0-54,34.21c-4,5.15-5.7,15.12.75,16" fill="#5e2a15"/>
    <path d="M733.68,448.93a25.06,25.06,0,0,1,8.08-18.17,30.44,30.44,0,0,1,18.48-7.84c3.6-.27,7.43.1,10.38,2.17s4.68,6.2,3.09,9.44c-1.49,3.06-5.27,4.32-8.67,4.21s-6.68-1.24-10-1.63a23.26,23.26,0,0,0-22.32,11.33" fill="#5e2a15"/>
    <path d="M736.22,370.13c29.63-8.91,55.15-26.81,72.82-52.37,19.25-27.84,27.85-62.53,23.22-96-1.16-8.39-15.07-6.36-14.73,2,1.22,30.36-5.24,60.51-21.8,86.24a149.42,149.42,0,0,1-62,54.17c-3.4,1.56-1,7.05,2.53,6Z" fill="#5e2a15"/>
    <path d="M783.26,306.24c6.14-10,11.32-21.44,9.72-33.1-1.05-7.62-6.19-15.74-13.87-16.06-5.1-.2-9.78,3.2-12.63,7.43-4.72,7-5.34,16-4.72,24.43s2.3,16.84,1.61,25.27a45.69,45.69,0,0,1-22.63,35.37S763.48,338.52,783.26,306.24Z" fill="#5e2a15"/>
    <path d="M753.29,293.22c-3.52-8.23-10.89-13.49-15.9-20.66-9.25-13.24-13.23-30-9.72-45.86,3.24-14.64,13.66-31,30.07-32.21,7.47-.56,14.91,2.2,18.94,8.76,3.83,6.22,4.16,14.62.08,20.82-3.53,5.35-11.49,7.81-17,3.88-2.19-1.56-4.26-5.25-2.76-7.95.46-.81.65-.72,1.9-1,1.64-.4,1.5.56,1.75,1.05,4.33,8.37,16.53,1,12.55-7.33-4.78-10-19.33-11.12-26.79-3.57-8.75,8.86-5.61,23.91,3.49,31.14,8.79,7,21.76,7.57,31.32,1.72,9.95-6.1,15.37-18.34,14.47-29.8-.92-11.85-7.55-23.25-18.33-28.7s-23.91-5-34.72.33c-20.63,10.11-30.48,35.41-29,57.32.83,12.33,4.66,24.85,11.8,35a73.78,73.78,0,0,0,13.84,15c12.13,9.9,7.91,26.38,5.76,34.95-.61,2.46,3.19-4.19,6.7-10.15a25.23,25.23,0,0,0,1.68-22.5Z" fill="#5e2a15"/>
    <path d="M681,445.27c5.52-26.65-7.82-48.92-28.89-66.14-9.65-7.89-21.3-12.83-32.06-19.13-50.63-29.65-79.16-92.87-67.89-150.45-26.17,42.28-28.48,98.3-5.89,142.59,8,15.65,19.55,30.4,35.71,37.3C594.89,395,609.45,395,623.2,398a94.74,94.74,0,0,1,54,34.21c4,5.15,5.7,15.12-.75,16" fill="#5e2a15"/>
    <path d="M674.46,448.93a25.1,25.1,0,0,0-8.08-18.17,30.47,30.47,0,0,0-18.49-7.84c-3.6-.27-7.42.1-10.38,2.17s-4.68,6.2-3.09,9.44c1.49,3.06,5.28,4.32,8.67,4.21s6.68-1.24,10-1.63a23.25,23.25,0,0,1,22.32,11.33" fill="#5e2a15"/>
    <path d="M671.91,370.13c-29.63-8.91-55.15-26.81-72.82-52.37-19.25-27.84-27.85-62.53-23.22-96,1.16-8.39,15.07-6.36,14.73,2-1.22,30.36,5.24,60.51,21.8,86.24a149.37,149.37,0,0,0,62,54.17c3.4,1.56,1,7.05-2.53,6Z" fill="#5e2a15"/>
    <path d="M624.87,306.24c-6.14-10-11.32-21.44-9.72-33.1,1.05-7.62,6.19-15.74,13.87-16.06,5.1-.2,9.79,3.2,12.63,7.43,4.72,7,5.34,16,4.72,24.43s-2.3,16.84-1.61,25.27a45.69,45.69,0,0,0,22.63,35.37S644.65,338.52,624.87,306.24Z" fill="#5e2a15"/>
    <path d="M654.84,293.22c3.52-8.23,10.89-13.49,15.9-20.66,9.25-13.24,13.23-30,9.72-45.86-3.24-14.64-13.66-31-30.07-32.21-7.47-.56-14.91,2.2-18.94,8.76-3.83,6.22-4.16,14.62-.08,20.82,3.53,5.35,11.49,7.81,17,3.88,2.18-1.56,4.25-5.25,2.75-7.95-.46-.81-.65-.72-1.9-1-1.64-.4-1.49.56-1.75,1.05-4.33,8.37-16.53,1-12.55-7.33,4.79-10,19.33-11.12,26.79-3.57,8.75,8.86,5.61,23.91-3.49,31.14-8.79,7-21.76,7.57-31.32,1.72-10-6.1-15.37-18.34-14.47-29.8.92-11.85,7.56-23.25,18.33-28.7s23.91-5,34.72.33c20.63,10.11,30.48,35.41,29,57.32-.83,12.33-4.66,24.85-11.79,35a74.07,74.07,0,0,1-13.84,15c-12.14,9.9-7.91,26.38-5.77,34.95.62,2.46-3.19-4.19-6.69-10.15a25.23,25.23,0,0,1-1.68-22.5Z" fill="#5e2a15"/>
  </g>
</svg>
