<svg xmlns="http://www.w3.org/2000/svg" viewBox="0 0 58.7 58.7">
  <path d="M35.74,4.27c-1.27-.91-3,.2-4.5.5a10,10,0,0,1-2.68,0A20.19,20.19,0,0,0,18.12,6.93l-.46.24c.06.6.15,1.2.26,1.81a5.37,5.37,0,0,1-.08,2.36c-.41,1.41-1.09,2.73-1.49,4.13-.34,1.18,0,3-.74,3.54C13.88,20.4,15.17,21,16,21.6a7.77,7.77,0,0,1,3.23,5.11c.27,1.83,1.75,3.58,1.71,5.34-.09,3.14,1.67,4.64,3.9,6.08a37.46,37.46,0,0,1,4.87,3.43c2.28,2.07,3,5,3.82,7.88a1.29,1.29,0,0,1-.11,1A2.51,2.51,0,0,0,33.91,54L34,54l2.86.78c.43-1,.87-1.88,1.27-2.83a2.4,2.4,0,0,0,.31-1.14,19.6,19.6,0,0,1,0-7,4.29,4.29,0,0,1-2.33-1c-1-1.14-.66-3.61-2.15-3.62,1-1.36.13-3.24.27-4.9.21-2.55,2.63-4.24,4.81-5.57-2-1-2.64-3.63-2.29-5.84s1.4-4.29,1.71-6.51a3.52,3.52,0,0,1,.43-1.61,7.6,7.6,0,0,1,1.19-1c1.36-1.27,1-3.56,1.55-5.32a24,24,0,0,1-4.38-.74C35.84,7.19,34.75,5.33,35.74,4.27Z" fill="#fff"/>
</svg>
