<svg id="Layer_1" data-name="Layer 1" xmlns="http://www.w3.org/2000/svg" xmlns:xlink="http://www.w3.org/1999/xlink" viewBox="0 0 558.41 321.69"><defs><pattern id="新增圖樣色票_2" data-name="新增圖樣色票 2" width="871.45" height="899.06" patternTransform="matrix(0.75, 0, 0, -0.75, 1301.74, 20.77)" patternUnits="userSpaceOnUse" viewBox="0 0 871.45 899.06"><rect width="871.45" height="899.06" fill="none"/><rect width="871.45" height="899.06" fill="none"/><circle cx="88.93" cy="896.63" r="1.27" fill="#fff"/><circle cx="186.44" cy="841.28" r="1.27" fill="#fff"/><circle cx="310.18" cy="897.79" r="1.27" fill="#fff"/><circle cx="355.55" cy="815.14" r="1.27" fill="#fff"/><circle cx="389.39" cy="775.01" r="1.27" fill="#fff"/><circle cx="403.06" cy="890.66" r="1.27" fill="#fff"/><circle cx="627.12" cy="712.72" r="1.27" fill="#fff"/><circle cx="585.87" cy="788.39" r="1.27" fill="#fff"/><circle cx="842.23" cy="827.07" r="1.27" fill="#fff"/><circle cx="25.04" cy="709.2" r="1.27" fill="#fff"/><circle cx="130.09" cy="706.17" r="1.27" fill="#fff"/><circle cx="247.87" cy="703.17" r="1.27" fill="#fff"/><circle cx="349.82" cy="700.47" r="1.27" fill="#fff"/><circle cx="454.38" cy="845.54" r="1.27" fill="#fff"/><circle cx="540.14" cy="749.59" r="1.27" fill="#fff"/><circle cx="515.25" cy="821.97" r="1.27" fill="#fff"/><circle cx="660.28" cy="732.82" r="1.27" fill="#fff"/><circle cx="735.96" cy="709.55" r="1.27" fill="#fff"/><circle cx="1.27" cy="662.69" r="1.27" fill="#fff"/><circle cx="239.5" cy="714.07" r="1.27" fill="#fff"/><circle cx="144.33" cy="733.78" r="1.27" fill="#fff"/><circle cx="323.75" cy="605.5" r="1.27" fill="#fff"/><circle cx="334.44" cy="724.98" r="1.27" fill="#fff"/><circle cx="535.81" cy="769.12" r="1.27" fill="#fff"/><circle cx="611.05" cy="607.31" r="1.27" fill="#fff"/><circle cx="751.88" cy="653.66" r="1.27" fill="#fff"/><circle cx="662.16" cy="701.26" r="1.27" fill="#fff"/><circle cx="68.23" cy="526.63" r="1.27" fill="#fff"/><circle cx="272.26" cy="559.61" r="1.27" fill="#fff"/><circle cx="227.67" cy="667.86" r="1.27" fill="#fff"/><circle cx="369.27" cy="676.67" r="1.27" fill="#fff"/><circle cx="339.43" cy="613.62" r="1.27" fill="#fff"/><circle cx="458.33" cy="692.34" r="1.27" fill="#fff"/><circle cx="525.48" cy="500.41" r="1.27" fill="#fff"/><circle cx="655.45" cy="612.51" r="1.27" fill="#fff"/><circle cx="706.38" cy="496.35" r="1.27" fill="#fff"/><circle cx="156.19" cy="398.02" r="1.27" fill="#fff"/><circle cx="99.46" cy="473.65" r="1.27" fill="#fff"/><circle cx="312.14" cy="600.49" r="1.27" fill="#fff"/><circle cx="427.87" cy="461.23" r="1.27" fill="#fff"/><circle cx="498.11" cy="522.87" r="1.27" fill="#fff"/><circle cx="555.91" cy="621.66" r="1.27" fill="#fff"/><circle cx="618.11" cy="462.92" r="1.27" fill="#fff"/><circle cx="717.83" cy="552.31" r="1.27" fill="#fff"/><circle cx="703.76" cy="535.69" r="1.27" fill="#fff"/><circle cx="61.77" cy="383.45" r="1.27" fill="#fff"/><circle cx="184.33" cy="328.02" r="1.27" fill="#fff"/><circle cx="293.25" cy="444.08" r="1.27" fill="#fff"/><circle cx="357.44" cy="443.25" r="1.27" fill="#fff"/><circle cx="450.82" cy="424.6" r="1.27" fill="#fff"/><circle cx="438.04" cy="316.2" r="1.27" fill="#fff"/><circle cx="498.5" cy="410.24" r="1.27" fill="#fff"/><circle cx="644.01" cy="391.89" r="1.27" fill="#fff"/><circle cx="795.38" cy="468.72" r="1.27" fill="#fff"/><circle cx="29.56" cy="302.78" r="1.27" fill="#fff"/><circle cx="218" cy="392.23" r="1.27" fill="#fff"/><circle cx="246.05" cy="369.76" r="1.27" fill="#fff"/><circle cx="314.06" cy="459.47" r="1.27" fill="#fff"/><circle cx="422.59" cy="477.65" r="1.27" fill="#fff"/><circle cx="558.42" cy="324.42" r="1.27" fill="#fff"/><circle cx="516.46" cy="295.87" r="1.27" fill="#fff"/><circle cx="625.8" cy="449.58" r="1.27" fill="#fff"/><circle cx="765.12" cy="287.08" r="1.27" fill="#fff"/><circle cx="77.8" cy="197.66" r="1.27" fill="#fff"/><circle cx="192.16" cy="313.41" r="1.27" fill="#fff"/><circle cx="327.76" cy="262.87" r="1.27" fill="#fff"/><circle cx="398.4" cy="199.04" r="1.27" fill="#fff"/><circle cx="423" cy="348.91" r="1.27" fill="#fff"/><circle cx="516.18" cy="309.53" r="1.27" fill="#fff"/><circle cx="547.04" cy="272.64" r="1.27" fill="#fff"/><circle cx="650.06" cy="377.74" r="1.27" fill="#fff"/><circle cx="806.94" cy="423.52" r="1.27" fill="#fff"/><circle cx="57.49" cy="220.41" r="1.27" fill="#fff"/><circle cx="190.14" cy="127.51" r="1.27" fill="#fff"/><circle cx="159.13" cy="124.37" r="1.27" fill="#fff"/><circle cx="362.81" cy="194.56" r="1.27" fill="#fff"/><circle cx="471.01" cy="133.85" r="1.27" fill="#fff"/><circle cx="574.39" cy="291.95" r="1.27" fill="#fff"/><circle cx="605.84" cy="215.37" r="1.27" fill="#fff"/><circle cx="730.55" cy="254.98" r="1.27" fill="#fff"/><circle cx="796.42" cy="158.86" r="1.27" fill="#fff"/><circle cx="49.76" cy="192.42" r="1.27" fill="#fff"/><circle cx="214.21" cy="1.27" r="1.27" fill="#fff"/><circle cx="151.3" cy="221.74" r="1.27" fill="#fff"/><circle cx="293.45" cy="54.12" r="1.27" fill="#fff"/><circle cx="344.14" cy="23.28" r="1.27" fill="#fff"/><circle cx="457.8" cy="206.18" r="1.27" fill="#fff"/><circle cx="588.3" cy="63.97" r="1.27" fill="#fff"/><circle cx="652.18" cy="50.44" r="1.27" fill="#fff"/><circle cx="870.18" cy="180.42" r="1.27" fill="#fff"/></pattern><pattern id="新增圖樣色票_2-3" data-name="新增圖樣色票 2-3" width="871.45" height="899.06" patternTransform="matrix(0.75, 0, 0, -0.75, 824.85, 274.86)" patternUnits="userSpaceOnUse" viewBox="0 0 871.45 899.06"><rect width="871.45" height="899.06" fill="none"/><rect width="871.45" height="899.06" fill="none"/><circle cx="88.93" cy="896.63" r="1.27" fill="#fff"/><circle cx="186.44" cy="841.28" r="1.27" fill="#fff"/><circle cx="310.18" cy="897.79" r="1.27" fill="#fff"/><circle cx="355.55" cy="815.14" r="1.27" fill="#fff"/><circle cx="389.39" cy="775.01" r="1.27" fill="#fff"/><circle cx="403.06" cy="890.66" r="1.27" fill="#fff"/><circle cx="627.12" cy="712.72" r="1.27" fill="#fff"/><circle cx="585.87" cy="788.39" r="1.27" fill="#fff"/><circle cx="842.23" cy="827.07" r="1.27" fill="#fff"/><circle cx="25.04" cy="709.2" r="1.27" fill="#fff"/><circle cx="130.09" cy="706.17" r="1.27" fill="#fff"/><circle cx="247.87" cy="703.17" r="1.27" fill="#fff"/><circle cx="349.82" cy="700.47" r="1.27" fill="#fff"/><circle cx="454.38" cy="845.54" r="1.27" fill="#fff"/><circle cx="540.14" cy="749.59" r="1.27" fill="#fff"/><circle cx="515.25" cy="821.97" r="1.27" fill="#fff"/><circle cx="660.28" cy="732.82" r="1.27" fill="#fff"/><circle cx="735.96" cy="709.55" r="1.27" fill="#fff"/><circle cx="1.27" cy="662.69" r="1.27" fill="#fff"/><circle cx="239.5" cy="714.07" r="1.27" fill="#fff"/><circle cx="144.33" cy="733.78" r="1.27" fill="#fff"/><circle cx="323.75" cy="605.5" r="1.27" fill="#fff"/><circle cx="334.44" cy="724.98" r="1.27" fill="#fff"/><circle cx="535.81" cy="769.12" r="1.27" fill="#fff"/><circle cx="611.05" cy="607.31" r="1.27" fill="#fff"/><circle cx="751.88" cy="653.66" r="1.27" fill="#fff"/><circle cx="662.16" cy="701.26" r="1.27" fill="#fff"/><circle cx="68.23" cy="526.63" r="1.27" fill="#fff"/><circle cx="272.26" cy="559.61" r="1.27" fill="#fff"/><circle cx="227.67" cy="667.86" r="1.27" fill="#fff"/><circle cx="369.27" cy="676.67" r="1.27" fill="#fff"/><circle cx="339.43" cy="613.62" r="1.27" fill="#fff"/><circle cx="458.33" cy="692.34" r="1.27" fill="#fff"/><circle cx="525.48" cy="500.41" r="1.27" fill="#fff"/><circle cx="655.45" cy="612.51" r="1.27" fill="#fff"/><circle cx="706.38" cy="496.35" r="1.27" fill="#fff"/><circle cx="156.19" cy="398.02" r="1.27" fill="#fff"/><circle cx="99.46" cy="473.65" r="1.27" fill="#fff"/><circle cx="312.14" cy="600.49" r="1.27" fill="#fff"/><circle cx="427.87" cy="461.23" r="1.27" fill="#fff"/><circle cx="498.11" cy="522.87" r="1.27" fill="#fff"/><circle cx="555.91" cy="621.66" r="1.27" fill="#fff"/><circle cx="618.11" cy="462.92" r="1.27" fill="#fff"/><circle cx="717.83" cy="552.31" r="1.27" fill="#fff"/><circle cx="703.76" cy="535.69" r="1.27" fill="#fff"/><circle cx="61.77" cy="383.45" r="1.27" fill="#fff"/><circle cx="184.33" cy="328.02" r="1.27" fill="#fff"/><circle cx="293.25" cy="444.08" r="1.27" fill="#fff"/><circle cx="357.44" cy="443.25" r="1.27" fill="#fff"/><circle cx="450.82" cy="424.6" r="1.27" fill="#fff"/><circle cx="438.04" cy="316.2" r="1.27" fill="#fff"/><circle cx="498.5" cy="410.24" r="1.27" fill="#fff"/><circle cx="644.01" cy="391.89" r="1.27" fill="#fff"/><circle cx="795.38" cy="468.72" r="1.27" fill="#fff"/><circle cx="29.56" cy="302.78" r="1.27" fill="#fff"/><circle cx="218" cy="392.23" r="1.27" fill="#fff"/><circle cx="246.05" cy="369.76" r="1.27" fill="#fff"/><circle cx="314.06" cy="459.47" r="1.27" fill="#fff"/><circle cx="422.59" cy="477.65" r="1.27" fill="#fff"/><circle cx="558.42" cy="324.42" r="1.27" fill="#fff"/><circle cx="516.46" cy="295.87" r="1.27" fill="#fff"/><circle cx="625.8" cy="449.58" r="1.27" fill="#fff"/><circle cx="765.12" cy="287.08" r="1.27" fill="#fff"/><circle cx="77.8" cy="197.66" r="1.27" fill="#fff"/><circle cx="192.16" cy="313.41" r="1.27" fill="#fff"/><circle cx="327.76" cy="262.87" r="1.27" fill="#fff"/><circle cx="398.4" cy="199.04" r="1.27" fill="#fff"/><circle cx="423" cy="348.91" r="1.27" fill="#fff"/><circle cx="516.18" cy="309.53" r="1.27" fill="#fff"/><circle cx="547.04" cy="272.64" r="1.27" fill="#fff"/><circle cx="650.06" cy="377.74" r="1.27" fill="#fff"/><circle cx="806.94" cy="423.52" r="1.27" fill="#fff"/><circle cx="57.49" cy="220.41" r="1.27" fill="#fff"/><circle cx="190.14" cy="127.51" r="1.27" fill="#fff"/><circle cx="159.13" cy="124.37" r="1.27" fill="#fff"/><circle cx="362.81" cy="194.56" r="1.27" fill="#fff"/><circle cx="471.01" cy="133.85" r="1.27" fill="#fff"/><circle cx="574.39" cy="291.95" r="1.27" fill="#fff"/><circle cx="605.84" cy="215.37" r="1.27" fill="#fff"/><circle cx="730.55" cy="254.98" r="1.27" fill="#fff"/><circle cx="796.42" cy="158.86" r="1.27" fill="#fff"/><circle cx="49.76" cy="192.42" r="1.27" fill="#fff"/><circle cx="214.21" cy="1.27" r="1.27" fill="#fff"/><circle cx="151.3" cy="221.74" r="1.27" fill="#fff"/><circle cx="293.45" cy="54.12" r="1.27" fill="#fff"/><circle cx="344.14" cy="23.28" r="1.27" fill="#fff"/><circle cx="457.8" cy="206.18" r="1.27" fill="#fff"/><circle cx="588.3" cy="63.97" r="1.27" fill="#fff"/><circle cx="652.18" cy="50.44" r="1.27" fill="#fff"/><circle cx="870.18" cy="180.42" r="1.27" fill="#fff"/></pattern></defs><path d="M257.31.76h0c112.78,0,204.2,91.42,204.2,204.2v112.8H53.11V205C53.11,92.17,144.54.75,257.31.75h0Z" fill="#16221d"/><path d="M257.31.76h0c112.78,0,204.2,91.42,204.2,204.2v112.8H53.11V205C53.11,92.17,144.54.75,257.31.75h0Z" stroke-miterlimit="10" stroke-width="0.75" fill="url(#新增圖樣色票_2)" stroke="url(#新增圖樣色票_2-3)"/><path d="M257.31.76h0c-1.33,0-2.66,0-4,.05C364.24,2.94,453.51,93.51,453.51,205V317.76h8V205C461.51,92.18,370.08.76,257.31.76Z" fill="#5e2a15" stroke="#16221d" stroke-miterlimit="10" stroke-width="1.5"/><path d="M74.63,114.83c.4-9,5.52-17.23,10.66-25.28,32.78-51.36,96.52-76.2,103.77-77.12,2.84,13.65-46.19,71.77-57.15,78.08-16.92,9.75-36.84,27.13-57.28,24.32" fill="#e8a390" stroke="#16221d" stroke-linecap="round" stroke-linejoin="round" stroke-width="1.5"/><path d="M122.49,62.92A396.61,396.61,0,0,1,77.14,108" fill="none" stroke="#16221d" stroke-miterlimit="10" stroke-width="1.5"/><path d="M77,107.56a194.06,194.06,0,0,0,46.23-24.72" fill="none" stroke="#16221d" stroke-miterlimit="10" stroke-width="1.5"/><path d="M432,114.83c-.4-9-5.16-17.48-10.66-25.28-13-18.42-67.07-62.44-74.32-63.37-2.83,13.65-2.18,36.27,3.3,49.37,4.33,10.35,13.39,19.14,24.35,25.45,16.93,9.75,36.89,16.64,57.33,13.83" fill="#e8a390" stroke="#16221d" stroke-linecap="round" stroke-linejoin="round" stroke-width="1.5"/><path d="M384.15,62.92A397.42,397.42,0,0,0,429.5,108" fill="none" stroke="#16221d" stroke-miterlimit="10" stroke-width="1.5"/><path d="M429.63,107.56A194.25,194.25,0,0,1,383.4,82.84" fill="none" stroke="#16221d" stroke-miterlimit="10" stroke-width="1.5"/><path d="M557.25,284.25c2.8-6.38-9.54-11.3-13.53-13.35a82.87,82.87,0,0,0-12.31-5.14,25.56,25.56,0,0,0-4.78-1.28,1.43,1.43,0,0,0-.75-.41c-12.93-2.81-28.66-4.22-40.21,3.55-5,3.35-9,8.29-10.35,14.22-1,4.61-.23,10.41,4.31,12.87,3.14,1.7,6.84,1.19,10.25,1,4.32-.26,8.64-.57,13-.76,7.25-.33,14.52,1.83,21.67,0,6.15-1.58,11.66-5.08,17.86-6.49C546.87,287.41,554.87,289.68,557.25,284.25Z" fill="#f2e6d4" stroke="#16221d" stroke-miterlimit="10" stroke-width="1.5"/><path d="M257.31.76h0c112.78,0,204.2,91.42,204.2,204.2v112.8H53.11V205C53.11,92.17,144.54.75,257.31.75h0Z" fill="none" stroke="#16221d" stroke-miterlimit="10" stroke-width="1.5"/><path d="M75.94,113.48C56.83,137.7,54.6,170.65,45.28,200.06A179.15,179.15,0,0,1,1,272.61a170.5,170.5,0,0,0,77.12,47.63c3.3,1,7.87,1.27,9.19-1.92a7.06,7.06,0,0,0,.38-2.62q.47-21.76.92-43.51c1.11-52.48,2.11-105.85-11.93-156.44" fill="#e8a390" stroke="#16221d" stroke-linecap="round" stroke-linejoin="round" stroke-width="1.5"/><path d="M73.29,118c-7.87,40.91-9.7,85-33.25,119.38" fill="none" stroke="#16221d" stroke-miterlimit="10" stroke-width="1.5"/><path d="M77,148.79c.52,52.24-12.19,79.52-25.4,130.06" fill="none" stroke="#16221d" stroke-miterlimit="10" stroke-width="1.5"/><path d="M6.12,267.33s61,50,81.61,48.36c0,0,0,5.86-4.78,5.2S32.14,304.89,1,272.6Z" fill="#78493e" stroke="#16221d" stroke-miterlimit="10" stroke-width="1.5"/><path d="M430.7,113.48c19.11,24.22,21.34,57.17,30.66,86.58a179.22,179.22,0,0,0,44.27,72.54,170.45,170.45,0,0,1-77.12,47.63c-3.31,1-7.87,1.27-9.19-1.92a7.27,7.27,0,0,1-.38-2.62q-.46-21.76-.92-43.51C416.91,219.7,415.9,166.33,430,115.74" fill="#e8a390" stroke="#16221d" stroke-linecap="round" stroke-linejoin="round" stroke-width="1.5"/><path d="M433.35,118c7.87,40.91,9.7,85,33.25,119.38" fill="none" stroke="#16221d" stroke-miterlimit="10" stroke-width="1.5"/><path d="M429.63,148.79c-.52,52.24,12.18,79.52,25.4,130.06" fill="none" stroke="#16221d" stroke-miterlimit="10" stroke-width="1.5"/><path d="M500.52,267.33s-61,50-81.61,48.36c0,0,0,5.86,4.78,5.2s50.81-16,81.91-48.29Z" fill="#78493e" stroke="#16221d" stroke-miterlimit="10" stroke-width="1.5"/></svg>