<?xml version="1.0" encoding="utf-8"?>
<!-- Generator: Adobe Illustrator 24.1.2, SVG Export Plug-In . SVG Version: 6.00 Build 0)  -->
<svg version="1.1" id="Layer_1" xmlns="http://www.w3.org/2000/svg" xmlns:xlink="http://www.w3.org/1999/xlink" x="0px" y="0px"
	 viewBox="0 0 1367.8 401.2" style="enable-background:new 0 0 1367.8 401.2;" xml:space="preserve">
<style type="text/css">
	.st0{fill:none;}
	.st1{fill:#B05232;stroke:#16221D;stroke-width:1.104;stroke-miterlimit:10;}
	.st2{fill:#7C3B25;stroke:#16221D;stroke-width:1.654;stroke-miterlimit:10;}
	.st3{fill:#7C3B25;stroke:#16221D;stroke-width:2.035;stroke-miterlimit:10;}
	.st4{fill:#FCC013;stroke:#16221D;stroke-width:1.411;stroke-miterlimit:10;}
	.st5{fill:#E29C00;stroke:#16221D;stroke-width:1.5;stroke-miterlimit:10;}
	.st6{fill:#808080;stroke:#16221D;stroke-width:1.108;stroke-miterlimit:10;}
	.st7{fill:#16221D;stroke:#16221D;stroke-width:0.961;stroke-miterlimit:10;}
	.st8{fill:none;stroke:#16221D;stroke-width:1.5;stroke-miterlimit:10;}
	.st9{fill:none;stroke:#FFFFFF;stroke-width:1.108;stroke-miterlimit:10;}
	.st10{opacity:0.26;}
	.st11{fill:#5E2A15;}
	.st12{fill:#FCC013;stroke:#16221D;stroke-width:1.294;stroke-linecap:round;stroke-linejoin:round;}
	.st13{fill:#E29C00;stroke:#16221D;stroke-width:1.375;stroke-linecap:round;stroke-linejoin:round;}
	.st14{fill:#16221D;stroke:#16221D;stroke-width:0.96;stroke-miterlimit:10;}
	.st15{fill:none;stroke:#16221D;stroke-width:1.434;stroke-miterlimit:10;}
</style>
<g id="Layer_2_1_">
	<rect x="0.5" y="-5094.9" class="st0" width="1366" height="7422.1"/>
</g>
<g id="Layer_1_1_">
	<polygon class="st1" points="1197.7,-116.1 1139.7,-89 1118.3,-116.1 851,138 829,143.4 829,243.6 743.3,243.6 743.3,304.8 
		869.4,303.9 1180.6,-37.1 1275.5,-37.1 1275.5,-116.1 	"/>
	<polygon class="st2" points="829,158.9 939.5,157.6 939.2,136.9 829,138.2 	"/>
	<polygon class="st2" points="916.2,75 1026.3,73.7 1026.1,53 915.9,54.3 	"/>
	<polygon class="st2" points="894.5,96 1004.6,94.7 1004.4,74 894.2,75.3 	"/>
	<polygon class="st2" points="872.7,117 982.9,115.7 982.6,94.9 872.5,96.3 	"/>
	<polygon class="st2" points="851,138 961.2,136.6 960.9,115.9 850.8,117.2 	"/>
	<polygon class="st2" points="743.3,243.6 853.8,242.3 853.5,221.6 743.3,222.9 	"/>
	<polygon class="st2" points="713.8,265.2 824.3,263.9 824.1,243.1 713.8,244.4 	"/>
	<polygon class="st2" points="689.1,286.2 799.6,284.9 799.3,264.2 689.1,265.5 	"/>
	<polygon class="st3" points="654.6,304.9 765.1,303.6 764.9,284.8 654.6,286.1 	"/>
	<polygon class="st2" points="808.8,180.7 918.9,179.4 918.7,158.6 808.5,160 	"/>
	<polygon class="st2" points="787.1,201.7 897.2,200.4 897,179.6 786.8,180.9 	"/>
	<polygon class="st2" points="765.4,222.6 875.5,221.3 875.3,200.6 765.1,201.9 	"/>
	<polygon class="st2" points="935,53 1045.5,51.7 1045.3,30.9 935,32.3 	"/>
	<polygon class="st2" points="978.8,11 1088.9,9.7 1088.7,-11 978.6,-9.7 	"/>
	<polygon class="st2" points="957.1,32 1067.2,30.7 1067,10 956.9,11.3 	"/>
	<path class="st4" d="M1234.5,127.4c-23.9-13.8-52.2-9.6-63.2,9.5l-117.9,121.9l89.6,66.9c0,0,113-135.6,114.8-138.8
		C1268.9,167.9,1258.4,141.2,1234.5,127.4z"/>
	<path class="st5" d="M1067.7,244c0,0,27.7-14.8,61.3,7.4c29.3,19.3,31.2,46.7,26.4,58.9l-8.9,10.5l-89.8-65.3L1067.7,244z"/>
	<ellipse transform="matrix(0.5 -0.866 0.866 0.5 295.4052 1097.1201)" class="st5" cx="1097.8" cy="292.7" rx="44.7" ry="56.2"/>
	<ellipse transform="matrix(0.5 -0.866 0.866 0.5 295.4052 1097.1201)" class="st6" cx="1097.8" cy="292.7" rx="33" ry="41.5"/>
	<ellipse transform="matrix(0.5 -0.866 0.866 0.5 295.4052 1097.1201)" class="st7" cx="1097.8" cy="292.7" rx="28.7" ry="36"/>
	<path class="st8" d="M1103.4,208.5c0,0,27.7-14.8,61.3,7.4c29.3,19.3,31.2,46.7,26.4,58.9"/>
	<path class="st5" d="M1234.5,127.4c-23.9-13.8-52.2-9.6-63.2,9.5c6.6-6,15-9.4,23.9-9.7c14.6-0.4,31.6,1,49.3,19.9
		s11.5,37.6,9.5,44.9c2.4-2.9,3.8-4.7,4-5.1C1268.9,167.9,1258.4,141.2,1234.5,127.4z"/>
	<path class="st9" d="M1073.9,275.7c0,0-8.3,21.6,11.9,34.6"/>
	<path class="st9" d="M1110.6,273.6c10.5,6.4,16.7,18.1,16.2,30.4"/>
	<g class="st10">
		<path class="st11" d="M1202.2,234.3c-7.3-5-9.1-13.3-8-22.1c0.5-4,2.1-7.8,3.3-11.7c5.3-18.4-2.2-39.7-17.8-50.7
			c15.9,4.3,28.5,16.5,33.4,32.3c1.6,5.5,2.2,11.6,0,16.8c-1.8,4.2-5.2,7.5-7.8,11.3c-4,5.9-5.8,13.1-5.1,20.2
			c0.2,2.1,2.1,4.8,3.8,3.6"/>
		<path class="st11" d="M1204.5,233.7c-1.5-1.6-2.3-3.9-2.2-6.1c0.2-2.2,1.1-4.4,2.6-6c0.7-0.9,1.8-1.6,2.9-1.8
			c1.2-0.2,2.4,0.4,2.9,1.5c0.2,1.1-0.2,2.3-1.1,2.9c-0.8,0.7-1.9,1.2-2.7,1.9c-2.3,1.8-3.4,4.8-2.7,7.7"/>
		<path class="st11" d="M1187.4,214.5c5-8.7,6.9-18.8,5.4-28.7c-1.7-11-7.5-20.9-16.1-27.9c-2.2-1.7-5,1.9-3,3.8
			c7.1,6.9,12.4,15.4,14.2,25.2c1.7,9,0.8,18.2-2.5,26.7C1185.1,214.8,1186.9,215.5,1187.4,214.5L1187.4,214.5z"/>
		<path class="st11" d="M1184.2,188.9c-0.8-3.7-2.1-7.6-5.1-10c-2-1.6-5-2.3-6.9-0.7c-1.2,1.2-1.7,2.9-1.3,4.6
			c0.5,2.7,2.3,5,4.4,6.8s4.3,3.5,6.1,5.6c3,3.8,4,8.8,2.6,13.4C1183.9,208.6,1186.8,200.9,1184.2,188.9z"/>
		<path class="st11" d="M1174.2,192.5c-2.7-1.2-5.6-0.7-8.4-1.3c-5.2-1-9.8-4.1-12.6-8.6c-2.5-4.2-3.7-10.4-0.1-14.4
			c2.2-2.7,6.2-3.2,8.9-1c1.2,0.9,2,2.2,2.2,3.7c0.4,2.2-1,4.3-3.1,4.7c-0.9,0.1-2.2-0.3-2.4-1.3c-0.1-0.3,0-0.3,0.2-0.7
			c0.3-0.5,0.5-0.2,0.6-0.1c2.9,1,4.1-3.5,1.3-4.5c-3.4-1.3-7.1,1.7-7.1,5.2c-0.1,4.1,4,6.9,7.8,6.6c3.7-0.4,6.8-3,7.8-6.6
			c0.9-3.8-0.4-7.7-3.3-10.3c-2.9-2.7-7-3.7-10.8-2.7c-3.8,1.2-6.8,4.1-8.1,7.9c-2.6,7,0.8,15.2,6,20c3,2.8,6.7,4.7,10.6,5.6
			c2.2,0.4,4.4,0.6,6.6,0.4c5.1-0.4,7.8,4.4,9.2,6.9c0.4,0.7-0.2-1.7-0.7-3.9C1178.4,195.7,1176.6,193.6,1174.2,192.5L1174.2,192.5z
			"/>
		<path class="st11" d="M1232.4,180.4c2.1-3.2,4-6.8,3.6-10.6c-0.2-2.5-1.8-5.2-4.3-5.4c-1.7,0-3.3,0.8-4.2,2.2
			c-1.6,2.2-2,5.1-1.9,7.9s0.5,5.5,0.2,8.2c-0.6,4.8-3.6,9-7.9,11.2C1217.9,193.9,1225.5,190.7,1232.4,180.4z"/>
		<path class="st11" d="M1222.8,175.8c-1-2.7-3.4-4.5-4.9-6.9c-2.9-4.5-3.8-9.9-2.5-15.1c1.3-4.7,4.9-9.9,10.2-10.1
			c3.5-0.3,6.6,2.2,6.9,5.7c0.1,1.5-0.3,3-1.1,4.2c-1.3,1.8-3.8,2.3-5.6,1c-0.8-0.6-1.2-1.7-0.8-2.6c0.2-0.3,0.2-0.2,0.6-0.3
			c0.5-0.1,0.5,0.2,0.6,0.4c1.3,2.8,5.4,0.6,4.2-2.2c-1.4-3.3-6.1-3.9-8.7-1.5c-3,2.8-2.2,7.7,0.7,10.2c2.9,2.4,6.9,2.8,10.2,1
			c3.3-2,5.3-5.6,5.1-9.5c-0.1-3.9-2.2-7.6-5.6-9.6c-3.5-1.9-7.7-2-11.3-0.4c-6.9,3-10.4,11.1-10.2,18.3c0.1,4.1,1.2,8.1,3.4,11.6
			c1.2,1.9,2.6,3.6,4.3,5.1c3.8,3.4,2.2,8.7,1.4,11.5c-0.2,0.8,1.1-1.3,2.3-3.2C1223.4,181,1223.7,178.3,1222.8,175.8L1222.8,175.8z
			"/>
		<path class="st11" d="M1191.3,244.6c-4.7-7.5-12.8-9.8-21.7-9.1c-4,0.3-7.9,1.8-11.9,2.7c-18.6,4.4-39.5-4.1-49.8-20.2
			c3.6,16.1,15.1,29.3,30.6,35c5.4,1.9,11.4,2.8,16.8,0.8c4.3-1.6,7.7-4.9,11.6-7.3c6.1-3.7,13.4-5.1,20.4-4.1
			c2.1,0.3,4.7,2.3,3.4,3.9"/>
		<path class="st11" d="M1190.6,247c-1.6-1.6-3.7-2.5-6-2.5c-2.2,0.1-4.4,0.9-6.1,2.3c-1,0.7-1.7,1.7-2,2.8
			c-0.3,1.2,0.3,2.4,1.4,2.9c1.1,0.3,2.3-0.1,3-1c0.8-0.8,1.3-1.8,2-2.6c1.9-2.2,5-3.1,7.8-2.3"/>
		<path class="st11" d="M1172.3,228.9c-8.9,4.6-19.1,6-28.9,4c-10.9-2.3-20.5-8.5-27-17.4c-1.6-2.2,2.1-4.9,3.9-2.8
			c6.5,7.4,14.8,13.1,24.5,15.4c8.9,2.1,18.2,1.7,26.8-1.2C1172.7,226.6,1173.3,228.4,1172.3,228.9L1172.3,228.9z"/>
		<path class="st11" d="M1146.8,224.4c-3.7-1-7.5-2.5-9.7-5.6c-1.5-2-2.1-5.1-0.3-6.9c1.3-1.1,3-1.5,4.6-1.1
			c2.7,0.6,4.9,2.6,6.6,4.7s3.2,4.5,5.3,6.3c3.6,3.2,8.6,4.4,13.3,3.3C1166.6,225.1,1158.7,227.6,1146.8,224.4z"/>
		<path class="st11" d="M1151,214.6c-1-2.7-0.5-5.6-0.9-8.4c-0.7-5.3-3.6-10-8-13c-4.1-2.7-10.2-4.2-14.3-0.8c-2.8,2-3.5,6-1.4,8.8
			c0.9,1.2,2.1,2.1,3.6,2.4c2.2,0.5,4.3-0.8,4.9-2.9c0.2-1-0.2-2-1.1-2.5c-0.3-0.1-0.3,0-0.7,0.2c-0.5,0.3-0.2,0.5-0.2,0.6
			c0.9,2.9-3.7,4-4.6,1.1c-1.1-3.4,2.1-7,5.5-6.9c4.1,0.1,6.7,4.4,6.2,8.1c-0.6,3.7-3.4,6.6-7,7.4c-3.8,0.7-7.7-0.8-10.1-3.8
			c-2.5-3-3.3-7.1-2.1-10.9c1.4-3.7,4.5-6.6,8.3-7.7c7.1-2.2,15.1,1.5,19.7,7c2.6,3.1,4.4,6.9,5.1,10.9c0.3,2.2,0.4,4.4,0.1,6.6
			c-0.6,5.1,4.1,8,6.5,9.5c0.7,0.4-1.7-0.3-3.9-0.9C1154,218.9,1151.9,217.1,1151,214.6L1151,214.6z"/>
	</g>
	<path class="st12" d="M1222.7,202.9l-52.4,66.4c0,0,71-8.1,118.3,25.9l41.7-73.7c0,0-69.1-2.5-94.4-20.5
		C1231.7,198.1,1225.9,198.8,1222.7,202.9z"/>
	<path class="st13" d="M1170.2,269.3v7.5c0,0,71.6-5.2,116,22.9l2.3-4.5C1288.5,295.3,1244.2,261.6,1170.2,269.3z"/>
	<path class="st4" d="M1377.6,166.1c-26-9.4-53.1-0.3-60.6,20.3l-94.9,140.5l99.9,50.3c0,0,87.7-153.2,89-156.6
		C1418.5,200,1403.6,175.6,1377.6,166.1z"/>
	<path class="st5" d="M1236.5,305.7c0,0,23.1-17.2,59.5-0.1c31.8,15,37.5,41.7,34.5,54.6l-7.3,11.7l-96.5-50.9L1236.5,305.7z"/>
	
		<ellipse transform="matrix(0.342 -0.9397 0.9397 0.342 505.4644 1427.1099)" class="st5" cx="1271.8" cy="352.6" rx="44.7" ry="56.2"/>
	
		<ellipse transform="matrix(0.342 -0.9397 0.9397 0.342 505.4644 1427.1099)" class="st6" cx="1271.8" cy="352.6" rx="33" ry="41.5"/>
	
		<ellipse transform="matrix(0.342 -0.9397 0.9397 0.342 505.4644 1427.1099)" class="st14" cx="1271.8" cy="352.6" rx="28.6" ry="35.9"/>
	<path class="st15" d="M1271.1,255.1c0,0,24.1-17.9,59-1.6c30.4,14.2,36.1,39.7,33.2,52"/>
	<path class="st9" d="M1246.1,336.4c0,0-8.3,21.6,11.9,34.6"/>
	<path class="st9" d="M1282.9,334.3c10.5,6.4,16.7,18.1,16.2,30.4"/>
	<path class="st5" d="M1379.6,165.7c-25.6-10.4-53-2.4-61.4,18c5.7-6.8,13.6-11.3,22.3-12.9c14.4-2.3,31.5-3.3,51.5,13.1
		s16.4,35.7,15.5,43.2c1.9-3.2,3.1-5.2,3.3-5.5C1419.2,201.1,1405.2,176.2,1379.6,165.7z"/>
	<g class="st10">
		<path class="st11" d="M1291.6,224.3c8.5,4.2,11.7,12.7,11.9,22.2c0.1,4.3-1.1,8.6-1.7,12.9c-2.8,20.3,8.4,41.7,26.6,51.1
			c-17.6-2.2-32.8-13.2-40.4-29.2c-2.6-5.6-4.1-11.9-2.5-17.8c1.3-4.7,4.4-8.7,6.6-13.2c3.3-6.9,4.1-14.8,2.3-22.2
			c-0.6-2.2-2.9-4.8-4.6-3.3"/>
		<path class="st11" d="M1289.2,225.3c1.9,1.5,3.1,3.7,3.2,6.1c0.2,2.4-0.5,4.8-1.8,6.8c-0.6,1.1-1.6,1.9-2.8,2.4
			c-1.2,0.4-2.6-0.1-3.3-1.2c-0.4-1.1-0.1-2.4,0.7-3.3c0.8-0.9,1.8-1.6,2.6-2.4c2.2-2.3,2.9-5.6,1.7-8.6"/>
		<path class="st11" d="M1310.3,243c-4,10-4.5,21-1.4,31.3c3.5,11.4,11.1,21,21.3,27.1c2.6,1.5,5-2.8,2.6-4.5
			c-8.6-6.2-15.5-14.5-18.9-24.6c-3.2-9.2-3.7-19.2-1.5-28.7C1312.8,242.4,1310.8,241.8,1310.3,243L1310.3,243z"/>
		<path class="st11" d="M1317.7,269.7c1.4,3.9,3.4,7.7,7,9.8c2.3,1.4,5.7,1.7,7.4-0.3c1.1-1.5,1.3-3.4,0.7-5.1
			c-0.9-2.8-3.2-4.9-5.7-6.6s-5.1-3-7.3-5c-3.8-3.6-5.6-8.7-4.8-13.8C1315,248.7,1313.1,257.3,1317.7,269.7z"/>
		<path class="st11" d="M1327.7,264.3c3,0.8,6-0.1,9.1,0.1c5.7,0.3,11,2.9,14.7,7.2c3.3,4,5.6,10.4,2.3,15.2c-1.9,3.2-6,4.3-9.3,2.4
			c-1.4-0.8-2.4-2.1-2.9-3.6c-0.8-2.2,0.4-4.7,2.6-5.5c0.9-0.3,2.4,0,2.8,1c0.1,0.3,0.1,0.3-0.1,0.7c-0.2,0.5-0.5,0.3-0.7,0.3
			c-3.2-0.6-3.8,4.3-0.7,5c3.8,0.9,7.2-2.9,6.8-6.6c-0.5-4.3-5.3-6.7-9.3-5.8c-3.9,1-6.7,4.3-7.2,8.2c-0.3,4.1,1.6,8.1,5,10.4
			c3.5,2.4,7.9,2.8,11.8,1.2c3.8-1.9,6.6-5.4,7.4-9.6c1.7-7.8-3.1-16-9.5-20.3c-3.6-2.5-7.8-4-12.1-4.3c-2.4-0.1-4.8,0-7.1,0.6
			c-5.3,1.2-8.9-3.5-10.8-6c-0.5-0.7,0.5,1.8,1.3,4C1322.8,261.6,1325,263.5,1327.7,264.3L1327.7,264.3z"/>
		<path class="st11" d="M1301.6,211.7c6.1,7.3,15.1,8.4,24.4,6.4c4.2-0.9,8.1-3.1,12.2-4.7c19.1-7.5,42.5-1.7,55.9,13.9
			c-6.2-16.6-20.5-28.8-37.8-32.4c-6-1.2-12.6-1.2-17.9,1.7c-4.3,2.4-7.4,6.4-11.2,9.5c-5.9,4.8-13.4,7.5-21,7.4
			c-2.3,0-5.4-1.7-4.2-3.7"/>
		<path class="st11" d="M1302,209.1c1.9,1.5,4.3,2.1,6.7,1.7c2.4-0.4,4.5-1.6,6.1-3.4c0.9-0.9,1.5-2.1,1.6-3.3
			c0.1-1.3-0.7-2.5-1.9-2.9c-1.2-0.1-2.4,0.4-3,1.5c-0.7,1-1.1,2.1-1.7,3.1c-1.7,2.7-4.8,4.1-7.9,3.7"/>
		<path class="st11" d="M1324.2,225.4c8.7-6.2,19.4-9.3,30.1-8.7c11.9,0.7,23,5.8,31.3,14.4c2,2.1-1.5,5.5-3.7,3.6
			c-8.1-6.9-17.7-11.6-28.4-12.6c-9.7-0.9-19.5,0.9-28.2,5.3C1324.1,228,1323.1,226.1,1324.2,225.4L1324.2,225.4z"/>
		<path class="st11" d="M1351.8,226.3c4.1,0.5,8.3,1.5,11.2,4.5c1.9,1.9,3,5.1,1.4,7.3c-1.2,1.4-3,2.1-4.8,1.9c-2.9-0.2-5.5-2-7.7-4
			s-4.1-4.3-6.6-5.9c-4.3-2.8-9.8-3.3-14.6-1.4C1330.8,228.6,1338.7,224.8,1351.8,226.3z"/>
		<path class="st11" d="M1348.9,237.3c1.5,2.7,1.4,5.9,2.2,8.8c1.6,5.5,5.4,10,10.5,12.6c4.7,2.3,11.4,2.9,15.3-1.3
			c2.7-2.6,2.8-6.9,0.2-9.6c-1.1-1.1-2.6-1.9-4.2-2c-2.4-0.2-4.5,1.5-4.7,3.8c0,0.9,0.5,2.3,1.6,2.5c0.3,0.1,0.3,0,0.7-0.3
			c0.5-0.4,0.2-0.5,0.1-0.7c-1.4-3,3.3-4.8,4.7-1.9c1.7,3.5-1.1,7.7-4.8,8.1c-4.3,0.5-7.8-3.6-7.8-7.7c0.1-4,2.6-7.5,6.3-9
			c3.9-1.3,8.3-0.4,11.3,2.5c3.2,2.8,4.6,7.1,3.9,11.2c-0.9,4.2-3.7,7.6-7.6,9.4c-7.2,3.5-16.3,0.7-22-4.4
			c-3.3-2.9-5.7-6.6-7.1-10.8c-0.7-2.3-1.1-4.6-1.1-7c-0.1-5.5-5.5-7.9-8.3-9.1c-0.8-0.4,1.8,0,4.2,0.4
			C1345.1,233.2,1347.5,234.8,1348.9,237.3L1348.9,237.3z"/>
	</g>
	<line class="st9" x1="1173.1" y1="143.4" x2="1121.1" y2="198.7"/>
	<line class="st9" x1="1277.7" y1="256.8" x2="1251.8" y2="295.4"/>
	<path class="st9" d="M1186.2,257.4c0,0,61.7,2.6,71.8,13.5"/>
	<g class="st10">
		<path class="st11" d="M1205.6,241.4c4.8-9.6,12.8-17.2,22.6-21.7c10.8-4.9,23.1-5.6,34.4-1.9c2.8,0.9,1.2,5.6-1.6,4.9
			c-10.3-2.3-21.1-2-31,2c-9,3.7-16.8,9.9-22.5,17.9C1206.8,243.8,1205,242.6,1205.6,241.4L1205.6,241.4z"/>
		<path class="st11" d="M1230.5,229.4c3.8-1.5,8.1-2.5,12-1.2c2.5,0.8,5,3.1,4.6,5.8c-0.4,1.8-1.6,3.2-3.3,3.9
			c-2.7,1.2-5.8,0.8-8.7,0.1s-5.6-1.9-8.6-2.2c-5.2-0.5-10.2,1.6-13.6,5.5C1212.9,241.2,1218.2,234.1,1230.5,229.4z"/>
		<path class="st11" d="M1233.1,240.5c2.6,1.7,3.9,4.6,6.1,6.8c4,4.1,9.4,6.3,15.1,6.2c5.2-0.2,11.5-2.7,13-8.3
			c1.2-3.6-0.8-7.4-4.3-8.5c-1.5-0.5-3.2-0.4-4.6,0.1c-2.2,0.9-3.3,3.4-2.4,5.6c0.4,0.8,1.5,1.8,2.6,1.4c0.3-0.1,0.3-0.2,0.5-0.6
			c0.2-0.5-0.1-0.5-0.2-0.7c-2.6-2,0.7-5.7,3.3-3.8c3.1,2.3,2.6,7.3-0.5,9.4c-3.6,2.4-8.6,0.4-10.5-3.2c-1.8-3.6-1.3-7.9,1.4-10.9
			c2.9-3,7.1-4.2,11.1-3.1c4.1,1,7.4,4.1,8.7,8.1c1.1,4.1,0.3,8.5-2.3,11.9c-4.8,6.4-14.1,8.2-21.5,6.3c-4.3-1-8.1-3.2-11.3-6.3
			c-1.7-1.7-3.1-3.6-4.3-5.7c-2.6-4.8-8.6-4.4-11.6-4.2c-0.9,0.1,1.6-0.8,3.9-1.7C1227.8,238.6,1230.7,238.9,1233.1,240.5
			L1233.1,240.5z"/>
	</g>
</g>
</svg>
