<svg xmlns="http://www.w3.org/2000/svg" xmlns:xlink="http://www.w3.org/1999/xlink" viewBox="0 0 1372.079 339.597"><defs><clipPath id="clip-path"><polygon points="1282.674 313.879 1327.911 330.768 1327.911 167.488 1284.251 167.488 1282.674 313.879" fill="none"/></clipPath></defs><g id="Layer_1" data-name="Layer 1"><polygon points="1271.98 313.786 1327.911 334.651 1327.911 330.768 1282.674 313.879 1271.98 313.786" fill="#d3bccb" stroke="#0c0007" stroke-linecap="round" stroke-linejoin="round" stroke-width="1.498"/><polygon points="1284.251 167.488 1273.462 167.488 1271.885 313.751 1271.98 313.786 1282.674 313.879 1284.251 167.488" fill="#f7d9e8" stroke="#0c0007" stroke-linecap="round" stroke-linejoin="round" stroke-width="1.498"/><g clip-path="url(#clip-path)"><polygon points="1282.674 313.879 1327.911 330.768 1327.911 167.488 1284.251 167.488 1282.674 313.879" fill="#2a3631" stroke="#16221d" stroke-miterlimit="10" stroke-width="1.498"/></g><polygon points="1282.674 313.879 1327.911 330.768 1327.911 167.488 1284.251 167.488 1282.674 313.879" fill="none" stroke="#16221d" stroke-miterlimit="10" stroke-width="1.498"/><polygon points="1314.87 165.482 1157.045 15.436 1144.392 31.473 1110.142 15.468 1064.2 15.468 1064.2 62.084 1120.24 62.084 1327.911 275.009 1327.911 168.71 1314.87 165.482" fill="#b05232" stroke="#16221d" stroke-miterlimit="10"/><polygon points="1327.911 177.873 1262.657 177.099 1262.782 164.862 1327.911 165.636 1327.911 177.873" fill="#7c3b25" stroke="#16221d" stroke-miterlimit="10" stroke-width="1.498"/><polygon points="1276.414 128.308 1211.382 127.534 1211.508 115.297 1276.54 116.071 1276.414 128.308" fill="#7c3b25" stroke="#16221d" stroke-miterlimit="10" stroke-width="1.498"/><polygon points="1289.233 140.7 1224.201 139.925 1224.327 127.688 1289.358 128.463 1289.233 140.7" fill="#7c3b25" stroke="#16221d" stroke-miterlimit="10" stroke-width="1.498"/><polygon points="1302.051 153.091 1237.02 152.316 1237.145 140.079 1302.177 140.854 1302.051 153.091" fill="#7c3b25" stroke="#16221d" stroke-miterlimit="10" stroke-width="1.498"/><polygon points="1314.87 165.482 1249.838 164.707 1249.964 152.47 1314.996 153.245 1314.87 165.482" fill="#7c3b25" stroke="#16221d" stroke-miterlimit="10" stroke-width="1.498"/><polygon points="1265.263 115.297 1200.009 114.522 1200.134 102.285 1265.263 103.06 1265.263 115.297" fill="#7c3b25" stroke="#16221d" stroke-miterlimit="10" stroke-width="1.498"/><polygon points="1213.766 65.732 1148.735 64.958 1148.86 52.72 1213.892 53.495 1213.766 65.732" fill="#7c3b25" stroke="#16221d" stroke-miterlimit="10" stroke-width="1.498"/><polygon points="1226.585 78.123 1161.553 77.349 1161.679 65.112 1226.711 65.886 1226.585 78.123" fill="#7c3b25" stroke="#16221d" stroke-miterlimit="10" stroke-width="1.498"/><polygon points="1239.404 90.514 1174.372 89.74 1174.497 77.503 1239.529 78.277 1239.404 90.514" fill="#7c3b25" stroke="#16221d" stroke-miterlimit="10" stroke-width="1.498"/><polygon points="1252.222 102.906 1187.19 102.131 1187.316 89.894 1252.348 90.669 1252.222 102.906" fill="#7c3b25" stroke="#16221d" stroke-miterlimit="10" stroke-width="1.498"/><polygon points="1175.049 28.479 1110.017 27.705 1110.142 15.468 1175.174 16.242 1175.049 28.479" fill="#7c3b25" stroke="#16221d" stroke-miterlimit="10" stroke-width="1.498"/><polygon points="1187.867 40.87 1122.835 40.096 1122.961 27.859 1187.993 28.633 1187.867 40.87" fill="#7c3b25" stroke="#16221d" stroke-miterlimit="10" stroke-width="1.498"/><polygon points="1200.686 53.262 1135.654 52.487 1135.78 40.25 1200.812 41.025 1200.686 53.262" fill="#7c3b25" stroke="#16221d" stroke-miterlimit="10" stroke-width="1.498"/></g></svg>