<svg id="Layer_1" data-name="Layer 1" xmlns="http://www.w3.org/2000/svg" viewBox="0 0 434.39 316.82"><path d="M151,232,130.56,220C137.14,224.38,143.89,228.75,151,232Z" fill="none"/><path d="M127.41,218a6.56,6.56,0,0,0-2.31-1.1l5.43,3.16Z" fill="none"/><path d="M125.1,216.86a2.62,2.62,0,0,0-.79,0,5,5,0,0,0-2.87,2l-17.09,19.07A158.12,158.12,0,0,0,151,232.05h0c-7.14-3.21-13.89-7.58-20.5-11.94Z" fill="#f2e6d4" stroke="#16221d" stroke-miterlimit="10" stroke-width="1.5"/><path d="M194.46,195.1a103.44,103.44,0,0,1-26.14,11.23c-14.28,4.15-29.06,6.36-43.35,10.45l.13.08a6.56,6.56,0,0,1,2.31,1.1l3.12,2.06L151,232a56.28,56.28,0,0,0,14.92,4.5A117.1,117.1,0,0,0,194.46,195.1Z" fill="#f2e6d4" stroke="#16221d" stroke-miterlimit="10" stroke-width="1.5"/><path d="M194.46,195.1A117.1,117.1,0,0,1,166,236.46l1,.15c3.57.44,7.3.42,10.61-1,4.63-2,7.76-6.3,10.45-10.55A178.3,178.3,0,0,0,206.88,185,63.54,63.54,0,0,1,194.46,195.1Z" fill="#f2e6d4" stroke="#16221d" stroke-miterlimit="10" stroke-width="1.5"/><path d="M10.44,297.51A109.13,109.13,0,0,0,62.07,315.9a17.89,17.89,0,0,0,6.56-.32c2.72-.8,4.94-2.74,7-4.72,10.1-9.91,17.79-22.21,28.75-31.15a64,64,0,0,1,25-12.52c-18.17-5.43-37.93-.57-56.56-4.1C53.45,259.42,35,246.76,15.65,250.72a5.36,5.36,0,0,0-3.09,1.44,5.78,5.78,0,0,0-1,3.72q-.69,20.63-.44,41.26" fill="#f2e6d4" stroke="#16221d" stroke-miterlimit="10" stroke-width="1.5"/><path d="M108.44,264.44C94.44,272,59,294.44,54.76,315q3.65.57,7.31.9a17.89,17.89,0,0,0,6.56-.32c2.72-.8,4.94-2.74,7-4.72,10.1-9.91,17.79-22.21,28.75-31.15a64,64,0,0,1,25-12.52A77.2,77.2,0,0,0,108.44,264.44Z" fill="#f2e6d4" stroke="#16221d" stroke-miterlimit="10" stroke-width="1.5"/><path d="M108.44,264.44c-11.88-.22-24,.86-35.64-1.35-19.37-3.67-37.86-16.33-57.17-12.37a5.3,5.3,0,0,0-3.07,1.44,5.78,5.78,0,0,0-1,3.72q-.69,20.63-.44,41.26l-.67.37A109.18,109.18,0,0,0,54.77,315C59,294.45,94.4,272,108.44,264.44Z" fill="#f2e6d4" stroke="#16221d" stroke-miterlimit="10" stroke-width="1.5"/><ellipse cx="110.84" cy="269.66" rx="3.24" ry="1.69" fill="#b05232" stroke="#16221d" stroke-miterlimit="10" stroke-width="1.5"/><ellipse cx="101.04" cy="274.72" rx="3.24" ry="1.69" fill="#b05232" stroke="#16221d" stroke-miterlimit="10" stroke-width="1.5"/><ellipse cx="91.35" cy="281.32" rx="3.24" ry="1.69" fill="#b05232" stroke="#16221d" stroke-miterlimit="10" stroke-width="1.5"/><ellipse cx="82.19" cy="289.64" rx="3.24" ry="1.69" fill="#b05232" stroke="#16221d" stroke-miterlimit="10" stroke-width="1.5"/><ellipse cx="73.31" cy="297.98" rx="3.24" ry="1.69" fill="#b05232" stroke="#16221d" stroke-miterlimit="10" stroke-width="1.5"/><ellipse cx="65.33" cy="307.95" rx="3.24" ry="1.69" fill="#b05232" stroke="#16221d" stroke-miterlimit="10" stroke-width="1.5"/><path d="M433.39,145.35c-13.32.78-43.08,7.4-56.07,10.69-32.34,8.2-63,24.06-96,28.2-47.64,6-94.4-13-142.11-17-23.29-2-46.75-.42-70.13-.74-2.78,0-5.73-.15-8-1.77-2.74-1.94-3.83-5.53-4.75-8.85A906.56,906.56,0,0,0,1.14,8.88s101.93-10.65,220,6.63S387.85,1.17,387.85,1.17Z" fill="#f2e6d4" stroke="#16221d" stroke-miterlimit="10" stroke-width="1.5"/><path d="M153.49,147.6C109.82,142.05,61.63,29.66,51.92,5.94c-7.45.2-8.23.18-14.21.47C50.5,34.63,83.31,123.14,89,166.41c16.78-.23,33.57-.63,50.27.8,47.71,4.07,94.47,23,142.11,17,33-4.14,63.64-20,96-28.2,6.41-1.62,45.83-8.58,56.44-10.73-1.9-7.33-4.88-17.59-8.46-29.3C343.63,170.78,196.26,153,153.49,147.6Z" fill="#f2f2f2"/><path d="M60.48,277.09c-7.46,1.35-15,4.12-22.42,2.51s-13.37-7.53-16.88-14.28a59.84,59.84,0,0,1-5-14.71l-.6.11a5.29,5.29,0,0,0-3,1.44,5.78,5.78,0,0,0-1,3.72q-.69,20.63-.44,41.26l-.67.37A109.13,109.13,0,0,0,62.08,315.9a17.89,17.89,0,0,0,6.56-.32c2.72-.8,4.94-2.74,7-4.72,8.73-8.56,15.66-18.9,24.45-27.33A60.66,60.66,0,0,0,60.48,277.09Z" fill="#f2f2f2"/><path d="M268.28,39.72s5.37,5,35.1,0c0,0,59,16.43,99.84,14.35L413.38,81.4S347.71,81.4,268.28,39.72Z" fill="#fcc013"/><path d="M407.24,62.58,387.81,1.1S345.46,28.58,244.06,18.29C264.12,30,328.86,63.66,407.24,62.58Z" fill="#ffd377"/><path d="M418.38,97.85s-23.13,9.74-80.46,6c0,0,38.19,11.19,87.39,12.13Z" fill="#ffd377"/><path d="M48.56,60.11s57.89-7.77,86-3.76c0,0,38.49-38.92,64.25-43.88,0,0-104.49-11.37-167.08-5.77Z" fill="#ffd377"/><path d="M303.38,23.53l1.42,4.26" fill="none" stroke="#16221d" stroke-miterlimit="10" stroke-width="1.5"/><path d="M307.69,36.46c9.07,27.35,29.9,90.73,37,117.69" fill="none" stroke="#16221d" stroke-miterlimit="10" stroke-width="1.5" stroke-dasharray="9.14 9.14"/><path d="M345.82,158.58c.41,1.72.74,3.19,1,4.39" fill="none" stroke="#16221d" stroke-miterlimit="10" stroke-width="1.5"/><ellipse cx="379.87" cy="24.28" rx="4.64" ry="4.45" transform="translate(298.08 396.04) rotate(-81.25)" fill="#b05232" stroke="#16221d" stroke-miterlimit="10" stroke-width="1.5"/><ellipse cx="385.54" cy="45.92" rx="4.64" ry="4.45" transform="translate(281.51 419.99) rotate(-81.25)" fill="#b05232" stroke="#16221d" stroke-miterlimit="10" stroke-width="1.5"/><ellipse cx="390.56" cy="63.42" rx="4.64" ry="4.45" transform="translate(268.47 439.79) rotate(-81.25)" fill="#b05232" stroke="#16221d" stroke-miterlimit="10" stroke-width="1.5"/><ellipse cx="396.62" cy="82.63" rx="4.64" ry="4.45" transform="translate(254.62 462.07) rotate(-81.25)" fill="#b05232" stroke="#16221d" stroke-miterlimit="10" stroke-width="1.5"/><ellipse cx="402.86" cy="99.62" rx="4.64" ry="4.45" transform="translate(243.12 482.64) rotate(-81.25)" fill="#b05232" stroke="#16221d" stroke-miterlimit="10" stroke-width="1.5"/><ellipse cx="408.28" cy="117.68" rx="4.64" ry="4.45" transform="translate(229.86 503.3) rotate(-81.25)" fill="#b05232" stroke="#16221d" stroke-miterlimit="10" stroke-width="1.5"/><ellipse cx="413.36" cy="134.86" rx="4.64" ry="4.45" transform="translate(217.18 522.89) rotate(-81.25)" fill="#b05232" stroke="#16221d" stroke-miterlimit="10" stroke-width="1.5"/><ellipse cx="24.29" cy="23.15" rx="4.64" ry="4.45" transform="translate(-2.29 43.63) rotate(-81.25)" fill="#b05232" stroke="#16221d" stroke-miterlimit="10" stroke-width="1.5"/><ellipse cx="35.75" cy="44.78" rx="4.64" ry="4.45" transform="translate(-13.95 73.31) rotate(-81.25)" fill="#b05232" stroke="#16221d" stroke-miterlimit="10" stroke-width="1.5"/><ellipse cx="40.78" cy="62.29" rx="4.64" ry="4.45" transform="translate(-26.98 93.12) rotate(-81.25)" fill="#b05232" stroke="#16221d" stroke-miterlimit="10" stroke-width="1.5"/><ellipse cx="46.83" cy="81.49" rx="4.64" ry="4.45" transform="translate(-40.83 115.38) rotate(-81.25)" fill="#b05232" stroke="#16221d" stroke-miterlimit="10" stroke-width="1.5"/><ellipse cx="53.07" cy="98.48" rx="4.64" ry="4.45" transform="translate(-52.34 135.96) rotate(-81.25)" fill="#b05232" stroke="#16221d" stroke-miterlimit="10" stroke-width="1.5"/><ellipse cx="58.49" cy="116.55" rx="4.64" ry="4.45" transform="matrix(0.15, -0.99, 0.99, 0.15, -65.6, 156.62)" fill="#b05232" stroke="#16221d" stroke-miterlimit="10" stroke-width="1.5"/><ellipse cx="63.56" cy="133.73" rx="4.64" ry="4.45" transform="translate(-78.28 176.2) rotate(-81.25)" fill="#b05232" stroke="#16221d" stroke-miterlimit="10" stroke-width="1.5"/><path d="M47.34,48.73s36.09-41.89,44-42.79L31.72,6.7S46.14,43.82,47.34,48.73Z" fill="#fcc013"/><path d="M31.73,6.66S75,119.75,85.43,166.41" fill="none" stroke="#16221d" stroke-miterlimit="10" stroke-width="1.5"/><path d="M433.39,145.35c-13.32.78-43.08,7.4-56.07,10.69-32.34,8.2-63,24.06-96,28.2-47.64,6-94.4-13-142.11-17-23.29-2-46.75-.42-70.13-.74-2.78,0-5.73-.15-8-1.77-2.74-1.94-3.83-5.53-4.75-8.85A906.56,906.56,0,0,0,1.14,8.88s101.93-10.65,220,6.63S387.85,1.17,387.85,1.17Z" fill="none" stroke="#16221d" stroke-miterlimit="10" stroke-width="1.5"/><path d="M177.56,223.88S156.62,223,147.81,220c0,0-8,3.82-12.37,2.86,0,0,21,13.72,30.5,13.58Z" fill="#e8a390"/><path d="M194.46,195.1a103.44,103.44,0,0,1-26.14,11.23c-14.28,4.15-29.06,6.36-43.35,10.45l.13.08a6.56,6.56,0,0,1,2.31,1.1l3.12,2.06L151,232a56.28,56.28,0,0,0,14.92,4.5A117.1,117.1,0,0,0,194.46,195.1Z" fill="none" stroke="#16221d" stroke-miterlimit="10" stroke-width="1.5"/><ellipse cx="189.74" cy="213.31" rx="2.35" ry="1.22" fill="#b05232" stroke="#16221d" stroke-miterlimit="10" stroke-width="1.5"/><ellipse cx="194.46" cy="206.37" rx="2.35" ry="1.22" fill="#b05232" stroke="#16221d" stroke-miterlimit="10" stroke-width="1.5"/><path d="M197.49,197.43c1.29,0,2.35.54,2.35,1.22s-1.06,1.22-2.35,1.22-2.35-.55-2.35-1.22S196.19,197.43,197.49,197.43Z" fill="#b05232" stroke="#16221d" stroke-miterlimit="10" stroke-width="1.5"/><ellipse cx="184.63" cy="222.08" rx="2.76" ry="1.43" fill="#b05232" stroke="#16221d" stroke-miterlimit="10" stroke-width="1.5"/><ellipse cx="178.64" cy="229.45" rx="3.24" ry="1.69" fill="#b05232" stroke="#16221d" stroke-miterlimit="10" stroke-width="1.5"/></svg>