<svg id="Layer_1" data-name="Layer 1" xmlns="http://www.w3.org/2000/svg" width="283.89" height="176.95" viewBox="0 0 283.89 176.95">
  <defs>
    <style>
      .cls-1, .cls-2, .cls-4 {
        fill: #fcc013;
        stroke: #16221d;
        stroke-miterlimit: 10;
      }

      .cls-1, .cls-4 {
        stroke-width: 1.42px;
      }

      .cls-2 {
        stroke-width: 1.5px;
        stroke-dasharray: 10.31;
      }

      .cls-3 {
        fill: #fff;
        opacity: 0.5;
        isolation: isolate;
      }

      .cls-4 {
        stroke-dasharray: 9.76;
      }
    </style>
  </defs>
  <path class="cls-1" d="M249.39.92C137,39.2,1.22,30,1.22,30c0,67-2.07,71.48,2.14,145.7,0,0,200.8,8.69,279.72-46.32ZM236.31,21.33a3.55,3.55,0,1,1,3.55,3.55h0a3.55,3.55,0,0,1-3.55-3.55Zm4.49,15.48a3.55,3.55,0,1,1,3.56,3.54h0a3.54,3.54,0,0,1-3.54-3.54ZM245,53.41A3.55,3.55,0,1,1,248.52,57h0A3.55,3.55,0,0,1,245,53.41Zm3.55,17.5a3.55,3.55,0,1,1,3.56,3.54h0a3.54,3.54,0,0,1-3.54-3.54Zm5.54,17.42a3.55,3.55,0,1,1,3.55,3.55h0a3.55,3.55,0,0,1-3.55-3.55ZM261.61,108a3.55,3.55,0,1,1,3.54-3.56h0a3.56,3.56,0,0,1-3.54,3.55ZM268,127.5A3.55,3.55,0,1,1,271.5,124h0A3.55,3.55,0,0,1,268,127.5ZM7.81,47.15a3.55,3.55,0,1,1,2.78,4.18h0a3.53,3.53,0,0,1-2.78-4.16ZM9.14,63.21a3.55,3.55,0,1,1,2.78,4.18h0a3.53,3.53,0,0,1-2.77-4.17ZM10,80.31a3.55,3.55,0,1,1,2.77,4.19A3.55,3.55,0,0,1,10,80.31Zm0,17.85a3.55,3.55,0,1,1,2.78,4.18h0A3.54,3.54,0,0,1,10,98.18v0Zm2,18.18a3.55,3.55,0,1,1,2.8,4.16h0a3.54,3.54,0,0,1-2.78-4.16Zm3.5,20.79a3.54,3.54,0,1,1,4.18-2.77,3.54,3.54,0,0,1-4.18,2.77h0ZM17.8,157.5A3.55,3.55,0,1,1,22,154.72h0a3.53,3.53,0,0,1-4.15,2.77Z"/>
  <path class="cls-2" d="M30.61,32.22C28.79,79.91,28.71,129.68,44,174.88"/>
  <rect class="cls-3" x="47.98" y="74.45" width="158.52" height="8.95" rx="4.47"/>
  <path class="cls-4" d="M222.08,9.14s24,110.92,38.61,132.9"/>
</svg>
