<svg xmlns="http://www.w3.org/2000/svg" width="1366" height="147.91" viewBox="0 0 1366 147.91">
  <g>
    <path d="M1146,64.54c6.34.66,7.87,1.39,13.94,3.34,8.79,2.83,17.13,6.88,25.44,10.91l30.73,14.93L1207.83,75c-6.3-14.24-12.73-29.74-9.23-44.92-19.31,2.35-43.38-1.17-60.74-10,0,13.13,4.83,29.26,8.14,44.45" fill="#f2e6d4" stroke="#16221d" stroke-miterlimit="10" stroke-width="1.5"/>
    <path d="M1159.26,44.07A46.4,46.4,0,0,1,1187.86,80l28.23,13.71L1207.81,75c-6.3-14.24-12.73-29.74-9.23-44.92-19.31,2.35-43.38-1.17-60.74-10a100.14,100.14,0,0,0,2.46,19.65C1146.75,40.74,1153.22,41.75,1159.26,44.07Z" fill="#f2f2f2"/>
    <path d="M1220.51,45.22c14.94,14.14,40.76,20.31,61.07,23.56l-11.51-17.09c-1.94-2.89-4-5.84-6.82-7.81-6.84-4.68-16-2.4-24.13-.8a118.67,118.67,0,0,1-26.47,2.14,3.18,3.18,0,0,1-2.11-.59c-1.06-1-.3-2.76.5-4l6.6-10a4.43,4.43,0,0,1,1.34-1.48c1.31-.77,3,0,4.28.72L1245,42" fill="#f2e6d4" stroke="#16221d" stroke-miterlimit="10" stroke-width="1.5"/>
    <path d="M1225.84,96.71c-.09,3.56,2.34,6.65,4.76,9.28,28.92,31.35,76.09,44.5,117.07,32.64-10.57-17.27-21.36-35.15-24.28-55.19a6.28,6.28,0,0,0-.81-2.71c-1.89-2.8-6.21-.83-8.91,1.2a110.33,110.33,0,0,1-67.89,21.93c-7.17-.14-15.31-1.55-19.19-7.59" fill="#f2e6d4" stroke="#16221d" stroke-miterlimit="10" stroke-width="1.5"/>
    <path d="M1226.77,98.8c-5.56-5.49-1.86-15.6-5.08-22.71a57.24,57.24,0,0,1,44.31,26S1236.46,108.35,1226.77,98.8Z" fill="#ffd377" stroke="#16221d" stroke-miterlimit="10" stroke-width="1.5"/>
    <path d="M1336.22,141.27s-24-26.88-22.55-59.34" fill="none" stroke="#16221d" stroke-miterlimit="10"/>
    <path d="M1337.56,137.13a1.6,1.6,0,0,1-.72-.08,2.62,2.62,0,0,1-1.89-2.71,2.28,2.28,0,0,1,1.24-1.56,3.21,3.21,0,0,1,2-.23,2.42,2.42,0,0,1,1.77,1.13C1341.73,136.88,1337.77,137.1,1337.56,137.13Z" fill="#16221d"/>
    <path d="M1333.37,130.79a1.51,1.51,0,0,1-.73-.09,2.62,2.62,0,0,1-1.89-2.71,2.26,2.26,0,0,1,1.24-1.55,3.2,3.2,0,0,1,2-.24,2.43,2.43,0,0,1,1.76,1.13C1337.53,130.54,1333.57,130.75,1333.37,130.79Z" fill="#16221d"/>
    <path d="M1328.82,122.85a1.48,1.48,0,0,1-.72-.09,2.59,2.59,0,0,1-1.89-2.7,2.26,2.26,0,0,1,1.24-1.56,3.21,3.21,0,0,1,2-.23,2.45,2.45,0,0,1,1.77,1.13C1333,122.6,1329,122.82,1328.82,122.85Z" fill="#16221d"/>
    <path d="M1324.81,113.91a1.63,1.63,0,0,1-.73-.08,2.61,2.61,0,0,1-1.88-2.71,2.26,2.26,0,0,1,1.23-1.56,3.36,3.36,0,0,1,2-.23,2.5,2.5,0,0,1,1.77,1.13C1329,113.66,1325,113.88,1324.81,113.91Z" fill="#16221d"/>
    <path d="M1322.06,105.76a1.63,1.63,0,0,1-.73-.08,2.61,2.61,0,0,1-1.88-2.71,2.26,2.26,0,0,1,1.23-1.56,3.36,3.36,0,0,1,2-.23,2.45,2.45,0,0,1,1.77,1.13C1326.22,105.51,1322.26,105.73,1322.06,105.76Z" fill="#16221d"/>
    <path d="M1319.31,97.22a1.6,1.6,0,0,1-.72-.08,2.6,2.6,0,0,1-1.89-2.71,2.26,2.26,0,0,1,1.24-1.56,3.21,3.21,0,0,1,2-.23,2.45,2.45,0,0,1,1.77,1.13C1323.47,97,1319.51,97.22,1319.31,97.22Z" fill="#16221d"/>
    <path d="M1318.06,89.22a1.6,1.6,0,0,1-.72-.08,2.62,2.62,0,0,1-1.89-2.71,2.26,2.26,0,0,1,1.24-1.56,3.21,3.21,0,0,1,2-.23,2.45,2.45,0,0,1,1.77,1.13C1322.23,88.92,1318.26,89.14,1318.06,89.22Z" fill="#16221d"/>
  </g>
</svg>
