<svg xmlns="http://www.w3.org/2000/svg" viewBox="0 0 1367 227.37">
  <g>
    <g>
      <rect x="1181.39" y="55.02" width="39.22" height="9.46" rx="4.73" transform="translate(572.34 1084.81) rotate(-61.33)" fill="#fcc013" stroke="#16221d" stroke-miterlimit="10" stroke-width="1.5"/>
      <rect x="1182.18" y="53.98" width="25.19" height="4.73" rx="2.36" transform="translate(572.09 1077.58) rotate(-61.33)" fill="#16221d" stroke="#16221d" stroke-miterlimit="10" stroke-width="1.5"/>
      <path d="M1175.31,45.69a10.62,10.62,0,1,0,14.41-4.22A10.62,10.62,0,0,0,1175.31,45.69Zm15.9,8.7a7.5,7.5,0,1,1-3-10.19A7.5,7.5,0,0,1,1191.21,54.39Z" fill="#16221d" stroke="#16221d" stroke-miterlimit="10" stroke-width="1.5"/>
      <circle cx="1298.56" cy="113.36" r="111.06" fill="#fcc013" stroke="#16221d" stroke-miterlimit="10" stroke-width="1.5"/>
      <circle cx="1293" cy="111.03" r="93.1" fill="#e29c00" stroke="#16221d" stroke-miterlimit="10" stroke-width="1.5"/>
      <circle cx="1292.79" cy="110.69" r="89.01" fill="#fff" stroke="#16221d" stroke-miterlimit="10" stroke-width="1.5"/>
      <circle cx="1293" cy="111.03" r="5.61" fill="#16221d" stroke="#16221d" stroke-miterlimit="10" stroke-width="1.5"/>
      <circle cx="1293" cy="111.03" r="3.97" fill="#16221d" stroke="#16221d" stroke-miterlimit="10" stroke-width="1.5"/>
      <g>
        <rect x="1230.11" y="71.95" width="2.88" height="10.96" rx="1.44" transform="translate(572.72 1120.82) rotate(-61.33)" fill="#16221d" stroke="#16221d" stroke-miterlimit="10" stroke-width="1.5"/>
        <rect x="1353.01" y="139.15" width="2.88" height="10.96" rx="1.44" transform="translate(2131.21 -974.33) rotate(118.67)" fill="#16221d" stroke="#16221d" stroke-miterlimit="10" stroke-width="1.5"/>
      </g>
      <g>
        <rect x="1221.54" y="107.17" width="2.88" height="10.96" rx="1.44" transform="translate(1138.7 1337.92) rotate(-91.33)" fill="#16221d" stroke="#16221d" stroke-miterlimit="10" stroke-width="1.5"/>
        <rect x="1361.58" y="103.93" width="2.88" height="10.96" rx="1.44" transform="translate(1440.81 -1255.78) rotate(88.67)" fill="#16221d" stroke="#16221d" stroke-miterlimit="10" stroke-width="1.5"/>
      </g>
      <g>
        <rect x="1231.73" y="141.96" width="2.88" height="10.96" rx="1.44" transform="translate(1748.39 1277.49) rotate(-121.33)" fill="#16221d" stroke="#16221d" stroke-miterlimit="10" stroke-width="1.5"/>
        <rect x="1351.38" y="69.13" width="2.88" height="10.96" rx="1.44" transform="translate(713.18 -1119.77) rotate(58.67)" fill="#16221d" stroke="#16221d" stroke-miterlimit="10" stroke-width="1.5"/>
      </g>
      <g>
        <rect x="1257.95" y="167" width="2.88" height="10.96" rx="1.44" transform="translate(2281.6 928.07) rotate(-151.33)" fill="#16221d" stroke="#16221d" stroke-miterlimit="10" stroke-width="1.5"/>
        <rect x="1325.16" y="44.1" width="2.88" height="10.96" rx="1.44" transform="translate(186.46 -630.42) rotate(28.67)" fill="#16221d" stroke="#16221d" stroke-miterlimit="10" stroke-width="1.5"/>
      </g>
      <g>
        <rect x="1293.18" y="175.57" width="2.88" height="10.96" rx="1.44" transform="matrix(-1, 0.02, -0.02, -1, 2593.09, 332.05)" fill="#16221d" stroke="#16221d" stroke-miterlimit="10" stroke-width="1.5"/>
        <rect x="1289.94" y="35.53" width="2.88" height="10.96" rx="1.44" transform="translate(-0.6 29.94) rotate(-1.33)" fill="#16221d" stroke="#16221d" stroke-miterlimit="10" stroke-width="1.5"/>
      </g>
      <g>
        <rect x="1327.97" y="165.37" width="2.88" height="10.96" rx="1.44" transform="translate(2553.84 -374.4) rotate(148.67)" fill="#16221d" stroke="#16221d" stroke-miterlimit="10" stroke-width="1.5"/>
        <rect x="1255.14" y="45.72" width="2.88" height="10.96" rx="1.44" transform="translate(156.58 660.81) rotate(-31.33)" fill="#16221d" stroke="#16221d" stroke-miterlimit="10" stroke-width="1.5"/>
      </g>
      <path d="M1259.67,14.58s52.66-21.07,104.49,15.11" fill="none" stroke="#fff" stroke-miterlimit="10" stroke-width="1.5"/>
      <path d="M1284.36,221.68s56.08,13.2,101.6-53.56" fill="none" stroke="#fff" stroke-miterlimit="10" stroke-width="1.5"/>
      <g>
        <path d="M1258.49,93.84a3.43,3.43,0,0,1-3,3.2c-5.93-7.28-11.8-3.89-11.8-3.89l-1.39-3.44-33-7.81a.73.73,0,0,0-.46,1.38L1240,96.65l3.17-1.94s2.7,6.22,11.79,3.89a3.43,3.43,0,0,1,.5,4.35c-1.55,2.46-2.7,8.18,4.41,9.63s7.48-5.11,4.58-5.33-2.41,2.78-2.41,2.78-4.73.07-5-3.3,3.24-5.18,5.52-4.42,5.32,2.79,6.13,5.29c0,0,4.87-3.5,5.63-2.63s10.87,10.54,20.54,6.77l0-.11.44-1.34,0-.11c-5.54-8.78-19.43-7-20.55-6.77s-3-5.46-3-5.46c-2.14,1.52-5.8,1.35-8.08.6s-4.08-4.32-1.81-6.84,6,.36,6,.36-2.18,2.1.28,3.65,6-3.94-.52-7S1258.7,90.94,1258.49,93.84Zm25.87,11.57c2.37.79,4,2.26,3.67,3.29s-2.54,1.23-4.91.45-4-2.25-3.67-3.28S1282,104.63,1284.36,105.41Zm-32-8.47c-.24.71-2,.78-4,.14s-3.31-1.74-3.08-2.46,2-.79,3.94-.15S1252.63,96.22,1252.4,96.94Z" fill="#16221d"/>
        <line x1="1213.96" y1="84.21" x2="1240.34" y2="91.04" fill="none" stroke="#fff" stroke-miterlimit="10"/>
      </g>
      <g>
        <path d="M1303.68,78.91a2.79,2.79,0,0,1-3-2c5-5.71,1.56-10,1.56-10l2.58-1.57-.19-17a.59.59,0,0,0-1.16-.19L1299,64.47l2,2.28s-4.63,3-1.56,10a2.79,2.79,0,0,1-3.42,1c-2.18-.92-6.92-1.08-7.14,4.81s5.08,5.32,4.87,3-2.54-1.56-2.54-1.56-.68-3.79,2-4.49a3.53,3.53,0,0,1,4.28,3.84c-.31,1.93-1.54,4.64-3.44,5.62,0,0,3.45,3.44,2.85,4.16s-7,10.11-2.72,17.37l.1,0,1.13.17.09,0c6.32-5.6,3.07-16.51,2.72-17.37s4-3.1,4-3.1c-1.5-1.51-1.85-4.47-1.55-6.39a3.53,3.53,0,0,1,5.25-2.36c2.32,1.49.51,4.88.51,4.88s-2-1.47-2.9.71,4,4.34,5.55-1.34S1306,78.7,1303.68,78.91Zm-5.87,22.27c-.31,2-1.27,3.52-2.14,3.39s-1.33-1.88-1-3.88,1.28-3.52,2.15-3.38S1298.13,99.18,1297.81,101.18Zm2.58-26.75c-.6-.09-.89-1.5-.63-3.14s1-2.89,1.56-2.8.9,1.51.64,3.15S1301,74.53,1300.39,74.43Z" fill="#16221d"/>
        <line x1="1303.44" y1="52.42" x2="1303.53" y2="63.99" fill="none" stroke="#fff" stroke-miterlimit="10"/>
      </g>
    </g>
    <g>
      <g>
        <g>
          <path d="M1182.2,59a10.11,10.11,0,0,1-4.43-2.8,6.76,6.76,0,0,1-1.92-3.07,2.24,2.24,0,0,1,.26-1.33c.15-.41.53-1,.84-1.58l.59-1c.2-.35.4-.7.64-1.07A10.66,10.66,0,0,1,1179.9,46a5.26,5.26,0,0,1,2.43-1.34,5,5,0,0,1,1.46-.1,5.53,5.53,0,0,1,1.51.42,7,7,0,0,1,2.84,2.32,9,9,0,0,1,1.53,3.9,7.41,7.41,0,0,1-2.17,6.66A5.56,5.56,0,0,1,1182.2,59Z" fill="#e5d3d0" stroke="#16221d" stroke-miterlimit="10" stroke-width="0.88"/>
          <path d="M1178.87,66.61a3.17,3.17,0,0,1-1.31-4,2.83,2.83,0,0,1,1.63-1.44,3.38,3.38,0,0,1,2.33,0,2.87,2.87,0,0,1,1.7,1.66,3.13,3.13,0,0,1-.13,2.5A3,3,0,0,1,1178.87,66.61Z" fill="#16221d" stroke="#16221d" stroke-miterlimit="10" stroke-width="0.88"/>
          <path d="M1182.71,47.24a5.87,5.87,0,0,0-.78.4,8.83,8.83,0,0,0-1.55,1.19,7.43,7.43,0,0,0-1.39,1.76,4.38,4.38,0,0,0-.41,1,4.68,4.68,0,0,0-.1,1.17" fill="none" stroke="#16221d" stroke-miterlimit="10" stroke-width="0.88"/>
        </g>
        <g>
          <path d="M1169.53,77.93a7.66,7.66,0,0,1-2.06-4.91,6.61,6.61,0,0,1,1.5-4.62,5.66,5.66,0,0,1,1.92-1.49,6.48,6.48,0,0,1,2.35-.68,8.06,8.06,0,0,1,5.16,1.12,6.24,6.24,0,0,1,2.93,4.51,7.45,7.45,0,0,1-.24,2.87,8,8,0,0,1-1.48,2.7,7.07,7.07,0,0,1-5.14,2.55A6.45,6.45,0,0,1,1169.53,77.93Z" fill="#e5d3d0" stroke="#16221d" stroke-miterlimit="10" stroke-width="0.88"/>
          <path d="M1163.18,83.33a3,3,0,0,1,4.69-3.9,3.05,3.05,0,1,1-4.69,3.9Z" fill="#16221d" stroke="#16221d" stroke-miterlimit="10" stroke-width="0.88"/>
          <path d="M1178.24,70.32a7.4,7.4,0,0,0-2.44-1.42,4.29,4.29,0,0,0-4.8,1.21" fill="none" stroke="#16221d" stroke-miterlimit="10" stroke-width="0.88"/>
        </g>
        <g>
          <path d="M1150.93,91.47a7.4,7.4,0,0,1-.79-5.28,7.06,7.06,0,0,1,1-2.35A6.06,6.06,0,0,1,1153,82a6.6,6.6,0,0,1,5-.93,7.42,7.42,0,0,1,4.52,2.78,6.62,6.62,0,0,1,1.27,5.21,7,7,0,0,1-3.1,4.6,7.67,7.67,0,0,1-2.69,1.09,7.11,7.11,0,0,1-2.76-.09A6.69,6.69,0,0,1,1150.93,91.47Z" fill="#e5d3d0" stroke="#16221d" stroke-miterlimit="10" stroke-width="0.88"/>
          <path d="M1143.57,95.39a3.06,3.06,0,1,1,4.15,1.35A3.07,3.07,0,0,1,1143.57,95.39Z" fill="#16221d" stroke="#16221d" stroke-miterlimit="10" stroke-width="0.88"/>
          <path d="M1161.35,86.59a7.3,7.3,0,0,0-1.86-2.14,4.26,4.26,0,0,0-5-.23" fill="none" stroke="#16221d" stroke-miterlimit="10" stroke-width="0.88"/>
        </g>
        <g>
          <path d="M1130.1,101.3a7.08,7.08,0,0,1,3.62-9,6.8,6.8,0,0,1,5.13-.08,7.37,7.37,0,0,1,3.94,3.59,6.71,6.71,0,0,1,.28,5.33,7,7,0,0,1-3.78,4A6.85,6.85,0,0,1,1130.1,101.3Z" fill="#e5d3d0" stroke="#16221d" stroke-miterlimit="10" stroke-width="0.88"/>
          <path d="M1122.27,104.16a3.05,3.05,0,1,1,5.75-2,3.05,3.05,0,1,1-5.75,2Z" fill="#16221d" stroke="#16221d" stroke-miterlimit="10" stroke-width="0.88"/>
          <path d="M1141.16,98.23a7.08,7.08,0,0,0-1.43-2.43,4.23,4.23,0,0,0-5-1.09" fill="none" stroke="#16221d" stroke-miterlimit="10" stroke-width="0.88"/>
        </g>
        <g>
          <path d="M1108.18,108.38a7,7,0,0,1,4.66-8.56,6.94,6.94,0,0,1,5.15.54,7.2,7.2,0,0,1,3.44,4.07,6.72,6.72,0,0,1-.41,5.32,6.94,6.94,0,0,1-12.84-1.37Z" fill="#e5d3d0" stroke="#16221d" stroke-miterlimit="10" stroke-width="0.88"/>
          <path d="M1100.08,110.39A3.05,3.05,0,1,1,1106,109a3,3,0,0,1-2.23,3.73A3.06,3.06,0,0,1,1100.08,110.39Z" fill="#16221d" stroke="#16221d" stroke-miterlimit="10" stroke-width="0.88"/>
          <path d="M1119.51,106.65a7,7,0,0,0-1.11-2.59,4.27,4.27,0,0,0-4.8-1.7" fill="none" stroke="#16221d" stroke-miterlimit="10" stroke-width="0.88"/>
        </g>
        <g>
          <path d="M1085.66,113.3a6.92,6.92,0,0,1,13.57-2.71,6.92,6.92,0,1,1-13.57,2.71Z" fill="#e5d3d0" stroke="#16221d" stroke-miterlimit="10" stroke-width="0.88"/>
          <path d="M1077.42,114.62a3.05,3.05,0,1,1,6-1,3.05,3.05,0,1,1-6,1Z" fill="#16221d" stroke="#16221d" stroke-miterlimit="10" stroke-width="0.88"/>
          <path d="M1097.09,112.61s-.45-5.57-5.48-4.82" fill="none" stroke="#16221d" stroke-miterlimit="10" stroke-width="0.88"/>
        </g>
        <g>
          <path d="M1062.82,116.42a6.92,6.92,0,1,1,7.72,6.16A7,7,0,0,1,1062.82,116.42Z" fill="#e5d3d0" stroke="#16221d" stroke-miterlimit="10" stroke-width="0.88"/>
          <path d="M1054.51,117.18a3.05,3.05,0,1,1,6.08-.54,3.05,3.05,0,1,1-6.08.54Z" fill="#16221d" stroke="#16221d" stroke-miterlimit="10" stroke-width="0.88"/>
          <path d="M1074.27,116.58s0-5.58-5.1-5.22" fill="none" stroke="#16221d" stroke-miterlimit="10" stroke-width="0.88"/>
        </g>
        <g>
          <path d="M1039.82,118a6.92,6.92,0,1,1,7.32,6.63A7,7,0,0,1,1039.82,118Z" fill="#e5d3d0" stroke="#16221d" stroke-miterlimit="10" stroke-width="0.88"/>
          <path d="M1031.49,118.31a3.05,3.05,0,1,1,3.14,3A3.06,3.06,0,0,1,1031.49,118.31Z" fill="#16221d" stroke="#16221d" stroke-miterlimit="10" stroke-width="0.88"/>
          <path d="M1051.24,118.93s.35-5.59-4.76-5.54" fill="none" stroke="#16221d" stroke-miterlimit="10" stroke-width="0.88"/>
        </g>
        <g>
          <path d="M1016.77,118.41a7,7,0,0,1,2.06-4.91,6.8,6.8,0,0,1,4.82-2.06,7,7,0,0,1,7,6.89,6.94,6.94,0,0,1-11.83,5A7,7,0,0,1,1016.77,118.41Z" fill="#e5d3d0" stroke="#16221d" stroke-miterlimit="10" stroke-width="0.88"/>
          <path d="M1008.43,118.27a3.1,3.1,0,0,1,3.12-3,3.08,3.08,0,1,1-3.12,3Z" fill="#16221d" stroke="#16221d" stroke-miterlimit="10" stroke-width="0.88"/>
          <path d="M1028.12,119.91s.67-5.54-4.45-5.82" fill="none" stroke="#16221d" stroke-miterlimit="10" stroke-width="0.88"/>
        </g>
        <g>
          <path d="M993.73,117.66a6.92,6.92,0,1,1,6.63,7.31A7,7,0,0,1,993.73,117.66Z" fill="#e5d3d0" stroke="#16221d" stroke-miterlimit="10" stroke-width="0.88"/>
          <path d="M985.41,117.16a3.05,3.05,0,1,1,6.09.38,3.05,3.05,0,1,1-6.09-.38Z" fill="#16221d" stroke="#16221d" stroke-miterlimit="10" stroke-width="0.88"/>
          <path d="M1005,119.67s.93-5.51-4.18-6" fill="none" stroke="#16221d" stroke-miterlimit="10" stroke-width="0.88"/>
        </g>
        <g>
          <path d="M970.74,116a6.92,6.92,0,1,1,6.32,7.57A7,7,0,0,1,970.74,116Z" fill="#e5d3d0" stroke="#16221d" stroke-miterlimit="10" stroke-width="0.88"/>
          <path d="M962.44,115.14a3.06,3.06,0,0,1,3.35-2.74,3.09,3.09,0,0,1,2.72,3.37,3,3,0,0,1-3.35,2.76A3.08,3.08,0,0,1,962.44,115.14Z" fill="#16221d" stroke="#16221d" stroke-miterlimit="10" stroke-width="0.88"/>
          <path d="M981.91,118.43s1.16-5.47-3.93-6.15" fill="none" stroke="#16221d" stroke-miterlimit="10" stroke-width="0.88"/>
        </g>
        <g>
          <path d="M947.83,113.42a6.92,6.92,0,1,1,6,7.79A6.94,6.94,0,0,1,947.83,113.42Z" fill="#e5d3d0" stroke="#16221d" stroke-miterlimit="10" stroke-width="0.88"/>
          <path d="M939.56,112.31a3.07,3.07,0,0,1,3.44-2.63,3.1,3.1,0,0,1,2.61,3.47,3.05,3.05,0,1,1-6.05-.84Z" fill="#16221d" stroke="#16221d" stroke-miterlimit="10" stroke-width="0.88"/>
          <path d="M958.9,116.29a7,7,0,0,0,.05-2.83A4.21,4.21,0,0,0,955.2,110" fill="none" stroke="#16221d" stroke-miterlimit="10" stroke-width="0.88"/>
        </g>
        <g>
          <path d="M925,110.12a6.92,6.92,0,1,1,5.79,8A6.94,6.94,0,0,1,925,110.12Z" fill="#e5d3d0" stroke="#16221d" stroke-miterlimit="10" stroke-width="0.88"/>
          <path d="M916.78,108.75a3.05,3.05,0,1,1,2.5,3.57A3.09,3.09,0,0,1,916.78,108.75Z" fill="#16221d" stroke="#16221d" stroke-miterlimit="10" stroke-width="0.88"/>
          <path d="M936,113.34s1.54-5.37-3.5-6.42" fill="none" stroke="#16221d" stroke-miterlimit="10" stroke-width="0.88"/>
        </g>
        <g>
          <path d="M902.3,106.14a6.92,6.92,0,1,1,5.56,8.14A7,7,0,0,1,902.3,106.14Z" fill="#e5d3d0" stroke="#16221d" stroke-miterlimit="10" stroke-width="0.88"/>
          <path d="M894.11,104.56a3.1,3.1,0,0,1,3.59-2.44,3.08,3.08,0,1,1-3.59,2.44Z" fill="#16221d" stroke="#16221d" stroke-miterlimit="10" stroke-width="0.88"/>
          <path d="M913.18,109.67s1.7-5.33-3.31-6.51" fill="none" stroke="#16221d" stroke-miterlimit="10" stroke-width="0.88"/>
        </g>
        <g>
          <path d="M879.71,101.55a6.92,6.92,0,1,1,13.54,2.83,6.92,6.92,0,1,1-13.54-2.83Z" fill="#e5d3d0" stroke="#16221d" stroke-miterlimit="10" stroke-width="0.88"/>
          <path d="M871.56,99.75a3.05,3.05,0,1,1,6,1.32,3.05,3.05,0,1,1-6-1.32Z" fill="#16221d" stroke="#16221d" stroke-miterlimit="10" stroke-width="0.88"/>
          <path d="M890.49,105.36s1.85-5.28-3.13-6.61" fill="none" stroke="#16221d" stroke-miterlimit="10" stroke-width="0.88"/>
        </g>
        <g>
          <path d="M857.23,96.4a6.92,6.92,0,1,1,13.48,3.16,6.92,6.92,0,1,1-13.48-3.16Z" fill="#e5d3d0" stroke="#16221d" stroke-miterlimit="10" stroke-width="0.88"/>
          <path d="M849.13,94.41a3.06,3.06,0,0,1,3.7-2.25,3.1,3.1,0,0,1,2.23,3.73,3,3,0,0,1-3.7,2.25A3.08,3.08,0,0,1,849.13,94.41Z" fill="#16221d" stroke="#16221d" stroke-miterlimit="10" stroke-width="0.88"/>
          <path d="M867.91,100.5s2-5.23-3-6.71" fill="none" stroke="#16221d" stroke-miterlimit="10" stroke-width="0.88"/>
        </g>
        <g>
          <path d="M834.88,90.74a6.92,6.92,0,1,1,5,8.52A7,7,0,0,1,834.88,90.74Z" fill="#e5d3d0" stroke="#16221d" stroke-miterlimit="10" stroke-width="0.88"/>
          <path d="M826.82,88.59a3.05,3.05,0,1,1,5.9,1.57,3.05,3.05,0,1,1-5.9-1.57Z" fill="#16221d" stroke="#16221d" stroke-miterlimit="10" stroke-width="0.88"/>
          <path d="M845.47,95.05s2.1-5.19-2.82-6.74" fill="none" stroke="#16221d" stroke-miterlimit="10" stroke-width="0.88"/>
        </g>
        <g>
          <path d="M812.65,84.63a6.92,6.92,0,1,1,4.78,8.59A7,7,0,0,1,812.65,84.63Z" fill="#e5d3d0" stroke="#16221d" stroke-miterlimit="10" stroke-width="0.88"/>
          <path d="M804.64,82.29a3.06,3.06,0,1,1,2.07,3.82A3.07,3.07,0,0,1,804.64,82.29Z" fill="#16221d" stroke="#16221d" stroke-miterlimit="10" stroke-width="0.88"/>
          <path d="M823.15,89.16s2.21-5.14-2.67-6.82" fill="none" stroke="#16221d" stroke-miterlimit="10" stroke-width="0.88"/>
        </g>
        <g>
          <path d="M790.55,78.07a6.92,6.92,0,1,1,4.61,8.7A7,7,0,0,1,790.55,78.07Z" fill="#e5d3d0" stroke="#16221d" stroke-miterlimit="10" stroke-width="0.88"/>
          <path d="M782.58,75.6a3.05,3.05,0,1,1,2,3.84A3.07,3.07,0,0,1,782.58,75.6Z" fill="#16221d" stroke="#16221d" stroke-miterlimit="10" stroke-width="0.88"/>
          <path d="M801,82.79s2.31-5.1-2.55-6.84" fill="none" stroke="#16221d" stroke-miterlimit="10" stroke-width="0.88"/>
        </g>
        <g>
          <path d="M768.57,71.12A6.92,6.92,0,1,1,773,79.89,7,7,0,0,1,768.57,71.12Z" fill="#e5d3d0" stroke="#16221d" stroke-miterlimit="10" stroke-width="0.88"/>
          <path d="M760.64,68.52a3.05,3.05,0,1,1,5.8,1.91,3.05,3.05,0,1,1-5.8-1.91Z" fill="#16221d" stroke="#16221d" stroke-miterlimit="10" stroke-width="0.88"/>
          <path d="M778.89,76.05s2.39-5.06-2.42-6.92" fill="none" stroke="#16221d" stroke-miterlimit="10" stroke-width="0.88"/>
        </g>
        <g>
          <path d="M746.69,63.83a6.92,6.92,0,1,1,13.12,4.41,6.92,6.92,0,1,1-13.12-4.41Z" fill="#e5d3d0" stroke="#16221d" stroke-miterlimit="10" stroke-width="0.88"/>
          <path d="M738.76,61.24a3.06,3.06,0,1,1,5.81,1.9,3.06,3.06,0,1,1-5.81-1.9Z" fill="#16221d" stroke="#16221d" stroke-miterlimit="10" stroke-width="0.88"/>
          <path d="M757,68.88s2.48-5-2.31-6.94" fill="none" stroke="#16221d" stroke-miterlimit="10" stroke-width="0.88"/>
        </g>
        <g>
          <path d="M724.67,57a6.92,6.92,0,1,1,13.26,4,7,7,0,0,1-3.39,4.08,6.86,6.86,0,0,1-5.21.6A7,7,0,0,1,724.67,57Z" fill="#e5d3d0" stroke="#16221d" stroke-miterlimit="10" stroke-width="0.88"/>
          <path d="M716.6,54.9a3.05,3.05,0,1,1,5.91,1.54,3.05,3.05,0,1,1-5.91-1.54Z" fill="#16221d" stroke="#16221d" stroke-miterlimit="10" stroke-width="0.88"/>
          <path d="M735.09,61.65s2.39-5.08-2.55-6.84" fill="none" stroke="#16221d" stroke-miterlimit="10" stroke-width="0.88"/>
        </g>
        <g>
          <path d="M702.28,51.51a6.92,6.92,0,1,1,13.47,3.17,6.92,6.92,0,1,1-13.47-3.17Z" fill="#e5d3d0" stroke="#16221d" stroke-miterlimit="10" stroke-width="0.88"/>
          <path d="M694.1,49.89a3.05,3.05,0,1,1,6,1.19,3.05,3.05,0,1,1-6-1.19Z" fill="#16221d" stroke="#16221d" stroke-miterlimit="10" stroke-width="0.88"/>
          <path d="M713,55.52s2.09-5.21-3-6.67" fill="none" stroke="#16221d" stroke-miterlimit="10" stroke-width="0.88"/>
        </g>
        <g>
          <path d="M679.6,47.39a6.86,6.86,0,0,1,8-5.76,6.85,6.85,0,0,1,5.64,8.09,7,7,0,0,1-2.88,4.46,6.77,6.77,0,0,1-5.1,1.21A7,7,0,0,1,679.6,47.39Z" fill="#e5d3d0" stroke="#16221d" stroke-miterlimit="10" stroke-width="0.88"/>
          <path d="M671.34,46.22a3.05,3.05,0,1,1,6,.85,3.08,3.08,0,0,1-3.45,2.63A3.12,3.12,0,0,1,671.34,46.22Z" fill="#16221d" stroke="#16221d" stroke-miterlimit="10" stroke-width="0.88"/>
          <path d="M690.5,50.74s1.77-5.32-3.35-6.49" fill="none" stroke="#16221d" stroke-miterlimit="10" stroke-width="0.88"/>
        </g>
        <g>
          <path d="M656.72,44.61a6.92,6.92,0,1,1,13.75,1.49,6.92,6.92,0,1,1-13.75-1.49Z" fill="#e5d3d0" stroke="#16221d" stroke-miterlimit="10" stroke-width="0.88"/>
          <path d="M648.4,43.92a3.05,3.05,0,1,1,2.81,3.29A3.06,3.06,0,0,1,648.4,43.92Z" fill="#16221d" stroke="#16221d" stroke-miterlimit="10" stroke-width="0.88"/>
          <path d="M667.8,47.32s1.44-5.42-3.73-6.31" fill="none" stroke="#16221d" stroke-miterlimit="10" stroke-width="0.88"/>
        </g>
        <g>
          <path d="M633.71,43.14a6.92,6.92,0,1,1,6.55,7.25A7,7,0,0,1,633.71,43.14Z" fill="#e5d3d0" stroke="#16221d" stroke-miterlimit="10" stroke-width="0.88"/>
          <path d="M625.37,42.92a3.07,3.07,0,0,1,3.13-3,3,3,0,0,1,3,3.14,3.11,3.11,0,0,1-3.13,3A3.07,3.07,0,0,1,625.37,42.92Z" fill="#16221d" stroke="#16221d" stroke-miterlimit="10" stroke-width="0.88"/>
          <path d="M644.93,45.22s1.13-5.48-4.08-6.12" fill="none" stroke="#16221d" stroke-miterlimit="10" stroke-width="0.88"/>
        </g>
        <g>
          <path d="M610.66,42.9a6.92,6.92,0,1,1,13.84,0,7,7,0,0,1-6.92,6.93,6.8,6.8,0,0,1-4.84-2A7,7,0,0,1,610.66,42.9Z" fill="#e5d3d0" stroke="#16221d" stroke-miterlimit="10" stroke-width="0.88"/>
          <path d="M602.32,43.1a3.05,3.05,0,1,1,3.13,3A3.09,3.09,0,0,1,602.32,43.1Z" fill="#16221d" stroke="#16221d" stroke-miterlimit="10" stroke-width="0.88"/>
          <path d="M622,44.37s.84-5.56-4.39-5.84" fill="none" stroke="#16221d" stroke-miterlimit="10" stroke-width="0.88"/>
        </g>
        <g>
          <path d="M587.62,43.78a6.92,6.92,0,1,1,7.24,6.59A6.94,6.94,0,0,1,587.62,43.78Z" fill="#e5d3d0" stroke="#16221d" stroke-miterlimit="10" stroke-width="0.88"/>
          <path d="M579.3,44.33a3.05,3.05,0,1,1,3.26,2.87A3.09,3.09,0,0,1,579.3,44.33Z" fill="#16221d" stroke="#16221d" stroke-miterlimit="10" stroke-width="0.88"/>
          <path d="M599,44.74s.57-5.58-4.66-5.66" fill="none" stroke="#16221d" stroke-miterlimit="10" stroke-width="0.88"/>
        </g>
        <g>
          <path d="M564.64,45.57a6.92,6.92,0,1,1,7.48,6.34A6.93,6.93,0,0,1,564.64,45.57Z" fill="#e5d3d0" stroke="#16221d" stroke-miterlimit="10" stroke-width="0.88"/>
          <path d="M556.34,46.39a3.05,3.05,0,1,1,3.34,2.76A3.06,3.06,0,0,1,556.34,46.39Z" fill="#16221d" stroke="#16221d" stroke-miterlimit="10" stroke-width="0.88"/>
          <path d="M576,46.11s.34-5.59-4.88-5.46" fill="none" stroke="#16221d" stroke-miterlimit="10" stroke-width="0.88"/>
        </g>
        <g>
          <path d="M541.71,48a6.91,6.91,0,1,1,7.62,6.19A6.95,6.95,0,0,1,541.71,48Z" fill="#e5d3d0" stroke="#16221d" stroke-miterlimit="10" stroke-width="0.88"/>
          <path d="M533.41,48.85a3.05,3.05,0,1,1,3.37,2.73A3.08,3.08,0,0,1,533.41,48.85Z" fill="#16221d" stroke="#16221d" stroke-miterlimit="10" stroke-width="0.88"/>
          <path d="M553.12,48.25s.19-5.6-5-5.35" fill="none" stroke="#16221d" stroke-miterlimit="10" stroke-width="0.88"/>
        </g>
        <g>
          <path d="M518.77,50.3a6.92,6.92,0,1,1,7.58,6.3A6.92,6.92,0,0,1,518.77,50.3Z" fill="#e5d3d0" stroke="#16221d" stroke-miterlimit="10" stroke-width="0.88"/>
          <path d="M510.45,50.94a3.05,3.05,0,1,1,6.09-.44,3.05,3.05,0,1,1-6.09.44Z" fill="#16221d" stroke="#16221d" stroke-miterlimit="10" stroke-width="0.88"/>
          <path d="M530.2,50.72s.17-5.58-5-5.37" fill="none" stroke="#16221d" stroke-miterlimit="10" stroke-width="0.88"/>
        </g>
        <g>
          <path d="M495.75,51.23a7.45,7.45,0,0,1,2.11-4.9,6.73,6.73,0,0,1,2.1-1.46,6.54,6.54,0,0,1,2.57-.59,6.46,6.46,0,0,1,2.59.49,6.78,6.78,0,0,1,2.2,1.39A7.17,7.17,0,0,1,509.58,51a6.79,6.79,0,0,1-1.79,5,7.23,7.23,0,0,1-2.2,1.61,7,7,0,0,1-7.91-1.42A6.6,6.6,0,0,1,495.75,51.23Z" fill="#e5d3d0" stroke="#16221d" stroke-miterlimit="10" stroke-width="0.88"/>
          <path d="M487.44,50.49a3.05,3.05,0,0,1,6.07.61,3.05,3.05,0,1,1-6.07-.61Z" fill="#16221d" stroke="#16221d" stroke-miterlimit="10" stroke-width="0.88"/>
          <path d="M507.14,52.63a7.34,7.34,0,0,0-.39-2.8,4.27,4.27,0,0,0-4.17-2.9" fill="none" stroke="#16221d" stroke-miterlimit="10" stroke-width="0.88"/>
        </g>
      </g>
      <path d="M479.19,45A12.79,12.79,0,1,0,492,57.76,12.79,12.79,0,0,0,479.19,45Zm0,22.41a9.63,9.63,0,1,1,9.62-9.62A9.62,9.62,0,0,1,479.19,67.38Z" fill="#16221d"/>
      <path d="M471.52,65.53a10.9,10.9,0,0,1-1.23-14.11" fill="none" stroke="#666" stroke-miterlimit="10" stroke-width="0.5"/>
      <path d="M479.74,46.84a10.93,10.93,0,0,1-.55,21.84" fill="none" stroke="#666" stroke-miterlimit="10" stroke-width="0.5"/>
    </g>
  </g>
</svg>
