<svg xmlns="http://www.w3.org/2000/svg" xmlns:xlink="http://www.w3.org/1999/xlink" viewBox="0 0 801.88 81.41"><defs><clipPath id="clip-path"><polygon points="57.33 19.13 0.75 80.66 156.09 80.66 206.36 21.17 57.33 19.13" fill="none"/></clipPath><clipPath id="clip-path-2"><path d="M78.93,25.57C58,27.68,39.77,37.94,17.67,36.35c-30-2.15-52.12-9.41-81.45,3.54C-66.37,41-69,42.38-70.59,44.68s-1.78,5.29-1.75,8.08c.08,8.61,1.88,17.39,6.58,24.71C-54.84,94.48-35.3,93-17.35,90.4-.44,87.91,15,95.22,31.48,96.52,49.66,97.94,64.05,91,81.42,87.2c15.39-3.36,46.26,4.7,54.05-12.74C147.14,48.32,124.05,32,100.11,26.72A66,66,0,0,0,78.93,25.57Z" fill="none"/></clipPath></defs><g id="Layer_1" data-name="Layer 1"><polyline points="923.56 -418.4 923.56 392.15 704.12 598.51" fill="none" stroke="#16221d" stroke-miterlimit="10" stroke-width="1.5"/><polygon points="58.33 19.13 0.75 80.66 801.13 80.66 744.18 19.13 58.33 19.13" fill="#16221d"/><rect x="58.33" y="0.75" width="685.85" height="18.38" stroke-width="1.5" stroke="#16221d" stroke-linecap="round" stroke-linejoin="round" fill="#5e2a15"/><polygon points="744.18 0.75 801.13 62.28 801.13 80.66 744.18 19.13 744.18 0.75" fill="#5e2a15" stroke="#16221d" stroke-linecap="round" stroke-linejoin="round" stroke-width="1.5"/><polygon points="58.33 0.75 0.75 62.28 0.75 80.66 58.33 19.13 58.33 0.75" fill="#5e2a15" stroke="#16221d" stroke-linecap="round" stroke-linejoin="round" stroke-width="1.5"/><g clip-path="url(#clip-path)"><g clip-path="url(#clip-path-2)"><path d="M78.93,25.57C58,27.68,39.77,37.94,17.67,36.35c-30-2.15-52.12-9.41-81.45,3.54C-66.37,41-69,42.38-70.59,44.68s-1.78,5.29-1.75,8.08c.08,8.61,1.88,17.39,6.58,24.71C-54.84,94.48-35.3,93-17.35,90.4-.44,87.91,15,95.22,31.48,96.52,49.66,97.94,64.05,91,81.42,87.2c15.39-3.36,46.26,4.7,54.05-12.74C147.14,48.32,124.05,32,100.11,26.72A66,66,0,0,0,78.93,25.57Z" fill="#f2e6d4" stroke="#16221d" stroke-miterlimit="10" stroke-width="1.38"/><path d="M137,52.17s-7,24.75-40.43,21.46a42.17,42.17,0,0,1-22.23-9.42c-6.22-5-16.66-10.76-29.18-6.86a30.4,30.4,0,0,0-12.74,8.06c-6.79,7.11-31.86,26-98.19,12.06,0,0,1.7,24.06,5.46,24.85S59.34,110,59.34,110H159.73Z" fill="#fbc8a2"/></g><path d="M78.93,25.57C58,27.68,39.77,37.94,17.67,36.35c-30-2.15-52.12-9.41-81.45,3.54C-66.37,41-69,42.38-70.59,44.68s-1.78,5.29-1.75,8.08c.08,8.61,1.88,17.39,6.58,24.71C-54.84,94.48-35.3,93-17.35,90.4-.44,87.91,15,95.22,31.48,96.52,49.66,97.94,64.05,91,81.42,87.2c15.39-3.36,46.26,4.7,54.05-12.74C147.14,48.32,124.05,32,100.11,26.72A66,66,0,0,0,78.93,25.57Z" fill="none" stroke="#16221d" stroke-miterlimit="10" stroke-width="1.38"/></g></g></svg>